<svg width="56" height="29" viewBox="0 0 56 29" fill="none" xmlns="http://www.w3.org/2000/svg">
<rect x="0.5" y="1" width="55" height="27" rx="4.5" fill="white" stroke="#5E5E5E"/>
<path d="M10.3871 17.5225V15.999L14.9721 8.89453H17.3451V15.9551H18.7367V17.5225H17.3451V19.5H15.5287V17.5225H10.3871ZM12.3354 15.9551H15.558V11.0625H15.4408L12.3354 15.8818V15.9551ZM23.8413 19.6465C21.2925 19.6465 19.769 17.6689 19.769 14.1973C19.769 10.7402 21.2925 8.74805 23.8413 8.74805C26.3755 8.74805 27.9136 10.7402 27.9136 14.1973C27.9136 17.6689 26.3901 19.6465 23.8413 19.6465ZM23.8413 18.0498C25.1743 18.0498 25.9946 16.7461 25.9946 14.1973C25.9946 11.6631 25.1597 10.3301 23.8413 10.3301C22.5229 10.3301 21.688 11.6631 21.688 14.1973C21.688 16.7461 22.5083 18.0498 23.8413 18.0498Z" fill="black"/>
<g clip-path="url(#clip0_37_7622)">
<path d="M41 21.7438C45.6944 21.7438 49.5 18.3095 49.5 14.0731C49.5 9.83665 45.6944 6.40234 41 6.40234C36.3056 6.40234 32.5 9.83665 32.5 14.0731C32.5 18.3095 36.3056 21.7438 41 21.7438Z" fill="#F4900C"/>
<path d="M41 20.8415C45.6944 20.8415 49.5 17.4072 49.5 13.1707C49.5 8.9343 45.6944 5.5 41 5.5C36.3056 5.5 32.5 8.9343 32.5 13.1707C32.5 17.4072 36.3056 20.8415 41 20.8415Z" fill="#FFCC4D"/>
<path d="M41 19.9391C44.866 19.9391 48 17.1108 48 13.622C48 10.1332 44.866 7.30493 41 7.30493C37.134 7.30493 34 10.1332 34 13.622C34 17.1108 37.134 19.9391 41 19.9391Z" fill="#FFE8B6"/>
<path d="M41 19.4879C44.866 19.4879 48 16.6597 48 13.1708C48 9.68201 44.866 6.85376 41 6.85376C37.134 6.85376 34 9.68201 34 13.1708C34 16.6597 37.134 19.4879 41 19.4879Z" fill="#FFAC33"/>
<path d="M36.7715 10.3986C36.7715 10.1526 37.039 10.0543 37.039 10.0543L40.978 8.38477L44.9545 10.0543C44.9545 10.0543 45.2285 10.1093 45.2285 10.4004V10.6896H36.7715V10.3986Z" fill="#FFE8B6"/>
<path d="M44.9637 11.2919C44.9637 11.0284 44.7112 10.8149 44.4002 10.8149H37.5637C37.2522 10.8149 37.0352 11.0284 37.0352 11.2919C37.0352 11.471 37.1372 11.6253 37.2997 11.707V12.0075H38.3567V11.7688H39.4137V12.0075H40.4707V11.7688H41.5277V12.0075H42.5847V11.7688H43.6417V12.0075H44.6992V11.6948C44.8577 11.61 44.9637 11.4615 44.9637 11.2919ZM45.7562 16.3293C45.7562 16.4242 45.7144 16.5152 45.6401 16.5823C45.5657 16.6494 45.4648 16.6871 45.3597 16.6871H36.6387C36.5335 16.6871 36.4327 16.6494 36.3583 16.5823C36.284 16.5152 36.2422 16.4242 36.2422 16.3293C36.2422 16.2344 36.284 16.1434 36.3583 16.0763C36.4327 16.0092 36.5335 15.9715 36.6387 15.9715H45.3602C45.5787 15.9715 45.7562 16.1317 45.7562 16.3293Z" fill="#F4900C"/>
<path d="M45.2288 11.0048C45.2287 11.0681 45.2008 11.1287 45.1512 11.1735C45.1016 11.2182 45.0344 11.2434 44.9643 11.2435H37.0358C36.9685 11.2398 36.9053 11.213 36.8591 11.1686C36.8128 11.1243 36.7871 11.0657 36.7871 11.0048C36.7871 10.9439 36.8128 10.8853 36.8591 10.841C36.9053 10.7966 36.9685 10.7699 37.0358 10.7661L44.9643 10.7675C44.999 10.7673 45.0333 10.7734 45.0654 10.7853C45.0974 10.7971 45.1266 10.8146 45.1511 10.8366C45.1757 10.8587 45.1952 10.8849 45.2085 10.9137C45.2219 10.9426 45.2288 10.9735 45.2288 11.0048ZM38.0933 11.2819H43.9078V11.817H38.0933V11.2819Z" fill="#F4900C"/>
<path d="M38.3563 14.8984C38.3563 15.1619 38.1983 15.3754 38.0038 15.3754H37.6513C37.4568 15.3754 37.2988 15.1619 37.2988 14.8984V11.2824C37.2988 11.0188 37.4568 10.8054 37.6513 10.8054H38.0038C38.1983 10.8054 38.3563 11.0188 38.3563 11.2824V14.8984ZM44.6993 14.8984C44.6993 15.1619 44.5418 15.3754 44.3468 15.3754H43.9943C43.7998 15.3754 43.6418 15.1619 43.6418 14.8984V11.2824C43.6418 11.0188 43.7993 10.8054 43.9943 10.8054H44.3468C44.5413 10.8054 44.6993 11.0188 44.6993 11.2824V14.8984ZM40.4708 14.8984C40.4708 15.1619 40.3128 15.3754 40.1183 15.3754H39.7658C39.5713 15.3754 39.4133 15.1619 39.4133 14.8984V11.2824C39.4133 11.0188 39.5713 10.8054 39.7658 10.8054H40.1183C40.3128 10.8054 40.4708 11.0188 40.4708 11.2824V14.8984ZM42.5848 14.8984C42.5848 15.1619 42.4268 15.3754 42.2323 15.3754H41.8803C41.6858 15.3754 41.5278 15.1619 41.5278 14.8984V11.2824C41.5278 11.0188 41.6858 10.8054 41.8803 10.8054H42.2323C42.4268 10.8054 42.5848 11.0188 42.5848 11.2824V14.8984Z" fill="#FFD983"/>
<path d="M44.9637 15.1366C44.9637 15.4001 44.7272 15.6135 44.4352 15.6135H37.5637C37.4235 15.6135 37.2891 15.5633 37.19 15.4739C37.0908 15.3844 37.0352 15.2631 37.0352 15.1366C37.0352 15.0101 37.0908 14.8888 37.19 14.7994C37.2891 14.7099 37.4235 14.6597 37.5637 14.6597H44.4352C44.7267 14.6597 44.9637 14.8731 44.9637 15.1366Z" fill="#FFCC4D"/>
<path d="M45.4938 15.6137C45.4938 15.8772 45.2573 16.0906 44.9653 16.0906H37.0363C36.8961 16.0906 36.7617 16.0403 36.6626 15.9509C36.5635 15.8615 36.5078 15.7401 36.5078 15.6137C36.5078 15.4872 36.5635 15.3659 36.6626 15.2764C36.7617 15.187 36.8961 15.1367 37.0363 15.1367H44.9648C45.2568 15.1367 45.4938 15.3501 45.4938 15.6137Z" fill="#FFD983"/>
<path d="M44.9637 11.0436C44.9637 10.7801 44.7112 10.5667 44.4002 10.5667H37.5637C37.2522 10.5667 37.0352 10.7801 37.0352 11.0436C37.0352 11.2227 37.1372 11.377 37.2997 11.4587V11.7592H38.3567V11.5205H39.4137V11.7592H40.4707V11.5205H41.5277V11.7592H42.5847V11.5205H43.6417V11.7592H44.6992V11.4465C44.8577 11.3617 44.9637 11.2132 44.9637 11.0436Z" fill="#FFCC4D"/>
<path d="M36.7715 10.6722C36.7715 10.4263 37.039 10.328 37.039 10.328L40.978 8.65845L44.9545 10.328C44.9545 10.328 45.2285 10.383 45.2285 10.674V10.8053H36.7715V10.6722Z" fill="#FFD983"/>
<path d="M40.9995 9.2644C40.9995 9.2644 38.272 10.4245 38 10.5292C37.7275 10.6334 37.8185 10.8049 38.0005 10.8049H43.9855C44.2665 10.8049 44.2 10.6113 43.977 10.5066C43.754 10.4024 40.9995 9.2644 40.9995 9.2644Z" fill="#FFAC33"/>
<path d="M45.2288 10.8051C45.2287 10.8684 45.2008 10.929 45.1512 10.9738C45.1016 11.0185 45.0344 11.0437 44.9643 11.0438H37.0358C36.9685 11.0401 36.9053 11.0133 36.8591 10.9689C36.8128 10.9246 36.7871 10.866 36.7871 10.8051C36.7871 10.7442 36.8128 10.6856 36.8591 10.6413C36.9053 10.5969 36.9685 10.5701 37.0358 10.5664L44.9643 10.5678C44.999 10.5676 45.0333 10.5737 45.0654 10.5856C45.0974 10.5974 45.1266 10.6149 45.1511 10.6369C45.1757 10.659 45.1952 10.6852 45.2085 10.714C45.2219 10.7429 45.2288 10.7738 45.2288 10.8051Z" fill="#FFD983"/>
</g>
<defs>
<clipPath id="clip0_37_7622">
<rect x="32" y="5.5" width="18" height="16.2439" rx="8.12195" fill="white"/>
</clipPath>
</defs>
</svg>
