<svg width="57" height="29" viewBox="0 0 57 29" fill="none" xmlns="http://www.w3.org/2000/svg">
<rect x="1.33203" y="1.23267" width="55" height="27" rx="4.5" fill="white" stroke="#5E5E5E"/>
<path d="M11.7319 19.7327V18.3557L15.4819 14.7375C16.5512 13.6682 17.1078 13.0383 17.1078 12.1448C17.1078 11.1633 16.3315 10.5334 15.2914 10.5334C14.1928 10.5334 13.4897 11.2219 13.5043 12.2913H11.6879C11.6733 10.2844 13.1821 8.98071 15.3061 8.98071C17.474 8.98071 18.9389 10.2698 18.9389 12.0569C18.9389 13.2581 18.3529 14.2249 16.2729 16.1877L14.3832 18.0627V18.136H19.1V19.7327H11.7319ZM24.3511 19.8792C21.8022 19.8792 20.2788 17.9016 20.2788 14.4299C20.2788 10.9729 21.8022 8.98071 24.3511 8.98071C26.8853 8.98071 28.4233 10.9729 28.4233 14.4299C28.4233 17.9016 26.8999 19.8792 24.3511 19.8792ZM24.3511 18.2825C25.6841 18.2825 26.5044 16.9788 26.5044 14.4299C26.5044 11.8958 25.6694 10.5627 24.3511 10.5627C23.0327 10.5627 22.1978 11.8958 22.1978 14.4299C22.1978 16.9788 23.0181 18.2825 24.3511 18.2825Z" fill="black"/>
<g clip-path="url(#clip0_37_7722)">
<path d="M41.832 21.9765C46.5265 21.9765 50.332 18.5422 50.332 14.3057C50.332 10.0693 46.5265 6.63501 41.832 6.63501C37.1376 6.63501 33.332 10.0693 33.332 14.3057C33.332 18.5422 37.1376 21.9765 41.832 21.9765Z" fill="#F4900C"/>
<path d="M41.832 21.0741C46.5265 21.0741 50.332 17.6398 50.332 13.4034C50.332 9.16697 46.5265 5.73267 41.832 5.73267C37.1376 5.73267 33.332 9.16697 33.332 13.4034C33.332 17.6398 37.1376 21.0741 41.832 21.0741Z" fill="#FFCC4D"/>
<path d="M41.832 20.1717C45.698 20.1717 48.832 17.3435 48.832 13.8547C48.832 10.3658 45.698 7.5376 41.832 7.5376C37.966 7.5376 34.832 10.3658 34.832 13.8547C34.832 17.3435 37.966 20.1717 41.832 20.1717Z" fill="#FFE8B6"/>
<path d="M41.832 19.7206C45.698 19.7206 48.832 16.8923 48.832 13.4035C48.832 9.91468 45.698 7.08643 41.832 7.08643C37.966 7.08643 34.832 9.91468 34.832 13.4035C34.832 16.8923 37.966 19.7206 41.832 19.7206Z" fill="#FFAC33"/>
<path d="M37.6035 10.6312C37.6035 10.3853 37.871 10.2869 37.871 10.2869L41.81 8.61743L45.7865 10.2869C45.7865 10.2869 46.0605 10.342 46.0605 10.633V10.9223H37.6035V10.6312Z" fill="#FFE8B6"/>
<path d="M45.7957 11.5245C45.7957 11.261 45.5432 11.0476 45.2322 11.0476H38.3957C38.0842 11.0476 37.8672 11.261 37.8672 11.5245C37.8672 11.7037 37.9692 11.858 38.1317 11.9397V12.2402H39.1887V12.0015H40.2457V12.2402H41.3027V12.0015H42.3597V12.2402H43.4167V12.0015H44.4737V12.2402H45.5312V11.9275C45.6897 11.8427 45.7957 11.6942 45.7957 11.5245ZM46.5882 16.562C46.5882 16.6569 46.5464 16.7479 46.4721 16.815C46.3977 16.8821 46.2969 16.9198 46.1917 16.9198H37.4707C37.3656 16.9198 37.2647 16.8821 37.1904 16.815C37.116 16.7479 37.0742 16.6569 37.0742 16.562C37.0742 16.4671 37.116 16.376 37.1904 16.3089C37.2647 16.2418 37.3656 16.2041 37.4707 16.2041H46.1922C46.4107 16.2041 46.5882 16.3643 46.5882 16.562Z" fill="#F4900C"/>
<path d="M46.0609 11.2375C46.0607 11.3007 46.0328 11.3614 45.9833 11.4061C45.9337 11.4509 45.8665 11.4761 45.7964 11.4762H37.8679C37.8005 11.4724 37.7373 11.4457 37.6911 11.4013C37.6449 11.3569 37.6191 11.2984 37.6191 11.2375C37.6191 11.1766 37.6449 11.118 37.6911 11.0736C37.7373 11.0293 37.8005 11.0025 37.8679 10.9988L45.7964 11.0001C45.831 11 45.8653 11.0061 45.8974 11.0179C45.9295 11.0298 45.9586 11.0473 45.9832 11.0693C46.0077 11.0913 46.0272 11.1175 46.0406 11.1464C46.0539 11.1753 46.0608 11.2062 46.0609 11.2375ZM38.9254 11.5145H44.7399V12.0497H38.9254V11.5145Z" fill="#F4900C"/>
<path d="M39.1884 15.1311C39.1884 15.3946 39.0304 15.608 38.8359 15.608H38.4834C38.2889 15.608 38.1309 15.3946 38.1309 15.1311V11.515C38.1309 11.2515 38.2889 11.0381 38.4834 11.0381H38.8359C39.0304 11.0381 39.1884 11.2515 39.1884 11.515V15.1311ZM45.5314 15.1311C45.5314 15.3946 45.3739 15.608 45.1789 15.608H44.8264C44.6319 15.608 44.4739 15.3946 44.4739 15.1311V11.515C44.4739 11.2515 44.6314 11.0381 44.8264 11.0381H45.1789C45.3734 11.0381 45.5314 11.2515 45.5314 11.515V15.1311ZM41.3029 15.1311C41.3029 15.3946 41.1449 15.608 40.9504 15.608H40.5979C40.4034 15.608 40.2454 15.3946 40.2454 15.1311V11.515C40.2454 11.2515 40.4034 11.0381 40.5979 11.0381H40.9504C41.1449 11.0381 41.3029 11.2515 41.3029 11.515V15.1311ZM43.4169 15.1311C43.4169 15.3946 43.2589 15.608 43.0644 15.608H42.7124C42.5179 15.608 42.3599 15.3946 42.3599 15.1311V11.515C42.3599 11.2515 42.5179 11.0381 42.7124 11.0381H43.0644C43.2589 11.0381 43.4169 11.2515 43.4169 11.515V15.1311Z" fill="#FFD983"/>
<path d="M45.7957 15.3693C45.7957 15.6328 45.5592 15.8462 45.2672 15.8462H38.3957C38.2555 15.8462 38.1211 15.796 38.022 15.7065C37.9229 15.6171 37.8672 15.4958 37.8672 15.3693C37.8672 15.2428 37.9229 15.1215 38.022 15.032C38.1211 14.9426 38.2555 14.8923 38.3957 14.8923H45.2672C45.5587 14.8923 45.7957 15.1058 45.7957 15.3693Z" fill="#FFCC4D"/>
<path d="M46.3258 15.8463C46.3258 16.1098 46.0893 16.3233 45.7973 16.3233H37.8683C37.7282 16.3233 37.5938 16.273 37.4946 16.1836C37.3955 16.0941 37.3398 15.9728 37.3398 15.8463C37.3398 15.7198 37.3955 15.5985 37.4946 15.5091C37.5938 15.4196 37.7282 15.3694 37.8683 15.3694H45.7968C46.0888 15.3694 46.3258 15.5828 46.3258 15.8463Z" fill="#FFD983"/>
<path d="M45.7957 11.2763C45.7957 11.0127 45.5432 10.7993 45.2322 10.7993H38.3957C38.0842 10.7993 37.8672 11.0127 37.8672 11.2763C37.8672 11.4554 37.9692 11.6097 38.1317 11.6914V11.9919H39.1887V11.7532H40.2457V11.9919H41.3027V11.7532H42.3597V11.9919H43.4167V11.7532H44.4737V11.9919H45.5312V11.6792C45.6897 11.5944 45.7957 11.4459 45.7957 11.2763Z" fill="#FFCC4D"/>
<path d="M37.6035 10.9049C37.6035 10.659 37.871 10.5606 37.871 10.5606L41.81 8.89111L45.7865 10.5606C45.7865 10.5606 46.0605 10.6157 46.0605 10.9067V11.038H37.6035V10.9049Z" fill="#FFD983"/>
<path d="M41.8315 9.49707C41.8315 9.49707 39.104 10.6572 38.832 10.7618C38.5595 10.8661 38.6505 11.0375 38.8325 11.0375H44.8175C45.0985 11.0375 45.032 10.844 44.809 10.7393C44.586 10.635 41.8315 9.49707 41.8315 9.49707Z" fill="#FFAC33"/>
<path d="M46.0609 11.0378C46.0607 11.101 46.0328 11.1617 45.9833 11.2064C45.9337 11.2512 45.8665 11.2763 45.7964 11.2765H37.8679C37.8005 11.2727 37.7373 11.2459 37.6911 11.2016C37.6449 11.1572 37.6191 11.0987 37.6191 11.0378C37.6191 10.9769 37.6449 10.9183 37.6911 10.8739C37.7373 10.8296 37.8005 10.8028 37.8679 10.7991L45.7964 10.8004C45.831 10.8003 45.8653 10.8064 45.8974 10.8182C45.9295 10.8301 45.9586 10.8475 45.9832 10.8696C46.0077 10.8916 46.0272 10.9178 46.0406 10.9467C46.0539 10.9756 46.0608 11.0065 46.0609 11.0378Z" fill="#FFD983"/>
</g>
<defs>
<clipPath id="clip0_37_7722">
<rect x="32.832" y="5.73267" width="18" height="16.2439" rx="8.12195" fill="white"/>
</clipPath>
</defs>
</svg>
