<svg width="57" height="29" viewBox="0 0 57 29" fill="none" xmlns="http://www.w3.org/2000/svg">
<g filter="url(#filter0_i_37_7693)">
<rect x="0.0996094" y="0.732666" width="56" height="28" rx="5" fill="#B1B1B1"/>
</g>
<path d="M10.9994 19.7327V18.3557L14.7494 14.7375C15.8188 13.6682 16.3754 13.0383 16.3754 12.1448C16.3754 11.1633 15.599 10.5334 14.559 10.5334C13.4604 10.5334 12.7572 11.2219 12.7719 12.2913H10.9555C10.9408 10.2844 12.4496 8.98071 14.5737 8.98071C16.7416 8.98071 18.2065 10.2698 18.2065 12.0569C18.2065 13.2581 17.6205 14.2249 15.5404 16.1877L13.6508 18.0627V18.136H18.3676V19.7327H10.9994ZM23.6187 19.8792C21.0698 19.8792 19.5464 17.9016 19.5464 14.4299C19.5464 10.9729 21.0698 8.98071 23.6187 8.98071C26.1528 8.98071 27.6909 10.9729 27.6909 14.4299C27.6909 17.9016 26.1675 19.8792 23.6187 19.8792ZM23.6187 18.2825C24.9517 18.2825 25.772 16.9788 25.772 14.4299C25.772 11.8958 24.937 10.5627 23.6187 10.5627C22.3003 10.5627 21.4653 11.8958 21.4653 14.4299C21.4653 16.9788 22.2856 18.2825 23.6187 18.2825Z" fill="white"/>
<g clip-path="url(#clip0_37_7693)">
<rect x="32.0996" y="5.73267" width="18" height="16.2439" rx="8.12195" fill="#B1B1B1"/>
<path d="M41.0996 21.9765C45.794 21.9765 49.5996 18.5422 49.5996 14.3057C49.5996 10.0693 45.794 6.63501 41.0996 6.63501C36.4052 6.63501 32.5996 10.0693 32.5996 14.3057C32.5996 18.5422 36.4052 21.9765 41.0996 21.9765Z" fill="#F4900C"/>
<path d="M41.0996 21.0741C45.794 21.0741 49.5996 17.6398 49.5996 13.4034C49.5996 9.16697 45.794 5.73267 41.0996 5.73267C36.4052 5.73267 32.5996 9.16697 32.5996 13.4034C32.5996 17.6398 36.4052 21.0741 41.0996 21.0741Z" fill="#FFCC4D"/>
<path d="M41.0996 20.1717C44.9656 20.1717 48.0996 17.3435 48.0996 13.8547C48.0996 10.3658 44.9656 7.5376 41.0996 7.5376C37.2336 7.5376 34.0996 10.3658 34.0996 13.8547C34.0996 17.3435 37.2336 20.1717 41.0996 20.1717Z" fill="#FFE8B6"/>
<path d="M41.0996 19.7206C44.9656 19.7206 48.0996 16.8923 48.0996 13.4035C48.0996 9.91468 44.9656 7.08643 41.0996 7.08643C37.2336 7.08643 34.0996 9.91468 34.0996 13.4035C34.0996 16.8923 37.2336 19.7206 41.0996 19.7206Z" fill="#FFAC33"/>
<path d="M36.8711 10.6312C36.8711 10.3853 37.1386 10.2869 37.1386 10.2869L41.0776 8.61743L45.0541 10.2869C45.0541 10.2869 45.3281 10.342 45.3281 10.633V10.9223H36.8711V10.6312Z" fill="#FFE8B6"/>
<path d="M45.0633 11.5245C45.0633 11.261 44.8108 11.0476 44.4998 11.0476H37.6633C37.3518 11.0476 37.1348 11.261 37.1348 11.5245C37.1348 11.7037 37.2368 11.858 37.3993 11.9397V12.2402H38.4563V12.0015H39.5133V12.2402H40.5703V12.0015H41.6273V12.2402H42.6843V12.0015H43.7413V12.2402H44.7988V11.9275C44.9573 11.8427 45.0633 11.6942 45.0633 11.5245ZM45.8558 16.562C45.8558 16.6569 45.814 16.7479 45.7397 16.815C45.6653 16.8821 45.5645 16.9198 45.4593 16.9198H36.7383C36.6331 16.9198 36.5323 16.8821 36.4579 16.815C36.3836 16.7479 36.3418 16.6569 36.3418 16.562C36.3418 16.4671 36.3836 16.376 36.4579 16.3089C36.5323 16.2418 36.6331 16.2041 36.7383 16.2041H45.4598C45.6783 16.2041 45.8558 16.3643 45.8558 16.562Z" fill="#F4900C"/>
<path d="M45.3284 11.2375C45.3283 11.3007 45.3004 11.3614 45.2508 11.4061C45.2013 11.4509 45.1341 11.4761 45.0639 11.4762H37.1354C37.0681 11.4724 37.0049 11.4457 36.9587 11.4013C36.9125 11.3569 36.8867 11.2984 36.8867 11.2375C36.8867 11.1766 36.9125 11.118 36.9587 11.0736C37.0049 11.0293 37.0681 11.0025 37.1354 10.9988L45.0639 11.0001C45.0986 11 45.1329 11.0061 45.165 11.0179C45.197 11.0298 45.2262 11.0473 45.2507 11.0693C45.2753 11.0913 45.2948 11.1175 45.3082 11.1464C45.3215 11.1753 45.3284 11.2062 45.3284 11.2375ZM38.1929 11.5145H44.0074V12.0497H38.1929V11.5145Z" fill="#F4900C"/>
<path d="M38.4559 15.1311C38.4559 15.3946 38.2979 15.608 38.1034 15.608H37.7509C37.5564 15.608 37.3984 15.3946 37.3984 15.1311V11.515C37.3984 11.2515 37.5564 11.0381 37.7509 11.0381H38.1034C38.2979 11.0381 38.4559 11.2515 38.4559 11.515V15.1311ZM44.7989 15.1311C44.7989 15.3946 44.6414 15.608 44.4464 15.608H44.0939C43.8994 15.608 43.7414 15.3946 43.7414 15.1311V11.515C43.7414 11.2515 43.8989 11.0381 44.0939 11.0381H44.4464C44.6409 11.0381 44.7989 11.2515 44.7989 11.515V15.1311ZM40.5704 15.1311C40.5704 15.3946 40.4124 15.608 40.2179 15.608H39.8654C39.6709 15.608 39.5129 15.3946 39.5129 15.1311V11.515C39.5129 11.2515 39.6709 11.0381 39.8654 11.0381H40.2179C40.4124 11.0381 40.5704 11.2515 40.5704 11.515V15.1311ZM42.6844 15.1311C42.6844 15.3946 42.5264 15.608 42.3319 15.608H41.9799C41.7854 15.608 41.6274 15.3946 41.6274 15.1311V11.515C41.6274 11.2515 41.7854 11.0381 41.9799 11.0381H42.3319C42.5264 11.0381 42.6844 11.2515 42.6844 11.515V15.1311Z" fill="#FFD983"/>
<path d="M45.0633 15.3693C45.0633 15.6328 44.8268 15.8462 44.5348 15.8462H37.6633C37.5231 15.8462 37.3887 15.796 37.2896 15.7065C37.1904 15.6171 37.1348 15.4958 37.1348 15.3693C37.1348 15.2428 37.1904 15.1215 37.2896 15.032C37.3887 14.9426 37.5231 14.8923 37.6633 14.8923H44.5348C44.8263 14.8923 45.0633 15.1058 45.0633 15.3693Z" fill="#FFCC4D"/>
<path d="M45.5934 15.8463C45.5934 16.1098 45.3569 16.3233 45.0649 16.3233H37.1359C36.9958 16.3233 36.8613 16.273 36.7622 16.1836C36.6631 16.0941 36.6074 15.9728 36.6074 15.8463C36.6074 15.7198 36.6631 15.5985 36.7622 15.5091C36.8613 15.4196 36.9958 15.3694 37.1359 15.3694H45.0644C45.3564 15.3694 45.5934 15.5828 45.5934 15.8463Z" fill="#FFD983"/>
<path d="M45.0633 11.2763C45.0633 11.0127 44.8108 10.7993 44.4998 10.7993H37.6633C37.3518 10.7993 37.1348 11.0127 37.1348 11.2763C37.1348 11.4554 37.2368 11.6097 37.3993 11.6914V11.9919H38.4563V11.7532H39.5133V11.9919H40.5703V11.7532H41.6273V11.9919H42.6843V11.7532H43.7413V11.9919H44.7988V11.6792C44.9573 11.5944 45.0633 11.4459 45.0633 11.2763Z" fill="#FFCC4D"/>
<path d="M36.8711 10.9049C36.8711 10.659 37.1386 10.5606 37.1386 10.5606L41.0776 8.89111L45.0541 10.5606C45.0541 10.5606 45.3281 10.6157 45.3281 10.9067V11.038H36.8711V10.9049Z" fill="#FFD983"/>
<path d="M41.0991 9.49707C41.0991 9.49707 38.3716 10.6572 38.0996 10.7618C37.8271 10.8661 37.9181 11.0375 38.1001 11.0375H44.0851C44.3661 11.0375 44.2996 10.844 44.0766 10.7393C43.8536 10.635 41.0991 9.49707 41.0991 9.49707Z" fill="#FFAC33"/>
<path d="M45.3284 11.0378C45.3283 11.101 45.3004 11.1617 45.2508 11.2064C45.2013 11.2512 45.1341 11.2763 45.0639 11.2765H37.1354C37.0681 11.2727 37.0049 11.2459 36.9587 11.2016C36.9125 11.1572 36.8867 11.0987 36.8867 11.0378C36.8867 10.9769 36.9125 10.9183 36.9587 10.8739C37.0049 10.8296 37.0681 10.8028 37.1354 10.7991L45.0639 10.8004C45.0986 10.8003 45.1329 10.8064 45.165 10.8182C45.197 10.8301 45.2262 10.8475 45.2507 10.8696C45.2753 10.8916 45.2948 10.9178 45.3082 10.9467C45.3215 10.9756 45.3284 11.0065 45.3284 11.0378Z" fill="#FFD983"/>
</g>
<defs>
<filter id="filter0_i_37_7693" x="0.0996094" y="-3.26733" width="56" height="32" filterUnits="userSpaceOnUse" color-interpolation-filters="sRGB">
<feFlood flood-opacity="0" result="BackgroundImageFix"/>
<feBlend mode="normal" in="SourceGraphic" in2="BackgroundImageFix" result="shape"/>
<feColorMatrix in="SourceAlpha" type="matrix" values="0 0 0 0 0 0 0 0 0 0 0 0 0 0 0 0 0 0 127 0" result="hardAlpha"/>
<feOffset dy="-24"/>
<feGaussianBlur stdDeviation="2"/>
<feComposite in2="hardAlpha" operator="arithmetic" k2="-1" k3="1"/>
<feColorMatrix type="matrix" values="0 0 0 0 0 0 0 0 0 0 0 0 0 0 0 0 0 0 0.25 0"/>
<feBlend mode="normal" in2="shape" result="effect1_innerShadow_37_7693"/>
</filter>
<clipPath id="clip0_37_7693">
<rect x="32.0996" y="5.73267" width="18" height="16.2439" rx="8.12195" fill="white"/>
</clipPath>
</defs>
</svg>
