<svg xmlns="http://www.w3.org/2000/svg" width="26" height="26" viewBox="0 0 26 26" fill="none">
  <g filter="url(#filter0_i_804_27922)">
    <path d="M26 12.9999C26 20.1796 20.1797 25.9999 13 25.9999C5.8203 25.9999 0 20.1796 0 12.9999C0 5.82022 5.8203 -7.77496e-05 13 -7.77496e-05C20.1797 -7.77496e-05 26 5.82022 26 12.9999Z" fill="#61D8FF"/>
  </g>
  <path d="M11.2025 15.2891L17.4369 9.15465C17.5841 9.00988 17.7557 8.9375 17.9519 8.9375C18.148 8.9375 18.3197 9.00988 18.4668 9.15465C18.6139 9.29942 18.6875 9.47133 18.6875 9.67038C18.6875 9.86943 18.6139 10.0413 18.4668 10.1861L11.7174 16.8454C11.5703 16.9901 11.3987 17.0625 11.2025 17.0625C11.0063 17.0625 10.8347 16.9901 10.6876 16.8454L7.52436 13.7329C7.37724 13.5881 7.30674 13.4162 7.31287 13.2171C7.319 13.0181 7.39563 12.8462 7.54275 12.7014C7.68988 12.5567 7.86459 12.4843 8.06689 12.4843C8.26918 12.4843 8.44389 12.5567 8.59102 12.7014L11.2025 15.2891Z" fill="#FAFEFF"/>
  <defs>
    <filter id="filter0_i_804_27922" x="0" y="-2.00009" width="26" height="28" filterUnits="userSpaceOnUse" color-interpolation-filters="sRGB">
      <feFlood flood-opacity="0" result="BackgroundImageFix"/>
      <feBlend mode="normal" in="SourceGraphic" in2="BackgroundImageFix" result="shape"/>
      <feColorMatrix in="SourceAlpha" type="matrix" values="0 0 0 0 0 0 0 0 0 0 0 0 0 0 0 0 0 0 127 0" result="hardAlpha"/>
      <feOffset dy="-2"/>
      <feGaussianBlur stdDeviation="2"/>
      <feComposite in2="hardAlpha" operator="arithmetic" k2="-1" k3="1"/>
      <feColorMatrix type="matrix" values="0 0 0 0 0 0 0 0 0 0 0 0 0 0 0 0 0 0 0.25 0"/>
      <feBlend mode="normal" in2="shape" result="effect1_innerShadow_804_27922"/>
    </filter>
  </defs>
</svg>