<svg width="19" height="20" viewBox="0 0 19 20" fill="none" xmlns="http://www.w3.org/2000/svg">
<path d="M2.375 9.64642C2.375 10.5821 2.55929 11.5086 2.91736 12.373C3.27542 13.2375 3.80025 14.0229 4.46186 14.6846C5.12348 15.3462 5.90894 15.871 6.77338 16.2291C7.63783 16.5871 8.56433 16.7714 9.5 16.7714C10.4357 16.7714 11.3622 16.5871 12.2266 16.2291C13.0911 15.871 13.8765 15.3462 14.5381 14.6846C15.1998 14.0229 15.7246 13.2375 16.0826 12.373C16.4407 11.5086 16.625 10.5821 16.625 9.64642C16.625 8.71076 16.4407 7.78425 16.0826 6.9198C15.7246 6.05536 15.1998 5.26991 14.5381 4.60829C13.8765 3.94667 13.0911 3.42185 12.2266 3.06378C11.3622 2.70572 10.4357 2.52142 9.5 2.52142C8.56433 2.52142 7.63783 2.70572 6.77338 3.06378C5.90894 3.42185 5.12348 3.94667 4.46186 4.60829C3.80025 5.26991 3.27542 6.05536 2.91736 6.9198C2.55929 7.78425 2.375 8.71076 2.375 9.64642Z" stroke="#FAFAFA" stroke-width="1.5" stroke-linecap="round" stroke-linejoin="round"/>
<path d="M11.7167 7.27144C11.5733 7.02267 11.3649 6.81758 11.1139 6.67813C10.8629 6.53868 10.5787 6.47012 10.2917 6.47978H8.70833C8.28841 6.47978 7.88568 6.64659 7.58875 6.94352C7.29182 7.24046 7.125 7.64318 7.125 8.06311C7.125 8.48304 7.29182 8.88576 7.58875 9.1827C7.88568 9.47963 8.28841 9.64644 8.70833 9.64644H10.2917C10.7116 9.64644 11.1143 9.81326 11.4113 10.1102C11.7082 10.4071 11.875 10.8099 11.875 11.2298C11.875 11.6497 11.7082 12.0524 11.4113 12.3494C11.1143 12.6463 10.7116 12.8131 10.2917 12.8131H8.70833C8.42135 12.8228 8.13714 12.7542 7.88612 12.6148C7.63511 12.4753 7.42674 12.2702 7.28333 12.0214M9.5 5.68811V13.6048" stroke="#FAFAFA" stroke-width="1.5" stroke-linecap="round" stroke-linejoin="round"/>
</svg>
