<svg xmlns="http://www.w3.org/2000/svg" width="18" height="19" viewBox="0 0 18 19" fill="none">
  <mask id="mask0_1077_10890" style="mask-type:alpha" maskUnits="userSpaceOnUse" x="0" y="0" width="18" height="19">
    <rect y="0.5" width="18" height="18" fill="#D9D9D9"/>
  </mask>
  <g mask="url(#mask0_1077_10890)">
    <path d="M9 17C7.9625 17 6.9875 16.8031 6.075 16.4094C5.1625 16.0156 4.36875 15.4813 3.69375 14.8063C3.01875 14.1313 2.48438 13.3375 2.09063 12.425C1.69687 11.5125 1.5 10.5375 1.5 9.5C1.5 8.4625 1.69687 7.4875 2.09063 6.575C2.48438 5.6625 3.01875 4.86875 3.69375 4.19375C4.36875 3.51875 5.1625 2.98438 6.075 2.59063C6.9875 2.19687 7.9625 2 9 2C10.0375 2 11.0125 2.19687 11.925 2.59063C12.8375 2.98438 13.6313 3.51875 14.3063 4.19375C14.9813 4.86875 15.5156 5.6625 15.9094 6.575C16.3031 7.4875 16.5 8.4625 16.5 9.5C16.5 10.5375 16.3031 11.5125 15.9094 12.425C15.5156 13.3375 14.9813 14.1313 14.3063 14.8063C13.6313 15.4813 12.8375 16.0156 11.925 16.4094C11.0125 16.8031 10.0375 17 9 17ZM8.98125 14.75C9.15625 14.75 9.30938 14.6844 9.44063 14.5531C9.57188 14.4219 9.6375 14.2688 9.6375 14.0938V13.8125C10.2625 13.7 10.8 13.4563 11.25 13.0813C11.7 12.7063 11.925 12.15 11.925 11.4125C11.925 10.8875 11.775 10.4062 11.475 9.96875C11.175 9.53125 10.575 9.15 9.675 8.825C8.925 8.575 8.40625 8.35625 8.11875 8.16875C7.83125 7.98125 7.6875 7.725 7.6875 7.4C7.6875 7.075 7.80313 6.81875 8.03438 6.63125C8.26563 6.44375 8.6 6.35 9.0375 6.35C9.2875 6.35 9.50625 6.39375 9.69375 6.48125C9.88125 6.56875 10.0375 6.6875 10.1625 6.8375C10.2875 6.9875 10.4281 7.09063 10.5844 7.14688C10.7406 7.20312 10.8875 7.2 11.025 7.1375C11.2125 7.0625 11.3406 6.93438 11.4094 6.75313C11.4781 6.57188 11.4625 6.40625 11.3625 6.25625C11.1625 5.96875 10.9156 5.725 10.6219 5.525C10.3281 5.325 10.0125 5.2125 9.675 5.1875V4.90625C9.675 4.73125 9.60938 4.57812 9.47812 4.44688C9.34687 4.31562 9.19375 4.25 9.01875 4.25C8.84375 4.25 8.69063 4.31562 8.55938 4.44688C8.42813 4.57812 8.3625 4.73125 8.3625 4.90625V5.1875C7.7375 5.325 7.25 5.6 6.9 6.0125C6.55 6.425 6.375 6.8875 6.375 7.4C6.375 7.9875 6.54688 8.4625 6.89062 8.825C7.23438 9.1875 7.775 9.5 8.5125 9.7625C9.3 10.05 9.84688 10.3062 10.1531 10.5312C10.4594 10.7563 10.6125 11.05 10.6125 11.4125C10.6125 11.825 10.4656 12.1281 10.1719 12.3219C9.87813 12.5156 9.525 12.6125 9.1125 12.6125C8.7875 12.6125 8.49375 12.5344 8.23125 12.3781C7.96875 12.2219 7.75 11.9875 7.575 11.675C7.475 11.5 7.34375 11.3813 7.18125 11.3188C7.01875 11.2563 6.85625 11.2563 6.69375 11.3188C6.51875 11.3813 6.39062 11.5 6.30937 11.675C6.22813 11.85 6.225 12.0188 6.3 12.1812C6.5 12.6062 6.76875 12.9531 7.10625 13.2219C7.44375 13.4906 7.85 13.675 8.325 13.775V14.0938C8.325 14.2688 8.39062 14.4219 8.52188 14.5531C8.65313 14.6844 8.80625 14.75 8.98125 14.75Z" fill="#004961"/>
  </g>
</svg>