<svg xmlns="http://www.w3.org/2000/svg" width="21" height="21" viewBox="0 0 21 21" fill="none">
  <circle cx="10.5" cy="10.5" r="10.5" fill="#4C4C4C"/>
  <circle cx="10.5" cy="10.5" r="8.5" fill="#D9D9D9"/>
  <path d="M10.1221 4.09049C10.2464 3.73181 10.7536 3.73181 10.8779 4.09049L12.2029 7.91336C12.2587 8.07439 12.4104 8.18237 12.5808 8.18237H16.8107C17.2044 8.18237 17.3612 8.69133 17.0358 8.91297L13.6592 11.2129C13.5099 11.3146 13.4473 11.5038 13.5064 11.6745L14.8065 15.4257C14.9327 15.7897 14.5218 16.1041 14.2034 15.8872L10.7252 13.5181C10.5893 13.4256 10.4107 13.4256 10.2748 13.5181L6.79663 15.8872C6.47821 16.1041 6.06734 15.7897 6.19351 15.4256L7.49358 11.6745C7.55274 11.5038 7.49014 11.3146 7.34082 11.2129L3.96417 8.91297C3.63877 8.69133 3.79564 8.18237 4.18935 8.18237H8.41918C8.5896 8.18237 8.74131 8.07439 8.79712 7.91336L10.1221 4.09049Z" fill="#454545"/>
</svg>