<svg xmlns="http://www.w3.org/2000/svg" width="20" height="20" viewBox="0 0 20 20" fill="none">
  <mask id="mask0_2_736" style="mask-type:alpha" maskUnits="userSpaceOnUse" x="0" y="0" width="20" height="20">
    <rect width="20" height="20" fill="#D9D9D9"/>
  </mask>
  <g mask="url(#mask0_2_736)">
    <path d="M4.75646 17.5833C4.38132 17.5833 4.06424 17.4514 3.80521 17.1875C3.54619 16.9236 3.41667 16.609 3.41667 16.2435V5.75645C3.41667 5.39103 3.54619 5.07638 3.80521 4.81249C4.06424 4.5486 4.38132 4.41666 4.75646 4.41666H6.57688V2.87812C6.57688 2.71909 6.62966 2.58638 6.73521 2.47999C6.84077 2.37374 6.97244 2.32062 7.13021 2.32062C7.28813 2.32062 7.42126 2.37374 7.52959 2.47999C7.63806 2.58638 7.6923 2.71909 7.6923 2.87812V4.41666H12.3398V2.86228C12.3398 2.70853 12.3912 2.57978 12.494 2.47603C12.5969 2.37242 12.7246 2.32062 12.8771 2.32062C13.0296 2.32062 13.1587 2.37242 13.2644 2.47603C13.3702 2.57978 13.4231 2.70853 13.4231 2.86228V4.41666H15.2435C15.6187 4.41666 15.9358 4.5486 16.1948 4.81249C16.4538 5.07638 16.5833 5.39103 16.5833 5.75645V16.2435C16.5833 16.609 16.4538 16.9236 16.1948 17.1875C15.9358 17.4514 15.6187 17.5833 15.2435 17.5833H4.75646ZM4.75646 16.5H15.2435C15.3077 16.5 15.3665 16.4733 15.4198 16.4198C15.4733 16.3665 15.5 16.3077 15.5 16.2435V9.25645H4.50001V16.2435C4.50001 16.3077 4.52674 16.3665 4.58021 16.4198C4.63355 16.4733 4.6923 16.5 4.75646 16.5ZM10.0044 12.0642C9.82521 12.0642 9.6707 12.0007 9.54084 11.8737C9.41112 11.7469 9.34626 11.5939 9.34626 11.4146C9.34626 11.2354 9.40966 11.0809 9.53646 10.951C9.66341 10.8213 9.81646 10.7565 9.99563 10.7565C10.1748 10.7565 10.3293 10.8199 10.4592 10.9467C10.5889 11.0736 10.6538 11.2267 10.6538 11.4058C10.6538 11.5851 10.5904 11.7396 10.4635 11.8694C10.3366 11.9992 10.1835 12.0642 10.0044 12.0642ZM6.75438 12.0642C6.57521 12.0642 6.4207 12.0007 6.29084 11.8737C6.16112 11.7469 6.09626 11.5939 6.09626 11.4146C6.09626 11.2354 6.15966 11.0809 6.28646 10.951C6.41341 10.8213 6.56646 10.7565 6.74563 10.7565C6.9248 10.7565 7.07931 10.8199 7.20917 10.9467C7.33889 11.0736 7.40376 11.2267 7.40376 11.4058C7.40376 11.5851 7.34035 11.7396 7.21355 11.8694C7.0866 11.9992 6.93355 12.0642 6.75438 12.0642ZM13.2544 12.0642C13.0752 12.0642 12.9207 12.0007 12.7908 11.8737C12.6611 11.7469 12.5963 11.5939 12.5963 11.4146C12.5963 11.2354 12.6597 11.0809 12.7865 10.951C12.9134 10.8213 13.0665 10.7565 13.2456 10.7565C13.4248 10.7565 13.5793 10.8199 13.7092 10.9467C13.8389 11.0736 13.9038 11.2267 13.9038 11.4058C13.9038 11.5851 13.8404 11.7396 13.7135 11.8694C13.5866 11.9992 13.4335 12.0642 13.2544 12.0642ZM10.0044 15C9.82521 15 9.6707 14.9365 9.54084 14.8096C9.41112 14.6828 9.34626 14.5298 9.34626 14.3506C9.34626 14.1713 9.40966 14.0168 9.53646 13.8871C9.66341 13.7572 9.81646 13.6923 9.99563 13.6923C10.1748 13.6923 10.3293 13.7558 10.4592 13.8827C10.5889 14.0095 10.6538 14.1626 10.6538 14.3419C10.6538 14.521 10.5904 14.6755 10.4635 14.8052C10.3366 14.9351 10.1835 15 10.0044 15ZM6.75438 15C6.57521 15 6.4207 14.9365 6.29084 14.8096C6.16112 14.6828 6.09626 14.5298 6.09626 14.3506C6.09626 14.1713 6.15966 14.0168 6.28646 13.8871C6.41341 13.7572 6.56646 13.6923 6.74563 13.6923C6.9248 13.6923 7.07931 13.7558 7.20917 13.8827C7.33889 14.0095 7.40376 14.1626 7.40376 14.3419C7.40376 14.521 7.34035 14.6755 7.21355 14.8052C7.0866 14.9351 6.93355 15 6.75438 15ZM13.2544 15C13.0752 15 12.9207 14.9365 12.7908 14.8096C12.6611 14.6828 12.5963 14.5298 12.5963 14.3506C12.5963 14.1713 12.6597 14.0168 12.7865 13.8871C12.9134 13.7572 13.0665 13.6923 13.2456 13.6923C13.4248 13.6923 13.5793 13.7558 13.7092 13.8827C13.8389 14.0095 13.9038 14.1626 13.9038 14.3419C13.9038 14.521 13.8404 14.6755 13.7135 14.8052C13.5866 14.9351 13.4335 15 13.2544 15Z" fill="#5E5E5E"/>
  </g>
</svg>