<svg xmlns="http://www.w3.org/2000/svg" width="18" height="19" viewBox="0 0 18 19" fill="none">
  <mask id="mask0_1116_10884" style="mask-type:alpha" maskUnits="userSpaceOnUse" x="0" y="0" width="18" height="19">
    <rect y="0.5" width="18" height="18" fill="#D9D9D9"/>
  </mask>
  <g mask="url(#mask0_1116_10884)">
    <path d="M4.28101 16.3251C3.94338 16.3251 3.65801 16.2063 3.42488 15.9688C3.19176 15.7313 3.0752 15.4481 3.0752 15.1192V5.68087C3.0752 5.352 3.19176 5.06881 3.42488 4.83131C3.65801 4.59381 3.94338 4.47506 4.28101 4.47506H5.91938V3.09037C5.91938 2.94725 5.96688 2.82781 6.06188 2.73206C6.15688 2.63643 6.27538 2.58862 6.41738 2.58862C6.55951 2.58862 6.67932 2.63643 6.77682 2.73206C6.87445 2.82781 6.92326 2.94725 6.92326 3.09037V4.47506H11.106V3.07612C11.106 2.93775 11.1523 2.82187 11.2448 2.7285C11.3374 2.63525 11.4523 2.58862 11.5896 2.58862C11.7268 2.58862 11.843 2.63525 11.9381 2.7285C12.0334 2.82187 12.081 2.93775 12.081 3.07612V4.47506H13.7194C14.057 4.47506 14.3424 4.59381 14.5755 4.83131C14.8086 5.06881 14.9252 5.352 14.9252 5.68087V15.1192C14.9252 15.4481 14.8086 15.7313 14.5755 15.9688C14.3424 16.2063 14.057 16.3251 13.7194 16.3251H4.28101ZM4.28101 15.3501H13.7194C13.7771 15.3501 13.83 15.326 13.878 15.2779C13.9261 15.2299 13.9502 15.177 13.9502 15.1192V8.83087H4.0502V15.1192C4.0502 15.177 4.07426 15.2299 4.12238 15.2779C4.17038 15.326 4.22326 15.3501 4.28101 15.3501ZM9.00413 11.3578C8.84288 11.3578 8.70382 11.3007 8.58695 11.1864C8.4702 11.0723 8.41182 10.9346 8.41182 10.7732C8.41182 10.6119 8.46888 10.4729 8.58301 10.356C8.69726 10.2392 8.83501 10.1809 8.99626 10.1809C9.15751 10.1809 9.29657 10.2379 9.41345 10.3521C9.5302 10.4663 9.58857 10.6041 9.58857 10.7653C9.58857 10.9267 9.53151 11.0657 9.41738 11.1825C9.30313 11.2994 9.16538 11.3578 9.00413 11.3578ZM6.07913 11.3578C5.91788 11.3578 5.77882 11.3007 5.66195 11.1864C5.5452 11.0723 5.48682 10.9346 5.48682 10.7732C5.48682 10.6119 5.54388 10.4729 5.65801 10.356C5.77226 10.2392 5.91001 10.1809 6.07126 10.1809C6.23251 10.1809 6.37157 10.2379 6.48845 10.3521C6.6052 10.4663 6.66357 10.6041 6.66357 10.7653C6.66357 10.9267 6.60651 11.0657 6.49238 11.1825C6.37813 11.2994 6.24038 11.3578 6.07913 11.3578ZM11.9291 11.3578C11.7679 11.3578 11.6288 11.3007 11.5119 11.1864C11.3952 11.0723 11.3368 10.9346 11.3368 10.7732C11.3368 10.6119 11.3939 10.4729 11.508 10.356C11.6223 10.2392 11.76 10.1809 11.9213 10.1809C12.0825 10.1809 12.2216 10.2379 12.3384 10.3521C12.4552 10.4663 12.5136 10.6041 12.5136 10.7653C12.5136 10.9267 12.4565 11.0657 12.3424 11.1825C12.2281 11.2994 12.0904 11.3578 11.9291 11.3578ZM9.00413 14.0001C8.84288 14.0001 8.70382 13.9429 8.58695 13.8287C8.4702 13.7146 8.41182 13.5769 8.41182 13.4156C8.41182 13.2542 8.46888 13.1152 8.58301 12.9984C8.69726 12.8816 8.83501 12.8231 8.99626 12.8231C9.15751 12.8231 9.29657 12.8802 9.41345 12.9945C9.5302 13.1086 9.58857 13.2464 9.58857 13.4077C9.58857 13.569 9.53151 13.708 9.41738 13.8247C9.30313 13.9416 9.16538 14.0001 9.00413 14.0001ZM6.07913 14.0001C5.91788 14.0001 5.77882 13.9429 5.66195 13.8287C5.5452 13.7146 5.48682 13.5769 5.48682 13.4156C5.48682 13.2542 5.54388 13.1152 5.65801 12.9984C5.77226 12.8816 5.91001 12.8231 6.07126 12.8231C6.23251 12.8231 6.37157 12.8802 6.48845 12.9945C6.6052 13.1086 6.66357 13.2464 6.66357 13.4077C6.66357 13.569 6.60651 13.708 6.49238 13.8247C6.37813 13.9416 6.24038 14.0001 6.07913 14.0001ZM11.9291 14.0001C11.7679 14.0001 11.6288 13.9429 11.5119 13.8287C11.3952 13.7146 11.3368 13.5769 11.3368 13.4156C11.3368 13.2542 11.3939 13.1152 11.508 12.9984C11.6223 12.8816 11.76 12.8231 11.9213 12.8231C12.0825 12.8231 12.2216 12.8802 12.3384 12.9945C12.4552 13.1086 12.5136 13.2464 12.5136 13.4077C12.5136 13.569 12.4565 13.708 12.3424 13.8247C12.2281 13.9416 12.0904 14.0001 11.9291 14.0001Z" fill="#004961"/>
  </g>
</svg>