<svg xmlns="http://www.w3.org/2000/svg" width="24" height="25" viewBox="0 0 24 25" fill="none">
  <mask id="mask0_547_25563" style="mask-type:alpha" maskUnits="userSpaceOnUse" x="0" y="0" width="24" height="25">
    <rect y="0.272949" width="24" height="24" fill="#D9D9D9"/>
  </mask>
  <g mask="url(#mask0_547_25563)">
    <path d="M5 21.273C4.45 21.273 3.97917 21.0771 3.5875 20.6855C3.19583 20.2938 3 19.823 3 19.273V5.27296C3 4.72296 3.19583 4.25212 3.5875 3.86046C3.97917 3.46879 4.45 3.27296 5 3.27296H11.525C11.8583 3.27296 12.1083 3.37712 12.275 3.58546C12.4417 3.79379 12.525 4.02296 12.525 4.27296C12.525 4.52296 12.4375 4.75212 12.2625 4.96046C12.0875 5.16879 11.8333 5.27296 11.5 5.27296H5V19.273H19V12.748C19 12.4146 19.1042 12.1646 19.3125 11.998C19.5208 11.8313 19.75 11.748 20 11.748C20.25 11.748 20.4792 11.8313 20.6875 11.998C20.8958 12.1646 21 12.4146 21 12.748V19.273C21 19.823 20.8042 20.2938 20.4125 20.6855C20.0208 21.0771 19.55 21.273 19 21.273H5ZM9 14.273V11.848C9 11.5813 9.05 11.3271 9.15 11.0855C9.25 10.8438 9.39167 10.6313 9.575 10.448L18.175 1.84796C18.375 1.64796 18.6 1.49796 18.85 1.39796C19.1 1.29796 19.35 1.24796 19.6 1.24796C19.8667 1.24796 20.1208 1.29796 20.3625 1.39796C20.6042 1.49796 20.825 1.64796 21.025 1.84796L22.425 3.27296C22.6083 3.47296 22.75 3.69379 22.85 3.93546C22.95 4.17712 23 4.42296 23 4.67296C23 4.92296 22.9542 5.16879 22.8625 5.41046C22.7708 5.65212 22.625 5.87296 22.425 6.07296L13.825 14.673C13.6417 14.8563 13.4292 15.0021 13.1875 15.1105C12.9458 15.2188 12.6917 15.273 12.425 15.273H10C9.71667 15.273 9.47917 15.1771 9.2875 14.9855C9.09583 14.7938 9 14.5563 9 14.273ZM11 13.273H12.4L18.2 7.47296L17.5 6.77296L16.775 6.07296L11 11.848V13.273Z" fill="#454545"/>
  </g>
</svg>