<svg xmlns="http://www.w3.org/2000/svg" width="24" height="24" viewBox="0 0 24 24" fill="none">
  <mask id="mask0_308_31952" style="mask-type:alpha" maskUnits="userSpaceOnUse" x="0" y="0" width="24" height="24">
    <rect width="24" height="24" fill="#D9D9D9"/>
  </mask>
  <g mask="url(#mask0_308_31952)">
    <path d="M12.0008 22C9.41745 22 7.17578 21.1417 5.27578 19.425C3.37578 17.7083 2.30078 15.5667 2.05078 13H4.07578C4.32578 15.0167 5.20495 16.6875 6.71328 18.0125C8.22161 19.3375 9.98411 20 12.0008 20C14.2341 20 16.1258 19.225 17.6758 17.675C19.2258 16.125 20.0008 14.2333 20.0008 12C20.0008 9.76667 19.2258 7.875 17.6758 6.325C16.1258 4.775 14.2341 4 12.0008 4C10.5674 4 9.23828 4.35417 8.01328 5.0625C6.78828 5.77083 5.81745 6.75 5.10078 8H8.00078V10H2.20078C2.68411 7.66667 3.84245 5.75 5.67578 4.25C7.50911 2.75 9.61745 2 12.0008 2C13.3841 2 14.6841 2.2625 15.9008 2.7875C17.1174 3.3125 18.1758 4.025 19.0758 4.925C19.9758 5.825 20.6883 6.88333 21.2133 8.1C21.7383 9.31667 22.0008 10.6167 22.0008 12C22.0008 13.3833 21.7383 14.6833 21.2133 15.9C20.6883 17.1167 19.9758 18.175 19.0758 19.075C18.1758 19.975 17.1174 20.6875 15.9008 21.2125C14.6841 21.7375 13.3841 22 12.0008 22ZM14.8008 16.2L11.0008 12.4V7H13.0008V11.6L16.2008 14.8L14.8008 16.2Z" fill="#454545"/>
  </g>
</svg>