<svg xmlns="http://www.w3.org/2000/svg" width="20" height="20" viewBox="0 0 20 20" fill="none">
  <mask id="mask0_2_739" style="mask-type:alpha" maskUnits="userSpaceOnUse" x="0" y="0" width="20" height="20">
    <rect width="20" height="20" fill="#D9D9D9"/>
  </mask>
  <g mask="url(#mask0_2_739)">
    <path d="M8.43751 10.4167C8.19264 10.4167 7.99146 10.3197 7.83396 10.1258C7.67646 9.93194 7.63139 9.71958 7.69876 9.48875L8.01292 7.86375C8.10264 7.38194 8.33716 6.99257 8.71646 6.69563C9.09563 6.39854 9.52077 6.25 9.99188 6.25C10.4738 6.25 10.9044 6.39854 11.2835 6.69563C11.6629 6.99257 11.8974 7.38194 11.9871 7.86375L12.3013 9.48875C12.3547 9.73625 12.3056 9.95278 12.1538 10.1383C12.0019 10.3239 11.8049 10.4167 11.5625 10.4167H8.43751ZM8.83334 9.33333H11.1667L10.9167 8.08333C10.875 7.86111 10.7671 7.68056 10.5929 7.54167C10.4188 7.40278 10.2208 7.33333 9.99917 7.33333C9.77751 7.33333 9.57987 7.40278 9.40626 7.54167C9.23265 7.68056 9.12501 7.86111 9.08334 8.08333L8.83334 9.33333ZM3.02521 11.2965C2.76591 11.3103 2.54369 11.2576 2.35855 11.1383C2.17341 11.019 2.0507 10.8438 1.99042 10.6125C1.96264 10.5119 1.95702 10.405 1.97355 10.2917C1.99007 10.1785 2.02084 10.0803 2.06584 9.99729C2.06584 9.99562 2.05889 9.9784 2.04501 9.94563C2.00862 9.90396 1.95396 9.76333 1.88105 9.52375C1.86424 9.38833 1.88188 9.26292 1.93396 9.1475C1.98605 9.03208 2.05938 8.92736 2.15396 8.83333C2.15924 8.83333 2.17042 8.81521 2.18751 8.77896C2.21167 8.58118 2.3016 8.40514 2.4573 8.25083C2.61299 8.09653 2.79445 8.01937 3.00167 8.01937C3.05501 8.01937 3.17042 8.04875 3.34792 8.1075L3.39584 8.09458C3.45459 8.03319 3.52632 7.98368 3.61105 7.94604C3.69591 7.9084 3.78598 7.88958 3.88126 7.88958C4.00028 7.88958 4.11077 7.90986 4.21271 7.95042C4.31452 7.99097 4.39514 8.05521 4.45459 8.14312C4.46639 8.14312 4.47528 8.14625 4.48126 8.1525C4.48723 8.15875 4.49612 8.16188 4.50792 8.16188C4.65376 8.17576 4.78362 8.22694 4.89751 8.31542C5.01139 8.40389 5.10341 8.52021 5.17355 8.66438C5.19994 8.74604 5.21098 8.82403 5.20667 8.89833C5.20237 8.9725 5.18632 9.04104 5.15855 9.10396C5.15855 9.1109 5.16549 9.13271 5.17938 9.16938C5.25216 9.24451 5.31098 9.33042 5.35584 9.42708C5.4007 9.52375 5.42313 9.6266 5.42313 9.73563C5.42313 9.74743 5.39639 9.85799 5.34292 10.0673C5.33445 10.0844 5.33445 10.1095 5.34292 10.1427C5.34834 10.1587 5.35959 10.2538 5.37667 10.4279C5.37667 10.6664 5.27223 10.8708 5.06334 11.041C4.85459 11.2113 4.61501 11.2965 4.34459 11.2965H3.02521ZM16.3135 11.3206C15.957 11.3206 15.6556 11.1965 15.4094 10.9481C15.1631 10.6999 15.04 10.4016 15.04 10.0531C15.04 9.92632 15.0608 9.80792 15.1023 9.69792C15.1437 9.58806 15.1929 9.48097 15.25 9.37667L14.666 8.87229C14.5747 8.77799 14.5538 8.66993 14.6033 8.54813C14.6531 8.42632 14.7563 8.36542 14.9131 8.36542H16.3013C16.6486 8.36542 16.9451 8.48847 17.1908 8.73458C17.4364 8.98056 17.5592 9.27632 17.5592 9.62188V9.93604C17.5592 10.3134 17.4407 10.6385 17.2038 10.9113C16.9668 11.1842 16.6701 11.3206 16.3135 11.3206ZM0.416672 14.1858V13.8702C0.416672 13.1822 0.74188 12.6726 1.3923 12.3415C2.04271 12.0102 2.8175 11.8446 3.71667 11.8446C3.91417 11.8446 4.11174 11.8563 4.30938 11.8798C4.50702 11.9033 4.70466 11.9358 4.9023 11.9775C4.68966 12.1956 4.52882 12.4744 4.4198 12.8142C4.31091 13.154 4.25646 13.4668 4.25646 13.7525V14.8237H1.05459C0.873894 14.8237 0.722366 14.7626 0.600005 14.6404C0.477783 14.5181 0.416672 14.3665 0.416672 14.1858ZM5.41667 14.1538V13.7821C5.41667 13.0671 5.80202 12.4941 6.57271 12.0631C7.34341 11.6322 8.4866 11.4167 10.0023 11.4167C11.5167 11.4167 12.6589 11.6322 13.4288 12.0631C14.1985 12.4941 14.5833 13.0671 14.5833 13.7821V14.1538C14.5833 14.3436 14.5191 14.5027 14.3906 14.631C14.2623 14.7595 14.1032 14.8237 13.9133 14.8237H6.0898C5.89646 14.8237 5.73598 14.7595 5.60834 14.631C5.48056 14.5027 5.41667 14.3436 5.41667 14.1538ZM16.2917 11.8446C17.1875 11.8446 17.9601 12.0102 18.6094 12.3415C19.2587 12.6726 19.5833 13.1822 19.5833 13.8702V14.1858C19.5833 14.3665 19.5222 14.5181 19.4 14.6404C19.2776 14.7626 19.1261 14.8237 18.9454 14.8237H15.7435V13.751C15.7435 13.4651 15.6926 13.1525 15.5906 12.8133C15.4885 12.4742 15.3216 12.1956 15.0898 11.9775C15.2874 11.9358 15.4854 11.9033 15.6838 11.8798C15.8821 11.8563 16.0847 11.8446 16.2917 11.8446ZM8.83334 9.33333L9.08334 8.08333C9.12501 7.86111 9.23265 7.68056 9.40626 7.54167C9.57987 7.40278 9.77751 7.33333 9.99917 7.33333C10.2208 7.33333 10.4188 7.40278 10.5929 7.54167C10.7671 7.68056 10.875 7.86111 10.9167 8.08333L11.1667 9.33333H8.83334Z" fill="#5E5E5E"/>
  </g>
</svg>