<svg xmlns="http://www.w3.org/2000/svg" width="20" height="21" viewBox="0 0 20 21" fill="none">
  <path fill-rule="evenodd" clip-rule="evenodd" d="M10.5 1.52647e-07C9.51688 -0.00025583 8.56073 0.321449 7.77771 0.915933C6.9947 1.51042 6.42791 2.34497 6.164 3.292L6.112 3.497L4.242 3.03C4.10532 2.99598 3.96299 2.99122 3.82434 3.01602C3.68569 3.04083 3.55384 3.09465 3.43744 3.17395C3.32103 3.25326 3.22269 3.35626 3.14886 3.47621C3.07503 3.59616 3.02737 3.73035 3.009 3.87L3 4V5.81C2.43595 6.35029 1.9739 6.98781 1.636 7.692L1.498 8H1C0.755066 8.00003 0.518663 8.08996 0.335629 8.25272C0.152594 8.41547 0.0356579 8.63975 0.00699997 8.883L0 9V12C-2.47955e-05 12.1646 0.0405788 12.3266 0.118206 12.4718C0.195833 12.6169 0.308083 12.7407 0.445 12.832L0.552999 12.894L1.721 13.479C2.19835 14.4046 2.89113 15.202 3.741 15.804L4 15.978V17C4.00003 17.2449 4.08996 17.4813 4.25272 17.6644C4.41547 17.8474 4.63975 17.9643 4.883 17.993L5 18H8C8.24493 18 8.48134 17.91 8.66437 17.7473C8.84741 17.5845 8.96434 17.3603 8.993 17.117L9 17H10C10 17.2449 10.09 17.4813 10.2527 17.6644C10.4155 17.8474 10.6397 17.9643 10.883 17.993L11 18H14C14.2449 18 14.4813 17.91 14.6644 17.7473C14.8474 17.5845 14.9643 17.3603 14.993 17.117L15 17V15.978C15.7227 15.5165 16.347 14.9165 16.8368 14.2127C17.3266 13.5088 17.6723 12.715 17.854 11.877C18.4438 11.7018 18.9655 11.3494 19.3483 10.8677C19.7311 10.3859 19.9565 9.79816 19.994 9.184L20 9V8.5C19.9997 8.24512 19.9021 7.99997 19.7272 7.81463C19.5522 7.6293 19.313 7.51776 19.0586 7.50283C18.8042 7.48789 18.5536 7.57067 18.3582 7.73426C18.1627 7.89785 18.0371 8.1299 18.007 8.383L18 8.5V9C17.9987 9.14933 17.9687 9.28767 17.91 9.415C17.7576 8.51463 17.4172 7.65648 16.911 6.89646C16.4048 6.13644 15.7441 5.49161 14.972 5.004C15.043 4.37448 14.9802 3.73708 14.7878 3.1335C14.5954 2.52991 14.2778 1.97374 13.8557 1.50138C13.4335 1.02903 12.9164 0.651121 12.3381 0.392396C11.7599 0.133671 11.1335 -4.39209e-05 10.5 1.52647e-07ZM6 8C6.26522 8 6.51957 8.10536 6.70711 8.29289C6.89464 8.48043 7 8.73478 7 9C7 9.26522 6.89464 9.51957 6.70711 9.70711C6.51957 9.89464 6.26522 10 6 10C5.73478 10 5.48043 9.89464 5.29289 9.70711C5.10536 9.51957 5 9.26522 5 9C5 8.73478 5.10536 8.48043 5.29289 8.29289C5.48043 8.10536 5.73478 8 6 8ZM10.5 2C11.1057 2 11.6908 2.2199 12.1466 2.61884C12.6024 3.01778 12.8978 3.56862 12.978 4.169C12.4934 4.05629 11.9975 3.99958 11.5 4H8.123L8.053 3.983C8.17159 3.42196 8.47944 2.91874 8.92496 2.5577C9.37047 2.19666 9.92656 1.99976 10.5 2Z" fill="#454545"/>
</svg>