<svg xmlns="http://www.w3.org/2000/svg" width="24" height="24" viewBox="0 0 24 24" fill="none">
  <mask id="mask0_2_730" style="mask-type:alpha" maskUnits="userSpaceOnUse" x="0" y="0" width="24" height="24">
    <rect width="24" height="24" fill="#D9D9D9"/>
  </mask>
  <g mask="url(#mask0_2_730)">
    <path d="M13 11.6L16 14.6C16.1833 14.7833 16.275 15.0167 16.275 15.3C16.275 15.5833 16.1833 15.8167 16 16C15.8167 16.1833 15.5833 16.275 15.3 16.275C15.0167 16.275 14.7833 16.1833 14.6 16L11.3 12.7C11.2 12.6 11.125 12.4875 11.075 12.3625C11.025 12.2375 11 12.1083 11 11.975V8.00001C11 7.71668 11.0958 7.47918 11.2875 7.28751C11.4792 7.09584 11.7167 7.00001 12 7.00001C12.2833 7.00001 12.5208 7.09584 12.7125 7.28751C12.9042 7.47918 13 7.71668 13 8.00001V11.6ZM15.25 5.00001C14.9 5.00001 14.6042 4.87918 14.3625 4.63751C14.1208 4.39584 14 4.10001 14 3.75001C14 3.40001 14.1208 3.10418 14.3625 2.86251C14.6042 2.62084 14.9 2.50001 15.25 2.50001C15.6 2.50001 15.8958 2.62084 16.1375 2.86251C16.3792 3.10418 16.5 3.40001 16.5 3.75001C16.5 4.10001 16.3792 4.39584 16.1375 4.63751C15.8958 4.87918 15.6 5.00001 15.25 5.00001ZM15.25 21.5C14.9 21.5 14.6042 21.3792 14.3625 21.1375C14.1208 20.8958 14 20.6 14 20.25C14 19.9 14.1208 19.6042 14.3625 19.3625C14.6042 19.1208 14.9 19 15.25 19C15.6 19 15.8958 19.1208 16.1375 19.3625C16.3792 19.6042 16.5 19.9 16.5 20.25C16.5 20.6 16.3792 20.8958 16.1375 21.1375C15.8958 21.3792 15.6 21.5 15.25 21.5ZM19.25 8.50001C18.9 8.50001 18.6042 8.37918 18.3625 8.13751C18.1208 7.89584 18 7.60001 18 7.25001C18 6.90001 18.1208 6.60418 18.3625 6.36251C18.6042 6.12084 18.9 6.00001 19.25 6.00001C19.6 6.00001 19.8958 6.12084 20.1375 6.36251C20.3792 6.60418 20.5 6.90001 20.5 7.25001C20.5 7.60001 20.3792 7.89584 20.1375 8.13751C19.8958 8.37918 19.6 8.50001 19.25 8.50001ZM19.25 18C18.9 18 18.6042 17.8792 18.3625 17.6375C18.1208 17.3958 18 17.1 18 16.75C18 16.4 18.1208 16.1042 18.3625 15.8625C18.6042 15.6208 18.9 15.5 19.25 15.5C19.6 15.5 19.8958 15.6208 20.1375 15.8625C20.3792 16.1042 20.5 16.4 20.5 16.75C20.5 17.1 20.3792 17.3958 20.1375 17.6375C19.8958 17.8792 19.6 18 19.25 18ZM20.75 13.25C20.4 13.25 20.1042 13.1292 19.8625 12.8875C19.6208 12.6458 19.5 12.35 19.5 12C19.5 11.65 19.6208 11.3542 19.8625 11.1125C20.1042 10.8708 20.4 10.75 20.75 10.75C21.1 10.75 21.3958 10.8708 21.6375 11.1125C21.8792 11.3542 22 11.65 22 12C22 12.35 21.8792 12.6458 21.6375 12.8875C21.3958 13.1292 21.1 13.25 20.75 13.25ZM2 12C2 9.38334 2.87083 7.13334 4.6125 5.25001C6.35417 3.36668 8.49167 2.30001 11.025 2.05001C11.2917 2.01668 11.5208 2.09584 11.7125 2.28751C11.9042 2.47918 12 2.71668 12 3.00001C12 3.26668 11.9125 3.50001 11.7375 3.70001C11.5625 3.90001 11.3417 4.01668 11.075 4.05001C9.05833 4.28334 7.375 5.15001 6.025 6.65001C4.675 8.15001 4 9.93334 4 12C4 14.0833 4.675 15.8708 6.025 17.3625C7.375 18.8542 9.05833 19.7167 11.075 19.95C11.3417 19.9833 11.5625 20.1 11.7375 20.3C11.9125 20.5 12 20.7333 12 21C12 21.2833 11.9042 21.5208 11.7125 21.7125C11.5208 21.9042 11.2917 21.9833 11.025 21.95C8.475 21.7 6.33333 20.6333 4.6 18.75C2.86667 16.8667 2 14.6167 2 12Z" fill="#454545"/>
  </g>
</svg>