<svg width="51" height="31" viewBox="0 0 51 31" fill="none" xmlns="http://www.w3.org/2000/svg">
<mask id="mask0_241_12524" style="mask-type:alpha" maskUnits="userSpaceOnUse" x="0" y="0" width="51" height="31">
<path d="M0 0.5H51V30.5H0V0.5Z" fill="#D9D9D9"/>
</mask>
<g mask="url(#mask0_241_12524)">
<path d="M2.37842 11.8953C2.37842 6.9247 6.40786 2.89526 11.3784 2.89526H38.9325C43.903 2.89526 47.9325 6.9247 47.9325 11.8953V19.1046C47.9325 24.0751 43.903 28.1046 38.9325 28.1046H11.3784C6.40785 28.1046 2.37842 24.0751 2.37842 19.1046V11.8953Z" fill="#0096C7" stroke="#0096C7" stroke-width="2"/>
<path d="M19.9054 10.7781C19.9054 12.3367 21.6418 13.9089 24.2804 14.2507L23.6789 15.4812C21.5802 15.1667 19.9123 14.1345 19.1125 12.7332C18.299 14.1345 16.6379 15.1667 14.5597 15.4812L13.9582 14.2507C16.5695 13.9089 18.3058 12.3367 18.3058 10.7781V10.1492H19.9054V10.7781ZM24.7316 16.5476V17.8054H19.8234V22.1121H18.3195V17.8054H13.466V16.5476H24.7316ZM31.6769 10.4636V14.1277H27.5617V15.5085C29.6603 15.5017 31.0959 15.4333 32.7844 15.1394L32.9484 16.3562C31.1027 16.6707 29.5031 16.7527 27.0558 16.7527H26.0441V12.9519H30.1867V11.6941H26.0304V10.4636H31.6769ZM35.3136 9.76636V12.7878H37.05V14.0457H35.3136V17.2722H33.7961V9.76636H35.3136ZM35.3136 17.8601V22.0984H33.7961V19.0769H27.0832V17.8601H35.3136Z" fill="white"/>
</g>
</svg>
