<svg width="51" height="31" viewBox="0 0 51 31" fill="none" xmlns="http://www.w3.org/2000/svg">
<mask id="mask0_241_12528" style="mask-type:alpha" maskUnits="userSpaceOnUse" x="0" y="0" width="51" height="31">
<path d="M0 0H51V31H0V0Z" fill="#D9D9D9"/>
</mask>
<g mask="url(#mask0_241_12528)">
<path d="M1.87842 11.4419C1.87842 6.19519 6.13171 1.94189 11.3784 1.94189H38.9325C44.1792 1.94189 48.4325 6.19519 48.4325 11.4419V19.5582C48.4325 24.8049 44.1792 29.0582 38.9325 29.0582H11.3784C6.13171 29.0582 1.87842 24.8049 1.87842 19.5582V11.4419Z" fill="#F1F1F1" stroke="#5E5E5E"/>
<path d="M23.8156 9.29932V21.6587H22.298V15.3696H19.6867V14.1255H22.298V9.29932H23.8156ZM19.7414 10.6118C19.7277 14.2622 18.4289 17.3247 14.1769 19.4302L13.384 18.2407C16.5832 16.6753 17.9572 14.5835 18.2101 11.8149H13.9582V10.6118H19.7414ZM30.0636 11.1177C30.05 12.4438 31.0617 13.8247 32.9484 14.3716L32.2375 15.5747C30.8361 15.1646 29.8449 14.2964 29.298 13.2095C28.7375 14.4126 27.6984 15.397 26.2629 15.8481L25.5109 14.6587C27.4386 14.0298 28.5324 12.5259 28.5324 11.104V11.063H25.9347V9.83252H32.6203V11.063H30.0636V11.1177ZM35.9152 9.29932V15.6294H34.3976V13.1274H32.2785V11.9106H34.3976V9.29932H35.9152ZM35.9152 16.1489V19.3618H29.298V20.3325H36.3117V21.522H27.7804V18.2271H34.3976V17.3521H27.7668V16.1489H35.9152Z" fill="#5E5E5E"/>
</g>
</svg>
