<svg width="55" height="29" viewBox="0 0 55 29" fill="none" xmlns="http://www.w3.org/2000/svg">
<g filter="url(#filter0_i_287_21180)">
<rect x="0.0810547" y="0.592285" width="54.8572" height="27.4286" rx="5" fill="#00BEFC"/>
</g>
<path d="M14.2264 19.6775C11.9559 19.6775 10.3446 18.447 10.3006 16.6599H12.2196C12.2782 17.5095 13.1278 18.0662 14.2264 18.0662C15.3983 18.0662 16.2333 17.4216 16.2333 16.4841C16.2333 15.532 15.4129 14.8435 14.036 14.8435H13.0838V13.3787H14.036C15.1639 13.3787 15.9549 12.7488 15.9403 11.8259C15.9549 10.9324 15.2811 10.3318 14.2411 10.3318C13.245 10.3318 12.3807 10.8884 12.3514 11.782H10.5204C10.5643 9.99487 12.1756 8.77905 14.2557 8.77905C16.409 8.77905 17.8006 10.0974 17.786 11.7234C17.8006 12.9099 17.0096 13.7742 15.8524 14.0085V14.0964C17.3465 14.3015 18.1961 15.2537 18.1815 16.5867C18.1961 18.3738 16.5262 19.6775 14.2264 19.6775ZM23.4326 19.6775C20.8837 19.6775 19.3603 17.7 19.3603 14.2283C19.3603 10.7712 20.8837 8.77905 23.4326 8.77905C25.9667 8.77905 27.5048 10.7712 27.5048 14.2283C27.5048 17.7 25.9814 19.6775 23.4326 19.6775ZM23.4326 18.0808C24.7656 18.0808 25.5859 16.7771 25.5859 14.2283C25.5859 11.6941 24.7509 10.3611 23.4326 10.3611C22.1142 10.3611 21.2792 11.6941 21.2792 14.2283C21.2792 16.7771 22.0995 18.0808 23.4326 18.0808Z" fill="white"/>
<g clip-path="url(#clip0_287_21180)">
<rect x="31.4287" y="5.49023" width="17.6327" height="15.9124" rx="7.9562" fill="#00BEFC"/>
<path d="M40.2455 21.4026C44.8441 21.4026 48.572 18.0384 48.572 13.8885C48.572 9.73848 44.8441 6.37427 40.2455 6.37427C35.6469 6.37427 31.9189 9.73848 31.9189 13.8885C31.9189 18.0384 35.6469 21.4026 40.2455 21.4026Z" fill="#F4900C"/>
<path d="M40.2455 20.5186C44.8441 20.5186 48.572 17.1544 48.572 13.0044C48.572 8.85445 44.8441 5.49023 40.2455 5.49023C35.6469 5.49023 31.9189 8.85445 31.9189 13.0044C31.9189 17.1544 35.6469 20.5186 40.2455 20.5186Z" fill="#FFCC4D"/>
<path d="M40.2448 19.6346C44.0319 19.6346 47.102 16.8641 47.102 13.4465C47.102 10.0288 44.0319 7.2583 40.2448 7.2583C36.4577 7.2583 33.3877 10.0288 33.3877 13.4465C33.3877 16.8641 36.4577 19.6346 40.2448 19.6346Z" fill="#FFE8B6"/>
<path d="M40.2448 19.1926C44.0319 19.1926 47.102 16.4221 47.102 13.0044C47.102 9.58682 44.0319 6.81628 40.2448 6.81628C36.4577 6.81628 33.3877 9.58682 33.3877 13.0044C33.3877 16.4221 36.4577 19.1926 40.2448 19.1926Z" fill="#FFAC33"/>
<path d="M36.1025 10.2887C36.1025 10.0478 36.3646 9.95148 36.3646 9.95148L40.2232 8.31604L44.1185 9.95148C44.1185 9.95148 44.387 10.0054 44.387 10.2905V10.5738H36.1025V10.2887Z" fill="#FFE8B6"/>
<path d="M44.1285 11.1639C44.1285 10.9057 43.8811 10.6967 43.5765 10.6967H36.8795C36.5743 10.6967 36.3618 10.9057 36.3618 11.1639C36.3618 11.3393 36.4617 11.4905 36.6209 11.5705V11.8649H37.6563V11.6311H38.6917V11.8649H39.7272V11.6311H40.7626V11.8649H41.798V11.6311H42.8335V11.8649H43.8694V11.5586C44.0246 11.4755 44.1285 11.3301 44.1285 11.1639ZM44.9048 16.0985C44.9048 16.1914 44.8639 16.2806 44.791 16.3463C44.7182 16.4121 44.6194 16.449 44.5164 16.449H35.9734C35.8704 16.449 35.7716 16.4121 35.6987 16.3463C35.6259 16.2806 35.585 16.1914 35.585 16.0985C35.585 16.0055 35.6259 15.9164 35.6987 15.8506C35.7716 15.7849 35.8704 15.748 35.9734 15.748H44.5169C44.7309 15.748 44.9048 15.9049 44.9048 16.0985Z" fill="#F4900C"/>
<path d="M44.3876 10.8827C44.3875 10.9447 44.3601 11.0041 44.3116 11.048C44.263 11.0918 44.1972 11.1165 44.1285 11.1166H36.3618C36.2959 11.1129 36.2339 11.0867 36.1886 11.0432C36.1434 10.9998 36.1182 10.9424 36.1182 10.8827C36.1182 10.8231 36.1434 10.7657 36.1886 10.7223C36.2339 10.6788 36.2959 10.6526 36.3618 10.6489L44.1285 10.6503C44.1625 10.6501 44.1961 10.6561 44.2275 10.6677C44.2589 10.6793 44.2874 10.6964 44.3115 10.718C44.3356 10.7396 44.3547 10.7653 44.3677 10.7935C44.3808 10.8218 44.3876 10.8521 44.3876 10.8827ZM37.3977 11.1541H43.0936V11.6784H37.3977V11.1541Z" fill="#F4900C"/>
<path d="M37.656 14.6969C37.656 14.955 37.5013 15.1641 37.3107 15.1641H36.9654C36.7749 15.1641 36.6201 14.955 36.6201 14.6969V11.1546C36.6201 10.8964 36.7749 10.6874 36.9654 10.6874H37.3107C37.5013 10.6874 37.656 10.8964 37.656 11.1546V14.6969ZM43.8696 14.6969C43.8696 14.955 43.7153 15.1641 43.5243 15.1641H43.179C42.9884 15.1641 42.8337 14.955 42.8337 14.6969V11.1546C42.8337 10.8964 42.988 10.6874 43.179 10.6874H43.5243C43.7148 10.6874 43.8696 10.8964 43.8696 11.1546V14.6969ZM39.7274 14.6969C39.7274 14.955 39.5726 15.1641 39.3821 15.1641H39.0368C38.8462 15.1641 38.6915 14.955 38.6915 14.6969V11.1546C38.6915 10.8964 38.8462 10.6874 39.0368 10.6874H39.3821C39.5726 10.6874 39.7274 10.8964 39.7274 11.1546V14.6969ZM41.7982 14.6969C41.7982 14.955 41.6435 15.1641 41.4529 15.1641H41.1081C40.9176 15.1641 40.7628 14.955 40.7628 14.6969V11.1546C40.7628 10.8964 40.9176 10.6874 41.1081 10.6874H41.4529C41.6435 10.6874 41.7982 10.8964 41.7982 11.1546V14.6969Z" fill="#FFD983"/>
<path d="M44.129 14.9302C44.129 15.1884 43.8973 15.3974 43.6113 15.3974H36.88C36.7427 15.3974 36.611 15.3482 36.5139 15.2606C36.4168 15.173 36.3623 15.0541 36.3623 14.9302C36.3623 14.8063 36.4168 14.6875 36.5139 14.5999C36.611 14.5122 36.7427 14.463 36.88 14.463H43.6113C43.8968 14.463 44.129 14.6721 44.129 14.9302Z" fill="#FFCC4D"/>
<path d="M44.6464 15.3975C44.6464 15.6556 44.4147 15.8647 44.1287 15.8647H36.3615C36.2242 15.8647 36.0925 15.8155 35.9954 15.7279C35.8983 15.6402 35.8438 15.5214 35.8438 15.3975C35.8438 15.2736 35.8983 15.1548 35.9954 15.0671C36.0925 14.9795 36.2242 14.9303 36.3615 14.9303H44.1282C44.4142 14.9303 44.6464 15.1394 44.6464 15.3975Z" fill="#FFD983"/>
<path d="M44.129 10.9208C44.129 10.6627 43.8817 10.4536 43.577 10.4536H36.88C36.5749 10.4536 36.3623 10.6627 36.3623 10.9208C36.3623 11.0963 36.4622 11.2475 36.6214 11.3275V11.6218H37.6568V11.388H38.6923V11.6218H39.7277V11.388H40.7631V11.6218H41.7986V11.388H42.834V11.6218H43.8699V11.3155C44.0252 11.2324 44.129 11.087 44.129 10.9208Z" fill="#FFCC4D"/>
<path d="M36.1025 10.557C36.1025 10.3161 36.3646 10.2198 36.3646 10.2198L40.2232 8.58435L44.1185 10.2198C44.1185 10.2198 44.387 10.2737 44.387 10.5588V10.6874H36.1025V10.557Z" fill="#FFD983"/>
<path d="M40.2453 9.17798C40.2453 9.17798 37.5735 10.3144 37.307 10.4169C37.0401 10.519 37.1292 10.687 37.3075 10.687H43.1704C43.4457 10.687 43.3805 10.4974 43.1621 10.3948C42.9436 10.2927 40.2453 9.17798 40.2453 9.17798Z" fill="#FFAC33"/>
<path d="M44.3876 10.6869C44.3875 10.7489 44.3601 10.8083 44.3116 10.8522C44.263 10.896 44.1972 10.9207 44.1285 10.9208H36.3618C36.2959 10.9171 36.2339 10.8909 36.1886 10.8474C36.1434 10.804 36.1182 10.7466 36.1182 10.6869C36.1182 10.6273 36.1434 10.5699 36.1886 10.5265C36.2339 10.483 36.2959 10.4568 36.3618 10.4531L44.1285 10.4545C44.1625 10.4543 44.1961 10.4603 44.2275 10.4719C44.2589 10.4835 44.2874 10.5006 44.3115 10.5222C44.3356 10.5438 44.3547 10.5695 44.3677 10.5977C44.3808 10.626 44.3876 10.6563 44.3876 10.6869Z" fill="#FFD983"/>
</g>
<defs>
<filter id="filter0_i_287_21180" x="0.0810547" y="-3.40771" width="54.8574" height="31.4286" filterUnits="userSpaceOnUse" color-interpolation-filters="sRGB">
<feFlood flood-opacity="0" result="BackgroundImageFix"/>
<feBlend mode="normal" in="SourceGraphic" in2="BackgroundImageFix" result="shape"/>
<feColorMatrix in="SourceAlpha" type="matrix" values="0 0 0 0 0 0 0 0 0 0 0 0 0 0 0 0 0 0 127 0" result="hardAlpha"/>
<feOffset dy="-24"/>
<feGaussianBlur stdDeviation="2"/>
<feComposite in2="hardAlpha" operator="arithmetic" k2="-1" k3="1"/>
<feColorMatrix type="matrix" values="0 0 0 0 0 0 0 0 0 0 0 0 0 0 0 0 0 0 0.25 0"/>
<feBlend mode="normal" in2="shape" result="effect1_innerShadow_287_21180"/>
</filter>
<clipPath id="clip0_287_21180">
<rect x="31.4287" y="5.49023" width="17.6327" height="15.9124" rx="7.9562" fill="white"/>
</clipPath>
</defs>
</svg>
