<svg width="55" height="28" viewBox="0 0 55 28" fill="none" xmlns="http://www.w3.org/2000/svg">
<g filter="url(#filter0_i_287_21012)">
<rect x="0.581055" y="0.724854" width="53.8572" height="26.4286" rx="4.5" stroke="#454545"/>
</g>
<path d="M15.9769 8.55817V19.1636H14.058V10.4185H13.9994L11.5238 12.0005V10.2574L14.1459 8.55817H15.9769ZM22.1362 19.3101C19.5873 19.3101 18.0639 17.3326 18.0639 13.8609C18.0639 10.4039 19.5873 8.41168 22.1362 8.41168C24.6703 8.41168 26.2084 10.4039 26.2084 13.8609C26.2084 17.3326 24.685 19.3101 22.1362 19.3101ZM22.1362 17.7134C23.4692 17.7134 24.2895 16.4097 24.2895 13.8609C24.2895 11.3267 23.4545 9.99371 22.1362 9.99371C20.8178 9.99371 19.9828 11.3267 19.9828 13.8609C19.9828 16.4097 20.8032 17.7134 22.1362 17.7134Z" fill="#454545"/>
<g clip-path="url(#clip0_287_21012)">
<path d="M40.2455 21.0352C44.8441 21.0352 48.572 17.671 48.572 13.521C48.572 9.37105 44.8441 6.00684 40.2455 6.00684C35.6469 6.00684 31.9189 9.37105 31.9189 13.521C31.9189 17.671 35.6469 21.0352 40.2455 21.0352Z" fill="#F4900C"/>
<path d="M40.2455 20.1512C44.8441 20.1512 48.572 16.787 48.572 12.637C48.572 8.48702 44.8441 5.1228 40.2455 5.1228C35.6469 5.1228 31.9189 8.48702 31.9189 12.637C31.9189 16.787 35.6469 20.1512 40.2455 20.1512Z" fill="#FFCC4D"/>
<path d="M40.2448 19.2672C44.0319 19.2672 47.102 16.4966 47.102 13.079C47.102 9.6614 44.0319 6.89087 40.2448 6.89087C36.4577 6.89087 33.3877 9.6614 33.3877 13.079C33.3877 16.4966 36.4577 19.2672 40.2448 19.2672Z" fill="#FFE8B6"/>
<path d="M40.2448 18.8252C44.0319 18.8252 47.102 16.0546 47.102 12.637C47.102 9.21938 44.0319 6.44885 40.2448 6.44885C36.4577 6.44885 33.3877 9.21938 33.3877 12.637C33.3877 16.0546 36.4577 18.8252 40.2448 18.8252Z" fill="#FFAC33"/>
<path d="M36.1025 9.9213C36.1025 9.68041 36.3646 9.58405 36.3646 9.58405L40.2232 7.94861L44.1185 9.58405C44.1185 9.58405 44.387 9.63797 44.387 9.92307V10.2064H36.1025V9.9213Z" fill="#FFE8B6"/>
<path d="M44.1285 10.7964C44.1285 10.5383 43.8811 10.3292 43.5765 10.3292H36.8795C36.5743 10.3292 36.3618 10.5383 36.3618 10.7964C36.3618 10.9719 36.4617 11.1231 36.6209 11.2031V11.4975H37.6563V11.2636H38.6917V11.4975H39.7272V11.2636H40.7626V11.4975H41.798V11.2636H42.8335V11.4975H43.8694V11.1911C44.0246 11.108 44.1285 10.9626 44.1285 10.7964ZM44.9048 15.731C44.9048 15.824 44.8639 15.9132 44.791 15.9789C44.7182 16.0446 44.6194 16.0816 44.5164 16.0816H35.9734C35.8704 16.0816 35.7716 16.0446 35.6987 15.9789C35.6259 15.9132 35.585 15.824 35.585 15.731C35.585 15.6381 35.6259 15.5489 35.6987 15.4832C35.7716 15.4175 35.8704 15.3805 35.9734 15.3805H44.5169C44.7309 15.3805 44.9048 15.5374 44.9048 15.731Z" fill="#F4900C"/>
<path d="M44.3876 10.5153C44.3875 10.5773 44.3601 10.6367 44.3116 10.6805C44.263 10.7244 44.1972 10.749 44.1285 10.7491H36.3618C36.2959 10.7455 36.2339 10.7193 36.1886 10.6758C36.1434 10.6324 36.1182 10.575 36.1182 10.5153C36.1182 10.4557 36.1434 10.3983 36.1886 10.3548C36.2339 10.3114 36.2959 10.2852 36.3618 10.2815L44.1285 10.2828C44.1625 10.2827 44.1961 10.2886 44.2275 10.3003C44.2589 10.3119 44.2874 10.329 44.3115 10.3506C44.3356 10.3722 44.3547 10.3978 44.3677 10.4261C44.3808 10.4544 44.3876 10.4847 44.3876 10.5153ZM37.3977 10.7867H43.0936V11.3109H37.3977V10.7867Z" fill="#F4900C"/>
<path d="M37.656 14.3294C37.656 14.5876 37.5013 14.7966 37.3107 14.7966H36.9654C36.7749 14.7966 36.6201 14.5876 36.6201 14.3294V10.7872C36.6201 10.529 36.7749 10.3199 36.9654 10.3199H37.3107C37.5013 10.3199 37.656 10.529 37.656 10.7872V14.3294ZM43.8696 14.3294C43.8696 14.5876 43.7153 14.7966 43.5243 14.7966H43.179C42.9884 14.7966 42.8337 14.5876 42.8337 14.3294V10.7872C42.8337 10.529 42.988 10.3199 43.179 10.3199H43.5243C43.7148 10.3199 43.8696 10.529 43.8696 10.7872V14.3294ZM39.7274 14.3294C39.7274 14.5876 39.5726 14.7966 39.3821 14.7966H39.0368C38.8462 14.7966 38.6915 14.5876 38.6915 14.3294V10.7872C38.6915 10.529 38.8462 10.3199 39.0368 10.3199H39.3821C39.5726 10.3199 39.7274 10.529 39.7274 10.7872V14.3294ZM41.7982 14.3294C41.7982 14.5876 41.6435 14.7966 41.4529 14.7966H41.1081C40.9176 14.7966 40.7628 14.5876 40.7628 14.3294V10.7872C40.7628 10.529 40.9176 10.3199 41.1081 10.3199H41.4529C41.6435 10.3199 41.7982 10.529 41.7982 10.7872V14.3294Z" fill="#FFD983"/>
<path d="M44.129 14.5628C44.129 14.821 43.8973 15.0301 43.6113 15.0301H36.88C36.7427 15.0301 36.611 14.9808 36.5139 14.8932C36.4168 14.8056 36.3623 14.6868 36.3623 14.5628C36.3623 14.4389 36.4168 14.3201 36.5139 14.2325C36.611 14.1449 36.7427 14.0956 36.88 14.0956H43.6113C43.8968 14.0956 44.129 14.3047 44.129 14.5628Z" fill="#FFCC4D"/>
<path d="M44.6464 15.03C44.6464 15.2881 44.4147 15.4972 44.1287 15.4972H36.3615C36.2242 15.4972 36.0925 15.448 35.9954 15.3604C35.8983 15.2728 35.8438 15.1539 35.8438 15.03C35.8438 14.9061 35.8983 14.7873 35.9954 14.6996C36.0925 14.612 36.2242 14.5628 36.3615 14.5628H44.1282C44.4142 14.5628 44.6464 14.7719 44.6464 15.03Z" fill="#FFD983"/>
<path d="M44.129 10.5533C44.129 10.2952 43.8817 10.0861 43.577 10.0861H36.88C36.5749 10.0861 36.3623 10.2952 36.3623 10.5533C36.3623 10.7288 36.4622 10.88 36.6214 10.96V11.2544H37.6568V11.0205H38.6923V11.2544H39.7277V11.0205H40.7631V11.2544H41.7986V11.0205H42.834V11.2544H43.8699V10.948C44.0252 10.8649 44.129 10.7195 44.129 10.5533Z" fill="#FFCC4D"/>
<path d="M36.1025 10.1896C36.1025 9.94866 36.3646 9.8523 36.3646 9.8523L40.2232 8.21686L44.1185 9.8523C44.1185 9.8523 44.387 9.90622 44.387 10.1913V10.3199H36.1025V10.1896Z" fill="#FFD983"/>
<path d="M40.2453 8.81049C40.2453 8.81049 37.5735 9.9469 37.307 10.0494C37.0401 10.1515 37.1292 10.3195 37.3075 10.3195H43.1704C43.4457 10.3195 43.3805 10.1299 43.1621 10.0273C42.9436 9.92524 40.2453 8.81049 40.2453 8.81049Z" fill="#FFAC33"/>
<path d="M44.3876 10.3195C44.3875 10.3815 44.3601 10.4409 44.3116 10.4847C44.263 10.5286 44.1972 10.5532 44.1285 10.5533H36.3618C36.2959 10.5497 36.2339 10.5235 36.1886 10.48C36.1434 10.4366 36.1182 10.3792 36.1182 10.3195C36.1182 10.2599 36.1434 10.2025 36.1886 10.159C36.2339 10.1156 36.2959 10.0894 36.3618 10.0857L44.1285 10.087C44.1625 10.0869 44.1961 10.0928 44.2275 10.1045C44.2589 10.1161 44.2874 10.1332 44.3115 10.1548C44.3356 10.1764 44.3547 10.202 44.3677 10.2303C44.3808 10.2586 44.3876 10.2889 44.3876 10.3195Z" fill="#FFD983"/>
</g>
<defs>
<filter id="filter0_i_287_21012" x="0.0810547" y="-3.77515" width="54.8574" height="31.4286" filterUnits="userSpaceOnUse" color-interpolation-filters="sRGB">
<feFlood flood-opacity="0" result="BackgroundImageFix"/>
<feBlend mode="normal" in="SourceGraphic" in2="BackgroundImageFix" result="shape"/>
<feColorMatrix in="SourceAlpha" type="matrix" values="0 0 0 0 0 0 0 0 0 0 0 0 0 0 0 0 0 0 127 0" result="hardAlpha"/>
<feOffset dy="-24"/>
<feGaussianBlur stdDeviation="2"/>
<feComposite in2="hardAlpha" operator="arithmetic" k2="-1" k3="1"/>
<feColorMatrix type="matrix" values="0 0 0 0 0 0 0 0 0 0 0 0 0 0 0 0 0 0 0.25 0"/>
<feBlend mode="normal" in2="shape" result="effect1_innerShadow_287_21012"/>
</filter>
<clipPath id="clip0_287_21012">
<rect x="31.4287" y="5.1228" width="17.6327" height="15.9124" rx="7.9562" fill="white"/>
</clipPath>
</defs>
</svg>
