<svg width="56" height="29" viewBox="0 0 56 29" fill="none" xmlns="http://www.w3.org/2000/svg">
<g filter="url(#filter0_i_287_21264)">
<rect x="0.785156" y="1.09229" width="53.8572" height="26.4286" rx="4.5" stroke="#454545"/>
</g>
<path d="M14.4305 19.6775C12.16 19.6775 10.5487 18.447 10.5047 16.6599H12.4237C12.4823 17.5095 13.3319 18.0662 14.4305 18.0662C15.6024 18.0662 16.4374 17.4216 16.4374 16.4841C16.4374 15.532 15.617 14.8435 14.2401 14.8435H13.2879V13.3787H14.2401C15.368 13.3787 16.159 12.7488 16.1444 11.8259C16.159 10.9324 15.4852 10.3318 14.4452 10.3318C13.4491 10.3318 12.5848 10.8884 12.5555 11.782H10.7245C10.7684 9.99487 12.3797 8.77905 14.4598 8.77905C16.6131 8.77905 18.0047 10.0974 17.9901 11.7234C18.0047 12.9099 17.2137 13.7742 16.0565 14.0085V14.0964C17.5506 14.3015 18.4002 15.2537 18.3856 16.5867C18.4002 18.3738 16.7303 19.6775 14.4305 19.6775ZM23.6367 19.6775C21.0878 19.6775 19.5644 17.7 19.5644 14.2283C19.5644 10.7712 21.0878 8.77905 23.6367 8.77905C26.1708 8.77905 27.7089 10.7712 27.7089 14.2283C27.7089 17.7 26.1855 19.6775 23.6367 19.6775ZM23.6367 18.0808C24.9697 18.0808 25.79 16.7771 25.79 14.2283C25.79 11.6941 24.955 10.3611 23.6367 10.3611C22.3183 10.3611 21.4833 11.6941 21.4833 14.2283C21.4833 16.7771 22.3036 18.0808 23.6367 18.0808Z" fill="#454545"/>
<g clip-path="url(#clip0_287_21264)">
<path d="M40.4496 21.4026C45.0482 21.4026 48.7761 18.0384 48.7761 13.8885C48.7761 9.73848 45.0482 6.37427 40.4496 6.37427C35.851 6.37427 32.123 9.73848 32.123 13.8885C32.123 18.0384 35.851 21.4026 40.4496 21.4026Z" fill="#F4900C"/>
<path d="M40.4496 20.5186C45.0482 20.5186 48.7761 17.1544 48.7761 13.0044C48.7761 8.85445 45.0482 5.49023 40.4496 5.49023C35.851 5.49023 32.123 8.85445 32.123 13.0044C32.123 17.1544 35.851 20.5186 40.4496 20.5186Z" fill="#FFCC4D"/>
<path d="M40.4489 19.6346C44.236 19.6346 47.3061 16.8641 47.3061 13.4465C47.3061 10.0288 44.236 7.2583 40.4489 7.2583C36.6618 7.2583 33.5918 10.0288 33.5918 13.4465C33.5918 16.8641 36.6618 19.6346 40.4489 19.6346Z" fill="#FFE8B6"/>
<path d="M40.4489 19.1926C44.236 19.1926 47.3061 16.4221 47.3061 13.0044C47.3061 9.58682 44.236 6.81628 40.4489 6.81628C36.6618 6.81628 33.5918 9.58682 33.5918 13.0044C33.5918 16.4221 36.6618 19.1926 40.4489 19.1926Z" fill="#FFAC33"/>
<path d="M36.3066 10.2887C36.3066 10.0478 36.5687 9.95148 36.5687 9.95148L40.4273 8.31604L44.3226 9.95148C44.3226 9.95148 44.5911 10.0054 44.5911 10.2905V10.5738H36.3066V10.2887Z" fill="#FFE8B6"/>
<path d="M44.3326 11.1639C44.3326 10.9057 44.0852 10.6967 43.7806 10.6967H37.0836C36.7785 10.6967 36.5659 10.9057 36.5659 11.1639C36.5659 11.3393 36.6658 11.4905 36.825 11.5705V11.8649H37.8604V11.6311H38.8958V11.8649H39.9313V11.6311H40.9667V11.8649H42.0021V11.6311H43.0376V11.8649H44.0735V11.5586C44.2287 11.4755 44.3326 11.3301 44.3326 11.1639ZM45.1089 16.0985C45.1089 16.1914 45.068 16.2806 44.9951 16.3463C44.9223 16.4121 44.8235 16.449 44.7205 16.449H36.1775C36.0745 16.449 35.9757 16.4121 35.9028 16.3463C35.83 16.2806 35.7891 16.1914 35.7891 16.0985C35.7891 16.0055 35.83 15.9164 35.9028 15.8506C35.9757 15.7849 36.0745 15.748 36.1775 15.748H44.721C44.935 15.748 45.1089 15.9049 45.1089 16.0985Z" fill="#F4900C"/>
<path d="M44.5917 10.8827C44.5916 10.9447 44.5642 11.0041 44.5157 11.048C44.4671 11.0918 44.4013 11.1165 44.3326 11.1166H36.5659C36.5 11.1129 36.438 11.0867 36.3927 11.0432C36.3475 10.9998 36.3223 10.9424 36.3223 10.8827C36.3223 10.8231 36.3475 10.7657 36.3927 10.7223C36.438 10.6788 36.5 10.6526 36.5659 10.6489L44.3326 10.6503C44.3666 10.6501 44.4002 10.6561 44.4316 10.6677C44.463 10.6793 44.4915 10.6964 44.5156 10.718C44.5397 10.7396 44.5588 10.7653 44.5718 10.7935C44.5849 10.8218 44.5917 10.8521 44.5917 10.8827ZM37.6018 11.1541H43.2977V11.6784H37.6018V11.1541Z" fill="#F4900C"/>
<path d="M37.8601 14.6969C37.8601 14.955 37.7054 15.1641 37.5148 15.1641H37.1695C36.979 15.1641 36.8242 14.955 36.8242 14.6969V11.1546C36.8242 10.8964 36.979 10.6874 37.1695 10.6874H37.5148C37.7054 10.6874 37.8601 10.8964 37.8601 11.1546V14.6969ZM44.0737 14.6969C44.0737 14.955 43.9194 15.1641 43.7284 15.1641H43.3831C43.1925 15.1641 43.0378 14.955 43.0378 14.6969V11.1546C43.0378 10.8964 43.1921 10.6874 43.3831 10.6874H43.7284C43.9189 10.6874 44.0737 10.8964 44.0737 11.1546V14.6969ZM39.9315 14.6969C39.9315 14.955 39.7767 15.1641 39.5862 15.1641H39.2409C39.0503 15.1641 38.8956 14.955 38.8956 14.6969V11.1546C38.8956 10.8964 39.0503 10.6874 39.2409 10.6874H39.5862C39.7767 10.6874 39.9315 10.8964 39.9315 11.1546V14.6969ZM42.0023 14.6969C42.0023 14.955 41.8476 15.1641 41.657 15.1641H41.3122C41.1217 15.1641 40.9669 14.955 40.9669 14.6969V11.1546C40.9669 10.8964 41.1217 10.6874 41.3122 10.6874H41.657C41.8476 10.6874 42.0023 10.8964 42.0023 11.1546V14.6969Z" fill="#FFD983"/>
<path d="M44.3331 14.9302C44.3331 15.1884 44.1014 15.3974 43.8154 15.3974H37.0841C36.9468 15.3974 36.8151 15.3482 36.718 15.2606C36.621 15.173 36.5664 15.0541 36.5664 14.9302C36.5664 14.8063 36.621 14.6875 36.718 14.5999C36.8151 14.5122 36.9468 14.463 37.0841 14.463H43.8154C44.1009 14.463 44.3331 14.6721 44.3331 14.9302Z" fill="#FFCC4D"/>
<path d="M44.8505 15.3975C44.8505 15.6556 44.6188 15.8647 44.3328 15.8647H36.5656C36.4283 15.8647 36.2966 15.8155 36.1995 15.7279C36.1024 15.6402 36.0479 15.5214 36.0479 15.3975C36.0479 15.2736 36.1024 15.1548 36.1995 15.0671C36.2966 14.9795 36.4283 14.9303 36.5656 14.9303H44.3323C44.6183 14.9303 44.8505 15.1394 44.8505 15.3975Z" fill="#FFD983"/>
<path d="M44.3331 10.9208C44.3331 10.6627 44.0858 10.4536 43.7811 10.4536H37.0841C36.779 10.4536 36.5664 10.6627 36.5664 10.9208C36.5664 11.0963 36.6663 11.2475 36.8255 11.3275V11.6218H37.8609V11.388H38.8964V11.6218H39.9318V11.388H40.9672V11.6218H42.0027V11.388H43.0381V11.6218H44.074V11.3155C44.2293 11.2324 44.3331 11.087 44.3331 10.9208Z" fill="#FFCC4D"/>
<path d="M36.3066 10.557C36.3066 10.3161 36.5687 10.2198 36.5687 10.2198L40.4273 8.58435L44.3226 10.2198C44.3226 10.2198 44.5911 10.2737 44.5911 10.5588V10.6874H36.3066V10.557Z" fill="#FFD983"/>
<path d="M40.4494 9.17798C40.4494 9.17798 37.7776 10.3144 37.5111 10.4169C37.2442 10.519 37.3334 10.687 37.5116 10.687H43.3745C43.6498 10.687 43.5846 10.4974 43.3662 10.3948C43.1477 10.2927 40.4494 9.17798 40.4494 9.17798Z" fill="#FFAC33"/>
<path d="M44.5917 10.6869C44.5916 10.7489 44.5642 10.8083 44.5157 10.8522C44.4671 10.896 44.4013 10.9207 44.3326 10.9208H36.5659C36.5 10.9171 36.438 10.8909 36.3927 10.8474C36.3475 10.804 36.3223 10.7466 36.3223 10.6869C36.3223 10.6273 36.3475 10.5699 36.3927 10.5265C36.438 10.483 36.5 10.4568 36.5659 10.4531L44.3326 10.4545C44.3666 10.4543 44.4002 10.4603 44.4316 10.4719C44.463 10.4835 44.4915 10.5006 44.5156 10.5222C44.5397 10.5438 44.5588 10.5695 44.5718 10.5977C44.5849 10.626 44.5917 10.6563 44.5917 10.6869Z" fill="#FFD983"/>
</g>
<defs>
<filter id="filter0_i_287_21264" x="0.285156" y="-3.40771" width="54.8574" height="31.4286" filterUnits="userSpaceOnUse" color-interpolation-filters="sRGB">
<feFlood flood-opacity="0" result="BackgroundImageFix"/>
<feBlend mode="normal" in="SourceGraphic" in2="BackgroundImageFix" result="shape"/>
<feColorMatrix in="SourceAlpha" type="matrix" values="0 0 0 0 0 0 0 0 0 0 0 0 0 0 0 0 0 0 127 0" result="hardAlpha"/>
<feOffset dy="-24"/>
<feGaussianBlur stdDeviation="2"/>
<feComposite in2="hardAlpha" operator="arithmetic" k2="-1" k3="1"/>
<feColorMatrix type="matrix" values="0 0 0 0 0 0 0 0 0 0 0 0 0 0 0 0 0 0 0.25 0"/>
<feBlend mode="normal" in2="shape" result="effect1_innerShadow_287_21264"/>
</filter>
<clipPath id="clip0_287_21264">
<rect x="31.6328" y="5.49023" width="17.6327" height="15.9124" rx="7.9562" fill="white"/>
</clipPath>
</defs>
</svg>
