<svg width="56" height="28" viewBox="0 0 56 28" fill="none" xmlns="http://www.w3.org/2000/svg">
<g filter="url(#filter0_i_287_21167)">
<rect x="0.786133" y="0.908142" width="53.8572" height="26.4286" rx="4.5" stroke="#454545"/>
</g>
<path d="M10.7987 19.3469V17.97L14.5487 14.3518C15.618 13.2825 16.1747 12.6526 16.1747 11.759C16.1747 10.7776 15.3983 10.1477 14.3583 10.1477C13.2596 10.1477 12.5565 10.8362 12.5711 11.9055H10.7547C10.7401 9.89868 12.2489 8.59497 14.3729 8.59497C16.5409 8.59497 18.0057 9.88403 18.0057 11.6711C18.0057 12.8723 17.4198 13.8391 15.3397 15.802L13.4501 17.677V17.7502H18.1668V19.3469H10.7987ZM23.4179 19.4934C20.8691 19.4934 19.3456 17.5159 19.3456 14.0442C19.3456 10.5872 20.8691 8.59497 23.4179 8.59497C25.9521 8.59497 27.4902 10.5872 27.4902 14.0442C27.4902 17.5159 25.9667 19.4934 23.4179 19.4934ZM23.4179 17.8967C24.7509 17.8967 25.5712 16.593 25.5712 14.0442C25.5712 11.51 24.7363 10.177 23.4179 10.177C22.0995 10.177 21.2646 11.51 21.2646 14.0442C21.2646 16.593 22.0849 17.8967 23.4179 17.8967Z" fill="#454545"/>
<g clip-path="url(#clip0_287_21167)">
<path d="M40.4506 21.2185C45.0492 21.2185 48.7771 17.8543 48.7771 13.7043C48.7771 9.55434 45.0492 6.19012 40.4506 6.19012C35.8519 6.19012 32.124 9.55434 32.124 13.7043C32.124 17.8543 35.8519 21.2185 40.4506 21.2185Z" fill="#F4900C"/>
<path d="M40.4506 20.3345C45.0492 20.3345 48.7771 16.9703 48.7771 12.8203C48.7771 8.67031 45.0492 5.30609 40.4506 5.30609C35.8519 5.30609 32.124 8.67031 32.124 12.8203C32.124 16.9703 35.8519 20.3345 40.4506 20.3345Z" fill="#FFCC4D"/>
<path d="M40.4499 19.4505C44.237 19.4505 47.3071 16.6799 47.3071 13.2623C47.3071 9.84469 44.237 7.07416 40.4499 7.07416C36.6628 7.07416 33.5928 9.84469 33.5928 13.2623C33.5928 16.6799 36.6628 19.4505 40.4499 19.4505Z" fill="#FFE8B6"/>
<path d="M40.4499 19.0084C44.237 19.0084 47.3071 16.2379 47.3071 12.8203C47.3071 9.40267 44.237 6.63214 40.4499 6.63214C36.6628 6.63214 33.5928 9.40267 33.5928 12.8203C33.5928 16.2379 36.6628 19.0084 40.4499 19.0084Z" fill="#FFAC33"/>
<path d="M36.3076 10.1046C36.3076 9.8637 36.5697 9.76734 36.5697 9.76734L40.4283 8.1319L44.3236 9.76734C44.3236 9.76734 44.592 9.82126 44.592 10.1064V10.3897H36.3076V10.1046Z" fill="#FFE8B6"/>
<path d="M44.3336 10.9797C44.3336 10.7216 44.0862 10.5125 43.7816 10.5125H37.0846C36.7794 10.5125 36.5669 10.7216 36.5669 10.9797C36.5669 11.1552 36.6668 11.3064 36.826 11.3864V11.6807H37.8614V11.4469H38.8968V11.6807H39.9322V11.4469H40.9677V11.6807H42.0031V11.4469H43.0385V11.6807H44.0744V11.3744C44.2297 11.2913 44.3336 11.1459 44.3336 10.9797ZM45.1099 15.9143C45.1099 16.0073 45.069 16.0964 44.9961 16.1622C44.9233 16.2279 44.8245 16.2648 44.7215 16.2648H36.1784C36.0754 16.2648 35.9766 16.2279 35.9038 16.1622C35.831 16.0964 35.79 16.0073 35.79 15.9143C35.79 15.8214 35.831 15.7322 35.9038 15.6665C35.9766 15.6007 36.0754 15.5638 36.1784 15.5638H44.722C44.936 15.5638 45.1099 15.7207 45.1099 15.9143Z" fill="#F4900C"/>
<path d="M44.5927 10.6986C44.5926 10.7606 44.5652 10.82 44.5167 10.8638C44.4681 10.9076 44.4023 10.9323 44.3336 10.9324H36.5669C36.5009 10.9288 36.439 10.9025 36.3937 10.8591C36.3484 10.8156 36.3232 10.7582 36.3232 10.6986C36.3232 10.639 36.3484 10.5816 36.3937 10.5381C36.439 10.4947 36.5009 10.4684 36.5669 10.4648L44.3336 10.4661C44.3675 10.466 44.4012 10.4719 44.4326 10.4835C44.464 10.4952 44.4925 10.5123 44.5166 10.5339C44.5406 10.5555 44.5597 10.5811 44.5728 10.6094C44.5859 10.6377 44.5926 10.668 44.5927 10.6986ZM37.6028 10.97H43.2987V11.4942H37.6028V10.97Z" fill="#F4900C"/>
<path d="M37.8611 14.5127C37.8611 14.7709 37.7063 14.9799 37.5158 14.9799H37.1705C36.98 14.9799 36.8252 14.7709 36.8252 14.5127V10.9704C36.8252 10.7123 36.98 10.5032 37.1705 10.5032H37.5158C37.7063 10.5032 37.8611 10.7123 37.8611 10.9704V14.5127ZM44.0747 14.5127C44.0747 14.7709 43.9204 14.9799 43.7294 14.9799H43.3841C43.1935 14.9799 43.0387 14.7709 43.0387 14.5127V10.9704C43.0387 10.7123 43.193 10.5032 43.3841 10.5032H43.7294C43.9199 10.5032 44.0747 10.7123 44.0747 10.9704V14.5127ZM39.9325 14.5127C39.9325 14.7709 39.7777 14.9799 39.5872 14.9799H39.2418C39.0513 14.9799 38.8965 14.7709 38.8965 14.5127V10.9704C38.8965 10.7123 39.0513 10.5032 39.2418 10.5032H39.5872C39.7777 10.5032 39.9325 10.7123 39.9325 10.9704V14.5127ZM42.0033 14.5127C42.0033 14.7709 41.8485 14.9799 41.658 14.9799H41.3132C41.1227 14.9799 40.9679 14.7709 40.9679 14.5127V10.9704C40.9679 10.7123 41.1227 10.5032 41.3132 10.5032H41.658C41.8485 10.5032 42.0033 10.7123 42.0033 10.9704V14.5127Z" fill="#FFD983"/>
<path d="M44.3341 14.7461C44.3341 15.0043 44.1024 15.2133 43.8164 15.2133H37.0851C36.9478 15.2133 36.8161 15.1641 36.719 15.0765C36.6219 14.9889 36.5674 14.87 36.5674 14.7461C36.5674 14.6222 36.6219 14.5034 36.719 14.4158C36.8161 14.3282 36.9478 14.2789 37.0851 14.2789H43.8164C44.1019 14.2789 44.3341 14.488 44.3341 14.7461Z" fill="#FFCC4D"/>
<path d="M44.8514 15.2133C44.8514 15.4714 44.6198 15.6805 44.3337 15.6805H36.5665C36.4292 15.6805 36.2976 15.6313 36.2005 15.5437C36.1034 15.456 36.0488 15.3372 36.0488 15.2133C36.0488 15.0894 36.1034 14.9706 36.2005 14.8829C36.2976 14.7953 36.4292 14.7461 36.5665 14.7461H44.3332C44.6193 14.7461 44.8514 14.9552 44.8514 15.2133Z" fill="#FFD983"/>
<path d="M44.3341 10.7366C44.3341 10.4785 44.0867 10.2694 43.7821 10.2694H37.0851C36.78 10.2694 36.5674 10.4785 36.5674 10.7366C36.5674 10.9121 36.6673 11.0633 36.8265 11.1433V11.4376H37.8619V11.2038H38.8973V11.4376H39.9328V11.2038H40.9682V11.4376H42.0036V11.2038H43.0391V11.4376H44.075V11.1313C44.2302 11.0482 44.3341 10.9028 44.3341 10.7366Z" fill="#FFCC4D"/>
<path d="M36.3076 10.3728C36.3076 10.1319 36.5697 10.0356 36.5697 10.0356L40.4283 8.40015L44.3236 10.0356C44.3236 10.0356 44.592 10.0895 44.592 10.3746V10.5032H36.3076V10.3728Z" fill="#FFD983"/>
<path d="M40.4504 8.99377C40.4504 8.99377 37.7786 10.1302 37.5121 10.2327C37.2452 10.3348 37.3343 10.5028 37.5126 10.5028H43.3755C43.6507 10.5028 43.5856 10.3132 43.3671 10.2106C43.1487 10.1085 40.4504 8.99377 40.4504 8.99377Z" fill="#FFAC33"/>
<path d="M44.5927 10.5028C44.5926 10.5648 44.5652 10.6242 44.5167 10.668C44.4681 10.7118 44.4023 10.7365 44.3336 10.7366H36.5669C36.5009 10.733 36.439 10.7067 36.3937 10.6633C36.3484 10.6198 36.3232 10.5624 36.3232 10.5028C36.3232 10.4432 36.3484 10.3858 36.3937 10.3423C36.439 10.2989 36.5009 10.2726 36.5669 10.269L44.3336 10.2703C44.3675 10.2702 44.4012 10.2761 44.4326 10.2877C44.464 10.2994 44.4925 10.3165 44.5166 10.3381C44.5406 10.3597 44.5597 10.3853 44.5728 10.4136C44.5859 10.4419 44.5926 10.4722 44.5927 10.5028Z" fill="#FFD983"/>
</g>
<defs>
<filter id="filter0_i_287_21167" x="0.286133" y="-3.59186" width="54.8574" height="31.4286" filterUnits="userSpaceOnUse" color-interpolation-filters="sRGB">
<feFlood flood-opacity="0" result="BackgroundImageFix"/>
<feBlend mode="normal" in="SourceGraphic" in2="BackgroundImageFix" result="shape"/>
<feColorMatrix in="SourceAlpha" type="matrix" values="0 0 0 0 0 0 0 0 0 0 0 0 0 0 0 0 0 0 127 0" result="hardAlpha"/>
<feOffset dy="-24"/>
<feGaussianBlur stdDeviation="2"/>
<feComposite in2="hardAlpha" operator="arithmetic" k2="-1" k3="1"/>
<feColorMatrix type="matrix" values="0 0 0 0 0 0 0 0 0 0 0 0 0 0 0 0 0 0 0.25 0"/>
<feBlend mode="normal" in2="shape" result="effect1_innerShadow_287_21167"/>
</filter>
<clipPath id="clip0_287_21167">
<rect x="31.6338" y="5.30609" width="17.6327" height="15.9124" rx="7.9562" fill="white"/>
</clipPath>
</defs>
</svg>
