<svg xmlns="http://www.w3.org/2000/svg" width="21" height="6" viewBox="0 0 21 6" fill="none">
  <path d="M0.227865 3.07031C0.227865 4.54307 1.42177 5.73698 2.89453 5.73698C4.36729 5.73698 5.5612 4.54307 5.5612 3.07031C5.5612 1.59755 4.36729 0.403646 2.89453 0.403646C1.42177 0.403646 0.227865 1.59755 0.227865 3.07031ZM15.2279 3.07031C15.2279 4.54307 16.4218 5.73698 17.8945 5.73698C19.3673 5.73698 20.5612 4.54307 20.5612 3.07031C20.5612 1.59755 19.3673 0.403646 17.8945 0.403646C16.4218 0.403646 15.2279 1.59755 15.2279 3.07031ZM2.89453 3.57031H17.8945V2.57031H2.89453V3.57031Z" fill="#005FA4"/>
</svg>