<svg xmlns="http://www.w3.org/2000/svg" width="24" height="24" viewBox="0 0 24 24" fill="none">
  <mask id="mask0_147_23273" style="mask-type:alpha" maskUnits="userSpaceOnUse" x="0" y="0" width="24" height="24">
    <rect x="24" width="24" height="24" transform="rotate(90 24 0)" fill="#D9D9D9"/>
  </mask>
  <g mask="url(#mask0_147_23273)">
    <path d="M13.2001 12L9.3001 8.10005C9.11676 7.91672 9.0251 7.68338 9.0251 7.40005C9.0251 7.11672 9.11676 6.88338 9.3001 6.70005C9.48343 6.51672 9.71676 6.42505 10.0001 6.42505C10.2834 6.42505 10.5168 6.51672 10.7001 6.70005L15.3001 11.3C15.5001 11.5 15.6001 11.7334 15.6001 12C15.6001 12.2667 15.5001 12.5 15.3001 12.7L10.7001 17.3C10.5168 17.4834 10.2834 17.575 10.0001 17.575C9.71676 17.575 9.48343 17.4834 9.3001 17.3C9.11676 17.1167 9.0251 16.8834 9.0251 16.6C9.0251 16.3167 9.11676 16.0834 9.3001 15.9L13.2001 12Z" fill="#454545"/>
  </g>
</svg>