<svg width="37" height="36" viewBox="0 0 37 36" fill="none" xmlns="http://www.w3.org/2000/svg">
<rect x="0.5" width="36" height="36" rx="18" fill="#DBDBDB"/>
<mask id="mask0_598_13374" style="mask-type:alpha" maskUnits="userSpaceOnUse" x="6" y="6" width="25" height="24">
<rect x="6.5" y="6" width="24" height="24" fill="#D9D9D9"/>
</mask>
<g mask="url(#mask0_598_13374)">
<path d="M18.4998 19.4L13.5998 24.3C13.4165 24.4833 13.1831 24.575 12.8998 24.575C12.6165 24.575 12.3831 24.4833 12.1998 24.3C12.0165 24.1167 11.9248 23.8833 11.9248 23.6C11.9248 23.3167 12.0165 23.0833 12.1998 22.9L17.0998 18L12.1998 13.1C12.0165 12.9167 11.9248 12.6833 11.9248 12.4C11.9248 12.1167 12.0165 11.8833 12.1998 11.7C12.3831 11.5167 12.6165 11.425 12.8998 11.425C13.1831 11.425 13.4165 11.5167 13.5998 11.7L18.4998 16.6L23.3998 11.7C23.5831 11.5167 23.8165 11.425 24.0998 11.425C24.3831 11.425 24.6165 11.5167 24.7998 11.7C24.9831 11.8833 25.0748 12.1167 25.0748 12.4C25.0748 12.6833 24.9831 12.9167 24.7998 13.1L19.8998 18L24.7998 22.9C24.9831 23.0833 25.0748 23.3167 25.0748 23.6C25.0748 23.8833 24.9831 24.1167 24.7998 24.3C24.6165 24.4833 24.3831 24.575 24.0998 24.575C23.8165 24.575 23.5831 24.4833 23.3998 24.3L18.4998 19.4Z" fill="#5E5E5E"/>
</g>
</svg>
