<svg xmlns="http://www.w3.org/2000/svg" width="22" height="23" viewBox="0 0 22 23" fill="none">
  <path d="M16.303 8.524L19.485 11.706C20.0013 12.2155 20.4118 12.822 20.6928 13.4908C20.9737 14.1595 21.1196 14.8773 21.122 15.6026C21.1245 16.328 20.9834 17.0467 20.7069 17.7173C20.4305 18.3879 20.0241 18.9972 19.5111 19.5101C18.9982 20.0231 18.3889 20.4295 17.7183 20.7059C17.0477 20.9824 16.329 21.1235 15.6036 21.121C14.8783 21.1186 14.1605 20.9727 13.4918 20.6918C12.823 20.4108 12.2165 20.0003 11.707 19.484L10.647 18.424C10.5037 18.2857 10.3893 18.1202 10.3106 17.9373C10.2319 17.7543 10.1905 17.5575 10.1886 17.3583C10.1868 17.1592 10.2247 16.9616 10.3 16.7772C10.3753 16.5929 10.4866 16.4253 10.6274 16.2844C10.7682 16.1435 10.9356 16.0321 11.1199 15.9566C11.3042 15.881 11.5017 15.843 11.7009 15.8446C11.9001 15.8463 12.0969 15.8876 12.28 15.9661C12.463 16.0446 12.6286 16.1588 12.767 16.302L13.829 17.363C14.2986 17.8284 14.9334 18.0888 15.5946 18.0873C16.2557 18.0857 16.8893 17.8224 17.3568 17.3548C17.8242 16.8872 18.0874 16.2535 18.0888 15.5924C18.0901 14.9312 17.8295 14.2965 17.364 13.827L14.182 10.645C13.8381 10.3009 13.4012 10.0647 12.925 9.9652C12.4488 9.86573 11.9539 9.90737 11.501 10.085C11.3397 10.149 11.1883 10.2143 11.047 10.281L10.583 10.498C9.963 10.778 9.486 10.898 8.879 10.292C8.007 9.42 8.233 8.615 9.296 7.882C10.3549 7.15336 11.6356 6.81861 12.9156 6.93589C14.1956 7.05317 15.3941 7.61507 16.303 8.524ZM10.293 2.514L11.353 3.574C11.6264 3.85678 11.7777 4.23561 11.7745 4.62891C11.7713 5.02221 11.6137 5.3985 11.3357 5.67675C11.0577 5.95499 10.6816 6.11292 10.2883 6.11652C9.89501 6.12013 9.51603 5.96911 9.233 5.696L8.172 4.636C7.94145 4.39716 7.66565 4.20663 7.36067 4.07552C7.0557 3.94442 6.72767 3.87536 6.39572 3.87238C6.06378 3.8694 5.73456 3.93256 5.42728 4.05818C5.12001 4.18379 4.84083 4.36935 4.60603 4.60401C4.37123 4.83868 4.18552 5.11775 4.05973 5.42496C3.93394 5.73216 3.87059 6.06134 3.87338 6.39329C3.87617 6.72524 3.94505 7.05331 4.07598 7.35836C4.20692 7.6634 4.39729 7.93932 4.636 8.17L7.818 11.352C8.16193 11.6961 8.59878 11.9323 9.07499 12.0318C9.55121 12.1313 10.0461 12.0896 10.499 11.912C10.6603 11.848 10.8117 11.7827 10.953 11.716L11.417 11.499C12.037 11.219 12.515 11.099 13.121 11.705C13.993 12.577 13.767 13.382 12.704 14.115C11.6451 14.8436 10.3644 15.1784 9.08441 15.0611C7.80439 14.9438 6.60587 14.3819 5.697 13.473L2.515 10.291C1.99866 9.78154 1.5882 9.17496 1.30725 8.50621C1.0263 7.83746 0.880406 7.11974 0.877976 6.39437C0.875546 5.669 1.01662 4.95032 1.29309 4.2797C1.56955 3.60908 1.97594 2.99977 2.48886 2.48686C3.00177 1.97394 3.61108 1.56755 4.2817 1.29109C4.95232 1.01463 5.671 0.873547 6.39637 0.875977C7.12174 0.878407 7.83946 1.0243 8.50821 1.30525C9.17696 1.5862 9.78354 1.99766 10.293 2.514Z" fill="#454545"/>
</svg>