<svg xmlns="http://www.w3.org/2000/svg" width="16" height="16" viewBox="0 0 16 16" fill="none">
  <mask id="mask0_2_658" style="mask-type:alpha" maskUnits="userSpaceOnUse" x="0" y="0" width="16" height="16">
    <rect width="16" height="16" fill="#D9D9D9"/>
  </mask>
  <g mask="url(#mask0_2_658)">
    <path d="M4.63289 8.4335C4.51322 8.4335 4.41105 8.39228 4.32639 8.30983C4.24161 8.22739 4.19922 8.12528 4.19922 8.0035C4.19922 7.88161 4.24077 7.77839 4.32389 7.69383C4.40689 7.60917 4.50977 7.56683 4.63255 7.56683H11.3656C11.4852 7.56683 11.5874 7.60806 11.6721 7.6905C11.7568 7.77294 11.7992 7.87506 11.7992 7.99683C11.7992 8.11872 11.7577 8.22194 11.6746 8.3065C11.5916 8.39117 11.4887 8.4335 11.3659 8.4335H4.63289Z" fill="#919191"/>
  </g>
</svg>