<svg xmlns="http://www.w3.org/2000/svg" width="16" height="16" viewBox="0 0 16 16" fill="none">
  <mask id="mask0_2_661" style="mask-type:alpha" maskUnits="userSpaceOnUse" x="0" y="0" width="16" height="16">
    <rect width="16" height="16" fill="#D9D9D9"/>
  </mask>
  <g mask="url(#mask0_2_661)">
    <path d="M7.56614 8.43321H4.76614C4.64337 8.43321 4.54048 8.39198 4.45748 8.30954C4.37437 8.2271 4.33281 8.12498 4.33281 8.00321C4.33281 7.88132 4.37437 7.7781 4.45748 7.69354C4.54048 7.60887 4.64337 7.56654 4.76614 7.56654H7.56614V4.76654C7.56614 4.64376 7.60737 4.54087 7.68981 4.45787C7.77225 4.37476 7.87436 4.33321 7.99614 4.33321C8.11803 4.33321 8.22125 4.37476 8.30581 4.45787C8.39048 4.54087 8.43281 4.64376 8.43281 4.76654V7.56654H11.2328C11.3556 7.56654 11.4585 7.60776 11.5415 7.69021C11.6246 7.77265 11.6661 7.87476 11.6661 7.99654C11.6661 8.11843 11.6246 8.22165 11.5415 8.30621C11.4585 8.39087 11.3556 8.43321 11.2328 8.43321H8.43281V11.2332C8.43281 11.356 8.39159 11.4589 8.30914 11.5419C8.2267 11.625 8.12459 11.6665 8.00281 11.6665C7.88092 11.6665 7.7777 11.625 7.69314 11.5419C7.60848 11.4589 7.56614 11.356 7.56614 11.2332V8.43321Z" fill="#2B2B2B"/>
  </g>
</svg>