<svg width="135" height="135" viewBox="0 0 135 135" fill="none" xmlns="http://www.w3.org/2000/svg">
<g filter="url(#filter0_i_2_1554)">
<path d="M0 16.1677C0 7.23851 7.23851 0 16.1677 0H118.832C127.761 0 135 7.23851 135 16.1677V118.832C135 127.761 127.761 135 118.832 135H16.1677C7.23851 135 0 127.761 0 118.832V16.1677Z" fill="#FAFAFA"/>
</g>
<rect width="99.3272" height="98.4149" transform="translate(17.7832 18.5918)" fill="#FAFAFA"/>
<g filter="url(#filter1_ii_2_1554)">
<path fill-rule="evenodd" clip-rule="evenodd" d="M17.7832 20.5095C17.7832 19.6166 18.5071 18.8927 19.4 18.8927H64.0689C64.9618 18.8927 65.6857 19.6166 65.6857 20.5095V33.2434C65.6857 34.1252 64.9797 34.8422 64.1022 34.8599C64.9797 34.8776 65.6857 35.5945 65.6857 36.4763V49.2102C65.6857 50.0921 64.9797 50.809 64.1021 50.8267C64.9797 50.8444 65.6857 51.5613 65.6857 52.4431V65.1771C65.6857 66.07 64.9618 66.7938 64.0689 66.7938H19.4C18.5071 66.7938 17.7832 66.07 17.7832 65.1771V52.4431C17.7832 51.5613 18.4892 50.8444 19.3668 50.8267C18.4892 50.809 17.7832 50.0921 17.7832 49.2102V36.4763C17.7832 35.5945 18.4892 34.8776 19.3667 34.8599C18.4892 34.8422 17.7832 34.1252 17.7832 33.2434V20.5095Z" fill="#FFCC00"/>
<rect x="23.1719" y="34.4611" width="35.9269" height="1" rx="0.5" fill="white" fill-opacity="0.74"/>
<rect x="23.1719" y="50.6271" width="35.9269" height="1" rx="0.5" fill="white" fill-opacity="0.74"/>
</g>
<g filter="url(#filter2_i_2_1554)">
<circle cx="92.7549" cy="42.8433" r="24.2515" fill="#56E443"/>
</g>
<g filter="url(#filter3_ii_2_1554)">
<path fill-rule="evenodd" clip-rule="evenodd" d="M17.7832 70.4213C17.7832 69.5284 18.5071 68.8046 19.4 68.8046H64.0689C64.9618 68.8046 65.6857 69.5284 65.6857 70.4213V83.1553C65.6857 84.0371 64.9797 84.754 64.1021 84.7717C64.9797 84.7894 65.6857 85.5063 65.6857 86.3882V99.1221C65.6857 100.004 64.9797 100.721 64.1021 100.739C64.9797 100.756 65.6857 101.473 65.6857 102.355V115.089C65.6857 115.982 64.9618 116.706 64.0689 116.706H19.4C18.5071 116.706 17.7832 115.982 17.7832 115.089V102.355C17.7832 101.473 18.4892 100.756 19.3668 100.739C18.4892 100.721 17.7832 100.004 17.7832 99.1221V86.3882C17.7832 85.5063 18.4892 84.7894 19.3668 84.7717C18.4892 84.754 17.7832 84.0371 17.7832 83.1553V70.4213Z" fill="#56E443"/>
<rect x="23.1719" y="84.3729" width="35.9269" height="1" rx="0.5" fill="#239813" fill-opacity="0.87"/>
<rect x="23.1719" y="100.539" width="35.9269" height="1" rx="0.5" fill="#239813" fill-opacity="0.87"/>
</g>
<g filter="url(#filter4_i_2_1554)">
<circle cx="92.7549" cy="92.7552" r="24.2515" fill="#FFCC00"/>
</g>
<defs>
<filter id="filter0_i_2_1554" x="0" y="-3.23353" width="135" height="138.234" filterUnits="userSpaceOnUse" color-interpolation-filters="sRGB">
<feFlood flood-opacity="0" result="BackgroundImageFix"/>
<feBlend mode="normal" in="SourceGraphic" in2="BackgroundImageFix" result="shape"/>
<feColorMatrix in="SourceAlpha" type="matrix" values="0 0 0 0 0 0 0 0 0 0 0 0 0 0 0 0 0 0 127 0" result="hardAlpha"/>
<feOffset dy="-3.23353"/>
<feGaussianBlur stdDeviation="1.61677"/>
<feComposite in2="hardAlpha" operator="arithmetic" k2="-1" k3="1"/>
<feColorMatrix type="matrix" values="0 0 0 0 0.666667 0 0 0 0 0.666667 0 0 0 0 0.666667 0 0 0 0.25 0"/>
<feBlend mode="normal" in2="shape" result="effect1_innerShadow_2_1554"/>
</filter>
<filter id="filter1_ii_2_1554" x="15.6699" y="16.0749" width="52.1292" height="53.5367" filterUnits="userSpaceOnUse" color-interpolation-filters="sRGB">
<feFlood flood-opacity="0" result="BackgroundImageFix"/>
<feBlend mode="normal" in="SourceGraphic" in2="BackgroundImageFix" result="shape"/>
<feColorMatrix in="SourceAlpha" type="matrix" values="0 0 0 0 0 0 0 0 0 0 0 0 0 0 0 0 0 0 127 0" result="hardAlpha"/>
<feOffset dx="2.11334" dy="2.81779"/>
<feGaussianBlur stdDeviation="1.4089"/>
<feComposite in2="hardAlpha" operator="arithmetic" k2="-1" k3="1"/>
<feColorMatrix type="matrix" values="0 0 0 0 1 0 0 0 0 1 0 0 0 0 1 0 0 0 0.25 0"/>
<feBlend mode="normal" in2="shape" result="effect1_innerShadow_2_1554"/>
<feColorMatrix in="SourceAlpha" type="matrix" values="0 0 0 0 0 0 0 0 0 0 0 0 0 0 0 0 0 0 127 0" result="hardAlpha"/>
<feOffset dx="-2.11334" dy="-2.81779"/>
<feGaussianBlur stdDeviation="1.4089"/>
<feComposite in2="hardAlpha" operator="arithmetic" k2="-1" k3="1"/>
<feColorMatrix type="matrix" values="0 0 0 0 0.941667 0 0 0 0 0.580695 0 0 0 0 0 0 0 0 0.47 0"/>
<feBlend mode="normal" in2="effect1_innerShadow_2_1554" result="effect2_innerShadow_2_1554"/>
</filter>
<filter id="filter2_i_2_1554" x="68.5034" y="16.4785" width="48.5031" height="50.6163" filterUnits="userSpaceOnUse" color-interpolation-filters="sRGB">
<feFlood flood-opacity="0" result="BackgroundImageFix"/>
<feBlend mode="normal" in="SourceGraphic" in2="BackgroundImageFix" result="shape"/>
<feColorMatrix in="SourceAlpha" type="matrix" values="0 0 0 0 0 0 0 0 0 0 0 0 0 0 0 0 0 0 127 0" result="hardAlpha"/>
<feOffset dy="-2.11334"/>
<feGaussianBlur stdDeviation="1.4089"/>
<feComposite in2="hardAlpha" operator="arithmetic" k2="-1" k3="1"/>
<feColorMatrix type="matrix" values="0 0 0 0 0.136005 0 0 0 0 0.595833 0 0 0 0 0.0744792 0 0 0 0.87 0"/>
<feBlend mode="normal" in2="shape" result="effect1_innerShadow_2_1554"/>
</filter>
<filter id="filter3_ii_2_1554" x="15.6699" y="65.9868" width="52.1292" height="53.5367" filterUnits="userSpaceOnUse" color-interpolation-filters="sRGB">
<feFlood flood-opacity="0" result="BackgroundImageFix"/>
<feBlend mode="normal" in="SourceGraphic" in2="BackgroundImageFix" result="shape"/>
<feColorMatrix in="SourceAlpha" type="matrix" values="0 0 0 0 0 0 0 0 0 0 0 0 0 0 0 0 0 0 127 0" result="hardAlpha"/>
<feOffset dx="2.11334" dy="2.81779"/>
<feGaussianBlur stdDeviation="1.4089"/>
<feComposite in2="hardAlpha" operator="arithmetic" k2="-1" k3="1"/>
<feColorMatrix type="matrix" values="0 0 0 0 1 0 0 0 0 1 0 0 0 0 1 0 0 0 0.25 0"/>
<feBlend mode="normal" in2="shape" result="effect1_innerShadow_2_1554"/>
<feColorMatrix in="SourceAlpha" type="matrix" values="0 0 0 0 0 0 0 0 0 0 0 0 0 0 0 0 0 0 127 0" result="hardAlpha"/>
<feOffset dx="-2.11334" dy="-2.81779"/>
<feGaussianBlur stdDeviation="1.4089"/>
<feComposite in2="hardAlpha" operator="arithmetic" k2="-1" k3="1"/>
<feColorMatrix type="matrix" values="0 0 0 0 0.0831004 0 0 0 0 0.704167 0 0 0 0 0 0 0 0 1 0"/>
<feBlend mode="normal" in2="effect1_innerShadow_2_1554" result="effect2_innerShadow_2_1554"/>
</filter>
<filter id="filter4_i_2_1554" x="68.5034" y="66.3903" width="48.5031" height="50.6163" filterUnits="userSpaceOnUse" color-interpolation-filters="sRGB">
<feFlood flood-opacity="0" result="BackgroundImageFix"/>
<feBlend mode="normal" in="SourceGraphic" in2="BackgroundImageFix" result="shape"/>
<feColorMatrix in="SourceAlpha" type="matrix" values="0 0 0 0 0 0 0 0 0 0 0 0 0 0 0 0 0 0 127 0" result="hardAlpha"/>
<feOffset dy="-2.11334"/>
<feGaussianBlur stdDeviation="1.4089"/>
<feComposite in2="hardAlpha" operator="arithmetic" k2="-1" k3="1"/>
<feColorMatrix type="matrix" values="0 0 0 0 0.75 0 0 0 0 0.484063 0 0 0 0 0.05625 0 0 0 0.74 0"/>
<feBlend mode="normal" in2="shape" result="effect1_innerShadow_2_1554"/>
</filter>
</defs>
</svg>
