<svg width="219" height="219" viewBox="0 0 219 219" fill="none" xmlns="http://www.w3.org/2000/svg">
<path d="M165.054 60.4635C164.735 62.2107 163.734 63.7595 162.273 64.7694C160.811 65.7792 159.008 66.1672 157.26 65.8481C155.512 65.529 153.962 64.5289 152.952 63.0678C151.941 61.6066 151.553 59.8042 151.872 58.057C152.191 56.3099 153.191 54.761 154.652 53.7512C156.114 52.7414 157.917 52.3533 159.665 52.6725C161.413 52.9916 162.963 53.9917 163.973 55.4528C164.984 56.9139 165.372 58.7163 165.054 60.4635Z" fill="#1C586C"/>
<path fill-rule="evenodd" clip-rule="evenodd" d="M165.25 21.5357C163.043 21.1326 161.027 21.4455 159.521 22.1438C158.07 22.8183 157.241 23.7595 156.89 24.6382C156.394 25.8079 155.46 26.737 154.287 27.226C153.114 27.715 151.796 27.7251 150.616 27.2539C149.436 26.7828 148.487 25.8681 147.974 24.706C147.46 23.5439 147.423 22.227 147.87 21.0379C149.295 17.4657 152.147 14.8587 155.436 13.3319C158.859 11.7444 162.921 11.2403 166.994 11.9839C175.42 13.5221 183.128 20.7492 181.477 29.7937C180.521 35.0308 176.633 38.698 172.149 40.432C170.947 40.8959 169.61 40.8636 168.432 40.3421C167.254 39.8207 166.331 38.8528 165.867 37.6514C165.402 36.4501 165.434 35.1136 165.956 33.9361C166.477 32.7586 167.446 31.8364 168.647 31.3725C170.736 30.5659 171.705 29.2283 171.92 28.0492C172.265 26.1586 170.5 22.494 165.25 21.5357Z" fill="#1C586C"/>
<path fill-rule="evenodd" clip-rule="evenodd" d="M162.927 34.2659C165.563 34.7472 167.316 37.2727 166.833 39.9144L165.93 44.8618C165.699 46.1285 164.974 47.2515 163.914 47.9836C162.854 48.7157 161.547 48.997 160.28 48.7657C159.013 48.5343 157.889 47.8092 157.156 46.7499C156.424 45.6906 156.142 44.3839 156.373 43.1172L157.277 38.1697C157.758 35.5346 160.287 33.784 162.927 34.2659Z" fill="#1C586C"/>
<path fill-rule="evenodd" clip-rule="evenodd" d="M174.955 34.2021C175.18 34.7995 175.284 35.4352 175.263 36.0729C175.241 36.7106 175.094 37.3378 174.83 37.9187C174.566 38.4995 174.19 39.0226 173.723 39.458C173.257 39.8934 172.709 40.2326 172.111 40.4562L163.762 43.5849C162.556 44.0372 161.219 43.9921 160.046 43.4594C158.873 42.9268 157.96 41.9502 157.507 40.7446C157.055 39.539 157.099 38.203 157.632 37.0307C158.165 35.8583 159.142 34.9456 160.348 34.4932L168.701 31.3618C169.298 31.138 169.934 31.0341 170.571 31.0558C171.209 31.0776 171.836 31.2247 172.417 31.4888C172.997 31.7529 173.52 32.1287 173.956 32.5948C174.391 33.0609 174.731 33.6049 174.955 34.2021Z" fill="#1C586C"/>
<path d="M180.271 90.9014C179.625 92.119 178.521 93.0302 177.203 93.4344C175.884 93.8386 174.459 93.7027 173.241 93.0567C172.023 92.4107 171.111 91.3074 170.706 89.9896C170.302 88.6717 170.438 87.2473 171.084 86.0297C171.731 84.812 172.835 83.9008 174.153 83.4966C175.472 83.0924 176.897 83.2283 178.115 83.8743C179.333 84.5204 180.245 85.6237 180.649 86.9415C181.054 88.2593 180.918 89.6837 180.271 90.9014Z" fill="#1C586C"/>
<path fill-rule="evenodd" clip-rule="evenodd" d="M189.561 62.1511C188.023 61.3352 186.458 61.094 185.18 61.2573C183.948 61.4158 183.113 61.9176 182.647 62.4853C182.006 63.2344 181.097 63.7026 180.114 63.7892C179.131 63.8759 178.154 63.5742 177.391 62.9489C176.629 62.3236 176.142 61.4244 176.035 60.4444C175.928 59.4643 176.21 58.4814 176.82 57.7065C178.713 55.3983 181.436 54.1388 184.227 53.7807C187.132 53.4091 190.256 53.989 193.095 55.4943C198.967 58.6084 202.972 65.7622 199.626 72.0655C197.689 75.7153 193.952 77.5164 190.227 77.7473C189.228 77.8087 188.247 77.4712 187.498 76.8091C186.749 76.1471 186.293 75.2147 186.232 74.2171C186.171 73.2195 186.508 72.2384 187.171 71.4897C187.833 70.7409 188.766 70.2858 189.764 70.2245C191.498 70.1176 192.53 69.3555 192.966 68.5337C193.665 67.2161 193.22 64.0912 189.561 62.1511Z" fill="#1C586C"/>
<path fill-rule="evenodd" clip-rule="evenodd" d="M184.852 71.0233C186.689 71.9977 187.392 74.2769 186.415 76.1179L184.585 79.5659C184.116 80.4487 183.316 81.1093 182.36 81.4023C181.404 81.6954 180.371 81.5969 179.488 81.1285C178.604 80.6601 177.944 79.8603 177.65 78.9048C177.357 77.9494 177.456 76.9167 177.924 76.0339L179.755 72.5859C180.729 70.7495 183.012 70.0478 184.852 71.0233Z" fill="#1C586C"/>
<path fill-rule="evenodd" clip-rule="evenodd" d="M193.766 73.7972C193.792 74.2917 193.72 74.7865 193.554 75.2532C193.389 75.7199 193.133 76.1494 192.801 76.5171C192.469 76.8849 192.068 77.1836 191.62 77.3962C191.173 77.6089 190.688 77.7313 190.193 77.7565L183.281 78.1128C182.283 78.1645 181.305 77.8177 180.562 77.1486C179.819 76.4794 179.373 75.5428 179.321 74.5448C179.269 73.5468 179.616 72.5691 180.286 71.8268C180.955 71.0845 181.892 70.6384 182.891 70.5866L189.806 70.2292C190.301 70.2038 190.795 70.2759 191.262 70.4416C191.729 70.6073 192.158 70.8632 192.526 71.1947C192.893 71.5262 193.192 71.9269 193.405 72.3739C193.617 72.8208 193.741 73.3029 193.766 73.7972Z" fill="#1C586C"/>
<g filter="url(#filter0_ii_308_24807)">
<path d="M72.8264 53.6892C82.7976 45.0969 97.5567 45.0969 107.528 53.6892C112.445 57.9262 118.747 60.2175 125.237 60.1307C138.393 59.9548 149.706 69.4377 151.818 82.4237C152.859 88.8289 156.212 94.6324 161.239 98.7355C171.433 107.055 173.999 121.588 167.265 132.893C163.945 138.468 162.781 145.066 163.994 151.441C166.452 164.365 159.067 177.145 146.644 181.477C140.516 183.614 135.378 187.922 132.207 193.584C125.778 205.066 111.906 210.11 99.6008 205.447C93.531 203.146 86.8233 203.146 80.7536 205.447C68.4485 210.11 54.5763 205.066 48.1472 193.584C44.9764 187.922 39.8384 183.614 33.7103 181.477C21.2878 177.145 13.902 164.365 16.3608 151.441C17.5737 145.066 16.4098 138.468 13.0891 132.893C6.35576 121.588 8.9211 107.055 19.1149 98.7355C24.1424 94.6324 27.4949 88.8289 28.5367 82.4237C30.6488 69.4377 41.9615 59.9548 55.1169 60.1307C61.607 60.2175 67.9095 57.9262 72.8264 53.6892Z" fill="#61D8FF"/>
</g>
<g filter="url(#filter1_ii_308_24807)">
<ellipse cx="73.3294" cy="118.908" rx="4.5091" ry="9.01359" fill="#2B2B2B"/>
</g>
<g filter="url(#filter2_ii_308_24807)">
<ellipse cx="104.89" cy="118.908" rx="4.5091" ry="9.01359" fill="#2B2B2B"/>
</g>
<defs>
<filter id="filter0_ii_308_24807" x="9.34961" y="37.7523" width="161.656" height="178.916" filterUnits="userSpaceOnUse" color-interpolation-filters="sRGB">
<feFlood flood-opacity="0" result="BackgroundImageFix"/>
<feBlend mode="normal" in="SourceGraphic" in2="BackgroundImageFix" result="shape"/>
<feColorMatrix in="SourceAlpha" type="matrix" values="0 0 0 0 0 0 0 0 0 0 0 0 0 0 0 0 0 0 127 0" result="hardAlpha"/>
<feOffset dy="9.49285"/>
<feGaussianBlur stdDeviation="4.74642"/>
<feComposite in2="hardAlpha" operator="arithmetic" k2="-1" k3="1"/>
<feColorMatrix type="matrix" values="0 0 0 0 0.67451 0 0 0 0 0.67451 0 0 0 0 0.67451 0 0 0 0.25 0"/>
<feBlend mode="normal" in2="shape" result="effect1_innerShadow_308_24807"/>
<feColorMatrix in="SourceAlpha" type="matrix" values="0 0 0 0 0 0 0 0 0 0 0 0 0 0 0 0 0 0 127 0" result="hardAlpha"/>
<feOffset dy="-14.2393"/>
<feGaussianBlur stdDeviation="4.74642"/>
<feComposite in2="hardAlpha" operator="arithmetic" k2="-1" k3="1"/>
<feColorMatrix type="matrix" values="0 0 0 0 0.141176 0 0 0 0 0.141176 0 0 0 0 0.141176 0 0 0 0.25 0"/>
<feBlend mode="normal" in2="effect1_innerShadow_308_24807" result="effect2_innerShadow_308_24807"/>
</filter>
<filter id="filter1_ii_308_24807" x="68.8203" y="107.758" width="9.01758" height="20.1632" filterUnits="userSpaceOnUse" color-interpolation-filters="sRGB">
<feFlood flood-opacity="0" result="BackgroundImageFix"/>
<feBlend mode="normal" in="SourceGraphic" in2="BackgroundImageFix" result="shape"/>
<feColorMatrix in="SourceAlpha" type="matrix" values="0 0 0 0 0 0 0 0 0 0 0 0 0 0 0 0 0 0 127 0" result="hardAlpha"/>
<feOffset dy="-2.37321"/>
<feGaussianBlur stdDeviation="1.06795"/>
<feComposite in2="hardAlpha" operator="arithmetic" k2="-1" k3="1"/>
<feColorMatrix type="matrix" values="0 0 0 0 1 0 0 0 0 1 0 0 0 0 1 0 0 0 0.25 0"/>
<feBlend mode="normal" in2="shape" result="effect1_innerShadow_308_24807"/>
<feColorMatrix in="SourceAlpha" type="matrix" values="0 0 0 0 0 0 0 0 0 0 0 0 0 0 0 0 0 0 127 0" result="hardAlpha"/>
<feOffset/>
<feGaussianBlur stdDeviation="0.949285"/>
<feComposite in2="hardAlpha" operator="arithmetic" k2="-1" k3="1"/>
<feColorMatrix type="matrix" values="0 0 0 0 0.958333 0 0 0 0 0.958333 0 0 0 0 0.958333 0 0 0 0.25 0"/>
<feBlend mode="normal" in2="effect1_innerShadow_308_24807" result="effect2_innerShadow_308_24807"/>
</filter>
<filter id="filter2_ii_308_24807" x="100.381" y="107.758" width="9.01758" height="20.1632" filterUnits="userSpaceOnUse" color-interpolation-filters="sRGB">
<feFlood flood-opacity="0" result="BackgroundImageFix"/>
<feBlend mode="normal" in="SourceGraphic" in2="BackgroundImageFix" result="shape"/>
<feColorMatrix in="SourceAlpha" type="matrix" values="0 0 0 0 0 0 0 0 0 0 0 0 0 0 0 0 0 0 127 0" result="hardAlpha"/>
<feOffset dy="-2.37321"/>
<feGaussianBlur stdDeviation="1.06795"/>
<feComposite in2="hardAlpha" operator="arithmetic" k2="-1" k3="1"/>
<feColorMatrix type="matrix" values="0 0 0 0 1 0 0 0 0 1 0 0 0 0 1 0 0 0 0.25 0"/>
<feBlend mode="normal" in2="shape" result="effect1_innerShadow_308_24807"/>
<feColorMatrix in="SourceAlpha" type="matrix" values="0 0 0 0 0 0 0 0 0 0 0 0 0 0 0 0 0 0 127 0" result="hardAlpha"/>
<feOffset/>
<feGaussianBlur stdDeviation="0.949285"/>
<feComposite in2="hardAlpha" operator="arithmetic" k2="-1" k3="1"/>
<feColorMatrix type="matrix" values="0 0 0 0 0.958333 0 0 0 0 0.958333 0 0 0 0 0.958333 0 0 0 0.25 0"/>
<feBlend mode="normal" in2="effect1_innerShadow_308_24807" result="effect2_innerShadow_308_24807"/>
</filter>
</defs>
</svg>
