<svg width="89" height="88" viewBox="0 0 89 88" fill="none" xmlns="http://www.w3.org/2000/svg">
<g filter="url(#filter0_ii_257_20770)">
<path d="M38.6884 14.3037C42.8898 10.6814 49.1102 10.6814 53.3116 14.3037C55.3835 16.09 58.0376 17.0561 60.773 17.0195C66.3198 16.9452 71.0849 20.9436 71.975 26.4191C72.4139 29.1192 73.8261 31.5653 75.9451 33.2955C80.2419 36.8041 81.3221 42.9299 78.4844 47.6965C77.085 50.0471 76.5945 52.8287 77.1056 55.5161C78.1418 60.9658 75.0317 66.3528 69.794 68.1801C67.2111 69.0813 65.0474 70.8968 63.7114 73.284C61.0022 78.1249 55.1571 80.2523 49.9701 78.2855C47.4122 77.3155 44.5878 77.3155 42.0299 78.2855C36.8429 80.2523 30.9978 78.1249 28.2886 73.284C26.9526 70.8968 24.7889 69.0813 22.206 68.1801C16.9683 66.3528 13.8582 60.9658 14.8944 55.5161C15.4055 52.8287 14.915 50.0471 13.5156 47.6965C10.6779 42.9299 11.7581 36.8041 16.0549 33.2955C18.1739 31.5653 19.5861 29.1192 20.025 26.4191C20.9152 20.9436 25.6802 16.9452 31.227 17.0195C33.9624 17.0561 36.6165 16.09 38.6884 14.3037Z" fill="#00BEFC"/>
</g>
<g filter="url(#filter1_ii_257_20770)">
<ellipse cx="38.9" cy="41.8" rx="1.9" ry="3.8" fill="#2B2B2B"/>
</g>
<g filter="url(#filter2_ii_257_20770)">
<ellipse cx="52.1998" cy="41.8" rx="1.9" ry="3.8" fill="#2B2B2B"/>
</g>
<g filter="url(#filter3_i_257_20770)">
<path d="M26.8823 20.1027L44.6484 21.7751L44.2965 24.7739C43.9747 27.5165 41.4851 29.53 38.7358 29.2712L30.9257 28.536C28.1764 28.2772 26.2086 25.844 26.5304 23.1014L26.8823 20.1027Z" fill="#454545"/>
</g>
<rect width="21.3086" height="2.07115" rx="1" transform="matrix(0.995598 0.093723 -0.116549 0.993185 25.2417 18.0244)" fill="#454545"/>
<g filter="url(#filter4_i_257_20770)">
<path d="M64.3867 20.1027L46.6206 21.7751L46.9725 24.7739C47.2943 27.5165 49.784 29.53 52.5332 29.2712L60.3434 28.536C63.0926 28.2772 65.0605 25.844 64.7386 23.1014L64.3867 20.1027Z" fill="#454545"/>
</g>
<path d="M65.8753 18.9932C65.811 18.4447 65.313 18.042 64.7632 18.0937L45.2808 19.9277C44.7309 19.9795 44.3373 20.4661 44.4017 21.0147L44.41 21.0853C44.4744 21.6338 44.9723 22.0365 45.5222 21.9848L65.0046 20.1508C65.5544 20.099 65.948 19.6124 65.8836 19.0638L65.8753 18.9932Z" fill="#454545"/>
<path d="M74.2034 13.3729C77.3906 12.5761 79.7601 9.90199 80.1676 6.64207L80.3729 5.00001L80.5781 6.64207C80.9856 9.90199 83.3552 12.5761 86.5424 13.3729C83.3552 14.1697 80.9856 16.8438 80.5781 20.1037L80.3729 21.7458L80.1676 20.1037C79.7601 16.8438 77.3906 14.1697 74.2034 13.3729Z" fill="#FDDB01"/>
<path d="M2.20339 72.3729C5.3906 71.5761 7.76013 68.902 8.16762 65.642L8.37288 64L8.57814 65.642C8.98563 68.902 11.3552 71.5761 14.5424 72.3729C11.3552 73.1697 8.98563 75.8438 8.57814 79.1037L8.37288 80.7457L8.16762 79.1037C7.76013 75.8438 5.39059 73.1697 2.20339 72.3729Z" fill="#FDDB01"/>
<g filter="url(#filter5_i_257_20770)">
<path d="M80.1523 75.6673C80.1523 80.3684 75.8409 82 70.2737 82C64.7066 82 61 80.3684 61 75.6673C61 70.9662 64.7066 64.9757 70.2737 64.9757C75.8409 64.9757 80.1523 70.9662 80.1523 75.6673Z" fill="#FFD900"/>
</g>
<path d="M75.896 63.0274C75.896 61.0298 72.2784 60.4359 70.5759 61.5709C68.8735 62.7058 65.2559 61.0298 65.2559 63.0274C65.2559 65.025 67.6377 68.3806 70.5759 68.3806C73.5141 68.3806 75.896 65.025 75.896 63.0274Z" fill="#FFD900"/>
<path d="M66 66C66 66 67.5 66.5 70.5 66.5C73.5 66.5 75 66 75 66" stroke="#BF0000" stroke-width="0.2" stroke-linecap="round"/>
<path d="M66 66C66 66 67.5 66.5 70.5 66.5C73.5 66.5 75 66 75 66" stroke="#BF0000" stroke-width="0.2" stroke-linecap="round"/>
<path d="M73.4961 66.7451C72.3952 67.9811 71.413 69.5276 71.5 71" stroke="#BF0000" stroke-width="0.2" stroke-linecap="round"/>
<path d="M73.4961 66.7452C74.597 67.9811 75.4843 69.4934 75.3973 70.9658" stroke="#BF0000" stroke-width="0.2" stroke-linecap="round"/>
<path d="M76.7248 67.6032C76.7135 67.6381 76.6767 67.6796 76.5846 67.7135C76.494 67.7469 76.3656 67.7665 76.2051 67.7677C75.8851 67.7701 75.4603 67.6997 75.0087 67.553C74.5571 67.4063 74.1721 67.2135 73.9147 67.0235C73.7855 66.9282 73.6932 66.8369 73.6395 66.7565C73.5849 66.675 73.5795 66.6198 73.5909 66.5849C73.6022 66.5501 73.639 66.5086 73.731 66.4746C73.8217 66.4412 73.9501 66.4217 74.1106 66.4204C74.4306 66.418 74.8554 66.4884 75.307 66.6351C75.7585 66.7819 76.1436 66.9746 76.401 67.1646C76.5302 67.26 76.6225 67.3512 76.6762 67.4316C76.7307 67.5131 76.7361 67.5683 76.7248 67.6032Z" stroke="#BF0000" stroke-width="0.2"/>
<path d="M70.2752 67.5981C70.2866 67.6329 70.3234 67.6744 70.4154 67.7084C70.5061 67.7418 70.6345 67.7613 70.795 67.7626C71.1149 67.765 71.5397 67.6946 71.9913 67.5479C72.4437 67.4009 72.827 67.215 73.0824 67.0318C73.2105 66.9399 73.3015 66.8523 73.3541 66.7748C73.4072 66.6968 73.4124 66.6434 73.401 66.6083C73.3892 66.5721 73.3513 66.529 73.2598 66.4927C73.1697 66.4569 73.0423 66.4342 72.8831 66.4295C72.5658 66.4203 72.1438 66.4836 71.693 66.63C71.2415 66.7768 70.8565 66.9695 70.599 67.1595C70.4699 67.2549 70.3775 67.3461 70.3238 67.4265C70.2693 67.508 70.2639 67.5632 70.2752 67.5981Z" stroke="#BF0000" stroke-width="0.2"/>
<g filter="url(#filter6_ii_257_20770)">
<path d="M71.9743 70.3602C71.9743 70.5811 71.7952 70.7602 71.5743 70.7602C71.3534 70.7602 71.1743 70.5811 71.1743 70.3602C71.1743 70.1393 71.3534 69.9602 71.5743 69.9602C71.7952 69.9602 71.9743 70.1393 71.9743 70.3602Z" fill="#006CD8"/>
</g>
<g filter="url(#filter7_ii_257_20770)">
<path d="M75.5965 69.7516C75.5965 69.9449 75.4398 70.1016 75.2465 70.1016C75.0532 70.1016 74.8965 69.9449 74.8965 69.7516C74.8965 69.5583 75.0532 69.4016 75.2465 69.4016C75.4398 69.4016 75.5965 69.5583 75.5965 69.7516Z" fill="#E55975"/>
</g>
<g filter="url(#filter8_ii_257_20770)">
<path d="M72.0809 69.7C72.0809 69.8933 71.9242 70.05 71.7309 70.05C71.5376 70.05 71.3809 69.8933 71.3809 69.7C71.3809 69.5067 71.5376 69.35 71.7309 69.35C71.9242 69.35 72.0809 69.5067 72.0809 69.7Z" fill="#E55975"/>
</g>
<g filter="url(#filter9_ii_257_20770)">
<path d="M75.8 70.4C75.8 70.6209 75.6209 70.8 75.4 70.8C75.1791 70.8 75 70.6209 75 70.4C75 70.1791 75.1791 70 75.4 70C75.6209 70 75.8 70.1791 75.8 70.4Z" fill="#006CD8"/>
</g>
<path d="M71.438 74.718H71.914V77.084H71.438V74.718ZM70.731 72.814V73.591H72.733V72.814H70.731ZM70.255 72.394H73.223V74.011H70.255V72.394ZM69.891 74.466H73.545V77.539H73.041V74.907H70.381V77.56H69.891V74.466ZM70.178 75.635H73.279V76.048H70.178V75.635ZM70.185 76.797H73.279V77.231H70.185V76.797ZM69.863 71.463H73.587V71.918H69.863V71.463ZM67.385 72.436H69.499V72.919H67.385V72.436ZM68.344 71.127H68.855V72.674H68.344V71.127ZM68.911 74.025C69.1 74.165 69.744 74.76 69.898 74.914L69.59 75.341C69.387 75.082 68.834 74.508 68.61 74.291L68.911 74.025ZM69.31 72.436H69.422L69.513 72.415L69.807 72.604C69.324 73.878 68.33 75.054 67.399 75.705C67.35 75.572 67.217 75.327 67.126 75.236C68.001 74.669 68.918 73.605 69.31 72.548V72.436ZM68.344 74.543L68.855 73.913V77.553H68.344V74.543Z" fill="url(#paint0_linear_257_20770)" fill-opacity="0.25"/>
<defs>
<filter id="filter0_ii_257_20770" x="11.939" y="7.58701" width="68.1221" height="75.4275" filterUnits="userSpaceOnUse" color-interpolation-filters="sRGB">
<feFlood flood-opacity="0" result="BackgroundImageFix"/>
<feBlend mode="normal" in="SourceGraphic" in2="BackgroundImageFix" result="shape"/>
<feColorMatrix in="SourceAlpha" type="matrix" values="0 0 0 0 0 0 0 0 0 0 0 0 0 0 0 0 0 0 127 0" result="hardAlpha"/>
<feOffset dy="4"/>
<feGaussianBlur stdDeviation="2"/>
<feComposite in2="hardAlpha" operator="arithmetic" k2="-1" k3="1"/>
<feColorMatrix type="matrix" values="0 0 0 0 0.67451 0 0 0 0 0.67451 0 0 0 0 0.67451 0 0 0 0.25 0"/>
<feBlend mode="normal" in2="shape" result="effect1_innerShadow_257_20770"/>
<feColorMatrix in="SourceAlpha" type="matrix" values="0 0 0 0 0 0 0 0 0 0 0 0 0 0 0 0 0 0 127 0" result="hardAlpha"/>
<feOffset dy="-6"/>
<feGaussianBlur stdDeviation="2"/>
<feComposite in2="hardAlpha" operator="arithmetic" k2="-1" k3="1"/>
<feColorMatrix type="matrix" values="0 0 0 0 0.141176 0 0 0 0 0.141176 0 0 0 0 0.141176 0 0 0 0.25 0"/>
<feBlend mode="normal" in2="effect1_innerShadow_257_20770" result="effect2_innerShadow_257_20770"/>
</filter>
<filter id="filter1_ii_257_20770" x="37" y="37.1" width="3.7998" height="8.50001" filterUnits="userSpaceOnUse" color-interpolation-filters="sRGB">
<feFlood flood-opacity="0" result="BackgroundImageFix"/>
<feBlend mode="normal" in="SourceGraphic" in2="BackgroundImageFix" result="shape"/>
<feColorMatrix in="SourceAlpha" type="matrix" values="0 0 0 0 0 0 0 0 0 0 0 0 0 0 0 0 0 0 127 0" result="hardAlpha"/>
<feOffset dy="-1"/>
<feGaussianBlur stdDeviation="0.45"/>
<feComposite in2="hardAlpha" operator="arithmetic" k2="-1" k3="1"/>
<feColorMatrix type="matrix" values="0 0 0 0 1 0 0 0 0 1 0 0 0 0 1 0 0 0 0.25 0"/>
<feBlend mode="normal" in2="shape" result="effect1_innerShadow_257_20770"/>
<feColorMatrix in="SourceAlpha" type="matrix" values="0 0 0 0 0 0 0 0 0 0 0 0 0 0 0 0 0 0 127 0" result="hardAlpha"/>
<feOffset/>
<feGaussianBlur stdDeviation="0.4"/>
<feComposite in2="hardAlpha" operator="arithmetic" k2="-1" k3="1"/>
<feColorMatrix type="matrix" values="0 0 0 0 0.958333 0 0 0 0 0.958333 0 0 0 0 0.958333 0 0 0 0.25 0"/>
<feBlend mode="normal" in2="effect1_innerShadow_257_20770" result="effect2_innerShadow_257_20770"/>
</filter>
<filter id="filter2_ii_257_20770" x="50.2998" y="37.1" width="3.7998" height="8.50001" filterUnits="userSpaceOnUse" color-interpolation-filters="sRGB">
<feFlood flood-opacity="0" result="BackgroundImageFix"/>
<feBlend mode="normal" in="SourceGraphic" in2="BackgroundImageFix" result="shape"/>
<feColorMatrix in="SourceAlpha" type="matrix" values="0 0 0 0 0 0 0 0 0 0 0 0 0 0 0 0 0 0 127 0" result="hardAlpha"/>
<feOffset dy="-1"/>
<feGaussianBlur stdDeviation="0.45"/>
<feComposite in2="hardAlpha" operator="arithmetic" k2="-1" k3="1"/>
<feColorMatrix type="matrix" values="0 0 0 0 1 0 0 0 0 1 0 0 0 0 1 0 0 0 0.25 0"/>
<feBlend mode="normal" in2="shape" result="effect1_innerShadow_257_20770"/>
<feColorMatrix in="SourceAlpha" type="matrix" values="0 0 0 0 0 0 0 0 0 0 0 0 0 0 0 0 0 0 127 0" result="hardAlpha"/>
<feOffset/>
<feGaussianBlur stdDeviation="0.4"/>
<feComposite in2="hardAlpha" operator="arithmetic" k2="-1" k3="1"/>
<feColorMatrix type="matrix" values="0 0 0 0 0.958333 0 0 0 0 0.958333 0 0 0 0 0.958333 0 0 0 0.25 0"/>
<feBlend mode="normal" in2="effect1_innerShadow_257_20770" result="effect2_innerShadow_257_20770"/>
</filter>
<filter id="filter3_i_257_20770" x="26.4961" y="20.1027" width="18.1523" height="13.1909" filterUnits="userSpaceOnUse" color-interpolation-filters="sRGB">
<feFlood flood-opacity="0" result="BackgroundImageFix"/>
<feBlend mode="normal" in="SourceGraphic" in2="BackgroundImageFix" result="shape"/>
<feColorMatrix in="SourceAlpha" type="matrix" values="0 0 0 0 0 0 0 0 0 0 0 0 0 0 0 0 0 0 127 0" result="hardAlpha"/>
<feOffset dy="4"/>
<feGaussianBlur stdDeviation="2"/>
<feComposite in2="hardAlpha" operator="arithmetic" k2="-1" k3="1"/>
<feColorMatrix type="matrix" values="0 0 0 0 0.816623 0 0 0 0 0.816623 0 0 0 0 0.816623 0 0 0 0.25 0"/>
<feBlend mode="normal" in2="shape" result="effect1_innerShadow_257_20770"/>
</filter>
<filter id="filter4_i_257_20770" x="46.6206" y="20.1027" width="18.1523" height="13.1909" filterUnits="userSpaceOnUse" color-interpolation-filters="sRGB">
<feFlood flood-opacity="0" result="BackgroundImageFix"/>
<feBlend mode="normal" in="SourceGraphic" in2="BackgroundImageFix" result="shape"/>
<feColorMatrix in="SourceAlpha" type="matrix" values="0 0 0 0 0 0 0 0 0 0 0 0 0 0 0 0 0 0 127 0" result="hardAlpha"/>
<feOffset dy="4"/>
<feGaussianBlur stdDeviation="2"/>
<feComposite in2="hardAlpha" operator="arithmetic" k2="-1" k3="1"/>
<feColorMatrix type="matrix" values="0 0 0 0 0.816623 0 0 0 0 0.816623 0 0 0 0 0.816623 0 0 0 0.25 0"/>
<feBlend mode="normal" in2="shape" result="effect1_innerShadow_257_20770"/>
</filter>
<filter id="filter5_i_257_20770" x="61" y="60.9757" width="19.1523" height="21.0243" filterUnits="userSpaceOnUse" color-interpolation-filters="sRGB">
<feFlood flood-opacity="0" result="BackgroundImageFix"/>
<feBlend mode="normal" in="SourceGraphic" in2="BackgroundImageFix" result="shape"/>
<feColorMatrix in="SourceAlpha" type="matrix" values="0 0 0 0 0 0 0 0 0 0 0 0 0 0 0 0 0 0 127 0" result="hardAlpha"/>
<feOffset dy="-6"/>
<feGaussianBlur stdDeviation="2"/>
<feComposite in2="hardAlpha" operator="arithmetic" k2="-1" k3="1"/>
<feColorMatrix type="matrix" values="0 0 0 0 0.852734 0 0 0 0 0.442751 0 0 0 0 0.0592176 0 0 0 0.25 0"/>
<feBlend mode="normal" in2="shape" result="effect1_innerShadow_257_20770"/>
</filter>
<filter id="filter6_ii_257_20770" x="71.1743" y="69.9602" width="0.799805" height="0.799988" filterUnits="userSpaceOnUse" color-interpolation-filters="sRGB">
<feFlood flood-opacity="0" result="BackgroundImageFix"/>
<feBlend mode="normal" in="SourceGraphic" in2="BackgroundImageFix" result="shape"/>
<feColorMatrix in="SourceAlpha" type="matrix" values="0 0 0 0 0 0 0 0 0 0 0 0 0 0 0 0 0 0 127 0" result="hardAlpha"/>
<feOffset dy="-8"/>
<feGaussianBlur stdDeviation="2"/>
<feComposite in2="hardAlpha" operator="arithmetic" k2="-1" k3="1"/>
<feColorMatrix type="matrix" values="0 0 0 0 1 0 0 0 0 0.955556 0 0 0 0 0.955556 0 0 0 0.25 0"/>
<feBlend mode="normal" in2="shape" result="effect1_innerShadow_257_20770"/>
<feColorMatrix in="SourceAlpha" type="matrix" values="0 0 0 0 0 0 0 0 0 0 0 0 0 0 0 0 0 0 127 0" result="hardAlpha"/>
<feOffset dy="4"/>
<feGaussianBlur stdDeviation="0.05"/>
<feComposite in2="hardAlpha" operator="arithmetic" k2="-1" k3="1"/>
<feColorMatrix type="matrix" values="0 0 0 0 0 0 0 0 0 0 0 0 0 0 0 0 0 0 0.25 0"/>
<feBlend mode="normal" in2="effect1_innerShadow_257_20770" result="effect2_innerShadow_257_20770"/>
</filter>
<filter id="filter7_ii_257_20770" x="74.8965" y="68.4016" width="0.700195" height="1.70001" filterUnits="userSpaceOnUse" color-interpolation-filters="sRGB">
<feFlood flood-opacity="0" result="BackgroundImageFix"/>
<feBlend mode="normal" in="SourceGraphic" in2="BackgroundImageFix" result="shape"/>
<feColorMatrix in="SourceAlpha" type="matrix" values="0 0 0 0 0 0 0 0 0 0 0 0 0 0 0 0 0 0 127 0" result="hardAlpha"/>
<feOffset dy="-1"/>
<feGaussianBlur stdDeviation="0.95"/>
<feComposite in2="hardAlpha" operator="arithmetic" k2="-1" k3="1"/>
<feColorMatrix type="matrix" values="0 0 0 0 1 0 0 0 0 1 0 0 0 0 1 0 0 0 0.25 0"/>
<feBlend mode="normal" in2="shape" result="effect1_innerShadow_257_20770"/>
<feColorMatrix in="SourceAlpha" type="matrix" values="0 0 0 0 0 0 0 0 0 0 0 0 0 0 0 0 0 0 127 0" result="hardAlpha"/>
<feOffset dy="-1"/>
<feGaussianBlur stdDeviation="0.5"/>
<feComposite in2="hardAlpha" operator="arithmetic" k2="-1" k3="1"/>
<feColorMatrix type="matrix" values="0 0 0 0 0.862745 0 0 0 0 0.454902 0 0 0 0 0.0117647 0 0 0 0.32 0"/>
<feBlend mode="normal" in2="effect1_innerShadow_257_20770" result="effect2_innerShadow_257_20770"/>
</filter>
<filter id="filter8_ii_257_20770" x="71.3809" y="68.35" width="0.700195" height="1.69998" filterUnits="userSpaceOnUse" color-interpolation-filters="sRGB">
<feFlood flood-opacity="0" result="BackgroundImageFix"/>
<feBlend mode="normal" in="SourceGraphic" in2="BackgroundImageFix" result="shape"/>
<feColorMatrix in="SourceAlpha" type="matrix" values="0 0 0 0 0 0 0 0 0 0 0 0 0 0 0 0 0 0 127 0" result="hardAlpha"/>
<feOffset dy="-1"/>
<feGaussianBlur stdDeviation="0.95"/>
<feComposite in2="hardAlpha" operator="arithmetic" k2="-1" k3="1"/>
<feColorMatrix type="matrix" values="0 0 0 0 1 0 0 0 0 1 0 0 0 0 1 0 0 0 0.25 0"/>
<feBlend mode="normal" in2="shape" result="effect1_innerShadow_257_20770"/>
<feColorMatrix in="SourceAlpha" type="matrix" values="0 0 0 0 0 0 0 0 0 0 0 0 0 0 0 0 0 0 127 0" result="hardAlpha"/>
<feOffset dy="-1"/>
<feGaussianBlur stdDeviation="0.5"/>
<feComposite in2="hardAlpha" operator="arithmetic" k2="-1" k3="1"/>
<feColorMatrix type="matrix" values="0 0 0 0 0.862745 0 0 0 0 0.454902 0 0 0 0 0.0117647 0 0 0 0.32 0"/>
<feBlend mode="normal" in2="effect1_innerShadow_257_20770" result="effect2_innerShadow_257_20770"/>
</filter>
<filter id="filter9_ii_257_20770" x="75" y="70" width="0.799805" height="0.799988" filterUnits="userSpaceOnUse" color-interpolation-filters="sRGB">
<feFlood flood-opacity="0" result="BackgroundImageFix"/>
<feBlend mode="normal" in="SourceGraphic" in2="BackgroundImageFix" result="shape"/>
<feColorMatrix in="SourceAlpha" type="matrix" values="0 0 0 0 0 0 0 0 0 0 0 0 0 0 0 0 0 0 127 0" result="hardAlpha"/>
<feOffset dy="-8"/>
<feGaussianBlur stdDeviation="2"/>
<feComposite in2="hardAlpha" operator="arithmetic" k2="-1" k3="1"/>
<feColorMatrix type="matrix" values="0 0 0 0 1 0 0 0 0 0.955556 0 0 0 0 0.955556 0 0 0 0.25 0"/>
<feBlend mode="normal" in2="shape" result="effect1_innerShadow_257_20770"/>
<feColorMatrix in="SourceAlpha" type="matrix" values="0 0 0 0 0 0 0 0 0 0 0 0 0 0 0 0 0 0 127 0" result="hardAlpha"/>
<feOffset dy="4"/>
<feGaussianBlur stdDeviation="0.05"/>
<feComposite in2="hardAlpha" operator="arithmetic" k2="-1" k3="1"/>
<feColorMatrix type="matrix" values="0 0 0 0 0 0 0 0 0 0 0 0 0 0 0 0 0 0 0.25 0"/>
<feBlend mode="normal" in2="effect1_innerShadow_257_20770" result="effect2_innerShadow_257_20770"/>
</filter>
<linearGradient id="paint0_linear_257_20770" x1="70.5" y1="71" x2="70.5" y2="78" gradientUnits="userSpaceOnUse">
<stop stop-color="#ED1B00"/>
<stop offset="1" stop-color="#71271D"/>
</linearGradient>
</defs>
</svg>
