<svg width="91" height="90" viewBox="0 0 91 90" fill="none" xmlns="http://www.w3.org/2000/svg">
<rect x="6.18945" y="45" width="70" height="36" transform="rotate(-30 6.18945 45)" fill="#FF3B30"/>
<rect x="10.877" y="46.451" width="63.3333" height="28.8" transform="rotate(-30 10.877 46.451)" fill="#F1F1F1"/>
<rect x="13.1205" y="47.1177" width="60.1111" height="25.4" transform="rotate(-30 13.1205 47.1177)" fill="#F1F1F1" stroke="#FF0000"/>
<path d="M31.929 59.9304L24.1516 46.4596L32.7848 41.4752L33.9557 43.5033L27.7413 47.0912L29.8683 50.7752L35.4873 47.531L36.6582 49.5591L31.0392 52.8032L34.3478 58.5339L31.929 59.9304ZM42.6274 53.7536L40.0412 55.2468L37.0084 39.0368L39.9854 37.318L52.5258 48.0388L49.9396 49.5319L46.9004 46.846L41.8209 49.7786L42.6274 53.7536ZM41.3442 47.449L45.1212 45.2683L40.1425 40.8989L40.0309 40.9633L41.3442 47.449ZM48.7674 32.2477L56.5447 45.7185L54.126 47.1149L46.3486 33.6442L48.7674 32.2477ZM59.0565 44.2683L51.2792 30.7975L53.698 29.401L60.2937 40.8251L66.2476 37.3876L67.4293 39.4343L59.0565 44.2683Z" fill="#FF3B30"/>
</svg>

