<svg width="72" height="36" viewBox="0 0 72 36" fill="none" xmlns="http://www.w3.org/2000/svg">
    <rect width="72" height="36" fill="#FF3B30"/>
    <rect x="3.42847" y="3.60001" width="65.1429" height="28.8" fill="#F1F1F1"/>
    <rect x="5.07153" y="5.29999" width="61.8571" height="25.4" fill="#F1F1F1" stroke="#FF0000"/>
    <path d="M15.8262 25.8V10.2453H25.795V12.5871H18.6192V16.841H25.1075V19.1828H18.6192V25.8H15.8262ZM28.1798 25.8H25.1934L30.6719 10.2453H34.1094L39.6094 25.8H36.6231L35.3341 21.9543H29.4688L28.1798 25.8ZM30.2208 19.6984H34.5821L32.4551 13.425H32.3262L30.2208 19.6984ZM44.2501 10.2453V25.8H41.4571V10.2453H44.2501ZM47.1505 25.8V10.2453H49.9434V23.4367H56.8184V25.8H47.1505Z" fill="#FF3B30"/>
</svg>
