<svg width="77" height="63" viewBox="0 0 77 63" fill="none" xmlns="http://www.w3.org/2000/svg">
<rect y="35.1436" width="70" height="32" transform="rotate(-30 0 35.1436)" fill="#5E5E5E"/>
<rect x="4.48633" y="36.2483" width="63.3333" height="25.6" transform="rotate(-30 4.48633 36.2483)" fill="#FAFAFA"/>
<rect x="6.66543" y="36.7995" width="60.1111" height="22.4667" transform="rotate(-30 6.66543 36.7995)" fill="#FAFAFA" stroke="#5E5E5E"/>
<path d="M24.9729 48.746L17.1956 35.2752L25.8288 30.2909L26.9997 32.3189L20.7853 35.9068L22.9122 39.5908L28.5312 36.3467L29.7021 38.3747L24.0831 41.6189L27.3917 47.3495L24.9729 48.746ZM35.6714 42.5692L33.0851 44.0624L30.0523 27.8524L33.0293 26.1336L45.5698 36.8544L42.9835 38.3476L39.9443 35.6616L34.8649 38.5942L35.6714 42.5692ZM34.3882 36.2646L38.1652 34.084L33.1865 29.7145L33.0748 29.7789L34.3882 36.2646ZM41.8113 21.0633L49.5887 34.5341L47.1699 35.9306L39.3926 22.4598L41.8113 21.0633ZM52.1005 33.0839L44.3231 19.6131L46.7419 18.2166L53.3376 29.6407L59.2916 26.2032L60.4732 28.2499L52.1005 33.0839Z" fill="#5E5E5E"/>
</svg>
