<svg width="86" height="84" viewBox="0 0 86 84" fill="none" xmlns="http://www.w3.org/2000/svg">
<ellipse cx="42.7734" cy="42" rx="28.6765" ry="29.2547" transform="rotate(-30 42.7734 42)" fill="#0096C7"/>
<ellipse cx="42.7736" cy="42.0001" rx="23.8971" ry="24.3789" transform="rotate(-30 42.7736 42.0001)" fill="#FAFEFF"/>
<path d="M61.3805 31.2574C67.4406 41.7539 64.0061 55.0625 53.738 60.9908C43.4698 66.9191 30.227 63.2392 24.1669 52.7427C18.1067 42.2462 21.5412 28.9377 31.8094 23.0093C42.0775 17.081 55.3203 20.7609 61.3805 31.2574Z" fill="#FAFEFF" stroke="#0096C7"/>
<rect x="10.7266" y="51.4939" width="65" height="15.6025" transform="rotate(-30 10.7266 51.4939)" fill="#FAFEFF"/>
<path d="M19.4707 53.1685C18.9758 52.4754 18.1022 52.4114 17.1787 52.9446C16.2078 53.5052 15.8892 54.3206 16.2583 54.96C16.6753 55.6822 17.604 55.5407 18.4101 55.2963L19.3383 55.0446C20.7879 54.6023 22.409 54.5663 23.2703 56.0581C24.1384 57.5618 23.5491 59.2755 21.489 60.465C19.488 61.6203 17.6792 61.3858 16.6306 59.7337L18.1462 58.8587C18.7367 59.7175 19.7474 59.7181 20.7183 59.1576C21.7366 58.5697 22.148 57.6691 21.7242 56.935C21.3346 56.2601 20.543 56.3382 19.4827 56.6346L18.3683 56.9465C16.7474 57.393 15.461 57.1884 14.7501 55.957C13.8751 54.4415 14.6438 52.6558 16.4435 51.6167C18.2669 50.564 20.093 50.8831 20.9507 52.314L19.4707 53.1685ZM26.3985 46.0271L27.9495 45.1316L31.1829 50.732C32.2425 52.5672 31.5768 54.6408 29.4929 55.8439C27.3972 57.0539 25.2805 56.5868 24.2209 54.7515L20.9875 49.1511L22.5267 48.2624L25.6849 53.7326C26.307 54.8101 27.5159 55.154 28.7 54.4704C29.884 53.7868 30.1787 52.5747 29.5567 51.4973L26.3985 46.0271ZM36.9821 43.7686C36.2098 42.8411 35.0392 42.7276 33.9972 43.3292C32.5882 44.1426 32.2276 45.7875 33.3487 47.7293C34.4834 49.6947 36.0864 50.1743 37.4835 49.3677C38.5018 48.7798 39.0025 47.7329 38.6227 46.6103L40.1738 45.7148C40.8872 47.4973 40.2962 49.5908 38.2597 50.7666C35.9982 52.0723 33.3904 51.3835 31.7976 48.6248C30.198 45.8542 30.9359 43.2495 33.1737 41.9575C35.0682 40.8638 37.1721 41.1173 38.5332 42.8731L36.9821 43.7686ZM45.6373 38.7716C44.8649 37.844 43.6943 37.7305 42.6524 38.3321C41.2434 39.1456 40.8828 40.7904 42.0038 42.7322C43.1386 44.6977 44.7416 45.1772 46.1387 44.3706C47.157 43.7827 47.6577 42.7358 47.2779 41.6132L48.829 40.7177C49.5424 42.5002 48.9514 44.5938 46.9149 45.7696C44.6534 47.0752 42.0456 46.3865 40.4528 43.6277C38.8532 40.8571 39.5911 38.2524 41.8289 36.9605C43.7233 35.8667 45.8273 36.1202 47.1883 37.8761L45.6373 38.7716ZM51.7957 42.7937L46.8465 34.2214L52.4232 31.0017L53.1683 32.2923L49.1308 34.6233L50.4843 36.9677L54.2258 34.8075L54.9709 36.0981L51.2294 38.2583L52.583 40.6026L56.6441 38.2579L57.3961 39.5603L51.7957 42.7937ZM59.9286 29.8101C59.4337 29.117 58.5601 29.053 57.6366 29.5862C56.6657 30.1468 56.3471 30.9622 56.7163 31.6016C57.1333 32.3238 58.0619 32.1823 58.868 31.9379L59.7962 31.6862C61.2459 31.2439 62.8669 31.2079 63.7282 32.6997C64.5964 34.2034 64.0071 35.9171 61.9469 37.1066C59.9459 38.2619 58.1371 38.0274 57.0885 36.3753L58.6041 35.5003C59.1947 36.3591 60.2054 36.3597 61.1763 35.7992C62.1945 35.2113 62.606 34.3107 62.1821 33.5766C61.7925 32.9017 61.0009 32.9798 59.9407 33.2762L58.8262 33.5881C57.2053 34.0346 55.919 33.83 55.208 32.5986C54.333 31.0831 55.1018 29.2974 56.9015 28.2583C58.7249 27.2056 60.551 27.5247 61.4086 28.9556L59.9286 29.8101ZM67.4708 25.4556C66.9759 24.7625 66.1023 24.6985 65.1788 25.2317C64.2079 25.7923 63.8893 26.6077 64.2585 27.2471C64.6755 27.9693 65.6041 27.8278 66.4102 27.5834L67.3384 27.3317C68.7881 26.8894 70.4091 26.8534 71.2704 28.3452C72.1386 29.849 71.5493 31.5626 69.4891 32.7521C67.4881 33.9074 65.6793 33.6729 64.6307 32.0208L66.1463 31.1458C66.7369 32.0046 67.7476 32.0052 68.7185 31.4447C69.7367 30.8568 70.1482 29.9562 69.7244 29.2221C69.3347 28.5472 68.5431 28.6253 67.4829 28.9217L66.3684 29.2336C64.7475 29.6801 63.4612 29.4755 62.7502 28.2441C61.8752 26.7286 62.644 24.9429 64.4437 23.9038C66.2671 22.8511 68.0932 23.1702 68.9508 24.6011L67.4708 25.4556Z" fill="#0096C7"/>
</svg>
