<svg width="91" height="90" viewBox="0 0 91 90" fill="none" xmlns="http://www.w3.org/2000/svg">
<circle cx="44.9456" cy="42.9808" r="30" transform="rotate(-30 44.9456 42.9808)" fill="#00BEFC"/>
<circle cx="44.9456" cy="42.9808" r="25" transform="rotate(-30 44.9456 42.9808)" fill="#F1F1F1"/>
<circle cx="44.9459" cy="42.9808" r="22.5" transform="rotate(-30 44.9459 42.9808)" fill="#F1F1F1" stroke="#00BEFC"/>
<rect x="11.5" y="53.0526" width="68" height="16" transform="rotate(-30 11.5 53.0526)" fill="#F1F1F1"/>
<path d="M21.5432 53.9771C21.0483 53.284 20.1747 53.2201 19.2511 53.7533C18.2802 54.3138 17.9617 55.1292 18.3308 55.7686C18.7478 56.4909 19.6765 56.3494 20.4826 56.105L21.4108 55.8533C22.8604 55.411 24.4814 55.3749 25.3428 56.8668C26.2109 58.3705 25.6216 60.0842 23.5614 61.2736C21.5604 62.4289 19.7517 62.1945 18.7031 60.5423L20.2186 59.6673C20.8092 60.5262 21.8199 60.5268 22.7908 59.9662C23.8091 59.3783 24.2205 58.4777 23.7967 57.7436C23.407 57.0687 22.6155 57.1469 21.5552 57.4433L20.4407 57.7552C18.8199 58.2016 17.5335 57.9971 16.8226 56.7657C15.9476 55.2501 16.7163 53.4644 18.516 52.4254C20.3394 51.3726 22.1655 51.6918 23.0232 53.1226L21.5432 53.9771ZM28.4709 46.8358L30.022 45.9402L33.2554 51.5407C34.315 53.3759 33.6493 55.4494 31.5654 56.6525C29.4697 57.8625 27.3529 57.3954 26.2934 55.5602L23.06 49.9598L24.5992 49.0711L27.7574 54.5413C28.3795 55.6187 29.5884 55.9627 30.7724 55.2791C31.9565 54.5955 32.2512 53.3834 31.6291 52.3059L28.4709 46.8358ZM39.0546 44.5773C38.2822 43.6497 37.1116 43.5362 36.0697 44.1378C34.6607 44.9513 34.3 46.5961 35.4211 48.5379C36.5559 50.5034 38.1589 50.9829 39.556 50.1763C40.5743 49.5884 41.075 48.5416 40.6952 47.4189L42.2463 46.5234C42.9597 48.3059 42.3687 50.3995 40.3321 51.5753C38.0707 52.8809 35.4628 52.1922 33.8701 49.4334C32.2705 46.6628 33.0084 44.0582 35.2462 42.7662C37.1406 41.6724 39.2446 41.9259 40.6056 43.6818L39.0546 44.5773ZM47.7098 39.5802C46.9374 38.6527 45.7668 38.5392 44.7249 39.1407C43.3159 39.9542 42.9552 41.5991 44.0763 43.5408C45.2111 45.5063 46.8141 45.9859 48.2112 45.1792C49.2295 44.5913 49.7301 43.5445 49.3504 42.4219L50.9014 41.5264C51.6148 43.3089 51.0238 45.4024 48.9873 46.5782C46.7258 47.8839 44.118 47.1951 42.5253 44.4364C40.9256 41.6657 41.6636 39.0611 43.9014 37.7691C45.7958 36.6754 47.8997 36.9288 49.2608 38.6847L47.7098 39.5802ZM53.8682 43.6024L48.9189 35.0301L54.4957 31.8104L55.2408 33.1009L51.2033 35.432L52.5568 37.7764L56.2983 35.6162L57.0434 36.9068L53.3019 39.0669L54.6554 41.4113L58.7166 39.0666L59.4686 40.369L53.8682 43.6024ZM62.0011 30.6187C61.5062 29.9256 60.6326 29.8617 59.7091 30.3949C58.7382 30.9554 58.4196 31.7708 58.7887 32.4102C59.2057 33.1325 60.1344 32.991 60.9405 32.7466L61.8687 32.4949C63.3183 32.0526 64.9394 32.0165 65.8007 33.5084C66.6689 35.0121 66.0796 36.7258 64.0194 37.9152C62.0184 39.0705 60.2096 38.8361 59.161 37.1839L60.6766 36.3089C61.2671 37.1678 62.2778 37.1684 63.2487 36.6078C64.267 36.0199 64.6785 35.1193 64.2546 34.3852C63.865 33.7103 63.0734 33.7885 62.0131 34.0849L60.8987 34.3968C59.2778 34.8432 57.9915 34.6387 57.2805 33.4073C56.4055 31.8917 57.1742 30.106 58.974 29.067C60.7973 28.0142 62.6234 28.3334 63.4811 29.7642L62.0011 30.6187ZM69.5433 26.2642C69.0484 25.5711 68.1748 25.5072 67.2513 26.0404C66.2804 26.6009 65.9618 27.4164 66.3309 28.0557C66.7479 28.778 67.6766 28.6365 68.4827 28.3921L69.4109 28.1404C70.8605 27.6981 72.4816 27.662 73.3429 29.1539C74.2111 30.6576 73.6218 32.3713 71.5616 33.5608C69.5606 34.716 67.7518 34.4816 66.7032 32.8294L68.2188 31.9544C68.8093 32.8133 69.82 32.8139 70.7909 32.2533C71.8092 31.6654 72.2207 30.7648 71.7968 30.0307C71.4072 29.3558 70.6156 29.434 69.5553 29.7304L68.4409 30.0423C66.82 30.4887 65.5337 30.2842 64.8227 29.0528C63.9477 27.5372 64.7164 25.7515 66.5162 24.7125C68.3395 23.6597 70.1656 23.9789 71.0233 25.4097L69.5433 26.2642Z" fill="#00BEFC"/>
</svg>
