<svg width="89" height="86" viewBox="0 0 89 86" fill="none" xmlns="http://www.w3.org/2000/svg">
    <circle cx="44.4449" cy="42.9808" r="30" transform="rotate(-30 44.4449 42.9808)" fill="#56E443"/>
    <circle cx="44.4448" cy="42.9808" r="25" transform="rotate(-30 44.4448 42.9808)" fill="#F1F1F1"/>
    <circle cx="44.4448" cy="42.9807" r="22.5" transform="rotate(-30 44.4448 42.9807)" fill="#F1F1F1" stroke="#56E443"/>
    <rect x="11" y="53.0526" width="68" height="16" transform="rotate(-30 11 53.0526)" fill="#F1F1F1"/>
    <path d="M21.0432 53.9771C20.5483 53.284 19.6747 53.2201 18.7511 53.7533C17.7802 54.3138 17.4617 55.1292 17.8308 55.7686C18.2478 56.4909 19.1765 56.3494 19.9826 56.105L20.9108 55.8533C22.3604 55.411 23.9814 55.3749 24.8428 56.8668C25.7109 58.3705 25.1216 60.0842 23.0614 61.2736C21.0604 62.4289 19.2517 62.1945 18.2031 60.5423L19.7186 59.6673C20.3092 60.5262 21.3199 60.5268 22.2908 59.9662C23.3091 59.3783 23.7205 58.4777 23.2967 57.7436C22.907 57.0687 22.1155 57.1469 21.0552 57.4433L19.9407 57.7552C18.3199 58.2016 17.0335 57.9971 16.3226 56.7657C15.4476 55.2501 16.2163 53.4644 18.016 52.4254C19.8394 51.3726 21.6655 51.6918 22.5232 53.1226L21.0432 53.9771ZM27.9709 46.8358L29.522 45.9402L32.7554 51.5407C33.815 53.3759 33.1493 55.4494 31.0654 56.6525C28.9697 57.8625 26.8529 57.3954 25.7934 55.5602L22.56 49.9598L24.0992 49.0711L27.2574 54.5413C27.8795 55.6187 29.0884 55.9627 30.2724 55.2791C31.4565 54.5955 31.7512 53.3834 31.1291 52.3059L27.9709 46.8358ZM38.5546 44.5773C37.7822 43.6497 36.6116 43.5362 35.5697 44.1378C34.1607 44.9513 33.8 46.5961 34.9211 48.5379C36.0559 50.5034 37.6589 50.9829 39.056 50.1763C40.0743 49.5884 40.575 48.5416 40.1952 47.4189L41.7463 46.5234C42.4597 48.3059 41.8687 50.3995 39.8321 51.5753C37.5707 52.8809 34.9628 52.1922 33.3701 49.4334C31.7705 46.6628 32.5084 44.0582 34.7462 42.7662C36.6406 41.6724 38.7446 41.9259 40.1056 43.6818L38.5546 44.5773ZM47.2098 39.5802C46.4374 38.6527 45.2668 38.5392 44.2249 39.1407C42.8159 39.9542 42.4552 41.5991 43.5763 43.5408C44.7111 45.5063 46.3141 45.9859 47.7112 45.1792C48.7295 44.5913 49.2301 43.5445 48.8504 42.4219L50.4014 41.5264C51.1148 43.3089 50.5238 45.4024 48.4873 46.5782C46.2258 47.8839 43.618 47.1951 42.0253 44.4364C40.4256 41.6657 41.1636 39.0611 43.4014 37.7691C45.2958 36.6754 47.3997 36.9288 48.7608 38.6847L47.2098 39.5802ZM53.3682 43.6024L48.4189 35.0301L53.9957 31.8104L54.7408 33.1009L50.7033 35.432L52.0568 37.7764L55.7983 35.6162L56.5434 36.9068L52.8019 39.0669L54.1554 41.4113L58.2166 39.0666L58.9686 40.369L53.3682 43.6024ZM61.5011 30.6187C61.0062 29.9256 60.1326 29.8617 59.2091 30.3949C58.2382 30.9554 57.9196 31.7708 58.2887 32.4102C58.7057 33.1325 59.6344 32.991 60.4405 32.7466L61.3687 32.4949C62.8183 32.0526 64.4394 32.0165 65.3007 33.5084C66.1689 35.0121 65.5796 36.7258 63.5194 37.9152C61.5184 39.0705 59.7096 38.8361 58.661 37.1839L60.1766 36.3089C60.7671 37.1678 61.7778 37.1684 62.7487 36.6078C63.767 36.0199 64.1785 35.1193 63.7546 34.3852C63.365 33.7103 62.5734 33.7885 61.5131 34.0849L60.3987 34.3968C58.7778 34.8432 57.4915 34.6387 56.7805 33.4073C55.9055 31.8917 56.6742 30.106 58.474 29.067C60.2973 28.0142 62.1234 28.3334 62.9811 29.7642L61.5011 30.6187ZM69.0433 26.2642C68.5484 25.5711 67.6748 25.5072 66.7513 26.0404C65.7804 26.6009 65.4618 27.4164 65.8309 28.0557C66.2479 28.778 67.1766 28.6365 67.9827 28.3921L68.9109 28.1404C70.3605 27.6981 71.9816 27.662 72.8429 29.1539C73.7111 30.6576 73.1218 32.3713 71.0616 33.5608C69.0606 34.716 67.2518 34.4816 66.2032 32.8294L67.7188 31.9544C68.3093 32.8133 69.32 32.8139 70.2909 32.2533C71.3092 31.6654 71.7207 30.7648 71.2968 30.0307C70.9072 29.3558 70.1156 29.434 69.0553 29.7304L67.9409 30.0423C66.32 30.4887 65.0337 30.2842 64.3227 29.0528C63.4477 27.5372 64.2164 25.7515 66.0162 24.7125C67.8395 23.6597 69.6656 23.9789 70.5233 25.4097L69.0433 26.2642Z" fill="#56E443"/>
</svg>
