<svg width="127" height="127" viewBox="0 0 127 127" fill="none" xmlns="http://www.w3.org/2000/svg">
<path fill-rule="evenodd" clip-rule="evenodd" d="M97.9957 87.6138C111.387 68.4886 106.739 42.1284 87.6141 28.7368C68.4889 15.3452 42.1287 19.9932 28.7371 39.1184C15.3454 58.2436 19.9934 84.6038 39.1187 97.9954C58.2439 111.387 84.6041 106.739 97.9957 87.6138ZM100.636 89.4627C115.049 68.8791 110.047 40.5091 89.463 26.0963C68.8794 11.6836 40.5093 16.686 26.0966 37.2695C11.6838 57.8531 16.6863 86.2231 37.2698 100.636C57.8533 115.049 86.2234 110.046 100.636 89.4627Z" fill="#8A8A8A"/>
<g filter="url(#filter0_iiiiii_37_7669)">
<path d="M97.3895 64.4723C97.3895 79.5543 86.3654 93.0811 63.5434 93.0811C41.4132 93.0811 29.6973 78.7767 29.6973 64.4723C29.6973 49.4212 44.1317 35.8635 63.5434 35.8635C82.955 35.8635 97.3895 49.3903 97.3895 64.4723Z" fill="#E6E6E6"/>
</g>
<g filter="url(#filter1_iii_37_7669)">
<path d="M51.2159 50.4937C50.9191 51.4449 49.974 52.0389 48.9871 51.8943C44.5131 51.239 40.3859 49.1083 37.2617 45.8408L36.6811 45.2336C35.8047 44.317 35.849 42.8611 36.7794 42.0002L37.1499 41.6574C40.3994 38.6506 44.2666 36.3885 48.4816 35.029L49.1028 34.8286C50.4758 34.3857 51.9246 35.2566 52.1769 36.6763C52.9756 41.1721 52.6826 45.7932 51.3227 50.1514L51.2159 50.4937Z" fill="#7E7E7E"/>
</g>
<g filter="url(#filter2_iii_37_7669)">
<path d="M77.5673 51.0877C76.5873 51.2733 75.618 50.7192 75.2817 49.7812C73.757 45.5287 73.6989 40.8883 75.1167 36.5978L75.3802 35.8001C75.778 34.5964 77.085 33.9509 78.2833 34.3664L78.76 34.5318C82.9445 35.9829 86.7614 38.3288 89.9446 41.4057L90.4135 41.8589C91.4504 42.8613 91.3623 44.5481 90.2266 45.438C86.6301 48.256 82.4096 50.1707 77.9196 51.0209L77.5673 51.0877Z" fill="#7E7E7E"/>
</g>
<path d="M84.0003 67.4619C82.0423 68.2445 80.6073 68.3255 79.9714 66.7379C79.3355 65.1503 80.4304 64.22 82.3884 63.4374C84.3464 62.6548 85.7814 62.5738 86.4173 64.1614C87.0532 65.749 85.9583 66.6792 84.0003 67.4619Z" fill="#B5B5B5"/>
<path d="M45.2414 64.3298C47.0906 65.3426 48.0652 66.398 47.2422 67.8974C46.4192 69.3967 45.0044 69.1434 43.1552 68.1306C41.306 67.1177 40.3314 66.0624 41.1544 64.563C41.9774 63.0636 43.3922 63.3169 45.2414 64.3298Z" fill="#B5B5B5"/>
<g filter="url(#filter3_i_37_7669)">
<rect x="53.9961" y="61.0044" width="19.0927" height="12.1371" rx="6.06853" fill="#7E7E7E"/>
</g>
<g filter="url(#filter4_ii_37_7669)">
<ellipse cx="66.7531" cy="66.6395" rx="2.90541" ry="3.03427" fill="#E6E6E6"/>
</g>
<g filter="url(#filter5_ii_37_7669)">
<ellipse cx="60.3722" cy="66.6395" rx="2.90541" ry="3.03427" fill="#E6E6E6"/>
</g>
<path d="M71.2974 64.5429C71.3185 64.1101 70.1029 62.3149 68.4365 62.2342" stroke="white" stroke-opacity="0.65" stroke-width="0.9" stroke-linecap="round"/>
<path d="M82.0762 63.8896L81.2989 66.7872" stroke="#EBEBEB" stroke-opacity="0.85" stroke-width="0.9" stroke-linecap="round"/>
<path d="M83.877 63.3896L82.877 67.2872" stroke="#EBEBEB" stroke-opacity="0.85" stroke-width="0.9" stroke-linecap="round"/>
<path d="M85.4531 63.8896L84.6758 66.7872" stroke="#EBEBEB" stroke-opacity="0.85" stroke-width="0.9" stroke-linecap="round"/>
<path d="M45.4082 64.7134L46.1855 67.6109" stroke="#EBEBEB" stroke-opacity="0.85" stroke-width="0.9" stroke-linecap="round"/>
<path d="M43.6074 64.2134L44.6074 68.1109" stroke="#EBEBEB" stroke-opacity="0.85" stroke-width="0.9" stroke-linecap="round"/>
<path d="M42.0312 64.7134L42.8085 67.6109" stroke="#EBEBEB" stroke-opacity="0.85" stroke-width="0.9" stroke-linecap="round"/>
<g filter="url(#filter6_ii_37_7669)">
<ellipse cx="60.5069" cy="58.2772" rx="1.30177" ry="2.16733" fill="#242424"/>
</g>
<g filter="url(#filter7_ii_37_7669)">
<ellipse cx="65.7139" cy="58.2772" rx="1.30177" ry="2.16733" fill="#242424"/>
</g>
<g filter="url(#filter8_d_37_7669)">
<path d="M35.457 106.911C35.457 101.867 39.546 97.7776 44.5901 97.7776H83.2714C88.3154 97.7776 92.4044 101.867 92.4044 106.911C92.4044 111.955 88.3154 116.044 83.2714 116.044H44.5901C39.546 116.044 35.457 111.955 35.457 106.911Z" fill="white"/>
</g>
<g filter="url(#filter9_d_37_7669)">
<path fill-rule="evenodd" clip-rule="evenodd" d="M83.2714 99.9265H44.5901C40.7329 99.9265 37.606 103.053 37.606 106.911C37.606 110.768 40.7329 113.895 44.5901 113.895H83.2714C87.1286 113.895 90.2555 110.768 90.2555 106.911C90.2555 103.053 87.1286 99.9265 83.2714 99.9265ZM44.5901 97.7776C39.546 97.7776 35.457 101.867 35.457 106.911C35.457 111.955 39.5461 116.044 44.5901 116.044H83.2714C88.3154 116.044 92.4044 111.955 92.4044 106.911C92.4044 101.867 88.3154 97.7776 83.2714 97.7776H44.5901Z" fill="#8A8A8A"/>
</g>
<path d="M71.0954 111.745H69.7188L72.8121 103.15H74.3105L77.4038 111.745H76.0271L73.5969 104.711H73.5298L71.0954 111.745ZM71.3263 108.379H75.7921V109.471H71.3263V108.379Z" fill="#5E5E5E"/>
<path d="M69.1774 107.448C69.1774 108.365 69.0095 109.155 68.6737 109.815C68.338 110.472 67.8777 110.979 67.2929 111.334C66.7109 111.687 66.0491 111.863 65.3076 111.863C64.5633 111.863 63.8987 111.687 63.3139 111.334C62.7319 110.979 62.273 110.471 61.9373 109.811C61.6015 109.15 61.4336 108.363 61.4336 107.448C61.4336 106.53 61.6015 105.742 61.9373 105.085C62.273 104.424 62.7319 103.918 63.3139 103.565C63.8987 103.21 64.5633 103.032 65.3076 103.032C66.0491 103.032 66.7109 103.21 67.2929 103.565C67.8777 103.918 68.338 104.424 68.6737 105.085C69.0095 105.742 69.1774 106.53 69.1774 107.448ZM67.8931 107.448C67.8931 106.748 67.7797 106.159 67.5531 105.681C67.3292 105.199 67.0214 104.836 66.6297 104.589C66.2408 104.34 65.8001 104.216 65.3076 104.216C64.8123 104.216 64.3702 104.34 63.9813 104.589C63.5923 104.836 63.2846 105.199 63.0579 105.681C62.8341 106.159 62.7221 106.748 62.7221 107.448C62.7221 108.147 62.8341 108.738 63.0579 109.219C63.2846 109.697 63.5923 110.061 63.9813 110.31C64.3702 110.556 64.8123 110.679 65.3076 110.679C65.8001 110.679 66.2408 110.556 66.6297 110.31C67.0214 110.061 67.3292 109.697 67.5531 109.219C67.7797 108.738 67.8931 108.147 67.8931 107.448Z" fill="#5E5E5E"/>
<path d="M51.1035 103.15H52.6775L55.414 109.832H55.5148L58.2513 103.15H59.8253V111.745H58.5913V105.525H58.5115L55.9764 111.733H54.9523L52.4172 105.521H52.3375V111.745H51.1035V103.15Z" fill="#5E5E5E"/>
<defs>
<filter id="filter0_iiiiii_37_7669" x="26.6973" y="32.8635" width="73.6914" height="63.2175" filterUnits="userSpaceOnUse" color-interpolation-filters="sRGB">
<feFlood flood-opacity="0" result="BackgroundImageFix"/>
<feBlend mode="normal" in="SourceGraphic" in2="BackgroundImageFix" result="shape"/>
<feColorMatrix in="SourceAlpha" type="matrix" values="0 0 0 0 0 0 0 0 0 0 0 0 0 0 0 0 0 0 127 0" result="hardAlpha"/>
<feOffset dx="3" dy="3"/>
<feGaussianBlur stdDeviation="2.25"/>
<feComposite in2="hardAlpha" operator="arithmetic" k2="-1" k3="1"/>
<feColorMatrix type="matrix" values="0 0 0 0 0.166667 0 0 0 0 0.166667 0 0 0 0 0.166667 0 0 0 0.07 0"/>
<feBlend mode="normal" in2="shape" result="effect1_innerShadow_37_7669"/>
<feColorMatrix in="SourceAlpha" type="matrix" values="0 0 0 0 0 0 0 0 0 0 0 0 0 0 0 0 0 0 127 0" result="hardAlpha"/>
<feOffset dy="-2"/>
<feGaussianBlur stdDeviation="5.95"/>
<feComposite in2="hardAlpha" operator="arithmetic" k2="-1" k3="1"/>
<feColorMatrix type="matrix" values="0 0 0 0 0.425 0 0 0 0 0.425 0 0 0 0 0.425 0 0 0 1 0"/>
<feBlend mode="normal" in2="effect1_innerShadow_37_7669" result="effect2_innerShadow_37_7669"/>
<feColorMatrix in="SourceAlpha" type="matrix" values="0 0 0 0 0 0 0 0 0 0 0 0 0 0 0 0 0 0 127 0" result="hardAlpha"/>
<feOffset dx="-3" dy="-2"/>
<feGaussianBlur stdDeviation="3.85"/>
<feComposite in2="hardAlpha" operator="arithmetic" k2="-1" k3="1"/>
<feColorMatrix type="matrix" values="0 0 0 0 0.325 0 0 0 0 0.325 0 0 0 0 0.325 0 0 0 0.9 0"/>
<feBlend mode="normal" in2="effect2_innerShadow_37_7669" result="effect3_innerShadow_37_7669"/>
<feColorMatrix in="SourceAlpha" type="matrix" values="0 0 0 0 0 0 0 0 0 0 0 0 0 0 0 0 0 0 127 0" result="hardAlpha"/>
<feOffset dx="-3" dy="1"/>
<feGaussianBlur stdDeviation="2"/>
<feComposite in2="hardAlpha" operator="arithmetic" k2="-1" k3="1"/>
<feColorMatrix type="matrix" values="0 0 0 0 0.8875 0 0 0 0 0.8875 0 0 0 0 0.8875 0 0 0 0.4 0"/>
<feBlend mode="normal" in2="effect3_innerShadow_37_7669" result="effect4_innerShadow_37_7669"/>
<feColorMatrix in="SourceAlpha" type="matrix" values="0 0 0 0 0 0 0 0 0 0 0 0 0 0 0 0 0 0 127 0" result="hardAlpha"/>
<feOffset dx="-1" dy="-1"/>
<feGaussianBlur stdDeviation="2"/>
<feComposite in2="hardAlpha" operator="arithmetic" k2="-1" k3="1"/>
<feColorMatrix type="matrix" values="0 0 0 0 1 0 0 0 0 1 0 0 0 0 1 0 0 0 0.7 0"/>
<feBlend mode="normal" in2="effect4_innerShadow_37_7669" result="effect5_innerShadow_37_7669"/>
<feColorMatrix in="SourceAlpha" type="matrix" values="0 0 0 0 0 0 0 0 0 0 0 0 0 0 0 0 0 0 127 0" result="hardAlpha"/>
<feOffset dy="-3"/>
<feGaussianBlur stdDeviation="2"/>
<feComposite in2="hardAlpha" operator="arithmetic" k2="-1" k3="1"/>
<feColorMatrix type="matrix" values="0 0 0 0 0.820833 0 0 0 0 0.820833 0 0 0 0 0.820833 0 0 0 0.13 0"/>
<feBlend mode="normal" in2="effect5_innerShadow_37_7669" result="effect6_innerShadow_37_7669"/>
</filter>
<filter id="filter1_iii_37_7669" x="35.0508" y="32.7126" width="17.5664" height="20.2034" filterUnits="userSpaceOnUse" color-interpolation-filters="sRGB">
<feFlood flood-opacity="0" result="BackgroundImageFix"/>
<feBlend mode="normal" in="SourceGraphic" in2="BackgroundImageFix" result="shape"/>
<feColorMatrix in="SourceAlpha" type="matrix" values="0 0 0 0 0 0 0 0 0 0 0 0 0 0 0 0 0 0 127 0" result="hardAlpha"/>
<feOffset dx="-1" dy="-2"/>
<feGaussianBlur stdDeviation="1.9"/>
<feComposite in2="hardAlpha" operator="arithmetic" k2="-1" k3="1"/>
<feColorMatrix type="matrix" values="0 0 0 0 0.458333 0 0 0 0 0.458333 0 0 0 0 0.458333 0 0 0 0.25 0"/>
<feBlend mode="normal" in2="shape" result="effect1_innerShadow_37_7669"/>
<feColorMatrix in="SourceAlpha" type="matrix" values="0 0 0 0 0 0 0 0 0 0 0 0 0 0 0 0 0 0 127 0" result="hardAlpha"/>
<feOffset dy="1"/>
<feGaussianBlur stdDeviation="1"/>
<feComposite in2="hardAlpha" operator="arithmetic" k2="-1" k3="1"/>
<feColorMatrix type="matrix" values="0 0 0 0 1 0 0 0 0 1 0 0 0 0 1 0 0 0 0.34 0"/>
<feBlend mode="normal" in2="effect1_innerShadow_37_7669" result="effect2_innerShadow_37_7669"/>
<feColorMatrix in="SourceAlpha" type="matrix" values="0 0 0 0 0 0 0 0 0 0 0 0 0 0 0 0 0 0 127 0" result="hardAlpha"/>
<feOffset/>
<feGaussianBlur stdDeviation="1.25"/>
<feComposite in2="hardAlpha" operator="arithmetic" k2="-1" k3="1"/>
<feColorMatrix type="matrix" values="0 0 0 0 1 0 0 0 0 1 0 0 0 0 1 0 0 0 0.21 0"/>
<feBlend mode="normal" in2="effect2_innerShadow_37_7669" result="effect3_innerShadow_37_7669"/>
</filter>
<filter id="filter2_iii_37_7669" x="73.0938" y="32.2402" width="18.0449" height="19.8831" filterUnits="userSpaceOnUse" color-interpolation-filters="sRGB">
<feFlood flood-opacity="0" result="BackgroundImageFix"/>
<feBlend mode="normal" in="SourceGraphic" in2="BackgroundImageFix" result="shape"/>
<feColorMatrix in="SourceAlpha" type="matrix" values="0 0 0 0 0 0 0 0 0 0 0 0 0 0 0 0 0 0 127 0" result="hardAlpha"/>
<feOffset dx="-1" dy="-2"/>
<feGaussianBlur stdDeviation="1.9"/>
<feComposite in2="hardAlpha" operator="arithmetic" k2="-1" k3="1"/>
<feColorMatrix type="matrix" values="0 0 0 0 0.458333 0 0 0 0 0.458333 0 0 0 0 0.458333 0 0 0 0.25 0"/>
<feBlend mode="normal" in2="shape" result="effect1_innerShadow_37_7669"/>
<feColorMatrix in="SourceAlpha" type="matrix" values="0 0 0 0 0 0 0 0 0 0 0 0 0 0 0 0 0 0 127 0" result="hardAlpha"/>
<feOffset dy="1"/>
<feGaussianBlur stdDeviation="1"/>
<feComposite in2="hardAlpha" operator="arithmetic" k2="-1" k3="1"/>
<feColorMatrix type="matrix" values="0 0 0 0 1 0 0 0 0 1 0 0 0 0 1 0 0 0 0.34 0"/>
<feBlend mode="normal" in2="effect1_innerShadow_37_7669" result="effect2_innerShadow_37_7669"/>
<feColorMatrix in="SourceAlpha" type="matrix" values="0 0 0 0 0 0 0 0 0 0 0 0 0 0 0 0 0 0 127 0" result="hardAlpha"/>
<feOffset/>
<feGaussianBlur stdDeviation="1.25"/>
<feComposite in2="hardAlpha" operator="arithmetic" k2="-1" k3="1"/>
<feColorMatrix type="matrix" values="0 0 0 0 1 0 0 0 0 1 0 0 0 0 1 0 0 0 0.21 0"/>
<feBlend mode="normal" in2="effect2_innerShadow_37_7669" result="effect3_innerShadow_37_7669"/>
</filter>
<filter id="filter3_i_37_7669" x="52.9961" y="60.0044" width="20.0918" height="13.137" filterUnits="userSpaceOnUse" color-interpolation-filters="sRGB">
<feFlood flood-opacity="0" result="BackgroundImageFix"/>
<feBlend mode="normal" in="SourceGraphic" in2="BackgroundImageFix" result="shape"/>
<feColorMatrix in="SourceAlpha" type="matrix" values="0 0 0 0 0 0 0 0 0 0 0 0 0 0 0 0 0 0 127 0" result="hardAlpha"/>
<feOffset dx="-1" dy="-1"/>
<feGaussianBlur stdDeviation="0.9"/>
<feComposite in2="hardAlpha" operator="arithmetic" k2="-1" k3="1"/>
<feColorMatrix type="matrix" values="0 0 0 0 0.25 0 0 0 0 0.25 0 0 0 0 0.25 0 0 0 0.25 0"/>
<feBlend mode="normal" in2="shape" result="effect1_innerShadow_37_7669"/>
</filter>
<filter id="filter4_ii_37_7669" x="63.8477" y="63.6052" width="6.81055" height="7.0686" filterUnits="userSpaceOnUse" color-interpolation-filters="sRGB">
<feFlood flood-opacity="0" result="BackgroundImageFix"/>
<feBlend mode="normal" in="SourceGraphic" in2="BackgroundImageFix" result="shape"/>
<feColorMatrix in="SourceAlpha" type="matrix" values="0 0 0 0 0 0 0 0 0 0 0 0 0 0 0 0 0 0 127 0" result="hardAlpha"/>
<feOffset dx="1" dy="1"/>
<feGaussianBlur stdDeviation="0.65"/>
<feComposite in2="hardAlpha" operator="arithmetic" k2="-1" k3="1"/>
<feColorMatrix type="matrix" values="0 0 0 0 0.00833333 0 0 0 0 0.00833333 0 0 0 0 0.00833333 0 0 0 0.25 0"/>
<feBlend mode="normal" in2="shape" result="effect1_innerShadow_37_7669"/>
<feColorMatrix in="SourceAlpha" type="matrix" values="0 0 0 0 0 0 0 0 0 0 0 0 0 0 0 0 0 0 127 0" result="hardAlpha"/>
<feOffset dy="0.2"/>
<feGaussianBlur stdDeviation="1"/>
<feComposite in2="hardAlpha" operator="arithmetic" k2="-1" k3="1"/>
<feColorMatrix type="matrix" values="0 0 0 0 0 0 0 0 0 0 0 0 0 0 0 0 0 0 0.25 0"/>
<feBlend mode="normal" in2="effect1_innerShadow_37_7669" result="effect2_innerShadow_37_7669"/>
</filter>
<filter id="filter5_ii_37_7669" x="57.4668" y="63.6052" width="6.81055" height="7.0686" filterUnits="userSpaceOnUse" color-interpolation-filters="sRGB">
<feFlood flood-opacity="0" result="BackgroundImageFix"/>
<feBlend mode="normal" in="SourceGraphic" in2="BackgroundImageFix" result="shape"/>
<feColorMatrix in="SourceAlpha" type="matrix" values="0 0 0 0 0 0 0 0 0 0 0 0 0 0 0 0 0 0 127 0" result="hardAlpha"/>
<feOffset dx="1" dy="1"/>
<feGaussianBlur stdDeviation="0.65"/>
<feComposite in2="hardAlpha" operator="arithmetic" k2="-1" k3="1"/>
<feColorMatrix type="matrix" values="0 0 0 0 0.00833333 0 0 0 0 0.00833333 0 0 0 0 0.00833333 0 0 0 0.25 0"/>
<feBlend mode="normal" in2="shape" result="effect1_innerShadow_37_7669"/>
<feColorMatrix in="SourceAlpha" type="matrix" values="0 0 0 0 0 0 0 0 0 0 0 0 0 0 0 0 0 0 127 0" result="hardAlpha"/>
<feOffset dy="0.2"/>
<feGaussianBlur stdDeviation="1"/>
<feComposite in2="hardAlpha" operator="arithmetic" k2="-1" k3="1"/>
<feColorMatrix type="matrix" values="0 0 0 0 0 0 0 0 0 0 0 0 0 0 0 0 0 0 0.25 0"/>
<feBlend mode="normal" in2="effect1_innerShadow_37_7669" result="effect2_innerShadow_37_7669"/>
</filter>
<filter id="filter6_ii_37_7669" x="59.2051" y="55.2099" width="2.60352" height="5.23472" filterUnits="userSpaceOnUse" color-interpolation-filters="sRGB">
<feFlood flood-opacity="0" result="BackgroundImageFix"/>
<feBlend mode="normal" in="SourceGraphic" in2="BackgroundImageFix" result="shape"/>
<feColorMatrix in="SourceAlpha" type="matrix" values="0 0 0 0 0 0 0 0 0 0 0 0 0 0 0 0 0 0 127 0" result="hardAlpha"/>
<feOffset dy="-1"/>
<feGaussianBlur stdDeviation="0.45"/>
<feComposite in2="hardAlpha" operator="arithmetic" k2="-1" k3="1"/>
<feColorMatrix type="matrix" values="0 0 0 0 1 0 0 0 0 1 0 0 0 0 1 0 0 0 0.25 0"/>
<feBlend mode="normal" in2="shape" result="effect1_innerShadow_37_7669"/>
<feColorMatrix in="SourceAlpha" type="matrix" values="0 0 0 0 0 0 0 0 0 0 0 0 0 0 0 0 0 0 127 0" result="hardAlpha"/>
<feOffset/>
<feGaussianBlur stdDeviation="0.4"/>
<feComposite in2="hardAlpha" operator="arithmetic" k2="-1" k3="1"/>
<feColorMatrix type="matrix" values="0 0 0 0 0.958333 0 0 0 0 0.958333 0 0 0 0 0.958333 0 0 0 0.25 0"/>
<feBlend mode="normal" in2="effect1_innerShadow_37_7669" result="effect2_innerShadow_37_7669"/>
</filter>
<filter id="filter7_ii_37_7669" x="64.4121" y="55.2099" width="2.60352" height="5.23472" filterUnits="userSpaceOnUse" color-interpolation-filters="sRGB">
<feFlood flood-opacity="0" result="BackgroundImageFix"/>
<feBlend mode="normal" in="SourceGraphic" in2="BackgroundImageFix" result="shape"/>
<feColorMatrix in="SourceAlpha" type="matrix" values="0 0 0 0 0 0 0 0 0 0 0 0 0 0 0 0 0 0 127 0" result="hardAlpha"/>
<feOffset dy="-1"/>
<feGaussianBlur stdDeviation="0.45"/>
<feComposite in2="hardAlpha" operator="arithmetic" k2="-1" k3="1"/>
<feColorMatrix type="matrix" values="0 0 0 0 1 0 0 0 0 1 0 0 0 0 1 0 0 0 0.25 0"/>
<feBlend mode="normal" in2="shape" result="effect1_innerShadow_37_7669"/>
<feColorMatrix in="SourceAlpha" type="matrix" values="0 0 0 0 0 0 0 0 0 0 0 0 0 0 0 0 0 0 127 0" result="hardAlpha"/>
<feOffset/>
<feGaussianBlur stdDeviation="0.4"/>
<feComposite in2="hardAlpha" operator="arithmetic" k2="-1" k3="1"/>
<feColorMatrix type="matrix" values="0 0 0 0 0.958333 0 0 0 0 0.958333 0 0 0 0 0.958333 0 0 0 0.25 0"/>
<feBlend mode="normal" in2="effect1_innerShadow_37_7669" result="effect2_innerShadow_37_7669"/>
</filter>
<filter id="filter8_d_37_7669" x="33.957" y="96.2776" width="65.9473" height="27.2661" filterUnits="userSpaceOnUse" color-interpolation-filters="sRGB">
<feFlood flood-opacity="0" result="BackgroundImageFix"/>
<feColorMatrix in="SourceAlpha" type="matrix" values="0 0 0 0 0 0 0 0 0 0 0 0 0 0 0 0 0 0 127 0" result="hardAlpha"/>
<feOffset dx="3" dy="3"/>
<feGaussianBlur stdDeviation="2.25"/>
<feComposite in2="hardAlpha" operator="out"/>
<feColorMatrix type="matrix" values="0 0 0 0 0.203922 0 0 0 0 0.360784 0 0 0 0 0.180392 0 0 0 0.15 0"/>
<feBlend mode="normal" in2="BackgroundImageFix" result="effect1_dropShadow_37_7669"/>
<feBlend mode="normal" in="SourceGraphic" in2="effect1_dropShadow_37_7669" result="shape"/>
</filter>
<filter id="filter9_d_37_7669" x="33.957" y="96.2776" width="65.9473" height="27.2661" filterUnits="userSpaceOnUse" color-interpolation-filters="sRGB">
<feFlood flood-opacity="0" result="BackgroundImageFix"/>
<feColorMatrix in="SourceAlpha" type="matrix" values="0 0 0 0 0 0 0 0 0 0 0 0 0 0 0 0 0 0 127 0" result="hardAlpha"/>
<feOffset dx="3" dy="3"/>
<feGaussianBlur stdDeviation="2.25"/>
<feComposite in2="hardAlpha" operator="out"/>
<feColorMatrix type="matrix" values="0 0 0 0 0.203922 0 0 0 0 0.360784 0 0 0 0 0.180392 0 0 0 0.15 0"/>
<feBlend mode="normal" in2="BackgroundImageFix" result="effect1_dropShadow_37_7669"/>
<feBlend mode="normal" in="SourceGraphic" in2="effect1_dropShadow_37_7669" result="shape"/>
</filter>
</defs>
</svg>
