<svg width="128" height="127" viewBox="0 0 128 127" fill="none" xmlns="http://www.w3.org/2000/svg">
<path fill-rule="evenodd" clip-rule="evenodd" d="M98.7281 87.6141C112.12 68.4888 107.472 42.1287 88.3465 28.737C69.2213 15.3454 42.8611 19.9934 29.4695 39.1186C16.0779 58.2439 20.7259 84.604 39.8511 97.9957C58.9763 111.387 85.3365 106.739 98.7281 87.6141ZM101.369 89.4629C115.781 68.8794 110.779 40.5093 90.1954 26.0966C69.6119 11.6838 41.2418 16.6862 26.829 37.2698C12.4163 57.8533 17.4187 86.2234 38.0022 100.636C58.5858 115.049 86.9559 110.046 101.369 89.4629Z" fill="url(#paint0_linear_37_7685)"/>
<g filter="url(#filter0_iiiiii_37_7685)">
<path d="M98.1219 64.4726C98.1219 79.5546 87.0979 93.0814 64.2758 93.0814C42.1456 93.0814 30.4297 78.777 30.4297 64.4726C30.4297 49.4214 44.8642 35.8638 64.2758 35.8638C83.6874 35.8638 98.1219 49.3906 98.1219 64.4726Z" fill="#E6E6E6"/>
</g>
<g filter="url(#filter1_iii_37_7685)">
<path d="M51.9484 50.4939C51.6515 51.4451 50.7064 52.0391 49.7195 51.8946V51.8946C45.2455 51.2393 41.1183 49.1085 37.9942 45.841L37.4136 45.2338C36.5371 44.3172 36.5814 42.8614 37.5119 42.0004L37.8823 41.6576C41.1318 38.6508 44.999 36.3888 49.2141 35.0292L49.8352 34.8289C51.2082 34.386 52.6571 35.2568 52.9093 36.6766V36.6766C53.708 41.1723 53.4151 45.7935 52.0552 50.1516L51.9484 50.4939Z" fill="#7E7E7E"/>
</g>
<g filter="url(#filter2_iii_37_7685)">
<path d="M78.2997 51.0879C77.3197 51.2735 76.3505 50.7195 76.0141 49.7814V49.7814C74.4894 45.5289 74.4313 40.8886 75.8491 36.598L76.1127 35.8003C76.5104 34.5967 77.8175 33.9512 79.0157 34.3667L79.4925 34.532C83.677 35.9832 87.4939 38.329 90.677 41.4059L91.1459 41.8592C92.1828 42.8615 92.0947 44.5483 90.959 45.4382V45.4382C87.3625 48.2563 83.142 50.1709 78.6521 51.0212L78.2997 51.0879Z" fill="#7E7E7E"/>
</g>
<path d="M84.7328 67.4621C82.7748 68.2447 81.3397 68.3257 80.7038 66.7381C80.0679 65.1505 81.1628 64.2203 83.1208 63.4376C85.0788 62.655 86.5138 62.574 87.1497 64.1616C87.7857 65.7493 86.6908 66.6795 84.7328 67.4621Z" fill="#B5B5B5"/>
<path d="M45.9738 64.33C47.823 65.3428 48.7976 66.3982 47.9746 67.8976C47.1516 69.397 45.7368 69.1437 43.8876 68.1308C42.0384 67.118 41.0639 66.0626 41.8869 64.5632C42.7098 63.0638 44.1246 63.3172 45.9738 64.33Z" fill="#B5B5B5"/>
<g filter="url(#filter3_i_37_7685)">
<rect x="54.7285" y="61.0046" width="19.0927" height="12.1371" rx="6.06853" fill="#7E7E7E"/>
</g>
<g filter="url(#filter4_ii_37_7685)">
<ellipse cx="67.4855" cy="66.6397" rx="2.90541" ry="3.03427" fill="#E6E6E6"/>
</g>
<g filter="url(#filter5_ii_37_7685)">
<ellipse cx="61.1046" cy="66.6397" rx="2.90541" ry="3.03427" fill="#E6E6E6"/>
</g>
<path d="M72.0298 64.5431C72.051 64.1103 70.8353 62.3151 69.1689 62.2345" stroke="white" stroke-opacity="0.65" stroke-width="0.9" stroke-linecap="round"/>
<path d="M82.8086 63.8899L82.0313 66.7874" stroke="#EBEBEB" stroke-opacity="0.85" stroke-width="0.9" stroke-linecap="round"/>
<path d="M84.6094 63.3899L83.6094 67.2874" stroke="#EBEBEB" stroke-opacity="0.85" stroke-width="0.9" stroke-linecap="round"/>
<path d="M86.1855 63.8899L85.4083 66.7874" stroke="#EBEBEB" stroke-opacity="0.85" stroke-width="0.9" stroke-linecap="round"/>
<path d="M46.1406 64.7136L46.9179 67.6112" stroke="#EBEBEB" stroke-opacity="0.85" stroke-width="0.9" stroke-linecap="round"/>
<path d="M44.3398 64.2136L45.3398 68.1112" stroke="#EBEBEB" stroke-opacity="0.85" stroke-width="0.9" stroke-linecap="round"/>
<path d="M42.7637 64.7136L43.541 67.6112" stroke="#EBEBEB" stroke-opacity="0.85" stroke-width="0.9" stroke-linecap="round"/>
<g filter="url(#filter6_ii_37_7685)">
<ellipse cx="61.2393" cy="58.2774" rx="1.30177" ry="2.16733" fill="#242424"/>
</g>
<g filter="url(#filter7_ii_37_7685)">
<ellipse cx="66.4463" cy="58.2774" rx="1.30177" ry="2.16733" fill="#242424"/>
</g>
<g filter="url(#filter8_d_37_7685)">
<path d="M36.1895 106.911C36.1895 101.867 40.2785 97.7778 45.3225 97.7778H84.0038C89.0478 97.7778 93.1369 101.867 93.1369 106.911C93.1369 111.955 89.0478 116.044 84.0038 116.044H45.3225C40.2785 116.044 36.1895 111.955 36.1895 106.911Z" fill="#D2F7FF"/>
</g>
<path d="M71.8278 111.746H70.4512L73.5445 103.15H75.0429L78.1362 111.746H76.7595L74.3294 104.711H74.2622L71.8278 111.746ZM72.0587 108.38H76.5245V109.471H72.0587V108.38Z" fill="#5E5E5E"/>
<path d="M69.9098 107.448C69.9098 108.366 69.7419 109.155 69.4062 109.815C69.0704 110.473 68.6101 110.979 68.0253 111.335C67.4433 111.687 66.7815 111.863 66.04 111.863C65.2957 111.863 64.6312 111.687 64.0464 111.335C63.4643 110.979 63.0055 110.471 62.6697 109.811C62.3339 109.151 62.166 108.363 62.166 107.448C62.166 106.53 62.3339 105.742 62.6697 105.085C63.0055 104.425 63.4643 103.918 64.0464 103.566C64.6312 103.21 65.2957 103.032 66.04 103.032C66.7815 103.032 67.4433 103.21 68.0253 103.566C68.6101 103.918 69.0704 104.425 69.4062 105.085C69.7419 105.742 69.9098 106.53 69.9098 107.448ZM68.6255 107.448C68.6255 106.748 68.5122 106.159 68.2855 105.681C68.0617 105.2 67.7539 104.836 67.3621 104.59C66.9732 104.341 66.5325 104.216 66.04 104.216C65.5447 104.216 65.1026 104.341 64.7137 104.59C64.3248 104.836 64.017 105.2 63.7903 105.681C63.5665 106.159 63.4546 106.748 63.4546 107.448C63.4546 108.147 63.5665 108.738 63.7903 109.219C64.017 109.698 64.3248 110.061 64.7137 110.31C65.1026 110.557 65.5447 110.68 66.04 110.68C66.5325 110.68 66.9732 110.557 67.3621 110.31C67.7539 110.061 68.0617 109.698 68.2855 109.219C68.5122 108.738 68.6255 108.147 68.6255 107.448Z" fill="#5E5E5E"/>
<path d="M51.8359 103.15H53.4099L56.1464 109.832H56.2472L58.9837 103.15H60.5577V111.746H59.3237V105.526H59.244L56.7089 111.733H55.6848L53.1497 105.521H53.0699V111.746H51.8359V103.15Z" fill="#5E5E5E"/>
<defs>
<filter id="filter0_iiiiii_37_7685" x="27.4297" y="32.8638" width="73.6914" height="63.2175" filterUnits="userSpaceOnUse" color-interpolation-filters="sRGB">
<feFlood flood-opacity="0" result="BackgroundImageFix"/>
<feBlend mode="normal" in="SourceGraphic" in2="BackgroundImageFix" result="shape"/>
<feColorMatrix in="SourceAlpha" type="matrix" values="0 0 0 0 0 0 0 0 0 0 0 0 0 0 0 0 0 0 127 0" result="hardAlpha"/>
<feOffset dx="3" dy="3"/>
<feGaussianBlur stdDeviation="2.25"/>
<feComposite in2="hardAlpha" operator="arithmetic" k2="-1" k3="1"/>
<feColorMatrix type="matrix" values="0 0 0 0 0.166667 0 0 0 0 0.166667 0 0 0 0 0.166667 0 0 0 0.07 0"/>
<feBlend mode="normal" in2="shape" result="effect1_innerShadow_37_7685"/>
<feColorMatrix in="SourceAlpha" type="matrix" values="0 0 0 0 0 0 0 0 0 0 0 0 0 0 0 0 0 0 127 0" result="hardAlpha"/>
<feOffset dy="-2"/>
<feGaussianBlur stdDeviation="5.95"/>
<feComposite in2="hardAlpha" operator="arithmetic" k2="-1" k3="1"/>
<feColorMatrix type="matrix" values="0 0 0 0 0.425 0 0 0 0 0.425 0 0 0 0 0.425 0 0 0 1 0"/>
<feBlend mode="normal" in2="effect1_innerShadow_37_7685" result="effect2_innerShadow_37_7685"/>
<feColorMatrix in="SourceAlpha" type="matrix" values="0 0 0 0 0 0 0 0 0 0 0 0 0 0 0 0 0 0 127 0" result="hardAlpha"/>
<feOffset dx="-3" dy="-2"/>
<feGaussianBlur stdDeviation="3.85"/>
<feComposite in2="hardAlpha" operator="arithmetic" k2="-1" k3="1"/>
<feColorMatrix type="matrix" values="0 0 0 0 0.325 0 0 0 0 0.325 0 0 0 0 0.325 0 0 0 0.9 0"/>
<feBlend mode="normal" in2="effect2_innerShadow_37_7685" result="effect3_innerShadow_37_7685"/>
<feColorMatrix in="SourceAlpha" type="matrix" values="0 0 0 0 0 0 0 0 0 0 0 0 0 0 0 0 0 0 127 0" result="hardAlpha"/>
<feOffset dx="-3" dy="1"/>
<feGaussianBlur stdDeviation="2"/>
<feComposite in2="hardAlpha" operator="arithmetic" k2="-1" k3="1"/>
<feColorMatrix type="matrix" values="0 0 0 0 0.8875 0 0 0 0 0.8875 0 0 0 0 0.8875 0 0 0 0.4 0"/>
<feBlend mode="normal" in2="effect3_innerShadow_37_7685" result="effect4_innerShadow_37_7685"/>
<feColorMatrix in="SourceAlpha" type="matrix" values="0 0 0 0 0 0 0 0 0 0 0 0 0 0 0 0 0 0 127 0" result="hardAlpha"/>
<feOffset dx="-1" dy="-1"/>
<feGaussianBlur stdDeviation="2"/>
<feComposite in2="hardAlpha" operator="arithmetic" k2="-1" k3="1"/>
<feColorMatrix type="matrix" values="0 0 0 0 1 0 0 0 0 1 0 0 0 0 1 0 0 0 0.7 0"/>
<feBlend mode="normal" in2="effect4_innerShadow_37_7685" result="effect5_innerShadow_37_7685"/>
<feColorMatrix in="SourceAlpha" type="matrix" values="0 0 0 0 0 0 0 0 0 0 0 0 0 0 0 0 0 0 127 0" result="hardAlpha"/>
<feOffset dy="-3"/>
<feGaussianBlur stdDeviation="2"/>
<feComposite in2="hardAlpha" operator="arithmetic" k2="-1" k3="1"/>
<feColorMatrix type="matrix" values="0 0 0 0 0.820833 0 0 0 0 0.820833 0 0 0 0 0.820833 0 0 0 0.13 0"/>
<feBlend mode="normal" in2="effect5_innerShadow_37_7685" result="effect6_innerShadow_37_7685"/>
</filter>
<filter id="filter1_iii_37_7685" x="35.7832" y="32.7129" width="17.5664" height="20.2034" filterUnits="userSpaceOnUse" color-interpolation-filters="sRGB">
<feFlood flood-opacity="0" result="BackgroundImageFix"/>
<feBlend mode="normal" in="SourceGraphic" in2="BackgroundImageFix" result="shape"/>
<feColorMatrix in="SourceAlpha" type="matrix" values="0 0 0 0 0 0 0 0 0 0 0 0 0 0 0 0 0 0 127 0" result="hardAlpha"/>
<feOffset dx="-1" dy="-2"/>
<feGaussianBlur stdDeviation="1.9"/>
<feComposite in2="hardAlpha" operator="arithmetic" k2="-1" k3="1"/>
<feColorMatrix type="matrix" values="0 0 0 0 0.458333 0 0 0 0 0.458333 0 0 0 0 0.458333 0 0 0 0.25 0"/>
<feBlend mode="normal" in2="shape" result="effect1_innerShadow_37_7685"/>
<feColorMatrix in="SourceAlpha" type="matrix" values="0 0 0 0 0 0 0 0 0 0 0 0 0 0 0 0 0 0 127 0" result="hardAlpha"/>
<feOffset dy="1"/>
<feGaussianBlur stdDeviation="1"/>
<feComposite in2="hardAlpha" operator="arithmetic" k2="-1" k3="1"/>
<feColorMatrix type="matrix" values="0 0 0 0 1 0 0 0 0 1 0 0 0 0 1 0 0 0 0.34 0"/>
<feBlend mode="normal" in2="effect1_innerShadow_37_7685" result="effect2_innerShadow_37_7685"/>
<feColorMatrix in="SourceAlpha" type="matrix" values="0 0 0 0 0 0 0 0 0 0 0 0 0 0 0 0 0 0 127 0" result="hardAlpha"/>
<feOffset/>
<feGaussianBlur stdDeviation="1.25"/>
<feComposite in2="hardAlpha" operator="arithmetic" k2="-1" k3="1"/>
<feColorMatrix type="matrix" values="0 0 0 0 1 0 0 0 0 1 0 0 0 0 1 0 0 0 0.21 0"/>
<feBlend mode="normal" in2="effect2_innerShadow_37_7685" result="effect3_innerShadow_37_7685"/>
</filter>
<filter id="filter2_iii_37_7685" x="73.8262" y="32.2405" width="18.0449" height="19.8831" filterUnits="userSpaceOnUse" color-interpolation-filters="sRGB">
<feFlood flood-opacity="0" result="BackgroundImageFix"/>
<feBlend mode="normal" in="SourceGraphic" in2="BackgroundImageFix" result="shape"/>
<feColorMatrix in="SourceAlpha" type="matrix" values="0 0 0 0 0 0 0 0 0 0 0 0 0 0 0 0 0 0 127 0" result="hardAlpha"/>
<feOffset dx="-1" dy="-2"/>
<feGaussianBlur stdDeviation="1.9"/>
<feComposite in2="hardAlpha" operator="arithmetic" k2="-1" k3="1"/>
<feColorMatrix type="matrix" values="0 0 0 0 0.458333 0 0 0 0 0.458333 0 0 0 0 0.458333 0 0 0 0.25 0"/>
<feBlend mode="normal" in2="shape" result="effect1_innerShadow_37_7685"/>
<feColorMatrix in="SourceAlpha" type="matrix" values="0 0 0 0 0 0 0 0 0 0 0 0 0 0 0 0 0 0 127 0" result="hardAlpha"/>
<feOffset dy="1"/>
<feGaussianBlur stdDeviation="1"/>
<feComposite in2="hardAlpha" operator="arithmetic" k2="-1" k3="1"/>
<feColorMatrix type="matrix" values="0 0 0 0 1 0 0 0 0 1 0 0 0 0 1 0 0 0 0.34 0"/>
<feBlend mode="normal" in2="effect1_innerShadow_37_7685" result="effect2_innerShadow_37_7685"/>
<feColorMatrix in="SourceAlpha" type="matrix" values="0 0 0 0 0 0 0 0 0 0 0 0 0 0 0 0 0 0 127 0" result="hardAlpha"/>
<feOffset/>
<feGaussianBlur stdDeviation="1.25"/>
<feComposite in2="hardAlpha" operator="arithmetic" k2="-1" k3="1"/>
<feColorMatrix type="matrix" values="0 0 0 0 1 0 0 0 0 1 0 0 0 0 1 0 0 0 0.21 0"/>
<feBlend mode="normal" in2="effect2_innerShadow_37_7685" result="effect3_innerShadow_37_7685"/>
</filter>
<filter id="filter3_i_37_7685" x="53.7285" y="60.0046" width="20.0918" height="13.137" filterUnits="userSpaceOnUse" color-interpolation-filters="sRGB">
<feFlood flood-opacity="0" result="BackgroundImageFix"/>
<feBlend mode="normal" in="SourceGraphic" in2="BackgroundImageFix" result="shape"/>
<feColorMatrix in="SourceAlpha" type="matrix" values="0 0 0 0 0 0 0 0 0 0 0 0 0 0 0 0 0 0 127 0" result="hardAlpha"/>
<feOffset dx="-1" dy="-1"/>
<feGaussianBlur stdDeviation="0.9"/>
<feComposite in2="hardAlpha" operator="arithmetic" k2="-1" k3="1"/>
<feColorMatrix type="matrix" values="0 0 0 0 0.25 0 0 0 0 0.25 0 0 0 0 0.25 0 0 0 0.25 0"/>
<feBlend mode="normal" in2="shape" result="effect1_innerShadow_37_7685"/>
</filter>
<filter id="filter4_ii_37_7685" x="64.5801" y="63.6055" width="6.81055" height="7.0686" filterUnits="userSpaceOnUse" color-interpolation-filters="sRGB">
<feFlood flood-opacity="0" result="BackgroundImageFix"/>
<feBlend mode="normal" in="SourceGraphic" in2="BackgroundImageFix" result="shape"/>
<feColorMatrix in="SourceAlpha" type="matrix" values="0 0 0 0 0 0 0 0 0 0 0 0 0 0 0 0 0 0 127 0" result="hardAlpha"/>
<feOffset dx="1" dy="1"/>
<feGaussianBlur stdDeviation="0.65"/>
<feComposite in2="hardAlpha" operator="arithmetic" k2="-1" k3="1"/>
<feColorMatrix type="matrix" values="0 0 0 0 0.00833333 0 0 0 0 0.00833333 0 0 0 0 0.00833333 0 0 0 0.25 0"/>
<feBlend mode="normal" in2="shape" result="effect1_innerShadow_37_7685"/>
<feColorMatrix in="SourceAlpha" type="matrix" values="0 0 0 0 0 0 0 0 0 0 0 0 0 0 0 0 0 0 127 0" result="hardAlpha"/>
<feOffset dy="0.2"/>
<feGaussianBlur stdDeviation="1"/>
<feComposite in2="hardAlpha" operator="arithmetic" k2="-1" k3="1"/>
<feColorMatrix type="matrix" values="0 0 0 0 0 0 0 0 0 0 0 0 0 0 0 0 0 0 0.25 0"/>
<feBlend mode="normal" in2="effect1_innerShadow_37_7685" result="effect2_innerShadow_37_7685"/>
</filter>
<filter id="filter5_ii_37_7685" x="58.1992" y="63.6055" width="6.81055" height="7.0686" filterUnits="userSpaceOnUse" color-interpolation-filters="sRGB">
<feFlood flood-opacity="0" result="BackgroundImageFix"/>
<feBlend mode="normal" in="SourceGraphic" in2="BackgroundImageFix" result="shape"/>
<feColorMatrix in="SourceAlpha" type="matrix" values="0 0 0 0 0 0 0 0 0 0 0 0 0 0 0 0 0 0 127 0" result="hardAlpha"/>
<feOffset dx="1" dy="1"/>
<feGaussianBlur stdDeviation="0.65"/>
<feComposite in2="hardAlpha" operator="arithmetic" k2="-1" k3="1"/>
<feColorMatrix type="matrix" values="0 0 0 0 0.00833333 0 0 0 0 0.00833333 0 0 0 0 0.00833333 0 0 0 0.25 0"/>
<feBlend mode="normal" in2="shape" result="effect1_innerShadow_37_7685"/>
<feColorMatrix in="SourceAlpha" type="matrix" values="0 0 0 0 0 0 0 0 0 0 0 0 0 0 0 0 0 0 127 0" result="hardAlpha"/>
<feOffset dy="0.2"/>
<feGaussianBlur stdDeviation="1"/>
<feComposite in2="hardAlpha" operator="arithmetic" k2="-1" k3="1"/>
<feColorMatrix type="matrix" values="0 0 0 0 0 0 0 0 0 0 0 0 0 0 0 0 0 0 0.25 0"/>
<feBlend mode="normal" in2="effect1_innerShadow_37_7685" result="effect2_innerShadow_37_7685"/>
</filter>
<filter id="filter6_ii_37_7685" x="59.9375" y="55.2101" width="2.60352" height="5.23472" filterUnits="userSpaceOnUse" color-interpolation-filters="sRGB">
<feFlood flood-opacity="0" result="BackgroundImageFix"/>
<feBlend mode="normal" in="SourceGraphic" in2="BackgroundImageFix" result="shape"/>
<feColorMatrix in="SourceAlpha" type="matrix" values="0 0 0 0 0 0 0 0 0 0 0 0 0 0 0 0 0 0 127 0" result="hardAlpha"/>
<feOffset dy="-1"/>
<feGaussianBlur stdDeviation="0.45"/>
<feComposite in2="hardAlpha" operator="arithmetic" k2="-1" k3="1"/>
<feColorMatrix type="matrix" values="0 0 0 0 1 0 0 0 0 1 0 0 0 0 1 0 0 0 0.25 0"/>
<feBlend mode="normal" in2="shape" result="effect1_innerShadow_37_7685"/>
<feColorMatrix in="SourceAlpha" type="matrix" values="0 0 0 0 0 0 0 0 0 0 0 0 0 0 0 0 0 0 127 0" result="hardAlpha"/>
<feOffset/>
<feGaussianBlur stdDeviation="0.4"/>
<feComposite in2="hardAlpha" operator="arithmetic" k2="-1" k3="1"/>
<feColorMatrix type="matrix" values="0 0 0 0 0.958333 0 0 0 0 0.958333 0 0 0 0 0.958333 0 0 0 0.25 0"/>
<feBlend mode="normal" in2="effect1_innerShadow_37_7685" result="effect2_innerShadow_37_7685"/>
</filter>
<filter id="filter7_ii_37_7685" x="65.1445" y="55.2101" width="2.60352" height="5.23472" filterUnits="userSpaceOnUse" color-interpolation-filters="sRGB">
<feFlood flood-opacity="0" result="BackgroundImageFix"/>
<feBlend mode="normal" in="SourceGraphic" in2="BackgroundImageFix" result="shape"/>
<feColorMatrix in="SourceAlpha" type="matrix" values="0 0 0 0 0 0 0 0 0 0 0 0 0 0 0 0 0 0 127 0" result="hardAlpha"/>
<feOffset dy="-1"/>
<feGaussianBlur stdDeviation="0.45"/>
<feComposite in2="hardAlpha" operator="arithmetic" k2="-1" k3="1"/>
<feColorMatrix type="matrix" values="0 0 0 0 1 0 0 0 0 1 0 0 0 0 1 0 0 0 0.25 0"/>
<feBlend mode="normal" in2="shape" result="effect1_innerShadow_37_7685"/>
<feColorMatrix in="SourceAlpha" type="matrix" values="0 0 0 0 0 0 0 0 0 0 0 0 0 0 0 0 0 0 127 0" result="hardAlpha"/>
<feOffset/>
<feGaussianBlur stdDeviation="0.4"/>
<feComposite in2="hardAlpha" operator="arithmetic" k2="-1" k3="1"/>
<feColorMatrix type="matrix" values="0 0 0 0 0.958333 0 0 0 0 0.958333 0 0 0 0 0.958333 0 0 0 0.25 0"/>
<feBlend mode="normal" in2="effect1_innerShadow_37_7685" result="effect2_innerShadow_37_7685"/>
</filter>
<filter id="filter8_d_37_7685" x="34.6895" y="96.2778" width="65.9473" height="27.2661" filterUnits="userSpaceOnUse" color-interpolation-filters="sRGB">
<feFlood flood-opacity="0" result="BackgroundImageFix"/>
<feColorMatrix in="SourceAlpha" type="matrix" values="0 0 0 0 0 0 0 0 0 0 0 0 0 0 0 0 0 0 127 0" result="hardAlpha"/>
<feOffset dx="3" dy="3"/>
<feGaussianBlur stdDeviation="2.25"/>
<feComposite in2="hardAlpha" operator="out"/>
<feColorMatrix type="matrix" values="0 0 0 0 0.203922 0 0 0 0 0.360784 0 0 0 0 0.180392 0 0 0 0.15 0"/>
<feBlend mode="normal" in2="BackgroundImageFix" result="effect1_dropShadow_37_7685"/>
<feBlend mode="normal" in="SourceGraphic" in2="effect1_dropShadow_37_7685" result="shape"/>
</filter>
<linearGradient id="paint0_linear_37_7685" x1="26.829" y1="37.2698" x2="101.369" y2="89.4629" gradientUnits="userSpaceOnUse">
<stop stop-color="#D4F8FF"/>
<stop offset="1" stop-color="#10CFFF"/>
</linearGradient>
</defs>
</svg>
