<svg width="128" height="127" viewBox="0 0 128 127" fill="none" xmlns="http://www.w3.org/2000/svg">
<path d="M89.9278 26.0966C110.511 40.5093 115.514 68.8794 101.101 89.4629C86.6883 110.046 58.3182 115.049 37.7346 100.636C17.1511 86.2234 12.1487 57.8533 26.5614 37.2698C40.9742 16.6862 69.3443 11.6838 89.9278 26.0966Z" fill="#FFFCEA"/>
<path fill-rule="evenodd" clip-rule="evenodd" d="M98.4605 87.6141C111.852 68.4888 107.204 42.1287 88.0789 28.737C68.9537 15.3454 42.5936 19.9934 29.2019 39.1186C15.8103 58.2439 20.4583 84.604 39.5835 97.9957C58.7088 111.387 85.0689 106.739 98.4605 87.6141ZM101.101 89.4629C115.514 68.8794 110.511 40.5093 89.9278 26.0966C69.3443 11.6838 40.9742 16.6862 26.5614 37.2698C12.1487 57.8533 17.1511 86.2234 37.7346 100.636C58.3182 115.049 86.6883 110.046 101.101 89.4629Z" fill="url(#paint0_linear_37_7713)"/>
<g filter="url(#filter0_iiiiii_37_7713)">
<path d="M97.1688 65.2716C97.1688 80.3537 86.1447 93.8804 63.3227 93.8804C41.1925 93.8804 29.4766 79.576 29.4766 65.2716C29.4766 50.2205 43.911 36.6628 63.3227 36.6628C82.7343 36.6628 97.1688 50.1896 97.1688 65.2716Z" fill="#E6E6E6"/>
</g>
<g filter="url(#filter1_iii_37_7713)">
<path d="M50.9952 51.293C50.6984 52.2442 49.7533 52.8382 48.7664 52.6936C44.2924 52.0383 40.1652 49.9076 37.041 46.6401L36.4604 46.0329C35.584 45.1163 35.6283 43.6604 36.5587 42.7995L36.9292 42.4567C40.1787 39.4499 44.0459 37.1879 48.2609 35.8283L48.8821 35.6279C50.2551 35.1851 51.7039 36.0559 51.9562 37.4757C52.7549 41.9714 52.4619 46.5926 51.102 50.9507L50.9952 51.293Z" fill="#7E7E7E"/>
</g>
<g filter="url(#filter2_iii_37_7713)">
<path d="M77.3466 51.887C76.3666 52.0726 75.3973 51.5185 75.061 50.5805C73.5363 46.328 73.4782 41.6876 74.8959 37.3971L75.1595 36.5994C75.5573 35.3957 76.8643 34.7502 78.0626 35.1658L78.5393 35.3311C82.7238 36.7822 86.5407 39.1281 89.7239 42.205L90.1928 42.6583C91.2297 43.6606 91.1416 45.3474 90.0059 46.2373C86.4094 49.0554 82.1889 50.97 77.6989 51.8203L77.3466 51.887Z" fill="#7E7E7E"/>
</g>
<path d="M83.7796 68.2612C81.8216 69.0438 80.3866 69.1248 79.7507 67.5372C79.1148 65.9496 80.2097 65.0193 82.1677 64.2367C84.1257 63.4541 85.5607 63.3731 86.1966 64.9607C86.8325 66.5483 85.7376 67.4786 83.7796 68.2612Z" fill="#B5B5B5"/>
<path d="M45.0207 65.1291C46.8699 66.1419 47.8445 67.1973 47.0215 68.6967C46.1985 70.1961 44.7837 69.9427 42.9345 68.9299C41.0853 67.917 40.1107 66.8617 40.9337 65.3623C41.7567 63.8629 43.1715 64.1162 45.0207 65.1291Z" fill="#B5B5B5"/>
<g filter="url(#filter3_i_37_7713)">
<rect x="53.7754" y="61.8037" width="19.0927" height="12.1371" rx="6.06853" fill="#7E7E7E"/>
</g>
<g filter="url(#filter4_ii_37_7713)">
<ellipse cx="66.5324" cy="67.4388" rx="2.90541" ry="3.03427" fill="#E6E6E6"/>
</g>
<g filter="url(#filter5_ii_37_7713)">
<ellipse cx="60.1515" cy="67.4388" rx="2.90541" ry="3.03427" fill="#E6E6E6"/>
</g>
<path d="M71.0767 65.3422C71.0978 64.9094 69.8822 63.1142 68.2158 63.0335" stroke="white" stroke-opacity="0.65" stroke-width="0.9" stroke-linecap="round"/>
<path d="M81.8555 64.689L81.0782 67.5865" stroke="#EBEBEB" stroke-opacity="0.85" stroke-width="0.9" stroke-linecap="round"/>
<path d="M83.6562 64.189L82.6563 68.0865" stroke="#EBEBEB" stroke-opacity="0.85" stroke-width="0.9" stroke-linecap="round"/>
<path d="M85.2324 64.689L84.4551 67.5865" stroke="#EBEBEB" stroke-opacity="0.85" stroke-width="0.9" stroke-linecap="round"/>
<path d="M45.1875 65.5127L45.9648 68.4103" stroke="#EBEBEB" stroke-opacity="0.85" stroke-width="0.9" stroke-linecap="round"/>
<path d="M43.3867 65.0127L44.3867 68.9103" stroke="#EBEBEB" stroke-opacity="0.85" stroke-width="0.9" stroke-linecap="round"/>
<path d="M41.8105 65.5127L42.5878 68.4103" stroke="#EBEBEB" stroke-opacity="0.85" stroke-width="0.9" stroke-linecap="round"/>
<g filter="url(#filter6_ii_37_7713)">
<ellipse cx="60.2861" cy="59.0765" rx="1.30177" ry="2.16733" fill="#242424"/>
</g>
<g filter="url(#filter7_ii_37_7713)">
<ellipse cx="65.4932" cy="59.0765" rx="1.30177" ry="2.16733" fill="#242424"/>
</g>
<g filter="url(#filter8_d_37_7713)">
<path d="M34.8477 107.311C34.8477 102.267 38.9367 98.1782 43.9807 98.1782H82.662C87.7061 98.1782 91.7951 102.267 91.7951 107.311C91.7951 112.355 87.7061 116.444 82.662 116.444H43.9807C38.9367 116.444 34.8477 112.355 34.8477 107.311Z" fill="#FFF196"/>
</g>
<path d="M70.488 112.147H69.1113L72.2047 103.551H73.703L76.7964 112.147H75.4197L72.9895 105.112H72.9224L70.488 112.147ZM70.7189 108.78H75.1847V109.872H70.7189V108.78Z" fill="#5E5E5E"/>
<path d="M68.57 107.849C68.57 108.767 68.4021 109.556 68.0663 110.216C67.7305 110.874 67.2703 111.38 66.6854 111.735C66.1034 112.088 65.4417 112.264 64.7002 112.264C63.9559 112.264 63.2913 112.088 62.7065 111.735C62.1245 111.38 61.6656 110.872 61.3298 110.212C60.9941 109.551 60.8262 108.764 60.8262 107.849C60.8262 106.931 60.9941 106.143 61.3298 105.486C61.6656 104.825 62.1245 104.319 62.7065 103.966C63.2913 103.611 63.9559 103.433 64.7002 103.433C65.4417 103.433 66.1034 103.611 66.6854 103.966C67.2703 104.319 67.7305 104.825 68.0663 105.486C68.4021 106.143 68.57 106.931 68.57 107.849ZM67.2856 107.849C67.2856 107.149 67.1723 106.56 66.9457 106.082C66.7218 105.6 66.414 105.237 66.0223 104.991C65.6333 104.741 65.1926 104.617 64.7002 104.617C64.2049 104.617 63.7628 104.741 63.3739 104.991C62.9849 105.237 62.6771 105.6 62.4505 106.082C62.2266 106.56 62.1147 107.149 62.1147 107.849C62.1147 108.548 62.2266 109.139 62.4505 109.62C62.6771 110.098 62.9849 110.462 63.3739 110.711C63.7628 110.958 64.2049 111.081 64.7002 111.081C65.1926 111.081 65.6333 110.958 66.0223 110.711C66.414 110.462 66.7218 110.098 66.9457 109.62C67.1723 109.139 67.2856 108.548 67.2856 107.849Z" fill="#5E5E5E"/>
<path d="M50.4961 103.551H52.07L54.8066 110.233H54.9073L57.6439 103.551H59.2178V112.147H57.9839V105.926H57.9041L55.369 112.134H54.3449L51.8098 105.922H51.7301V112.147H50.4961V103.551Z" fill="#5E5E5E"/>
<defs>
<filter id="filter0_iiiiii_37_7713" x="26.4766" y="33.6628" width="73.6914" height="63.2175" filterUnits="userSpaceOnUse" color-interpolation-filters="sRGB">
<feFlood flood-opacity="0" result="BackgroundImageFix"/>
<feBlend mode="normal" in="SourceGraphic" in2="BackgroundImageFix" result="shape"/>
<feColorMatrix in="SourceAlpha" type="matrix" values="0 0 0 0 0 0 0 0 0 0 0 0 0 0 0 0 0 0 127 0" result="hardAlpha"/>
<feOffset dx="3" dy="3"/>
<feGaussianBlur stdDeviation="2.25"/>
<feComposite in2="hardAlpha" operator="arithmetic" k2="-1" k3="1"/>
<feColorMatrix type="matrix" values="0 0 0 0 0.166667 0 0 0 0 0.166667 0 0 0 0 0.166667 0 0 0 0.07 0"/>
<feBlend mode="normal" in2="shape" result="effect1_innerShadow_37_7713"/>
<feColorMatrix in="SourceAlpha" type="matrix" values="0 0 0 0 0 0 0 0 0 0 0 0 0 0 0 0 0 0 127 0" result="hardAlpha"/>
<feOffset dy="-2"/>
<feGaussianBlur stdDeviation="5.95"/>
<feComposite in2="hardAlpha" operator="arithmetic" k2="-1" k3="1"/>
<feColorMatrix type="matrix" values="0 0 0 0 0.425 0 0 0 0 0.425 0 0 0 0 0.425 0 0 0 1 0"/>
<feBlend mode="normal" in2="effect1_innerShadow_37_7713" result="effect2_innerShadow_37_7713"/>
<feColorMatrix in="SourceAlpha" type="matrix" values="0 0 0 0 0 0 0 0 0 0 0 0 0 0 0 0 0 0 127 0" result="hardAlpha"/>
<feOffset dx="-3" dy="-2"/>
<feGaussianBlur stdDeviation="3.85"/>
<feComposite in2="hardAlpha" operator="arithmetic" k2="-1" k3="1"/>
<feColorMatrix type="matrix" values="0 0 0 0 0.325 0 0 0 0 0.325 0 0 0 0 0.325 0 0 0 0.9 0"/>
<feBlend mode="normal" in2="effect2_innerShadow_37_7713" result="effect3_innerShadow_37_7713"/>
<feColorMatrix in="SourceAlpha" type="matrix" values="0 0 0 0 0 0 0 0 0 0 0 0 0 0 0 0 0 0 127 0" result="hardAlpha"/>
<feOffset dx="-3" dy="1"/>
<feGaussianBlur stdDeviation="2"/>
<feComposite in2="hardAlpha" operator="arithmetic" k2="-1" k3="1"/>
<feColorMatrix type="matrix" values="0 0 0 0 0.8875 0 0 0 0 0.8875 0 0 0 0 0.8875 0 0 0 0.4 0"/>
<feBlend mode="normal" in2="effect3_innerShadow_37_7713" result="effect4_innerShadow_37_7713"/>
<feColorMatrix in="SourceAlpha" type="matrix" values="0 0 0 0 0 0 0 0 0 0 0 0 0 0 0 0 0 0 127 0" result="hardAlpha"/>
<feOffset dx="-1" dy="-1"/>
<feGaussianBlur stdDeviation="2"/>
<feComposite in2="hardAlpha" operator="arithmetic" k2="-1" k3="1"/>
<feColorMatrix type="matrix" values="0 0 0 0 1 0 0 0 0 1 0 0 0 0 1 0 0 0 0.7 0"/>
<feBlend mode="normal" in2="effect4_innerShadow_37_7713" result="effect5_innerShadow_37_7713"/>
<feColorMatrix in="SourceAlpha" type="matrix" values="0 0 0 0 0 0 0 0 0 0 0 0 0 0 0 0 0 0 127 0" result="hardAlpha"/>
<feOffset dy="-3"/>
<feGaussianBlur stdDeviation="2"/>
<feComposite in2="hardAlpha" operator="arithmetic" k2="-1" k3="1"/>
<feColorMatrix type="matrix" values="0 0 0 0 0.820833 0 0 0 0 0.820833 0 0 0 0 0.820833 0 0 0 0.13 0"/>
<feBlend mode="normal" in2="effect5_innerShadow_37_7713" result="effect6_innerShadow_37_7713"/>
</filter>
<filter id="filter1_iii_37_7713" x="34.8301" y="33.512" width="17.5664" height="20.2034" filterUnits="userSpaceOnUse" color-interpolation-filters="sRGB">
<feFlood flood-opacity="0" result="BackgroundImageFix"/>
<feBlend mode="normal" in="SourceGraphic" in2="BackgroundImageFix" result="shape"/>
<feColorMatrix in="SourceAlpha" type="matrix" values="0 0 0 0 0 0 0 0 0 0 0 0 0 0 0 0 0 0 127 0" result="hardAlpha"/>
<feOffset dx="-1" dy="-2"/>
<feGaussianBlur stdDeviation="1.9"/>
<feComposite in2="hardAlpha" operator="arithmetic" k2="-1" k3="1"/>
<feColorMatrix type="matrix" values="0 0 0 0 0.458333 0 0 0 0 0.458333 0 0 0 0 0.458333 0 0 0 0.25 0"/>
<feBlend mode="normal" in2="shape" result="effect1_innerShadow_37_7713"/>
<feColorMatrix in="SourceAlpha" type="matrix" values="0 0 0 0 0 0 0 0 0 0 0 0 0 0 0 0 0 0 127 0" result="hardAlpha"/>
<feOffset dy="1"/>
<feGaussianBlur stdDeviation="1"/>
<feComposite in2="hardAlpha" operator="arithmetic" k2="-1" k3="1"/>
<feColorMatrix type="matrix" values="0 0 0 0 1 0 0 0 0 1 0 0 0 0 1 0 0 0 0.34 0"/>
<feBlend mode="normal" in2="effect1_innerShadow_37_7713" result="effect2_innerShadow_37_7713"/>
<feColorMatrix in="SourceAlpha" type="matrix" values="0 0 0 0 0 0 0 0 0 0 0 0 0 0 0 0 0 0 127 0" result="hardAlpha"/>
<feOffset/>
<feGaussianBlur stdDeviation="1.25"/>
<feComposite in2="hardAlpha" operator="arithmetic" k2="-1" k3="1"/>
<feColorMatrix type="matrix" values="0 0 0 0 1 0 0 0 0 1 0 0 0 0 1 0 0 0 0.21 0"/>
<feBlend mode="normal" in2="effect2_innerShadow_37_7713" result="effect3_innerShadow_37_7713"/>
</filter>
<filter id="filter2_iii_37_7713" x="72.873" y="33.0396" width="18.0449" height="19.8831" filterUnits="userSpaceOnUse" color-interpolation-filters="sRGB">
<feFlood flood-opacity="0" result="BackgroundImageFix"/>
<feBlend mode="normal" in="SourceGraphic" in2="BackgroundImageFix" result="shape"/>
<feColorMatrix in="SourceAlpha" type="matrix" values="0 0 0 0 0 0 0 0 0 0 0 0 0 0 0 0 0 0 127 0" result="hardAlpha"/>
<feOffset dx="-1" dy="-2"/>
<feGaussianBlur stdDeviation="1.9"/>
<feComposite in2="hardAlpha" operator="arithmetic" k2="-1" k3="1"/>
<feColorMatrix type="matrix" values="0 0 0 0 0.458333 0 0 0 0 0.458333 0 0 0 0 0.458333 0 0 0 0.25 0"/>
<feBlend mode="normal" in2="shape" result="effect1_innerShadow_37_7713"/>
<feColorMatrix in="SourceAlpha" type="matrix" values="0 0 0 0 0 0 0 0 0 0 0 0 0 0 0 0 0 0 127 0" result="hardAlpha"/>
<feOffset dy="1"/>
<feGaussianBlur stdDeviation="1"/>
<feComposite in2="hardAlpha" operator="arithmetic" k2="-1" k3="1"/>
<feColorMatrix type="matrix" values="0 0 0 0 1 0 0 0 0 1 0 0 0 0 1 0 0 0 0.34 0"/>
<feBlend mode="normal" in2="effect1_innerShadow_37_7713" result="effect2_innerShadow_37_7713"/>
<feColorMatrix in="SourceAlpha" type="matrix" values="0 0 0 0 0 0 0 0 0 0 0 0 0 0 0 0 0 0 127 0" result="hardAlpha"/>
<feOffset/>
<feGaussianBlur stdDeviation="1.25"/>
<feComposite in2="hardAlpha" operator="arithmetic" k2="-1" k3="1"/>
<feColorMatrix type="matrix" values="0 0 0 0 1 0 0 0 0 1 0 0 0 0 1 0 0 0 0.21 0"/>
<feBlend mode="normal" in2="effect2_innerShadow_37_7713" result="effect3_innerShadow_37_7713"/>
</filter>
<filter id="filter3_i_37_7713" x="52.7754" y="60.8037" width="20.0918" height="13.137" filterUnits="userSpaceOnUse" color-interpolation-filters="sRGB">
<feFlood flood-opacity="0" result="BackgroundImageFix"/>
<feBlend mode="normal" in="SourceGraphic" in2="BackgroundImageFix" result="shape"/>
<feColorMatrix in="SourceAlpha" type="matrix" values="0 0 0 0 0 0 0 0 0 0 0 0 0 0 0 0 0 0 127 0" result="hardAlpha"/>
<feOffset dx="-1" dy="-1"/>
<feGaussianBlur stdDeviation="0.9"/>
<feComposite in2="hardAlpha" operator="arithmetic" k2="-1" k3="1"/>
<feColorMatrix type="matrix" values="0 0 0 0 0.25 0 0 0 0 0.25 0 0 0 0 0.25 0 0 0 0.25 0"/>
<feBlend mode="normal" in2="shape" result="effect1_innerShadow_37_7713"/>
</filter>
<filter id="filter4_ii_37_7713" x="63.627" y="64.4045" width="6.81055" height="7.0686" filterUnits="userSpaceOnUse" color-interpolation-filters="sRGB">
<feFlood flood-opacity="0" result="BackgroundImageFix"/>
<feBlend mode="normal" in="SourceGraphic" in2="BackgroundImageFix" result="shape"/>
<feColorMatrix in="SourceAlpha" type="matrix" values="0 0 0 0 0 0 0 0 0 0 0 0 0 0 0 0 0 0 127 0" result="hardAlpha"/>
<feOffset dx="1" dy="1"/>
<feGaussianBlur stdDeviation="0.65"/>
<feComposite in2="hardAlpha" operator="arithmetic" k2="-1" k3="1"/>
<feColorMatrix type="matrix" values="0 0 0 0 0.00833333 0 0 0 0 0.00833333 0 0 0 0 0.00833333 0 0 0 0.25 0"/>
<feBlend mode="normal" in2="shape" result="effect1_innerShadow_37_7713"/>
<feColorMatrix in="SourceAlpha" type="matrix" values="0 0 0 0 0 0 0 0 0 0 0 0 0 0 0 0 0 0 127 0" result="hardAlpha"/>
<feOffset dy="0.2"/>
<feGaussianBlur stdDeviation="1"/>
<feComposite in2="hardAlpha" operator="arithmetic" k2="-1" k3="1"/>
<feColorMatrix type="matrix" values="0 0 0 0 0 0 0 0 0 0 0 0 0 0 0 0 0 0 0.25 0"/>
<feBlend mode="normal" in2="effect1_innerShadow_37_7713" result="effect2_innerShadow_37_7713"/>
</filter>
<filter id="filter5_ii_37_7713" x="57.2461" y="64.4045" width="6.81055" height="7.0686" filterUnits="userSpaceOnUse" color-interpolation-filters="sRGB">
<feFlood flood-opacity="0" result="BackgroundImageFix"/>
<feBlend mode="normal" in="SourceGraphic" in2="BackgroundImageFix" result="shape"/>
<feColorMatrix in="SourceAlpha" type="matrix" values="0 0 0 0 0 0 0 0 0 0 0 0 0 0 0 0 0 0 127 0" result="hardAlpha"/>
<feOffset dx="1" dy="1"/>
<feGaussianBlur stdDeviation="0.65"/>
<feComposite in2="hardAlpha" operator="arithmetic" k2="-1" k3="1"/>
<feColorMatrix type="matrix" values="0 0 0 0 0.00833333 0 0 0 0 0.00833333 0 0 0 0 0.00833333 0 0 0 0.25 0"/>
<feBlend mode="normal" in2="shape" result="effect1_innerShadow_37_7713"/>
<feColorMatrix in="SourceAlpha" type="matrix" values="0 0 0 0 0 0 0 0 0 0 0 0 0 0 0 0 0 0 127 0" result="hardAlpha"/>
<feOffset dy="0.2"/>
<feGaussianBlur stdDeviation="1"/>
<feComposite in2="hardAlpha" operator="arithmetic" k2="-1" k3="1"/>
<feColorMatrix type="matrix" values="0 0 0 0 0 0 0 0 0 0 0 0 0 0 0 0 0 0 0.25 0"/>
<feBlend mode="normal" in2="effect1_innerShadow_37_7713" result="effect2_innerShadow_37_7713"/>
</filter>
<filter id="filter6_ii_37_7713" x="58.9844" y="56.0092" width="2.60352" height="5.23472" filterUnits="userSpaceOnUse" color-interpolation-filters="sRGB">
<feFlood flood-opacity="0" result="BackgroundImageFix"/>
<feBlend mode="normal" in="SourceGraphic" in2="BackgroundImageFix" result="shape"/>
<feColorMatrix in="SourceAlpha" type="matrix" values="0 0 0 0 0 0 0 0 0 0 0 0 0 0 0 0 0 0 127 0" result="hardAlpha"/>
<feOffset dy="-1"/>
<feGaussianBlur stdDeviation="0.45"/>
<feComposite in2="hardAlpha" operator="arithmetic" k2="-1" k3="1"/>
<feColorMatrix type="matrix" values="0 0 0 0 1 0 0 0 0 1 0 0 0 0 1 0 0 0 0.25 0"/>
<feBlend mode="normal" in2="shape" result="effect1_innerShadow_37_7713"/>
<feColorMatrix in="SourceAlpha" type="matrix" values="0 0 0 0 0 0 0 0 0 0 0 0 0 0 0 0 0 0 127 0" result="hardAlpha"/>
<feOffset/>
<feGaussianBlur stdDeviation="0.4"/>
<feComposite in2="hardAlpha" operator="arithmetic" k2="-1" k3="1"/>
<feColorMatrix type="matrix" values="0 0 0 0 0.958333 0 0 0 0 0.958333 0 0 0 0 0.958333 0 0 0 0.25 0"/>
<feBlend mode="normal" in2="effect1_innerShadow_37_7713" result="effect2_innerShadow_37_7713"/>
</filter>
<filter id="filter7_ii_37_7713" x="64.1914" y="56.0092" width="2.60352" height="5.23472" filterUnits="userSpaceOnUse" color-interpolation-filters="sRGB">
<feFlood flood-opacity="0" result="BackgroundImageFix"/>
<feBlend mode="normal" in="SourceGraphic" in2="BackgroundImageFix" result="shape"/>
<feColorMatrix in="SourceAlpha" type="matrix" values="0 0 0 0 0 0 0 0 0 0 0 0 0 0 0 0 0 0 127 0" result="hardAlpha"/>
<feOffset dy="-1"/>
<feGaussianBlur stdDeviation="0.45"/>
<feComposite in2="hardAlpha" operator="arithmetic" k2="-1" k3="1"/>
<feColorMatrix type="matrix" values="0 0 0 0 1 0 0 0 0 1 0 0 0 0 1 0 0 0 0.25 0"/>
<feBlend mode="normal" in2="shape" result="effect1_innerShadow_37_7713"/>
<feColorMatrix in="SourceAlpha" type="matrix" values="0 0 0 0 0 0 0 0 0 0 0 0 0 0 0 0 0 0 127 0" result="hardAlpha"/>
<feOffset/>
<feGaussianBlur stdDeviation="0.4"/>
<feComposite in2="hardAlpha" operator="arithmetic" k2="-1" k3="1"/>
<feColorMatrix type="matrix" values="0 0 0 0 0.958333 0 0 0 0 0.958333 0 0 0 0 0.958333 0 0 0 0.25 0"/>
<feBlend mode="normal" in2="effect1_innerShadow_37_7713" result="effect2_innerShadow_37_7713"/>
</filter>
<filter id="filter8_d_37_7713" x="33.3477" y="96.6782" width="65.9473" height="27.2661" filterUnits="userSpaceOnUse" color-interpolation-filters="sRGB">
<feFlood flood-opacity="0" result="BackgroundImageFix"/>
<feColorMatrix in="SourceAlpha" type="matrix" values="0 0 0 0 0 0 0 0 0 0 0 0 0 0 0 0 0 0 127 0" result="hardAlpha"/>
<feOffset dx="3" dy="3"/>
<feGaussianBlur stdDeviation="2.25"/>
<feComposite in2="hardAlpha" operator="out"/>
<feColorMatrix type="matrix" values="0 0 0 0 0.203922 0 0 0 0 0.360784 0 0 0 0 0.180392 0 0 0 0.15 0"/>
<feBlend mode="normal" in2="BackgroundImageFix" result="effect1_dropShadow_37_7713"/>
<feBlend mode="normal" in="SourceGraphic" in2="effect1_dropShadow_37_7713" result="shape"/>
</filter>
<linearGradient id="paint0_linear_37_7713" x1="26.5614" y1="37.2698" x2="101.101" y2="89.4629" gradientUnits="userSpaceOnUse">
<stop stop-color="#FFF9D4"/>
<stop offset="1" stop-color="#FFDF10"/>
</linearGradient>
</defs>
</svg>
