<svg xmlns="http://www.w3.org/2000/svg" width="38" height="36" viewBox="0 0 38 36" fill="none">
  <path d="M6.05469 23.7701L9.52201 15.817M9.52201 15.817H22.0008M9.52201 15.817L14.8314 3.63256C14.9049 3.44604 15.0328 3.28597 15.1985 3.17315C15.3642 3.06033 15.56 3 15.7605 3C15.961 3 16.1568 3.06033 16.3225 3.17315C16.4882 3.28597 16.6161 3.44604 16.6896 3.63256L22.0008 15.817M22.0008 15.817L22.6094 17.2147" stroke="#FFBB00" stroke-width="5" stroke-linecap="round" stroke-linejoin="round"/>
  <path d="M23.4888 29.7944L23.4841 29.7955L20.2896 30.5256L21.0161 27.3293C21.1004 26.9584 21.2908 26.6116 21.5666 26.3346C21.5669 26.3343 21.5673 26.3339 21.5676 26.3336L31.4124 16.4906L31.4309 16.4722L31.4489 16.4533C31.6389 16.2553 31.8665 16.0972 32.1184 15.9882C32.3703 15.8793 32.6414 15.8217 32.9158 15.819C33.1902 15.8162 33.4624 15.8682 33.7164 15.972C33.9705 16.0757 34.2012 16.2292 34.3952 16.4233C34.5892 16.6175 34.7424 16.8484 34.846 17.1025C34.9496 17.3566 35.0014 17.6289 34.9983 17.9033C34.9953 18.1777 34.9375 18.4487 34.8284 18.7005C34.7192 18.9523 34.5609 19.1798 34.3627 19.3696L34.3436 19.3879L34.3249 19.4066L24.4737 29.2487L24.4704 29.2521C24.2011 29.5221 23.8607 29.7102 23.4888 29.7944Z" fill="black" stroke="#FFBB00" stroke-width="5"/>
  <path d="M2.5 29.9773L3.52575 30.3999C4.67791 30.8749 5.989 30.7159 7.05809 30.0748C8.30416 29.3326 10.036 28.4225 11.5421 28.0884C12.595 27.8536 13.7869 28.4477 13.5124 29.4897C13.2054 30.6491 12.2663 32.0108 13.1656 32.641C14.5201 33.5891 22.2511 31.1638 22.2511 31.1638" stroke="#FFBB00" stroke-width="5" stroke-linecap="round" stroke-linejoin="round"/>
</svg>