<svg width="25" height="25" viewBox="0 0 25 25" fill="none" xmlns="http://www.w3.org/2000/svg">
<g filter="url(#filter0_d_387_18487)">
<rect x="1.9375" y="1.14648" width="21.551" height="21.551" rx="10.7755" fill="#D9D9D9"/>
</g>
<g filter="url(#filter1_d_387_18487)">
<mask id="mask0_387_18487" style="mask-type:alpha" maskUnits="userSpaceOnUse" x="2" y="1" width="22" height="21">
<rect x="2.91797" y="1.14648" width="20.5714" height="20.5714" fill="#D9D9D9"/>
</mask>
<g mask="url(#mask0_387_18487)">
<path d="M11.1029 14.1323L18.3672 6.86798C18.5386 6.69655 18.7386 6.61084 18.9672 6.61084C19.1957 6.61084 19.3957 6.69655 19.5672 6.86798C19.7386 7.03941 19.8243 7.24298 19.8243 7.4787C19.8243 7.71441 19.7386 7.91798 19.5672 8.08941L11.7029 15.9751C11.5315 16.1466 11.3315 16.2323 11.1029 16.2323C10.8743 16.2323 10.6743 16.1466 10.5029 15.9751L6.81717 12.2894C6.64574 12.118 6.5636 11.9144 6.57074 11.6787C6.57788 11.443 6.66717 11.2394 6.8386 11.068C7.01003 10.8966 7.2136 10.8108 7.44931 10.8108C7.68503 10.8108 7.8886 10.8966 8.06003 11.068L11.1029 14.1323Z" fill="#454545"/>
</g>
</g>
<defs>
<filter id="filter0_d_387_18487" x="0.6375" y="0.846484" width="24.1508" height="24.1508" filterUnits="userSpaceOnUse" color-interpolation-filters="sRGB">
<feFlood flood-opacity="0" result="BackgroundImageFix"/>
<feColorMatrix in="SourceAlpha" type="matrix" values="0 0 0 0 0 0 0 0 0 0 0 0 0 0 0 0 0 0 127 0" result="hardAlpha"/>
<feMorphology radius="0.5" operator="dilate" in="SourceAlpha" result="effect1_dropShadow_387_18487"/>
<feOffset dy="1"/>
<feGaussianBlur stdDeviation="0.4"/>
<feComposite in2="hardAlpha" operator="out"/>
<feColorMatrix type="matrix" values="0 0 0 0 0 0 0 0 0 0 0 0 0 0 0 0 0 0 0.25 0"/>
<feBlend mode="normal" in2="BackgroundImageFix" result="effect1_dropShadow_387_18487"/>
<feBlend mode="normal" in="SourceGraphic" in2="effect1_dropShadow_387_18487" result="shape"/>
</filter>
<filter id="filter1_d_387_18487" x="-1.08203" y="1.14648" width="28.5703" height="28.5713" filterUnits="userSpaceOnUse" color-interpolation-filters="sRGB">
<feFlood flood-opacity="0" result="BackgroundImageFix"/>
<feColorMatrix in="SourceAlpha" type="matrix" values="0 0 0 0 0 0 0 0 0 0 0 0 0 0 0 0 0 0 127 0" result="hardAlpha"/>
<feOffset dy="4"/>
<feGaussianBlur stdDeviation="2"/>
<feComposite in2="hardAlpha" operator="out"/>
<feColorMatrix type="matrix" values="0 0 0 0 0 0 0 0 0 0 0 0 0 0 0 0 0 0 0.25 0"/>
<feBlend mode="normal" in2="BackgroundImageFix" result="effect1_dropShadow_387_18487"/>
<feBlend mode="normal" in="SourceGraphic" in2="effect1_dropShadow_387_18487" result="shape"/>
</filter>
</defs>
</svg>
