<svg width="88" height="88" viewBox="0 0 88 88" fill="none" xmlns="http://www.w3.org/2000/svg">
<g filter="url(#filter0_ii_347_9820)">
<path d="M36.6884 12.3037C40.8898 8.68144 47.1102 8.68144 51.3116 12.3037C53.3835 14.09 56.0376 15.0561 58.773 15.0195C64.3198 14.9452 69.0849 18.9436 69.975 24.4191C70.4139 27.1192 71.8261 29.5653 73.9451 31.2955C78.2419 34.8041 79.3221 40.9299 76.4844 45.6965C75.085 48.0471 74.5945 50.8287 75.1056 53.5161C76.1418 58.9658 73.0317 64.3528 67.794 66.1801C65.2111 67.0813 63.0474 68.8968 61.7114 71.284C59.0022 76.1249 53.1571 78.2523 47.9701 76.2855C45.4122 75.3155 42.5878 75.3155 40.0299 76.2855C34.8429 78.2523 28.9978 76.1249 26.2886 71.284C24.9526 68.8968 22.7889 67.0813 20.206 66.1801C14.9683 64.3528 11.8582 58.9658 12.8944 53.5161C13.4055 50.8287 12.915 48.0471 11.5156 45.6965C8.67794 40.9299 9.75808 34.8041 14.0549 31.2955C16.1739 29.5653 17.5861 27.1192 18.025 24.4191C18.9152 18.9436 23.6802 14.9452 29.227 15.0195C31.9624 15.0561 34.6165 14.09 36.6884 12.3037Z" fill="#919191"/>
</g>
<g filter="url(#filter1_ii_347_9820)">
<ellipse cx="36.4" cy="40.2" rx="1.9" ry="3.8" fill="#2B2B2B"/>
</g>
<g filter="url(#filter2_ii_347_9820)">
<ellipse cx="49.7001" cy="40.2" rx="1.9" ry="3.8" fill="#2B2B2B"/>
</g>
<rect x="49.6494" y="17" width="16" height="5" rx="2.5" transform="rotate(32 49.6494 17)" fill="#FAFAFA"/>
<rect x="52.5117" y="19.9678" width="8" height="3" rx="1" transform="rotate(32 52.5117 19.9678)" fill="#AAA69C"/>
<path d="M12.7065 56.8685C12.654 56.4736 12.8927 56.1165 13.2606 55.9636L21.1398 52.689C21.647 52.4782 22.2294 52.7161 22.444 53.2217L25.2292 59.7832C25.4257 60.2461 25.2478 60.7829 24.8138 61.0369L18.4664 64.7521C18.0031 65.0233 17.4148 64.8719 17.0522 64.476C16.261 63.6122 15.4101 63.1919 14.1707 61C13.1477 59.1907 12.8147 57.6829 12.7065 56.8685Z" fill="#C4C4C4"/>
<path d="M13.7723 54.512L14.5538 56.353" stroke="#C4C4C4" stroke-width="0.8" stroke-linecap="round"/>
<path d="M15.6134 53.7305L16.3949 55.5715" stroke="#C4C4C4" stroke-width="0.8" stroke-linecap="round"/>
<path d="M23.8411 54.9999L22.0001 55.7813" stroke="#C4C4C4" stroke-width="0.8" stroke-linecap="round"/>
<path d="M23.5935 62.2931L22.812 60.4521" stroke="#C4C4C4" stroke-width="0.8" stroke-linecap="round"/>
<path d="M24.4014 56.5184L22.5604 57.2999" stroke="#C4C4C4" stroke-width="0.8" stroke-linecap="round"/>
<path d="M20 64.9999L18.9998 62.9999" stroke="#C4C4C4" stroke-width="0.8" stroke-linecap="round"/>
<path d="M75.9667 34.071C75.9345 34.0449 75.8668 34.0177 75.7497 34.0392L66.9407 35.6538C66.6704 35.7033 66.4907 35.9618 66.5385 36.2324L67.9036 43.9746C67.9454 44.2116 68.1501 44.3852 68.3907 44.3877L76.4937 44.4742C76.7513 44.4769 77.0466 44.249 77.1574 43.8516C77.2476 43.528 77.3687 43.2236 77.4843 42.9332C77.4948 42.9067 77.5053 42.8803 77.5157 42.8541C77.643 42.5334 77.7664 42.2128 77.8665 41.8387C78.0637 41.1019 78.1804 40.1184 77.9733 38.562C77.5848 35.6429 76.4238 34.4424 75.9667 34.071Z" fill="#5E5E5E" stroke="#5E5E5E"/>
<path d="M74.9478 32.421L75.3215 34.5405" stroke="#5E5E5E" stroke-width="0.8" stroke-linecap="round"/>
<path d="M72.756 32.8075L73.1297 34.927" stroke="#5E5E5E" stroke-width="0.8" stroke-linecap="round"/>
<path d="M65.8191 38.8203L68.0108 38.4339" stroke="#5E5E5E" stroke-width="0.8" stroke-linecap="round"/>
<path d="M70.4285 45.2377L70.0547 43.1182" stroke="#5E5E5E" stroke-width="0.8" stroke-linecap="round"/>
<path d="M66.2064 40.5186L68.3981 40.1321" stroke="#5E5E5E" stroke-width="0.8" stroke-linecap="round"/>
<path d="M75.4153 45.5468L75.1508 43.1547" stroke="#5E5E5E" stroke-width="0.8" stroke-linecap="round"/>
<path d="M61.4 56C61.4 56 61.2232 57.0446 60.8542 58.0084C60.4851 58.9722 60 59.8072 60 59.8072" stroke="#2B2B2B" stroke-width="0.5" stroke-linecap="round"/>
<path d="M63.4 57.0877C63.4 57.0877 63.2232 58.1322 62.8542 59.096C62.4851 60.0599 62 60.8948 62 60.8948" stroke="#2B2B2B" stroke-width="0.5" stroke-linecap="round"/>
<path d="M23.1547 36C23.1547 36 23.3315 34.7466 23.7005 33.59C24.0696 32.4334 24.5547 31.4315 24.5547 31.4315" stroke="#2B2B2B" stroke-width="0.5" stroke-linecap="round"/>
<path d="M21.1547 34.6947C21.1547 34.6947 21.3315 33.4413 21.7005 32.2847C22.0696 31.1281 22.5547 30.1262 22.5547 30.1262" stroke="#2B2B2B" stroke-width="0.5" stroke-linecap="round"/>
<defs>
<filter id="filter0_ii_347_9820" x="9.93909" y="5.58704" width="68.1218" height="75.4275" filterUnits="userSpaceOnUse" color-interpolation-filters="sRGB">
<feFlood flood-opacity="0" result="BackgroundImageFix"/>
<feBlend mode="normal" in="SourceGraphic" in2="BackgroundImageFix" result="shape"/>
<feColorMatrix in="SourceAlpha" type="matrix" values="0 0 0 0 0 0 0 0 0 0 0 0 0 0 0 0 0 0 127 0" result="hardAlpha"/>
<feOffset dy="-6"/>
<feGaussianBlur stdDeviation="2"/>
<feComposite in2="hardAlpha" operator="arithmetic" k2="-1" k3="1"/>
<feColorMatrix type="matrix" values="0 0 0 0 0.141667 0 0 0 0 0.141667 0 0 0 0 0.141667 0 0 0 0.25 0"/>
<feBlend mode="normal" in2="shape" result="effect1_innerShadow_347_9820"/>
<feColorMatrix in="SourceAlpha" type="matrix" values="0 0 0 0 0 0 0 0 0 0 0 0 0 0 0 0 0 0 127 0" result="hardAlpha"/>
<feOffset dy="4"/>
<feGaussianBlur stdDeviation="2"/>
<feComposite in2="hardAlpha" operator="arithmetic" k2="-1" k3="1"/>
<feColorMatrix type="matrix" values="0 0 0 0 0.674957 0 0 0 0 0.673082 0 0 0 0 0.673082 0 0 0 0.25 0"/>
<feBlend mode="normal" in2="effect1_innerShadow_347_9820" result="effect2_innerShadow_347_9820"/>
</filter>
<filter id="filter1_ii_347_9820" x="34.5" y="35.5" width="3.80005" height="8.49998" filterUnits="userSpaceOnUse" color-interpolation-filters="sRGB">
<feFlood flood-opacity="0" result="BackgroundImageFix"/>
<feBlend mode="normal" in="SourceGraphic" in2="BackgroundImageFix" result="shape"/>
<feColorMatrix in="SourceAlpha" type="matrix" values="0 0 0 0 0 0 0 0 0 0 0 0 0 0 0 0 0 0 127 0" result="hardAlpha"/>
<feOffset dy="-1"/>
<feGaussianBlur stdDeviation="0.45"/>
<feComposite in2="hardAlpha" operator="arithmetic" k2="-1" k3="1"/>
<feColorMatrix type="matrix" values="0 0 0 0 1 0 0 0 0 1 0 0 0 0 1 0 0 0 0.25 0"/>
<feBlend mode="normal" in2="shape" result="effect1_innerShadow_347_9820"/>
<feColorMatrix in="SourceAlpha" type="matrix" values="0 0 0 0 0 0 0 0 0 0 0 0 0 0 0 0 0 0 127 0" result="hardAlpha"/>
<feOffset/>
<feGaussianBlur stdDeviation="0.4"/>
<feComposite in2="hardAlpha" operator="arithmetic" k2="-1" k3="1"/>
<feColorMatrix type="matrix" values="0 0 0 0 0.958333 0 0 0 0 0.958333 0 0 0 0 0.958333 0 0 0 0.25 0"/>
<feBlend mode="normal" in2="effect1_innerShadow_347_9820" result="effect2_innerShadow_347_9820"/>
</filter>
<filter id="filter2_ii_347_9820" x="47.8" y="35.5" width="3.80005" height="8.49998" filterUnits="userSpaceOnUse" color-interpolation-filters="sRGB">
<feFlood flood-opacity="0" result="BackgroundImageFix"/>
<feBlend mode="normal" in="SourceGraphic" in2="BackgroundImageFix" result="shape"/>
<feColorMatrix in="SourceAlpha" type="matrix" values="0 0 0 0 0 0 0 0 0 0 0 0 0 0 0 0 0 0 127 0" result="hardAlpha"/>
<feOffset dy="-1"/>
<feGaussianBlur stdDeviation="0.45"/>
<feComposite in2="hardAlpha" operator="arithmetic" k2="-1" k3="1"/>
<feColorMatrix type="matrix" values="0 0 0 0 1 0 0 0 0 1 0 0 0 0 1 0 0 0 0.25 0"/>
<feBlend mode="normal" in2="shape" result="effect1_innerShadow_347_9820"/>
<feColorMatrix in="SourceAlpha" type="matrix" values="0 0 0 0 0 0 0 0 0 0 0 0 0 0 0 0 0 0 127 0" result="hardAlpha"/>
<feOffset/>
<feGaussianBlur stdDeviation="0.4"/>
<feComposite in2="hardAlpha" operator="arithmetic" k2="-1" k3="1"/>
<feColorMatrix type="matrix" values="0 0 0 0 0.958333 0 0 0 0 0.958333 0 0 0 0 0.958333 0 0 0 0.25 0"/>
<feBlend mode="normal" in2="effect1_innerShadow_347_9820" result="effect2_innerShadow_347_9820"/>
</filter>
</defs>
</svg>
