<svg width="93" height="88" viewBox="0 0 93 88" fill="none" xmlns="http://www.w3.org/2000/svg">
<path d="M78.2034 14.3729C81.3906 13.5761 83.7601 10.902 84.1676 7.6421L84.3729 6.00004L84.5781 7.6421C84.9856 10.902 87.3552 13.5761 90.5424 14.3729C87.3552 15.1697 84.9856 17.8438 84.5781 21.1037L84.3729 22.7458L84.1676 21.1038C83.7601 17.8438 81.3906 15.1697 78.2034 14.3729Z" fill="#FDDB01"/>
<path d="M2.20339 73.3728C5.3906 72.576 7.76013 69.9019 8.16762 66.642L8.37288 64.9999L8.57814 66.642C8.98563 69.9019 11.3552 72.576 14.5424 73.3728C11.3552 74.1696 8.98563 76.8437 8.57814 80.1036L8.37288 81.7457L8.16762 80.1036C7.76013 76.8437 5.39059 74.1696 2.20339 73.3728Z" fill="#FDDB01"/>
<g filter="url(#filter0_ii_347_10111)">
<path d="M39.6884 12.3037C43.8898 8.68144 50.1102 8.68144 54.3116 12.3037C56.3835 14.09 59.0376 15.0561 61.773 15.0195C67.3198 14.9452 72.0849 18.9436 72.975 24.4191C73.4139 27.1192 74.8261 29.5653 76.9451 31.2955C81.2419 34.8041 82.3221 40.9299 79.4844 45.6965C78.085 48.0471 77.5945 50.8287 78.1056 53.5161C79.1418 58.9658 76.0317 64.3528 70.794 66.1801C68.2111 67.0813 66.0474 68.8968 64.7114 71.284C62.0022 76.1249 56.1571 78.2523 50.9701 76.2855C48.4122 75.3155 45.5878 75.3155 43.0299 76.2855C37.8429 78.2523 31.9978 76.1249 29.2886 71.284C27.9526 68.8968 25.7889 67.0813 23.206 66.1801C17.9683 64.3528 14.8582 58.9658 15.8944 53.5161C16.4055 50.8287 15.915 48.0471 14.5156 45.6965C11.6779 40.9299 12.7581 34.8041 17.0549 31.2955C19.1739 29.5653 20.5861 27.1192 21.025 24.4191C21.9152 18.9436 26.6802 14.9452 32.227 15.0195C34.9624 15.0561 37.6165 14.09 39.6884 12.3037Z" fill="#F1F1F1"/>
</g>
<g filter="url(#filter1_ii_347_10111)">
<ellipse cx="39.9" cy="39.8" rx="1.9" ry="3.8" fill="#2B2B2B"/>
</g>
<g filter="url(#filter2_ii_347_10111)">
<ellipse cx="53.2001" cy="39.8" rx="1.9" ry="3.8" fill="#2B2B2B"/>
</g>
<defs>
<filter id="filter0_ii_347_10111" x="12.9391" y="5.58704" width="68.1218" height="75.4275" filterUnits="userSpaceOnUse" color-interpolation-filters="sRGB">
<feFlood flood-opacity="0" result="BackgroundImageFix"/>
<feBlend mode="normal" in="SourceGraphic" in2="BackgroundImageFix" result="shape"/>
<feColorMatrix in="SourceAlpha" type="matrix" values="0 0 0 0 0 0 0 0 0 0 0 0 0 0 0 0 0 0 127 0" result="hardAlpha"/>
<feOffset dy="4"/>
<feGaussianBlur stdDeviation="2"/>
<feComposite in2="hardAlpha" operator="arithmetic" k2="-1" k3="1"/>
<feColorMatrix type="matrix" values="0 0 0 0 0.67451 0 0 0 0 0.67451 0 0 0 0 0.67451 0 0 0 0.25 0"/>
<feBlend mode="normal" in2="shape" result="effect1_innerShadow_347_10111"/>
<feColorMatrix in="SourceAlpha" type="matrix" values="0 0 0 0 0 0 0 0 0 0 0 0 0 0 0 0 0 0 127 0" result="hardAlpha"/>
<feOffset dy="-6"/>
<feGaussianBlur stdDeviation="2"/>
<feComposite in2="hardAlpha" operator="arithmetic" k2="-1" k3="1"/>
<feColorMatrix type="matrix" values="0 0 0 0 0.141176 0 0 0 0 0.141176 0 0 0 0 0.141176 0 0 0 0.25 0"/>
<feBlend mode="normal" in2="effect1_innerShadow_347_10111" result="effect2_innerShadow_347_10111"/>
</filter>
<filter id="filter1_ii_347_10111" x="38" y="35.1" width="3.80005" height="8.49998" filterUnits="userSpaceOnUse" color-interpolation-filters="sRGB">
<feFlood flood-opacity="0" result="BackgroundImageFix"/>
<feBlend mode="normal" in="SourceGraphic" in2="BackgroundImageFix" result="shape"/>
<feColorMatrix in="SourceAlpha" type="matrix" values="0 0 0 0 0 0 0 0 0 0 0 0 0 0 0 0 0 0 127 0" result="hardAlpha"/>
<feOffset dy="-1"/>
<feGaussianBlur stdDeviation="0.45"/>
<feComposite in2="hardAlpha" operator="arithmetic" k2="-1" k3="1"/>
<feColorMatrix type="matrix" values="0 0 0 0 1 0 0 0 0 1 0 0 0 0 1 0 0 0 0.25 0"/>
<feBlend mode="normal" in2="shape" result="effect1_innerShadow_347_10111"/>
<feColorMatrix in="SourceAlpha" type="matrix" values="0 0 0 0 0 0 0 0 0 0 0 0 0 0 0 0 0 0 127 0" result="hardAlpha"/>
<feOffset/>
<feGaussianBlur stdDeviation="0.4"/>
<feComposite in2="hardAlpha" operator="arithmetic" k2="-1" k3="1"/>
<feColorMatrix type="matrix" values="0 0 0 0 0.958333 0 0 0 0 0.958333 0 0 0 0 0.958333 0 0 0 0.25 0"/>
<feBlend mode="normal" in2="effect1_innerShadow_347_10111" result="effect2_innerShadow_347_10111"/>
</filter>
<filter id="filter2_ii_347_10111" x="51.3" y="35.1" width="3.80005" height="8.49998" filterUnits="userSpaceOnUse" color-interpolation-filters="sRGB">
<feFlood flood-opacity="0" result="BackgroundImageFix"/>
<feBlend mode="normal" in="SourceGraphic" in2="BackgroundImageFix" result="shape"/>
<feColorMatrix in="SourceAlpha" type="matrix" values="0 0 0 0 0 0 0 0 0 0 0 0 0 0 0 0 0 0 127 0" result="hardAlpha"/>
<feOffset dy="-1"/>
<feGaussianBlur stdDeviation="0.45"/>
<feComposite in2="hardAlpha" operator="arithmetic" k2="-1" k3="1"/>
<feColorMatrix type="matrix" values="0 0 0 0 1 0 0 0 0 1 0 0 0 0 1 0 0 0 0.25 0"/>
<feBlend mode="normal" in2="shape" result="effect1_innerShadow_347_10111"/>
<feColorMatrix in="SourceAlpha" type="matrix" values="0 0 0 0 0 0 0 0 0 0 0 0 0 0 0 0 0 0 127 0" result="hardAlpha"/>
<feOffset/>
<feGaussianBlur stdDeviation="0.4"/>
<feComposite in2="hardAlpha" operator="arithmetic" k2="-1" k3="1"/>
<feColorMatrix type="matrix" values="0 0 0 0 0.958333 0 0 0 0 0.958333 0 0 0 0 0.958333 0 0 0 0.25 0"/>
<feBlend mode="normal" in2="effect1_innerShadow_347_10111" result="effect2_innerShadow_347_10111"/>
</filter>
</defs>
</svg>
