<svg xmlns="http://www.w3.org/2000/svg" width="24" height="25" viewBox="0 0 24 25" fill="none">
  <mask id="mask0_241_12518" style="mask-type:alpha" maskUnits="userSpaceOnUse" x="0" y="0" width="24" height="25">
    <rect y="0.5" width="24" height="24" fill="#D9D9D9"/>
  </mask>
  <g mask="url(#mask0_241_12518)">
    <path d="M15 20.5C12.7667 20.5 10.875 19.725 9.325 18.175C7.775 16.625 7 14.7333 7 12.5C7 10.2667 7.775 8.375 9.325 6.825C10.875 5.275 12.7667 4.5 15 4.5C17.2333 4.5 19.125 5.275 20.675 6.825C22.225 8.375 23 10.2667 23 12.5C23 14.7333 22.225 16.625 20.675 18.175C19.125 19.725 17.2333 20.5 15 20.5ZM5.625 19.75C4.225 19.1 3.10417 18.125 2.2625 16.825C1.42083 15.525 1 14.0833 1 12.5C1 10.9167 1.42083 9.475 2.2625 8.175C3.10417 6.875 4.225 5.9 5.625 5.25C5.975 5.08333 6.29167 5.09583 6.575 5.2875C6.85833 5.47917 7 5.79167 7 6.225C7 6.39167 6.94583 6.55417 6.8375 6.7125C6.72917 6.87083 6.59167 6.99167 6.425 7.075C5.375 7.55833 4.54167 8.2875 3.925 9.2625C3.30833 10.2375 3 11.3167 3 12.5C3 13.6833 3.30833 14.7625 3.925 15.7375C4.54167 16.7125 5.375 17.4417 6.425 17.925C6.59167 18.0083 6.72917 18.125 6.8375 18.275C6.94583 18.425 7 18.5917 7 18.775C7 19.1917 6.85833 19.5 6.575 19.7C6.29167 19.9 5.975 19.9167 5.625 19.75Z" fill="#454545"/>
  </g>
</svg>