<svg xmlns="http://www.w3.org/2000/svg" width="24" height="24" viewBox="0 0 24 24" fill="none">
  <mask id="mask0_34_9669" style="mask-type:alpha" maskUnits="userSpaceOnUse" x="0" y="0" width="24" height="24">
    <rect width="24" height="24" fill="#D9D9D9"/>
  </mask>
  <g mask="url(#mask0_34_9669)">
    <path d="M3.9999 19V11.625L2.9999 12.4C2.76657 12.5667 2.51657 12.6334 2.2499 12.6C1.98324 12.5667 1.76657 12.4334 1.5999 12.2C1.43324 11.9667 1.37074 11.7167 1.4124 11.45C1.45407 11.1834 1.58324 10.9667 1.7999 10.8L10.7749 3.92502C10.9582 3.79169 11.1541 3.69169 11.3624 3.62502C11.5707 3.55836 11.7832 3.52502 11.9999 3.52502C12.2166 3.52502 12.4291 3.55836 12.6374 3.62502C12.8457 3.69169 13.0416 3.79169 13.2249 3.92502L22.2249 10.8C22.4416 10.9667 22.5666 11.1834 22.5999 11.45C22.6332 11.7167 22.5666 11.9667 22.3999 12.2C22.2332 12.4167 22.0166 12.5417 21.7499 12.575C21.4832 12.6084 21.2416 12.5417 21.0249 12.375L19.9999 11.625V19C19.9999 19.55 19.8041 20.0209 19.4124 20.4125C19.0207 20.8042 18.5499 21 17.9999 21H5.9999C5.4499 21 4.97907 20.8042 4.5874 20.4125C4.19574 20.0209 3.9999 19.55 3.9999 19ZM7.9999 15C8.28324 15 8.52074 14.9042 8.7124 14.7125C8.90407 14.5209 8.9999 14.2834 8.9999 14C8.9999 13.7167 8.90407 13.4792 8.7124 13.2875C8.52074 13.0959 8.28324 13 7.9999 13C7.71657 13 7.47907 13.0959 7.2874 13.2875C7.09574 13.4792 6.9999 13.7167 6.9999 14C6.9999 14.2834 7.09574 14.5209 7.2874 14.7125C7.47907 14.9042 7.71657 15 7.9999 15ZM11.9999 15C12.2832 15 12.5207 14.9042 12.7124 14.7125C12.9041 14.5209 12.9999 14.2834 12.9999 14C12.9999 13.7167 12.9041 13.4792 12.7124 13.2875C12.5207 13.0959 12.2832 13 11.9999 13C11.7166 13 11.4791 13.0959 11.2874 13.2875C11.0957 13.4792 10.9999 13.7167 10.9999 14C10.9999 14.2834 11.0957 14.5209 11.2874 14.7125C11.4791 14.9042 11.7166 15 11.9999 15ZM15.9999 15C16.2832 15 16.5207 14.9042 16.7124 14.7125C16.9041 14.5209 16.9999 14.2834 16.9999 14C16.9999 13.7167 16.9041 13.4792 16.7124 13.2875C16.5207 13.0959 16.2832 13 15.9999 13C15.7166 13 15.4791 13.0959 15.2874 13.2875C15.0957 13.4792 14.9999 13.7167 14.9999 14C14.9999 14.2834 15.0957 14.5209 15.2874 14.7125C15.4791 14.9042 15.7166 15 15.9999 15Z" fill="#00BEFC"/>
  </g>
</svg>