<svg xmlns="http://www.w3.org/2000/svg" width="25" height="24" viewBox="0 0 25 24" fill="none">
  <mask id="mask0_6_897" style="mask-type:alpha" maskUnits="userSpaceOnUse" x="0" y="0" width="25" height="24">
    <rect x="0.5" width="24" height="24" fill="#D9D9D9"/>
  </mask>
  <g mask="url(#mask0_6_897)">
    <path d="M4.4999 19V11.625L3.4999 12.4C3.26657 12.5667 3.01657 12.6333 2.7499 12.6C2.48324 12.5667 2.26657 12.4333 2.0999 12.2C1.93324 11.9667 1.87074 11.7167 1.9124 11.45C1.95407 11.1833 2.08324 10.9667 2.2999 10.8L11.2749 3.925C11.4582 3.79167 11.6541 3.69167 11.8624 3.625C12.0707 3.55833 12.2832 3.525 12.4999 3.525C12.7166 3.525 12.9291 3.55833 13.1374 3.625C13.3457 3.69167 13.5416 3.79167 13.7249 3.925L22.7249 10.8C22.9416 10.9667 23.0666 11.1833 23.0999 11.45C23.1332 11.7167 23.0666 11.9667 22.8999 12.2C22.7332 12.4167 22.5166 12.5417 22.2499 12.575C21.9832 12.6083 21.7416 12.5417 21.5249 12.375L20.4999 11.625V19C20.4999 19.55 20.3041 20.0208 19.9124 20.4125C19.5207 20.8042 19.0499 21 18.4999 21H6.4999C5.9499 21 5.47907 20.8042 5.0874 20.4125C4.69574 20.0208 4.4999 19.55 4.4999 19ZM8.4999 15C8.78324 15 9.02074 14.9042 9.2124 14.7125C9.40407 14.5208 9.4999 14.2833 9.4999 14C9.4999 13.7167 9.40407 13.4792 9.2124 13.2875C9.02074 13.0958 8.78324 13 8.4999 13C8.21657 13 7.97907 13.0958 7.7874 13.2875C7.59574 13.4792 7.4999 13.7167 7.4999 14C7.4999 14.2833 7.59574 14.5208 7.7874 14.7125C7.97907 14.9042 8.21657 15 8.4999 15ZM12.4999 15C12.7832 15 13.0207 14.9042 13.2124 14.7125C13.4041 14.5208 13.4999 14.2833 13.4999 14C13.4999 13.7167 13.4041 13.4792 13.2124 13.2875C13.0207 13.0958 12.7832 13 12.4999 13C12.2166 13 11.9791 13.0958 11.7874 13.2875C11.5957 13.4792 11.4999 13.7167 11.4999 14C11.4999 14.2833 11.5957 14.5208 11.7874 14.7125C11.9791 14.9042 12.2166 15 12.4999 15ZM16.4999 15C16.7832 15 17.0207 14.9042 17.2124 14.7125C17.4041 14.5208 17.4999 14.2833 17.4999 14C17.4999 13.7167 17.4041 13.4792 17.2124 13.2875C17.0207 13.0958 16.7832 13 16.4999 13C16.2166 13 15.9791 13.0958 15.7874 13.2875C15.5957 13.4792 15.4999 13.7167 15.4999 14C15.4999 14.2833 15.5957 14.5208 15.7874 14.7125C15.9791 14.9042 16.2166 15 16.4999 15Z" fill="#7EEB70"/>
  </g>
</svg>