<svg xmlns="http://www.w3.org/2000/svg" width="24" height="24" viewBox="0 0 24 24" fill="none">
  <mask id="mask0_2_682" style="mask-type:alpha" maskUnits="userSpaceOnUse" x="0" y="0" width="24" height="24">
    <rect width="24" height="24" fill="#D9D9D9"/>
  </mask>
  <g mask="url(#mask0_2_682)">
    <path d="M3.99999 19V11.625L2.99999 12.4C2.76666 12.5667 2.51666 12.6333 2.24999 12.6C1.98333 12.5667 1.76666 12.4333 1.59999 12.2C1.43333 11.9667 1.37083 11.7167 1.41249 11.45C1.45416 11.1833 1.58333 10.9667 1.79999 10.8L10.775 3.925C10.9583 3.79167 11.1542 3.69167 11.3625 3.625C11.5708 3.55833 11.7833 3.525 12 3.525C12.2167 3.525 12.4292 3.55833 12.6375 3.625C12.8458 3.69167 13.0417 3.79167 13.225 3.925L22.225 10.8C22.4417 10.9667 22.5667 11.1833 22.6 11.45C22.6333 11.7167 22.5667 11.9667 22.4 12.2C22.2333 12.4167 22.0167 12.5417 21.75 12.575C21.4833 12.6083 21.2417 12.5417 21.025 12.375L20 11.625V19C20 19.55 19.8042 20.0208 19.4125 20.4125C19.0208 20.8042 18.55 21 18 21H5.99999C5.44999 21 4.97916 20.8042 4.58749 20.4125C4.19583 20.0208 3.99999 19.55 3.99999 19ZM7.99999 15C8.28333 15 8.52083 14.9042 8.71249 14.7125C8.90416 14.5208 8.99999 14.2833 8.99999 14C8.99999 13.7167 8.90416 13.4792 8.71249 13.2875C8.52083 13.0958 8.28333 13 7.99999 13C7.71666 13 7.47916 13.0958 7.28749 13.2875C7.09583 13.4792 6.99999 13.7167 6.99999 14C6.99999 14.2833 7.09583 14.5208 7.28749 14.7125C7.47916 14.9042 7.71666 15 7.99999 15ZM12 15C12.2833 15 12.5208 14.9042 12.7125 14.7125C12.9042 14.5208 13 14.2833 13 14C13 13.7167 12.9042 13.4792 12.7125 13.2875C12.5208 13.0958 12.2833 13 12 13C11.7167 13 11.4792 13.0958 11.2875 13.2875C11.0958 13.4792 11 13.7167 11 14C11 14.2833 11.0958 14.5208 11.2875 14.7125C11.4792 14.9042 11.7167 15 12 15ZM16 15C16.2833 15 16.5208 14.9042 16.7125 14.7125C16.9042 14.5208 17 14.2833 17 14C17 13.7167 16.9042 13.4792 16.7125 13.2875C16.5208 13.0958 16.2833 13 16 13C15.7167 13 15.4792 13.0958 15.2875 13.2875C15.0958 13.4792 15 13.7167 15 14C15 14.2833 15.0958 14.5208 15.2875 14.7125C15.4792 14.9042 15.7167 15 16 15Z" fill="#DEDEDE"/>
  </g>
</svg>