<svg width="54" height="55" viewBox="0 0 54 55" fill="none" xmlns="http://www.w3.org/2000/svg">
<g filter="url(#filter0_d_528_24946)">
<rect x="4" y="5.27295" width="44" height="44" rx="22" fill="#00BEFC" shape-rendering="crispEdges"/>
<mask id="mask0_528_24946" style="mask-type:alpha" maskUnits="userSpaceOnUse" x="14" y="15" width="24" height="25">
<rect x="14" y="15.2729" width="24" height="24" fill="#D9D9D9"/>
</mask>
<g mask="url(#mask0_528_24946)">
<path d="M26 36.2729C25.7167 36.2729 25.4792 36.1771 25.2875 35.9854C25.0958 35.7938 25 35.5563 25 35.2729V28.2729H18C17.7167 28.2729 17.4792 28.1771 17.2875 27.9854C17.0958 27.7938 17 27.5563 17 27.2729C17 26.9896 17.0958 26.7521 17.2875 26.5604C17.4792 26.3688 17.7167 26.2729 18 26.2729H25V19.2729C25 18.9896 25.0958 18.7521 25.2875 18.5604C25.4792 18.3688 25.7167 18.2729 26 18.2729C26.2833 18.2729 26.5208 18.3688 26.7125 18.5604C26.9042 18.7521 27 18.9896 27 19.2729V26.2729H34C34.2833 26.2729 34.5208 26.3688 34.7125 26.5604C34.9042 26.7521 35 26.9896 35 27.2729C35 27.5563 34.9042 27.7938 34.7125 27.9854C34.5208 28.1771 34.2833 28.2729 34 28.2729H27V35.2729C27 35.5563 26.9042 35.7938 26.7125 35.9854C26.5208 36.1771 26.2833 36.2729 26 36.2729Z" fill="white"/>
</g>
</g>
<defs>
<filter id="filter0_d_528_24946" x="0.2" y="0.472949" width="53.6" height="53.6" filterUnits="userSpaceOnUse" color-interpolation-filters="sRGB">
<feFlood flood-opacity="0" result="BackgroundImageFix"/>
<feColorMatrix in="SourceAlpha" type="matrix" values="0 0 0 0 0 0 0 0 0 0 0 0 0 0 0 0 0 0 127 0" result="hardAlpha"/>
<feOffset dx="1"/>
<feGaussianBlur stdDeviation="2.4"/>
<feComposite in2="hardAlpha" operator="out"/>
<feColorMatrix type="matrix" values="0 0 0 0 0 0 0 0 0 0 0 0 0 0 0 0 0 0 0.25 0"/>
<feBlend mode="normal" in2="BackgroundImageFix" result="effect1_dropShadow_528_24946"/>
<feBlend mode="normal" in="SourceGraphic" in2="effect1_dropShadow_528_24946" result="shape"/>
</filter>
</defs>
</svg>
