<svg xmlns="http://www.w3.org/2000/svg" width="25" height="25" viewBox="0 0 25 25" fill="none">
  <circle cx="12.0582" cy="12.242" r="11" transform="rotate(-0.334667 12.0582 12.242)" fill="#00BEFC" stroke="#00BEFC" stroke-width="2"/>
  <path d="M9.84733 15.5931L17.6161 7.47122C17.7994 7.27955 18.0133 7.18372 18.2577 7.18372C18.5022 7.18372 18.7161 7.27955 18.8994 7.47122C19.0828 7.66288 19.1744 7.89049 19.1744 8.15403C19.1744 8.41757 19.0828 8.64517 18.8994 8.83684L10.489 17.6535C10.3057 17.8452 10.0918 17.941 9.84733 17.941C9.60289 17.941 9.389 17.8452 9.20567 17.6535L5.264 13.5327C5.08067 13.341 4.99282 13.1134 5.00046 12.8499C5.0081 12.5863 5.10358 12.3587 5.28692 12.167C5.47025 11.9754 5.68796 11.8795 5.94004 11.8795C6.19212 11.8795 6.40983 11.9754 6.59317 12.167L9.84733 15.5931Z" fill="#F8F8F8"/>
</svg>