<svg xmlns="http://www.w3.org/2000/svg" width="175" height="88" viewBox="0 0 175 88" fill="none">
  <path fill-rule="evenodd" clip-rule="evenodd" d="M8.04107 86.8007C12.2049 86.8007 15.6006 83.5371 16.2311 79.4213C16.6197 76.8845 17.1388 74.3442 17.7928 71.8084C28.0017 32.2249 67.2323 8.75327 105.417 19.383C121.666 23.9066 135.108 33.8769 144.402 46.8896C147.011 50.5432 151.915 51.9408 155.696 49.6789C159.322 47.5094 160.568 42.7713 158.16 39.2007C151.423 29.2103 142.79 20.7122 132.764 14.2438C120.602 6.39716 106.765 1.77974 92.4776 0.800595C78.1907 -0.178552 63.8952 2.51079 50.8576 8.63041C37.8199 14.75 26.4424 24.111 17.733 35.8842C9.02355 47.6574 3.25095 61.4794 0.926539 76.1258C0.793248 76.9657 0.671532 77.8068 0.56137 78.6488C-0.0175515 83.0741 3.57809 86.8007 8.04107 86.8007Z" fill="#FAFAFA"/>
  <mask id="path-2-outside-1_804_27896" maskUnits="userSpaceOnUse" x="22.09" y="0.136292" width="153" height="88" fill="black">
    <rect fill="white" x="22.09" y="0.136292" width="153" height="88"/>
    <path fill-rule="evenodd" clip-rule="evenodd" d="M24.9472 28.4264C36.1917 16.4552 50.4487 7.91843 66.1605 3.83786C84.242 -0.858176 103.297 0.595325 120.524 7.98475C137.751 15.3742 152.243 28.3098 161.869 44.8906C167.898 55.2758 171.82 66.7479 173.48 78.6081C174.1 83.0415 170.506 86.8007 166.03 86.8007C161.893 86.8007 158.515 83.5674 157.872 79.4814C153.466 51.507 133.784 27.412 105.717 19.5988C80.3741 12.5438 54.5623 20.5367 37.0707 38.3057C34.0548 41.3694 29.1415 41.8418 25.8246 39.0016C22.6236 36.2605 22.1059 31.4513 24.9472 28.4264Z"/>
  </mask>
  <path fill-rule="evenodd" clip-rule="evenodd" d="M24.9472 28.4264C36.1917 16.4552 50.4487 7.91843 66.1605 3.83786C84.242 -0.858176 103.297 0.595325 120.524 7.98475C137.751 15.3742 152.243 28.3098 161.869 44.8906C167.898 55.2758 171.82 66.7479 173.48 78.6081C174.1 83.0415 170.506 86.8007 166.03 86.8007C161.893 86.8007 158.515 83.5674 157.872 79.4814C153.466 51.507 133.784 27.412 105.717 19.5988C80.3741 12.5438 54.5623 20.5367 37.0707 38.3057C34.0548 41.3694 29.1415 41.8418 25.8246 39.0016C22.6236 36.2605 22.1059 31.4513 24.9472 28.4264Z" fill="url(#paint0_linear_804_27896)"/>
  <path d="M66.1605 3.83786L66.3342 4.50674L66.1605 3.83786ZM24.9472 28.4264L24.4435 27.9533L24.9472 28.4264ZM120.524 7.98475L120.796 7.34964L120.524 7.98475ZM161.869 44.8906L161.272 45.2376L161.869 44.8906ZM105.717 19.5988L105.903 18.9331L105.717 19.5988ZM37.0707 38.3057L36.5782 37.8209L37.0707 38.3057ZM25.8246 39.0016L26.2741 38.4767H26.2741L25.8246 39.0016ZM157.872 79.4814L158.554 79.3739L157.872 79.4814ZM173.48 78.6081L174.164 78.5123L173.48 78.6081ZM65.9867 3.16898C50.146 7.28305 35.7754 15.8891 24.4435 27.9533L25.4509 28.8996C36.6081 17.0214 50.7514 8.55381 66.3342 4.50674L65.9867 3.16898ZM120.796 7.34964C103.429 -0.0999776 84.2171 -1.56573 65.9867 3.16898L66.3342 4.50674C84.2668 -0.150627 103.164 1.29063 120.252 8.61986L120.796 7.34964ZM162.467 44.5437C152.768 27.8375 138.164 14.7991 120.796 7.34964L120.252 8.61986C137.339 15.9493 151.718 28.7822 161.272 45.2376L162.467 44.5437ZM174.164 78.5123C172.492 66.5649 168.542 55.0073 162.467 44.5437L161.272 45.2376C167.255 55.5442 171.148 66.9308 172.795 78.7039L174.164 78.5123ZM105.532 20.2646C133.317 27.9993 152.822 51.8598 157.189 79.5889L158.554 79.3739C154.11 51.1542 134.251 26.8247 105.903 18.9331L105.532 20.2646ZM37.5631 38.7905C54.8896 21.1893 80.4457 13.2811 105.532 20.2646L105.903 18.9331C80.3025 11.8066 54.2349 19.8842 36.5782 37.8209L37.5631 38.7905ZM25.3752 39.5265C28.9957 42.6267 34.3192 42.086 37.5631 38.7905L36.5782 37.8209C33.7904 40.6529 29.2873 41.0568 26.2741 38.4767L25.3752 39.5265ZM24.4435 27.9533C21.2999 31.3 21.912 36.561 25.3752 39.5265L26.2741 38.4767C23.3351 35.9601 22.9119 31.6026 25.4509 28.8996L24.4435 27.9533ZM166.03 86.1096C162.273 86.1096 159.151 83.1649 158.554 79.3739L157.189 79.5889C157.879 83.97 161.513 87.4918 166.03 87.4918V86.1096ZM172.795 78.7039C173.352 82.6803 170.129 86.1096 166.03 86.1096V87.4918C170.883 87.4918 174.849 83.4027 174.164 78.5123L172.795 78.7039Z" fill="url(#paint1_linear_804_27896)" mask="url(#path-2-outside-1_804_27896)"/>
  <defs>
    <linearGradient id="paint0_linear_804_27896" x1="12.0463" y1="25.1385" x2="165.118" y2="74.2051" gradientUnits="userSpaceOnUse">
      <stop stop-color="#F4FCFF"/>
      <stop offset="0.205" stop-color="#C4EFFD"/>
      <stop offset="0.47" stop-color="#50D2FC"/>
      <stop offset="1" stop-color="#00BEFC"/>
    </linearGradient>
    <linearGradient id="paint1_linear_804_27896" x1="23.1035" y1="34.4678" x2="170.301" y2="86.9897" gradientUnits="userSpaceOnUse">
      <stop stop-color="#C4EFFD" stop-opacity="0.5"/>
      <stop offset="0.33" stop-color="#40CEFD"/>
      <stop offset="0.935" stop-color="#00BEFC"/>
    </linearGradient>
  </defs>
</svg>