<svg xmlns="http://www.w3.org/2000/svg" width="174" height="88" viewBox="0 0 174 88" fill="none">
  <path fill-rule="evenodd" clip-rule="evenodd" d="M7.54109 87.1967C11.7049 87.1967 15.1006 83.9331 15.7311 79.8173C16.1198 77.2805 16.6388 74.7402 17.2928 72.2044C27.5017 32.6209 66.7323 9.14926 104.917 19.779C130.853 26.9993 149.636 48.096 155.817 73.2919C156.862 77.5485 160.819 80.6222 165.094 80.0109C169.245 79.4171 172.145 75.5655 171.236 71.4083C168.315 58.0485 162.493 45.5146 154.176 34.7802C144.311 22.0492 131.306 12.3258 116.543 6.64471C101.781 0.963605 85.8134 -0.462647 70.3404 2.51773C54.8675 5.49812 40.4678 12.7736 28.6739 23.57C16.8799 34.3664 8.13293 48.2797 3.36371 63.8294C1.83541 68.8123 0.733912 73.9035 0.0613566 79.0448C-0.51753 83.4701 3.07811 87.1967 7.54109 87.1967Z" fill="#FAFAFA"/>
  <mask id="path-2-outside-1_943_27409" maskUnits="userSpaceOnUse" x="44.9355" y="0.532288" width="129" height="88" fill="black">
    <rect fill="white" x="44.9355" y="0.532288" width="129" height="88"/>
    <path fill-rule="evenodd" clip-rule="evenodd" d="M157.372 79.8774C158.015 83.9634 161.393 87.1967 165.53 87.1967C170.006 87.1967 173.6 83.4376 172.98 79.0042C172.811 77.7976 172.618 76.5929 172.402 75.3907C168.976 56.3572 159.764 38.9673 146.119 25.7767C132.475 12.586 115.117 4.29024 96.5982 2.10855C80.541 0.2169 64.3445 3.00821 49.8005 10.0948C46.055 11.9198 44.8704 16.6015 46.9331 20.3133C49.0946 24.2027 53.9751 25.5231 57.9478 23.7115C72.3266 17.1545 88.8694 15.444 105.217 19.9948C133.284 27.808 152.966 51.903 157.372 79.8774Z"/>
  </mask>
  <path fill-rule="evenodd" clip-rule="evenodd" d="M157.372 79.8774C158.015 83.9634 161.393 87.1967 165.53 87.1967C170.006 87.1967 173.6 83.4376 172.98 79.0042C172.811 77.7976 172.618 76.5929 172.402 75.3907C168.976 56.3572 159.764 38.9673 146.119 25.7767C132.475 12.586 115.117 4.29024 96.5982 2.10855C80.541 0.2169 64.3445 3.00821 49.8005 10.0948C46.055 11.9198 44.8704 16.6015 46.9331 20.3133C49.0946 24.2027 53.9751 25.5231 57.9478 23.7115C72.3266 17.1545 88.8694 15.444 105.217 19.9948C133.284 27.808 152.966 51.903 157.372 79.8774Z" fill="url(#paint0_linear_943_27409)"/>
  <path d="M172.402 75.3907L173.082 75.2683L172.402 75.3907ZM146.119 25.7767L145.639 26.2735L146.119 25.7767ZM96.5982 2.10855L96.6791 1.42222L96.5982 2.10855ZM49.8005 10.0948L49.4978 9.47352L49.8005 10.0948ZM46.9331 20.3133L46.3291 20.649L46.9331 20.3133ZM57.9478 23.7115L57.6611 23.0827L57.9478 23.7115ZM105.217 19.9948L105.032 20.6606L105.217 19.9948ZM157.372 79.8774L158.054 79.7699L157.372 79.8774ZM171.722 75.5131C171.937 76.7065 172.128 77.9023 172.295 79.1L173.664 78.9084C173.494 77.693 173.3 76.4793 173.082 75.2683L171.722 75.5131ZM145.639 26.2735C159.177 39.3614 168.321 56.6194 171.722 75.5131L173.082 75.2683C169.631 56.095 160.351 38.5732 146.6 25.2798L145.639 26.2735ZM96.5174 2.79487C114.883 4.95852 132.101 13.186 145.639 26.2735L146.6 25.2798C132.848 11.986 115.351 3.62196 96.6791 1.42222L96.5174 2.79487ZM50.1032 10.716C64.5294 3.68685 80.5929 0.918864 96.5174 2.79487L96.6791 1.42222C80.4891 -0.485064 64.1596 2.32957 49.4978 9.47352L50.1032 10.716ZM47.5372 19.9776C45.6407 16.565 46.7607 12.3447 50.1032 10.716L49.4978 9.47352C45.3493 11.4949 44.1001 16.638 46.3291 20.649L47.5372 19.9776ZM57.6611 23.0827C53.9823 24.7603 49.506 23.5204 47.5372 19.9776L46.3291 20.649C48.6831 24.8851 53.9679 26.2859 58.2345 24.3402L57.6611 23.0827ZM105.403 19.3291C88.8917 14.7328 72.182 16.4609 57.6611 23.0827L58.2345 24.3402C72.4713 17.8481 88.8471 16.1551 105.032 20.6606L105.403 19.3291ZM158.054 79.7699C153.61 51.5502 133.751 27.2207 105.403 19.3291L105.032 20.6606C132.817 28.3953 152.322 52.2559 156.689 79.9849L158.054 79.7699ZM165.53 87.8878C170.383 87.8878 174.349 83.7988 173.664 78.9084L172.295 79.1C172.852 83.0764 169.629 86.5056 165.53 86.5056V87.8878ZM165.53 86.5056C161.773 86.5056 158.651 83.5609 158.054 79.7699L156.689 79.9849C157.379 84.366 161.013 87.8878 165.53 87.8878V86.5056Z" fill="url(#paint1_linear_943_27409)" mask="url(#path-2-outside-1_943_27409)"/>
  <defs>
    <linearGradient id="paint0_linear_943_27409" x1="60.2203" y1="25.5345" x2="172.516" y2="50.6819" gradientUnits="userSpaceOnUse">
      <stop stop-color="#F4FCFF"/>
      <stop offset="0.205" stop-color="#C4EFFD"/>
      <stop offset="0.47" stop-color="#50D2FC"/>
      <stop offset="1" stop-color="#00BEFC"/>
    </linearGradient>
    <linearGradient id="paint1_linear_943_27409" x1="67.945" y1="34.8638" x2="177.09" y2="62.0711" gradientUnits="userSpaceOnUse">
      <stop stop-color="#C4EFFD" stop-opacity="0.5"/>
      <stop offset="0.33" stop-color="#40CEFD"/>
      <stop offset="0.935" stop-color="#00BEFC"/>
    </linearGradient>
  </defs>
</svg>