<svg xmlns="http://www.w3.org/2000/svg" width="174" height="87" viewBox="0 0 174 87" fill="none">
  <path fill-rule="evenodd" clip-rule="evenodd" d="M7.54109 86.1967C11.7049 86.1967 15.1006 82.9331 15.7311 78.8173C16.1198 76.2805 16.6388 73.7402 17.2928 71.2044C27.5017 31.6209 66.7323 8.14926 104.917 18.779C130.853 25.9993 149.636 47.096 155.817 72.2919C156.862 76.5485 160.819 79.6222 165.094 79.0109C169.245 78.4171 172.145 74.5655 171.236 70.4083C168.315 57.0485 162.493 44.5146 154.176 33.7802C144.311 21.0492 131.306 11.3258 116.543 5.64471C101.781 -0.0363952 85.8134 -1.46265 70.3404 1.51773C54.8675 4.49812 40.4678 11.7736 28.6739 22.57C16.8799 33.3664 8.13293 47.2797 3.36371 62.8294C1.83541 67.8123 0.733912 72.9035 0.0613566 78.0448C-0.51753 82.4701 3.07811 86.1967 7.54109 86.1967Z" fill="#FAFAFA"/>
  <mask id="path-2-outside-1_943_27344" maskUnits="userSpaceOnUse" x="129.247" y="18.675" width="45" height="69" fill="black">
    <rect fill="white" x="129.247" y="18.675" width="45" height="69"/>
    <path fill-rule="evenodd" clip-rule="evenodd" d="M133.408 34.4578C130.163 31.5516 129.191 26.6969 131.557 23.1086C133.997 19.4067 139.035 18.4769 142.437 21.4121C154.621 31.9258 163.857 45.7315 169.079 61.3784C170.892 66.809 172.192 72.3764 172.98 78.0042C173.6 82.4376 170.006 86.1967 165.53 86.1967C161.393 86.1967 158.015 82.9648 157.372 78.8788C154.655 61.6268 146.128 45.8501 133.408 34.4578Z"/>
  </mask>
  <path fill-rule="evenodd" clip-rule="evenodd" d="M133.408 34.4578C130.163 31.5516 129.191 26.6969 131.557 23.1086C133.997 19.4067 139.035 18.4769 142.437 21.4121C154.621 31.9258 163.857 45.7315 169.079 61.3784C170.892 66.809 172.192 72.3764 172.98 78.0042C173.6 82.4376 170.006 86.1967 165.53 86.1967C161.393 86.1967 158.015 82.9648 157.372 78.8788C154.655 61.6268 146.128 45.8501 133.408 34.4578Z" fill="url(#paint0_linear_943_27344)"/>
  <path d="M131.557 23.1086L130.98 22.7282L131.557 23.1086ZM133.408 34.4578L133.869 33.943L133.408 34.4578ZM142.437 21.4121L142.888 20.8889V20.8889L142.437 21.4121ZM169.079 61.3784L168.424 61.5972L169.079 61.3784ZM130.98 22.7282C128.397 26.6457 129.488 31.8744 132.947 34.9726L133.869 33.943C130.839 31.2289 129.985 26.7481 132.134 23.4889L130.98 22.7282ZM142.888 20.8889C139.144 17.6583 133.63 18.7082 130.98 22.7282L132.134 23.4889C134.364 20.1051 138.926 19.2956 141.985 21.9353L142.888 20.8889ZM169.735 61.1596C164.474 45.3966 155.168 31.4852 142.888 20.8889L141.985 21.9353C154.074 32.3665 163.24 46.0663 168.424 61.5972L169.735 61.1596ZM173.664 77.9085C172.871 72.2391 171.561 66.6306 169.735 61.1596L168.424 61.5972C170.223 66.9874 171.514 72.5136 172.296 78.1L173.664 77.9085ZM132.947 34.9726C145.546 46.2566 153.997 61.8882 156.689 78.9863L158.055 78.7713C155.314 61.3653 146.711 45.4437 133.869 33.943L132.947 34.9726ZM165.53 85.5056C161.773 85.5056 158.651 82.5621 158.055 78.7713L156.689 78.9863C157.379 83.3674 161.014 86.8877 165.53 86.8877V85.5056ZM172.296 78.1C172.852 82.0764 169.629 85.5056 165.53 85.5056V86.8877C170.383 86.8877 174.349 82.7988 173.664 77.9085L172.296 78.1Z" fill="url(#paint1_linear_943_27344)" mask="url(#path-2-outside-1_943_27344)"/>
  <defs>
    <linearGradient id="paint0_linear_943_27344" x1="127.106" y1="38.3136" x2="174.472" y2="43.8759" gradientUnits="userSpaceOnUse">
      <stop stop-color="#F4FCFF"/>
      <stop offset="0.205" stop-color="#C4EFFD"/>
      <stop offset="0.47" stop-color="#50D2FC"/>
      <stop offset="1" stop-color="#00BEFC"/>
    </linearGradient>
    <linearGradient id="paint1_linear_943_27344" x1="130.251" y1="45.5582" x2="176.664" y2="51.625" gradientUnits="userSpaceOnUse">
      <stop stop-color="#C4EFFD" stop-opacity="0.5"/>
      <stop offset="0.33" stop-color="#40CEFD"/>
      <stop offset="0.935" stop-color="#00BEFC"/>
    </linearGradient>
  </defs>
</svg>