<svg xmlns="http://www.w3.org/2000/svg" width="174" height="87" viewBox="0 0 174 87" fill="none">
  <path fill-rule="evenodd" clip-rule="evenodd" d="M7.54109 86.1967C11.7049 86.1967 15.1006 82.9331 15.7311 78.8173C16.1198 76.2805 16.6388 73.7402 17.2928 71.2044C27.5017 31.6209 66.7323 8.14926 104.917 18.779C130.853 25.9993 149.636 47.096 155.817 72.2919C156.862 76.5485 160.819 79.6222 165.094 79.0109C169.245 78.4171 172.145 74.5655 171.236 70.4083C168.315 57.0485 162.493 44.5146 154.176 33.7802C144.311 21.0492 131.306 11.3258 116.543 5.64471C101.781 -0.0363952 85.8134 -1.46265 70.3404 1.51773C54.8675 4.49812 40.4678 11.7736 28.6739 22.57C16.8799 33.3664 8.13293 47.2797 3.36371 62.8294C1.83541 67.8123 0.733912 72.9035 0.0613566 78.0448C-0.51753 82.4701 3.07811 86.1967 7.54109 86.1967Z" fill="#FAFAFA"/>
  <mask id="path-2-outside-1_943_27532" maskUnits="userSpaceOnUse" x="139.651" y="29.6819" width="35" height="58" fill="black">
    <rect fill="white" x="139.651" y="29.6819" width="35" height="58"/>
    <path fill-rule="evenodd" clip-rule="evenodd" d="M142.618 44.3983C139.981 40.966 139.923 36.075 142.88 33.0173C145.967 29.8245 151.13 29.8617 153.942 33.3989C164.026 46.0833 170.625 61.4304 172.952 77.8101C172.962 77.8748 172.971 77.9395 172.98 78.0042C173.6 82.4376 170.006 86.1967 165.53 86.1967C161.393 86.1967 158.015 82.9649 157.372 78.8789C155.376 66.2046 150.244 54.3266 142.618 44.3983Z"/>
  </mask>
  <path fill-rule="evenodd" clip-rule="evenodd" d="M142.618 44.3983C139.981 40.966 139.923 36.075 142.88 33.0173C145.967 29.8245 151.13 29.8617 153.942 33.3989C164.026 46.0833 170.625 61.4304 172.952 77.8101C172.962 77.8748 172.971 77.9395 172.98 78.0042C173.6 82.4376 170.006 86.1967 165.53 86.1967C161.393 86.1967 158.015 82.9649 157.372 78.8789C155.376 66.2046 150.244 54.3266 142.618 44.3983Z" fill="url(#paint0_linear_943_27532)"/>
  <path d="M142.88 33.0173L143.377 33.4977H143.377L142.88 33.0173ZM142.618 44.3983L142.07 44.8193L142.618 44.3983ZM153.942 33.3989L154.483 32.9688L153.942 33.3989ZM172.952 77.8101L172.268 77.9073L172.952 77.8101ZM157.372 78.8789L156.689 78.9864L157.372 78.8789ZM142.383 32.5368C139.151 35.8786 139.258 41.1592 142.07 44.8193L143.166 43.9773C140.704 40.7728 140.694 36.2714 143.377 33.4977L142.383 32.5368ZM154.483 32.9688C151.392 29.0804 145.738 29.067 142.383 32.5368L143.377 33.4977C146.196 30.5819 150.869 30.643 153.401 33.8289L154.483 32.9688ZM173.637 77.7128C171.292 61.213 164.645 45.7506 154.483 32.9688L153.401 33.8289C163.408 46.416 169.958 61.6479 172.268 77.9073L173.637 77.7128ZM173.664 77.9084C173.655 77.8432 173.646 77.778 173.637 77.7128L172.268 77.9073C172.277 77.9715 172.286 78.0358 172.295 78.1L173.664 77.9084ZM142.07 44.8193C149.626 54.6557 154.711 66.4259 156.689 78.9864L158.054 78.7714C156.041 65.9834 150.863 53.9975 143.166 43.9773L142.07 44.8193ZM165.53 85.5057C161.773 85.5057 158.651 82.5623 158.054 78.7714L156.689 78.9864C157.379 83.3676 161.013 86.8878 165.53 86.8878V85.5057ZM172.295 78.1C172.852 82.0764 169.629 85.5057 165.53 85.5057V86.8878C170.383 86.8878 174.349 82.7988 173.664 77.9084L172.295 78.1Z" fill="url(#paint1_linear_943_27532)" mask="url(#path-2-outside-1_943_27532)"/>
  <defs>
    <linearGradient id="paint0_linear_943_27532" x1="138.273" y1="46.2365" x2="174.213" y2="50.0646" gradientUnits="userSpaceOnUse">
      <stop stop-color="#F4FCFF"/>
      <stop offset="0.205" stop-color="#C4EFFD"/>
      <stop offset="0.47" stop-color="#50D2FC"/>
      <stop offset="1" stop-color="#00BEFC"/>
    </linearGradient>
    <linearGradient id="paint1_linear_943_27532" x1="140.654" y1="52.2824" x2="175.89" y2="56.4601" gradientUnits="userSpaceOnUse">
      <stop stop-color="#C4EFFD" stop-opacity="0.5"/>
      <stop offset="0.33" stop-color="#40CEFD"/>
      <stop offset="0.935" stop-color="#00BEFC"/>
    </linearGradient>
  </defs>
</svg>