<svg xmlns="http://www.w3.org/2000/svg" width="174" height="87" viewBox="0 0 174 87" fill="none">
  <path fill-rule="evenodd" clip-rule="evenodd" d="M7.54109 86.1967C11.7049 86.1967 15.1006 82.9331 15.7311 78.8173C16.1198 76.2805 16.6388 73.7402 17.2928 71.2044C27.5017 31.6209 66.7323 8.14926 104.917 18.779C130.853 25.9993 149.636 47.096 155.817 72.2919C156.862 76.5485 160.819 79.6222 165.094 79.0109C169.245 78.4171 172.145 74.5655 171.236 70.4083C168.315 57.0485 162.493 44.5146 154.176 33.7802C144.311 21.0492 131.306 11.3258 116.543 5.64471C101.781 -0.0363952 85.8134 -1.46265 70.3404 1.51773C54.8675 4.49812 40.4678 11.7736 28.6739 22.57C16.8799 33.3664 8.13293 47.2797 3.36371 62.8294C1.83541 67.8123 0.733912 72.9035 0.0613566 78.0448C-0.51753 82.4701 3.07811 86.1967 7.54109 86.1967Z" fill="#FAFAFA"/>
  <mask id="path-2-outside-1_943_27383" maskUnits="userSpaceOnUse" x="86.3492" y="-0.0844727" width="88" height="87" fill="black">
    <rect fill="white" x="86.3492" y="-0.0844727" width="88" height="87"/>
    <path fill-rule="evenodd" clip-rule="evenodd" d="M157.372 78.8774C158.015 82.9634 161.393 86.1967 165.53 86.1967C170.006 86.1967 173.6 82.4376 172.98 78.0043C172.371 73.655 171.456 69.3385 170.232 65.0896C164.891 46.5384 153.962 30.2566 139.053 18.6368C126.222 8.63674 111.025 2.5435 95.1585 0.951437C90.8657 0.520705 87.3792 4.02235 87.3494 8.37C87.3191 12.8112 90.9054 16.4333 95.2796 16.9885C98.587 17.4082 101.906 18.0731 105.217 18.9949C133.284 26.808 152.966 50.903 157.372 78.8774Z"/>
  </mask>
  <path fill-rule="evenodd" clip-rule="evenodd" d="M157.372 78.8774C158.015 82.9634 161.393 86.1967 165.53 86.1967C170.006 86.1967 173.6 82.4376 172.98 78.0043C172.371 73.655 171.456 69.3385 170.232 65.0896C164.891 46.5384 153.962 30.2566 139.053 18.6368C126.222 8.63674 111.025 2.5435 95.1585 0.951437C90.8657 0.520705 87.3792 4.02235 87.3494 8.37C87.3191 12.8112 90.9054 16.4333 95.2796 16.9885C98.587 17.4082 101.906 18.0731 105.217 18.9949C133.284 26.808 152.966 50.903 157.372 78.8774Z" fill="url(#paint0_linear_943_27383)"/>
  <path d="M170.232 65.0896L169.568 65.2808L170.232 65.0896ZM139.053 18.6368L138.628 19.1819L139.053 18.6368ZM95.1585 0.951437L95.0895 1.63905L95.1585 0.951437ZM87.3494 8.37L86.6584 8.36527V8.36527L87.3494 8.37ZM95.2796 16.9885L95.3666 16.3029L95.2796 16.9885ZM105.217 18.9949L105.032 19.6606L105.217 18.9949ZM172.98 78.0043L173.664 77.9085L172.98 78.0043ZM157.372 78.8774L156.689 78.9849L157.372 78.8774ZM169.568 65.2808C170.782 69.4982 171.691 73.7828 172.295 78.1L173.664 77.9085C173.051 73.5272 172.129 69.1787 170.896 64.8984L169.568 65.2808ZM138.628 19.1819C153.42 30.7099 164.266 46.8667 169.568 65.2808L170.896 64.8984C165.515 46.2102 154.505 29.8032 139.478 18.0917L138.628 19.1819ZM95.0895 1.63905C110.825 3.21796 125.899 9.26101 138.628 19.1819L139.478 18.0917C126.545 8.01247 111.226 1.86904 95.2275 0.263819L95.0895 1.63905ZM88.0405 8.37472C88.0678 4.38333 91.2506 1.25387 95.0895 1.63905L95.2275 0.263819C90.4808 -0.212458 86.6905 3.66137 86.6584 8.36527L88.0405 8.37472ZM95.3666 16.3029C91.2945 15.7861 88.0128 12.4226 88.0405 8.37472L86.6584 8.36527C86.6253 13.1998 90.5163 17.0805 95.1926 17.674L95.3666 16.3029ZM105.403 18.3291C102.059 17.3984 98.7072 16.7269 95.3666 16.3029L95.1926 17.674C98.4668 18.0896 101.753 18.7479 105.032 19.6606L105.403 18.3291ZM158.054 78.7699C153.61 50.5502 133.751 26.2207 105.403 18.3291L105.032 19.6606C132.817 27.3953 152.322 51.2559 156.689 78.9849L158.054 78.7699ZM165.53 86.8878C170.383 86.8878 174.349 82.7988 173.664 77.9085L172.295 78.1C172.852 82.0764 169.629 85.5056 165.53 85.5056V86.8878ZM165.53 85.5056C161.773 85.5056 158.651 82.5609 158.054 78.7699L156.689 78.9849C157.379 83.3659 161.013 86.8878 165.53 86.8878V85.5056Z" fill="url(#paint1_linear_943_27383)" mask="url(#path-2-outside-1_943_27383)"/>
  <defs>
    <linearGradient id="paint0_linear_943_27383" x1="81.0589" y1="24.8103" x2="174.077" y2="41.8699" gradientUnits="userSpaceOnUse">
      <stop stop-color="#F4FCFF"/>
      <stop offset="0.205" stop-color="#C4EFFD"/>
      <stop offset="0.47" stop-color="#50D2FC"/>
      <stop offset="1" stop-color="#00BEFC"/>
    </linearGradient>
    <linearGradient id="paint1_linear_943_27383" x1="87.3569" y1="34.0979" x2="178.092" y2="52.6215" gradientUnits="userSpaceOnUse">
      <stop stop-color="#C4EFFD" stop-opacity="0.5"/>
      <stop offset="0.33" stop-color="#40CEFD"/>
      <stop offset="0.935" stop-color="#00BEFC"/>
    </linearGradient>
  </defs>
</svg>