<svg xmlns="http://www.w3.org/2000/svg" width="174" height="87" viewBox="0 0 174 87" fill="none">
  <path fill-rule="evenodd" clip-rule="evenodd" d="M7.54108 86.1967C11.7049 86.1967 15.1006 82.9331 15.7311 78.8173C16.1197 76.2805 16.6388 73.7402 17.2928 71.2044C27.5017 31.6209 66.7323 8.14926 104.917 18.779C129.689 25.6751 147.935 45.2299 154.909 68.9245C156.151 73.1435 160.257 76.0393 164.507 75.2208C168.624 74.4279 171.342 70.4402 170.246 66.3241C166.773 53.2923 160.515 41.1984 151.898 30.9601C141.656 18.79 128.456 9.68703 113.675 4.59961C98.8942 -0.487804 83.0723 -1.37352 67.858 2.03475C52.6437 5.44301 38.5936 13.0205 27.1715 23.9779C15.7495 34.9352 7.37341 48.8715 2.91596 64.3346C1.61801 68.8373 0.666151 73.4214 0.0613434 78.0448C-0.517548 82.4701 3.07809 86.1967 7.54108 86.1967Z" fill="#FAFAFA"/>
  <mask id="path-2-outside-1_943_27162" maskUnits="userSpaceOnUse" x="154.852" y="61.049" width="19" height="26" fill="black">
    <rect fill="white" x="154.852" y="61.049" width="19" height="26"/>
    <path fill-rule="evenodd" clip-rule="evenodd" d="M156.119 72.6274C155.104 68.4669 157.045 64.0689 160.976 62.5609C165.089 60.9828 169.77 63.1706 170.894 67.5095C171.791 70.9704 172.486 74.4749 172.98 78.0042C173.6 82.4376 170.006 86.1967 165.53 86.1967C161.393 86.1967 158.015 82.9651 157.372 78.8791C157.04 76.7714 156.621 74.6857 156.119 72.6274Z"/>
  </mask>
  <path fill-rule="evenodd" clip-rule="evenodd" d="M156.119 72.6274C155.104 68.4669 157.045 64.0689 160.976 62.5609C165.089 60.9828 169.77 63.1706 170.894 67.5095C171.791 70.9704 172.486 74.4749 172.98 78.0042C173.6 82.4376 170.006 86.1967 165.53 86.1967C161.393 86.1967 158.015 82.9651 157.372 78.8791C157.04 76.7714 156.621 74.6857 156.119 72.6274Z" fill="url(#paint0_linear_943_27162)"/>
  <path d="M160.976 62.5609L161.223 63.2061L161.223 63.2061L160.976 62.5609ZM156.119 72.6274L156.79 72.4635L156.79 72.4635L156.119 72.6274ZM170.894 67.5095L171.563 67.3362V67.3362L170.894 67.5095ZM157.372 78.8791L158.055 78.7716L157.372 78.8791ZM172.98 78.0042L172.296 78.1L172.98 78.0042ZM160.728 61.9156C156.425 63.5668 154.363 68.3455 155.448 72.7913L156.79 72.4635C155.845 68.5882 157.666 64.571 161.223 63.2061L160.728 61.9156ZM171.563 67.3362C170.329 62.5703 165.199 60.2003 160.728 61.9156L161.223 63.2061C164.979 61.7654 169.212 63.7708 170.225 67.6828L171.563 67.3362ZM173.664 77.9084C173.167 74.3531 172.466 70.8227 171.563 67.3362L170.225 67.6828C171.115 71.118 171.805 74.5967 172.296 78.1L173.664 77.9084ZM155.448 72.7913C155.946 74.831 156.36 76.8979 156.689 78.9866L158.055 78.7716C157.72 76.6449 157.297 74.5404 156.79 72.4635L155.448 72.7913ZM165.53 85.5056C161.773 85.5056 158.652 82.5624 158.055 78.7716L156.689 78.9866C157.379 83.3678 161.014 86.8877 165.53 86.8877V85.5056ZM172.296 78.1C172.852 82.0764 169.629 85.5056 165.53 85.5056V86.8877C170.383 86.8877 174.349 82.7988 173.664 77.9084L172.296 78.1Z" fill="url(#paint1_linear_943_27162)" mask="url(#path-2-outside-1_943_27162)"/>
  <defs>
    <linearGradient id="paint0_linear_943_27162" x1="154.59" y1="68.8149" x2="173.563" y2="71.2809" gradientUnits="userSpaceOnUse">
      <stop stop-color="#F4FCFF"/>
      <stop offset="0.205" stop-color="#C4EFFD"/>
      <stop offset="0.47" stop-color="#50D2FC"/>
      <stop offset="1" stop-color="#00BEFC"/>
    </linearGradient>
    <linearGradient id="paint1_linear_943_27162" x1="155.854" y1="71.4447" x2="174.432" y2="74.1325" gradientUnits="userSpaceOnUse">
      <stop stop-color="#C4EFFD" stop-opacity="0.5"/>
      <stop offset="0.33" stop-color="#40CEFD"/>
      <stop offset="0.935" stop-color="#00BEFC"/>
    </linearGradient>
  </defs>
</svg>