<svg width="175" height="88" viewBox="0 0 175 88" fill="none" xmlns="http://www.w3.org/2000/svg">
<path fill-rule="evenodd" clip-rule="evenodd" d="M8.54109 87.1967C12.7049 87.1967 16.1006 83.9331 16.7311 79.8173C17.1197 77.2806 17.6388 74.7402 18.2928 72.2044C28.5017 32.6209 67.7323 9.14928 105.917 19.779C133.487 27.454 152.973 50.8081 157.834 78.0982C158.599 82.3921 162.335 85.7044 166.627 85.3855C170.811 85.0747 173.958 81.4266 173.315 77.2247C171.207 63.4482 166.044 50.3252 158.191 38.9086C148.905 25.4086 136.218 14.8156 121.518 8.29072C106.819 1.76581 90.6762 -0.439248 74.8581 1.91721C59.0401 4.27366 44.1576 11.1007 31.8419 21.6501C19.5261 32.1995 10.2524 46.064 5.03694 61.7243C3.15615 67.3718 1.82932 73.1741 1.06136 79.0448C0.48247 83.4701 4.0781 87.1967 8.54109 87.1967Z" fill="#FAFAFA"/>
<mask id="path-2-outside-1_1244_28457" maskUnits="userSpaceOnUse" x="0.20874" y="0.532166" width="175" height="87" fill="black">
<rect fill="white" x="0.20874" y="0.532166" width="175" height="87"/>
<path fill-rule="evenodd" clip-rule="evenodd" d="M1.73783 77.981C4.73146 58.1793 13.9875 39.8868 28.1544 26.0632C44.1608 10.4448 65.2547 1.68384 87.2134 1.53427C109.172 1.3847 130.375 9.85756 146.577 25.2566C160.946 38.9132 170.441 57.1235 173.666 76.9286C174.355 81.1591 171.221 84.87 167.007 85.2314C162.658 85.6042 158.839 82.2715 158.037 77.9207C153.041 50.7846 133.627 27.6252 106.217 19.9948C68.0201 9.36156 28.7583 32.9118 18.5234 72.5958C17.9495 74.8211 17.479 77.0499 17.1089 79.2767C16.415 83.4524 12.8513 86.6258 8.65195 86.3233C4.38162 86.0156 1.09421 82.2383 1.73783 77.981Z"/>
</mask>
<path fill-rule="evenodd" clip-rule="evenodd" d="M1.73783 77.981C4.73146 58.1793 13.9875 39.8868 28.1544 26.0632C44.1608 10.4448 65.2547 1.68384 87.2134 1.53427C109.172 1.3847 130.375 9.85756 146.577 25.2566C160.946 38.9132 170.441 57.1235 173.666 76.9286C174.355 81.1591 171.221 84.87 167.007 85.2314C162.658 85.6042 158.839 82.2715 158.037 77.9207C153.041 50.7846 133.627 27.6252 106.217 19.9948C68.0201 9.36156 28.7583 32.9118 18.5234 72.5958C17.9495 74.8211 17.479 77.0499 17.1089 79.2767C16.415 83.4524 12.8513 86.6258 8.65195 86.3233C4.38162 86.0156 1.09421 82.2383 1.73783 77.981Z" fill="url(#paint0_linear_1244_28457)"/>
<path d="M28.1544 26.0632L28.6371 26.5579L28.1544 26.0632ZM1.73783 77.981L1.05452 77.8777L1.73783 77.981ZM87.2134 1.53427L87.2087 0.843216L87.2134 1.53427ZM146.577 25.2566L146.101 25.7575L146.577 25.2566ZM173.666 76.9286L172.984 77.0397L173.666 76.9286ZM167.007 85.2314L166.948 84.5428L167.007 85.2314ZM158.037 77.9207L157.358 78.0458L158.037 77.9207ZM106.217 19.9948L106.403 19.3291L106.217 19.9948ZM18.5234 72.5958L19.1926 72.7683L18.5234 72.5958ZM17.1089 79.2767L16.4272 79.1635L17.1089 79.2767ZM8.65195 86.3233L8.60229 87.0126H8.60229L8.65195 86.3233ZM27.6718 25.5686C13.3946 39.4998 4.0701 57.9308 1.05452 77.8777L2.42114 78.0843C5.39282 58.4278 14.5805 40.2738 28.6371 26.5579L27.6718 25.5686ZM87.2087 0.843216C65.0677 0.994026 43.8034 9.82794 27.6718 25.5686L28.6371 26.5579C44.5181 11.0617 65.4418 2.37365 87.2181 2.22532L87.2087 0.843216ZM147.053 24.7557C130.724 9.2359 109.35 0.692407 87.2087 0.843216L87.2181 2.22532C108.994 2.077 130.026 10.4792 146.101 25.7575L147.053 24.7557ZM174.348 76.8176C171.099 56.8672 161.534 38.5188 147.053 24.7557L146.101 25.7575C160.357 39.3076 169.783 57.3798 172.984 77.0397L174.348 76.8176ZM167.066 85.9199C171.651 85.5267 175.106 81.4742 174.348 76.8176L172.984 77.0397C173.603 80.844 170.791 84.2132 166.948 84.5428L167.066 85.9199ZM157.358 78.0458C158.214 82.6934 162.311 86.3276 167.066 85.9199L166.948 84.5428C163.005 84.8809 159.464 81.8496 158.717 77.7955L157.358 78.0458ZM106.032 20.6606C133.167 28.2144 152.405 51.148 157.358 78.0458L158.717 77.7955C153.676 50.4211 134.088 27.036 106.403 19.3291L106.032 20.6606ZM19.1926 72.7683C29.3364 33.4373 68.2286 10.137 106.032 20.6606L106.403 19.3291C67.8116 8.58617 28.1801 32.3863 17.8542 72.4232L19.1926 72.7683ZM17.7906 79.39C18.1574 77.1831 18.6237 74.9741 19.1926 72.7683L17.8542 72.4232C17.2752 74.6682 16.8006 76.9168 16.4272 79.1635L17.7906 79.39ZM8.60229 87.0126C13.2033 87.344 17.046 83.8707 17.7906 79.39L16.4272 79.1635C15.7839 83.0342 12.4993 85.9076 8.70162 85.634L8.60229 87.0126ZM1.05452 77.8777C0.34561 82.5669 3.96467 86.6784 8.60229 87.0126L8.70162 85.634C4.79857 85.3528 1.84281 81.9097 2.42114 78.0843L1.05452 77.8777Z" fill="url(#paint1_linear_1244_28457)" mask="url(#path-2-outside-1_1244_28457)"/>
<defs>
<linearGradient id="paint0_linear_1244_28457" x1="-5.0105" y1="24.8644" x2="159.817" y2="85.0022" gradientUnits="userSpaceOnUse">
<stop stop-color="#F4FCFF"/>
<stop offset="0.205" stop-color="#C4EFFD"/>
<stop offset="0.47" stop-color="#50D2FC"/>
<stop offset="1" stop-color="#00BEFC"/>
</linearGradient>
<linearGradient id="paint1_linear_1244_28457" x1="7.22368" y1="33.9332" x2="164.83" y2="97.9423" gradientUnits="userSpaceOnUse">
<stop stop-color="#C4EFFD" stop-opacity="0.5"/>
<stop offset="0.33" stop-color="#40CEFD"/>
<stop offset="0.935" stop-color="#00BEFC"/>
</linearGradient>
</defs>
</svg>
