<svg xmlns="http://www.w3.org/2000/svg" width="174" height="87" viewBox="0 0 174 87" fill="none">
  <path fill-rule="evenodd" clip-rule="evenodd" d="M7.54109 86.1967C11.7049 86.1967 15.1006 82.9331 15.7311 78.8173C16.1198 76.2805 16.6388 73.7402 17.2928 71.2044C27.5017 31.6209 66.7323 8.14925 104.917 18.779C129.689 25.6751 147.935 45.2299 154.909 68.9245C156.151 73.1435 160.257 76.0393 164.507 75.2208C168.624 74.4279 171.342 70.4402 170.246 66.3241C166.773 53.2923 160.515 41.1984 151.898 30.9601C141.656 18.79 128.456 9.68702 113.675 4.5996C98.8942 -0.487811 83.0723 -1.37353 67.858 2.03474C52.6437 5.443 38.5936 13.0205 27.1715 23.9779C15.7495 34.9352 7.37341 48.8715 2.91597 64.3346C1.61802 68.8373 0.666164 73.4214 0.0613573 78.0448C-0.517533 82.4701 3.07811 86.1967 7.54109 86.1967Z" fill="#FAFAFA"/>
  <mask id="path-2-outside-1_943_27519" maskUnits="userSpaceOnUse" x="150.411" y="47.8483" width="24" height="40" fill="black">
    <rect fill="white" x="150.411" y="47.8483" width="24" height="40"/>
    <path fill-rule="evenodd" clip-rule="evenodd" d="M152.167 60.7511C150.481 56.7984 151.657 52.1125 155.273 49.9433C159.07 47.6657 164.067 49.0375 165.896 53.1622C169.402 61.0697 171.781 69.4386 172.98 78.0041C173.6 82.4375 170.006 86.1967 165.53 86.1967C161.393 86.1967 158.015 82.9651 157.372 78.879C156.382 72.5937 154.621 66.5041 152.167 60.7511Z"/>
  </mask>
  <path fill-rule="evenodd" clip-rule="evenodd" d="M152.167 60.7511C150.481 56.7984 151.657 52.1125 155.273 49.9433C159.07 47.6657 164.067 49.0375 165.896 53.1622C169.402 61.0697 171.781 69.4386 172.98 78.0041C173.6 82.4375 170.006 86.1967 165.53 86.1967C161.393 86.1967 158.015 82.9651 157.372 78.879C156.382 72.5937 154.621 66.5041 152.167 60.7511Z" fill="url(#paint0_linear_943_27519)"/>
  <path d="M155.273 49.9433L154.918 49.3506V49.3506L155.273 49.9433ZM152.167 60.7511L151.532 61.0222L152.167 60.7511ZM165.896 53.1622L166.527 52.8821L165.896 53.1622ZM154.918 49.3506C150.96 51.7244 149.732 56.8028 151.532 61.0222L152.803 60.4799C151.231 56.794 152.353 52.5006 155.629 50.5359L154.918 49.3506ZM166.527 52.8821C164.518 48.3516 159.046 46.8744 154.918 49.3506L155.629 50.5359C159.095 48.457 163.615 49.7233 165.264 53.4424L166.527 52.8821ZM173.664 77.9083C172.457 69.2798 170.06 60.8488 166.527 52.8821L165.264 53.4424C168.744 61.2906 171.105 69.5974 172.295 78.0999L173.664 77.9083ZM151.532 61.0222C153.963 66.7232 155.708 72.7578 156.689 78.9865L158.055 78.7716C157.056 72.4296 155.279 66.2851 152.803 60.4799L151.532 61.0222ZM165.53 85.5056C161.773 85.5056 158.651 82.5624 158.055 78.7716L156.689 78.9865C157.379 83.3678 161.014 86.8878 165.53 86.8878V85.5056ZM172.295 78.0999C172.852 82.0763 169.629 85.5056 165.53 85.5056V86.8878C170.383 86.8878 174.349 82.7987 173.664 77.9083L172.295 78.0999Z" fill="url(#paint1_linear_943_27519)" mask="url(#path-2-outside-1_943_27519)"/>
  <defs>
    <linearGradient id="paint0_linear_943_27519" x1="149.823" y1="59.3129" x2="173.831" y2="61.8514" gradientUnits="userSpaceOnUse">
      <stop stop-color="#F4FCFF"/>
      <stop offset="0.205" stop-color="#C4EFFD"/>
      <stop offset="0.47" stop-color="#50D2FC"/>
      <stop offset="1" stop-color="#00BEFC"/>
    </linearGradient>
    <linearGradient id="paint1_linear_943_27519" x1="151.413" y1="63.3803" x2="174.952" y2="66.1508" gradientUnits="userSpaceOnUse">
      <stop stop-color="#C4EFFD" stop-opacity="0.5"/>
      <stop offset="0.33" stop-color="#40CEFD"/>
      <stop offset="0.935" stop-color="#00BEFC"/>
    </linearGradient>
  </defs>
</svg>