<svg xmlns="http://www.w3.org/2000/svg" width="174" height="88" viewBox="0 0 174 88" fill="none">
  <path fill-rule="evenodd" clip-rule="evenodd" d="M7.54108 87.1967C11.7049 87.1967 15.1006 83.9331 15.7311 79.8173C16.1197 77.2805 16.6388 74.7402 17.2928 72.2044C27.5017 32.6209 66.7323 9.14926 104.917 19.779C132.487 27.4539 151.973 50.8081 156.834 78.0982C157.599 82.3921 161.335 85.7044 165.627 85.3855C169.811 85.0746 172.958 81.4266 172.315 77.2246C170.207 63.4482 165.044 50.3252 157.191 38.9086C147.905 25.4085 135.217 14.8156 120.518 8.2907C105.819 1.76579 89.6762 -0.439272 73.8581 1.91718C58.0401 4.27364 43.1576 11.1007 30.8419 21.65C18.5261 32.1994 9.25236 46.064 4.03694 61.7243C2.15615 67.3718 0.829315 73.1741 0.0613517 79.0448C-0.517534 83.4701 3.0781 87.1967 7.54108 87.1967Z" fill="#FAFAFA"/>
  <mask id="path-2-outside-1_943_27483" maskUnits="userSpaceOnUse" x="5.91833" y="0.532227" width="168" height="87" fill="black">
    <rect fill="white" x="5.91833" y="0.532227" width="168" height="87"/>
    <path fill-rule="evenodd" clip-rule="evenodd" d="M7.33639 54.9314C14.49 38.3927 26.2905 24.4085 41.267 14.8717C58.3486 3.99431 78.5173 -0.432625 98.374 2.33695C118.231 5.10653 136.562 14.9033 150.277 30.0761C162.292 43.3677 170.121 60.073 172.829 77.969C173.471 82.2076 170.292 85.8814 166.072 86.1919C161.721 86.512 157.942 83.1368 157.191 78.78C152.449 51.2745 132.916 27.7056 105.217 19.9948C71.2111 10.5282 36.361 28.1555 21.9009 60.14C20.1485 64.016 15.809 66.1398 11.7939 64.6755C7.81467 63.2242 5.66231 58.8018 7.33639 54.9314Z"/>
  </mask>
  <path fill-rule="evenodd" clip-rule="evenodd" d="M7.33639 54.9314C14.49 38.3927 26.2905 24.4085 41.267 14.8717C58.3486 3.99431 78.5173 -0.432625 98.374 2.33695C118.231 5.10653 136.562 14.9033 150.277 30.0761C162.292 43.3677 170.121 60.073 172.829 77.969C173.471 82.2076 170.292 85.8814 166.072 86.1919C161.721 86.512 157.942 83.1368 157.191 78.78C152.449 51.2745 132.916 27.7056 105.217 19.9948C71.2111 10.5282 36.361 28.1555 21.9009 60.14C20.1485 64.016 15.809 66.1398 11.7939 64.6755C7.81467 63.2242 5.66231 58.8018 7.33639 54.9314Z" fill="url(#paint0_linear_943_27483)"/>
  <path d="M41.267 14.8717L41.6382 15.4546L41.267 14.8717ZM7.33639 54.9314L6.70211 54.6571L7.33639 54.9314ZM98.374 2.33695L98.4695 1.65251V1.65251L98.374 2.33695ZM150.277 30.0761L149.764 30.5396V30.5396L150.277 30.0761ZM172.829 77.969L173.512 77.8656V77.8656L172.829 77.969ZM166.072 86.1919L166.021 85.5027L166.072 86.1919ZM157.191 78.78L157.872 78.6626L157.191 78.78ZM105.217 19.9948L105.032 20.6606L105.217 19.9948ZM21.9009 60.14L21.2712 59.8553H21.2712L21.9009 60.14ZM11.7939 64.6755L11.5571 65.3247H11.5571L11.7939 64.6755ZM40.8958 14.2888C25.7997 23.9018 13.9091 37.9948 6.70211 54.6571L7.97067 55.2058C15.0708 38.7906 26.7813 24.9153 41.6382 15.4546L40.8958 14.2888ZM98.4695 1.65251C78.4483 -1.14001 58.1144 3.32414 40.8958 14.2888L41.6382 15.4546C58.5827 4.66447 78.5863 0.274759 98.2786 3.0214L98.4695 1.65251ZM150.79 29.6127C136.968 14.3222 118.49 4.44499 98.4695 1.65251L98.2786 3.0214C117.971 5.76807 136.155 15.4844 149.764 30.5396L150.79 29.6127ZM173.512 77.8656C170.785 59.8383 162.897 43.0071 150.79 29.6127L149.764 30.5396C161.686 43.7284 169.458 60.3078 172.146 78.0724L173.512 77.8656ZM166.123 86.8811C170.714 86.5433 174.219 82.5316 173.512 77.8656L172.146 78.0724C172.723 81.8835 169.871 85.2195 166.021 85.5027L166.123 86.8811ZM156.51 78.8974C157.312 83.5516 161.366 87.231 166.123 86.8811L166.021 85.5027C162.076 85.7929 158.571 82.722 157.872 78.6626L156.51 78.8974ZM105.032 20.6606C132.453 28.294 151.809 51.6333 156.51 78.8974L157.872 78.6626C153.088 50.9157 133.379 27.1173 105.403 19.3291L105.032 20.6606ZM22.5306 60.4247C36.8591 28.7314 71.3744 11.291 105.032 20.6606L105.403 19.3291C71.0478 9.76542 35.863 27.5795 21.2712 59.8553L22.5306 60.4247ZM11.5571 65.3247C15.951 66.9272 20.647 64.5909 22.5306 60.4247L21.2712 59.8553C19.65 63.4411 15.667 65.3524 12.0307 64.0262L11.5571 65.3247ZM6.70211 54.6571C4.85437 58.9289 7.24295 63.7513 11.5571 65.3247L12.0307 64.0262C8.38639 62.6972 6.47025 58.6746 7.97067 55.2058L6.70211 54.6571Z" fill="url(#paint1_linear_943_27483)" mask="url(#path-2-outside-1_943_27483)"/>
  <defs>
    <linearGradient id="paint0_linear_943_27483" x1="15.119" y1="25.5344" x2="165.417" y2="72.6462" gradientUnits="userSpaceOnUse">
      <stop stop-color="#F4FCFF"/>
      <stop offset="0.205" stop-color="#C4EFFD"/>
      <stop offset="0.47" stop-color="#50D2FC"/>
      <stop offset="1" stop-color="#00BEFC"/>
    </linearGradient>
    <linearGradient id="paint1_linear_943_27483" x1="25.9315" y1="34.8637" x2="170.588" y2="85.337" gradientUnits="userSpaceOnUse">
      <stop stop-color="#C4EFFD" stop-opacity="0.5"/>
      <stop offset="0.33" stop-color="#40CEFD"/>
      <stop offset="0.935" stop-color="#00BEFC"/>
    </linearGradient>
  </defs>
</svg>