<svg xmlns="http://www.w3.org/2000/svg" width="174" height="87" viewBox="0 0 174 87" fill="none">
  <path fill-rule="evenodd" clip-rule="evenodd" d="M7.54109 86.1967C11.7049 86.1967 15.1006 82.9331 15.7311 78.8173C16.1198 76.2805 16.6388 73.7402 17.2928 71.2044C27.5017 31.6209 66.7323 8.14926 104.917 18.779C130.853 25.9993 149.636 47.096 155.817 72.2919C156.862 76.5485 160.819 79.6222 165.094 79.0109C169.245 78.4171 172.145 74.5655 171.236 70.4083C168.315 57.0485 162.493 44.5146 154.176 33.7802C144.311 21.0492 131.306 11.3258 116.543 5.64471C101.781 -0.0363952 85.8134 -1.46265 70.3404 1.51773C54.8675 4.49812 40.4678 11.7736 28.6739 22.57C16.8799 33.3664 8.13293 47.2797 3.36371 62.8294C1.83541 67.8123 0.733912 72.9035 0.0613566 78.0448C-0.51753 82.4701 3.07811 86.1967 7.54109 86.1967Z" fill="#FAFAFA"/>
  <mask id="path-2-outside-1_943_27357" maskUnits="userSpaceOnUse" x="106.083" y="4.64136" width="68" height="83" fill="black">
    <rect fill="white" x="106.083" y="4.64136" width="68" height="83"/>
    <path fill-rule="evenodd" clip-rule="evenodd" d="M165.53 86.1966C170.006 86.1966 173.6 82.4372 172.98 78.0039C170.769 62.2056 164.564 47.2332 154.922 34.6538C144.967 21.6664 131.8 11.817 116.9 6.11312C112.782 4.53697 108.437 7.07027 107.338 11.3317C106.241 15.5871 108.804 19.9509 112.883 21.6109C136.84 31.3593 153.379 53.5256 157.372 78.878C158.015 82.964 161.393 86.1966 165.53 86.1966Z"/>
  </mask>
  <path fill-rule="evenodd" clip-rule="evenodd" d="M165.53 86.1966C170.006 86.1966 173.6 82.4372 172.98 78.0039C170.769 62.2056 164.564 47.2332 154.922 34.6538C144.967 21.6664 131.8 11.817 116.9 6.11312C112.782 4.53697 108.437 7.07027 107.338 11.3317C106.241 15.5871 108.804 19.9509 112.883 21.6109C136.84 31.3593 153.379 53.5256 157.372 78.878C158.015 82.964 161.393 86.1966 165.53 86.1966Z" fill="url(#paint0_linear_943_27357)"/>
  <path d="M154.922 34.6538L155.47 34.2334L154.922 34.6538ZM116.9 6.11312L116.653 6.75852H116.653L116.9 6.11312ZM107.338 11.3317L106.669 11.1591L107.338 11.3317ZM112.883 21.6109L113.144 20.9708L112.883 21.6109ZM157.372 78.878L156.689 78.9855L157.372 78.878ZM173.664 77.9081C171.437 61.9939 165.186 46.9092 155.47 34.2334L154.373 35.0742C163.941 47.5573 170.101 62.4174 172.295 78.0997L173.664 77.9081ZM155.47 34.2334C145.439 21.1463 132.168 11.218 117.147 5.46772L116.653 6.75852C131.432 12.4159 144.495 22.1865 154.373 35.0742L155.47 34.2334ZM117.147 5.46772C112.603 3.72842 107.86 6.54181 106.669 11.1591L108.007 11.5043C109.014 7.59874 112.962 5.34553 116.653 6.75852L117.147 5.46772ZM106.669 11.1591C105.473 15.7956 108.269 20.4793 112.623 22.251L113.144 20.9708C109.339 19.4224 107.008 15.3787 108.007 11.5043L106.669 11.1591ZM112.623 22.251C136.34 31.9022 152.732 53.8563 156.689 78.9855L158.054 78.7705C154.027 53.1949 137.339 30.8165 113.144 20.9708L112.623 22.251ZM156.689 78.9855C157.379 83.3666 161.013 86.8877 165.53 86.8877V85.5056C161.773 85.5056 158.651 82.5614 158.054 78.7705L156.689 78.9855ZM172.295 78.0997C172.852 82.0761 169.629 85.5056 165.53 85.5056V86.8877C170.383 86.8877 174.349 82.7984 173.664 77.9081L172.295 78.0997Z" fill="url(#paint1_linear_943_27357)" mask="url(#path-2-outside-1_943_27357)"/>
  <defs>
    <linearGradient id="paint0_linear_943_27357" x1="102.242" y1="28.212" x2="174.632" y2="39.0308" gradientUnits="userSpaceOnUse">
      <stop stop-color="#F4FCFF"/>
      <stop offset="0.205" stop-color="#C4EFFD"/>
      <stop offset="0.47" stop-color="#50D2FC"/>
      <stop offset="1" stop-color="#00BEFC"/>
    </linearGradient>
    <linearGradient id="paint1_linear_943_27357" x1="107.089" y1="36.9849" x2="177.883" y2="48.7621" gradientUnits="userSpaceOnUse">
      <stop stop-color="#C4EFFD" stop-opacity="0.5"/>
      <stop offset="0.33" stop-color="#40CEFD"/>
      <stop offset="0.935" stop-color="#00BEFC"/>
    </linearGradient>
  </defs>
</svg>