<svg width="171" height="87" viewBox="0 0 171 87" fill="none" xmlns="http://www.w3.org/2000/svg">
<path fill-rule="evenodd" clip-rule="evenodd" d="M7.54109 86.1967C11.7049 86.1967 15.1006 82.9331 15.7311 78.8173C16.1198 76.2805 16.6388 73.7401 17.2928 71.2044C27.5018 31.6209 66.7323 8.14925 104.917 18.779C129.689 25.6751 147.935 45.2299 154.909 68.9245C156.151 73.1435 160.257 76.0393 164.507 75.2208C168.624 74.4279 171.342 70.4402 170.246 66.3241C166.773 53.2923 160.515 41.1984 151.898 30.9601C141.656 18.79 128.456 9.68702 113.675 4.5996C98.8942 -0.487811 83.0723 -1.37353 67.858 2.03474C52.6437 5.44301 38.5936 13.0205 27.1715 23.9779C15.7495 34.9352 7.37342 48.8714 2.91598 64.3346C1.61803 68.8373 0.666165 73.4214 0.0613575 78.0448C-0.517534 82.4701 3.07811 86.1967 7.54109 86.1967Z" fill="#FAFAFA"/>
</svg>
