<svg width="130" height="20" viewBox="0 0 130 20" fill="none" xmlns="http://www.w3.org/2000/svg">
<mask id="mask0_756_30543" style="mask-type:alpha" maskUnits="userSpaceOnUse" x="19" y="0" width="21" height="20">
<rect x="19.7832" width="19.7826" height="20" fill="#D9D9D9"/>
</mask>
<g mask="url(#mask0_756_30543)">
<ellipse cx="24.0224" cy="9.2849" rx="0.706522" ry="0.714286" fill="#00BEFC"/>
<ellipse cx="28.6147" cy="9.2849" rx="0.706522" ry="0.714286" fill="#00BEFC"/>
<ellipse cx="33.2075" cy="9.2849" rx="0.706522" ry="0.714286" fill="#00BEFC"/>
</g>
<mask id="mask1_756_30543" style="mask-type:alpha" maskUnits="userSpaceOnUse" x="56" y="0" width="21" height="20">
<rect x="56.5234" width="19.7826" height="20" fill="#D9D9D9"/>
</mask>
<g mask="url(#mask1_756_30543)">
<ellipse cx="60.7627" cy="9.2849" rx="0.706522" ry="0.714286" fill="#00BEFC"/>
<ellipse cx="65.355" cy="9.2849" rx="0.706522" ry="0.714286" fill="#00BEFC"/>
<ellipse cx="69.9477" cy="9.2849" rx="0.706522" ry="0.714286" fill="#00BEFC"/>
</g>
<ellipse cx="46.6296" cy="10" rx="9.8913" ry="10" fill="#00BEFC"/>
<mask id="mask2_756_30543" style="mask-type:alpha" maskUnits="userSpaceOnUse" x="38" y="1" width="18" height="18">
<rect x="38.1514" y="1.42944" width="16.9565" height="17.1429" fill="#D9D9D9"/>
</mask>
<g mask="url(#mask2_756_30543)">
<path d="M44.8987 12.2508L50.8865 6.19726C51.0278 6.0544 51.1926 5.98297 51.381 5.98297C51.5694 5.98297 51.7343 6.0544 51.8756 6.19726C52.0169 6.34011 52.0875 6.50976 52.0875 6.70619C52.0875 6.90261 52.0169 7.07226 51.8756 7.21511L45.3932 13.7865C45.2519 13.9294 45.0871 14.0008 44.8987 14.0008C44.7103 14.0008 44.5454 13.9294 44.4041 13.7865L41.3661 10.7151C41.2248 10.5723 41.1571 10.4026 41.163 10.2062C41.1688 10.0098 41.2424 9.84011 41.3837 9.69726C41.525 9.5544 41.6928 9.48297 41.8871 9.48297C42.0814 9.48297 42.2492 9.5544 42.3905 9.69726L44.8987 12.2508Z" fill="#F7FEF6"/>
</g>
<ellipse cx="83.3698" cy="10" rx="9.8913" ry="10" fill="#00BEFC"/>
<mask id="mask3_756_30543" style="mask-type:alpha" maskUnits="userSpaceOnUse" x="74" y="1" width="18" height="18">
<rect x="74.8916" y="1.42944" width="16.9565" height="17.1429" fill="#D9D9D9"/>
</mask>
<g mask="url(#mask3_756_30543)">
<path d="M81.6389 12.2508L87.6267 6.19726C87.768 6.0544 87.9328 5.98297 88.1213 5.98297C88.3097 5.98297 88.4745 6.0544 88.6158 6.19726C88.7571 6.34011 88.8278 6.50976 88.8278 6.70619C88.8278 6.90261 88.7571 7.07226 88.6158 7.21511L82.1335 13.7865C81.9922 13.9294 81.8273 14.0008 81.6389 14.0008C81.4505 14.0008 81.2857 13.9294 81.1444 13.7865L78.1063 10.7151C77.965 10.5723 77.8973 10.4026 77.9032 10.2062C77.9091 10.0098 77.9827 9.84011 78.124 9.69726C78.2653 9.5544 78.4331 9.48297 78.6274 9.48297C78.8217 9.48297 78.9895 9.5544 79.1308 9.69726L81.6389 12.2508Z" fill="#F7FEF6"/>
</g>
<ellipse cx="9.8913" cy="10" rx="9.8913" ry="10" fill="#00BEFC"/>
<mask id="mask4_756_30543" style="mask-type:alpha" maskUnits="userSpaceOnUse" x="1" y="1" width="18" height="18">
<rect x="1.41309" y="1.42944" width="16.9565" height="17.1429" fill="#D9D9D9"/>
</mask>
<g mask="url(#mask4_756_30543)">
<path d="M8.1604 12.2508L14.1482 6.19726C14.2895 6.0544 14.4543 5.98297 14.6427 5.98297C14.8311 5.98297 14.996 6.0544 15.1373 6.19726C15.2786 6.34011 15.3493 6.50976 15.3493 6.70619C15.3493 6.90261 15.2786 7.07226 15.1373 7.21511L8.65497 13.7865C8.51366 13.9294 8.34881 14.0008 8.1604 14.0008C7.972 14.0008 7.80714 13.9294 7.66584 13.7865L4.62779 10.7151C4.48649 10.5723 4.41878 10.4026 4.42467 10.2062C4.43056 10.0098 4.50415 9.84011 4.64546 9.69726C4.78676 9.5544 4.95456 9.48297 5.14885 9.48297C5.34315 9.48297 5.51095 9.5544 5.65225 9.69726L8.1604 12.2508Z" fill="#F7FEF6"/>
</g>
</svg>
