<svg width="130" height="20" viewBox="0 0 130 20" fill="none" xmlns="http://www.w3.org/2000/svg">
<mask id="mask0_308_24948" style="mask-type:alpha" maskUnits="userSpaceOnUse" x="19" y="0" width="21" height="20">
<rect x="19.7832" width="19.7826" height="20" fill="#D9D9D9"/>
</mask>
<g mask="url(#mask0_308_24948)">
<ellipse cx="24.0229" cy="9.28509" rx="0.706522" ry="0.714286" fill="#00BEFC"/>
<ellipse cx="28.6147" cy="9.28509" rx="0.706522" ry="0.714286" fill="#00BEFC"/>
<ellipse cx="33.2085" cy="9.28509" rx="0.706522" ry="0.714286" fill="#00BEFC"/>
</g>
<mask id="mask1_308_24948" style="mask-type:alpha" maskUnits="userSpaceOnUse" x="56" y="0" width="21" height="20">
<rect x="56.5234" width="19.7826" height="20" fill="#D9D9D9"/>
</mask>
<g mask="url(#mask1_308_24948)">
<ellipse cx="60.7632" cy="9.28509" rx="0.706522" ry="0.714286" fill="#00BEFC"/>
<ellipse cx="65.355" cy="9.28509" rx="0.706522" ry="0.714286" fill="#00BEFC"/>
<ellipse cx="69.9487" cy="9.28509" rx="0.706522" ry="0.714286" fill="#00BEFC"/>
</g>
<ellipse cx="46.6296" cy="10" rx="9.8913" ry="10" fill="#00BEFC"/>
<mask id="mask2_308_24948" style="mask-type:alpha" maskUnits="userSpaceOnUse" x="38" y="1" width="18" height="18">
<rect x="38.1504" y="1.42969" width="16.9565" height="17.1429" fill="#D9D9D9"/>
</mask>
<g mask="url(#mask2_308_24948)">
<path d="M44.8982 12.2508L50.886 6.1972C51.0273 6.05434 51.1921 5.98291 51.3805 5.98291C51.5689 5.98291 51.7338 6.05434 51.8751 6.1972C52.0164 6.34005 52.0871 6.5097 52.0871 6.70612C52.0871 6.90255 52.0164 7.0722 51.8751 7.21505L45.3928 13.7865C45.2515 13.9293 45.0866 14.0008 44.8982 14.0008C44.7098 14.0008 44.5449 13.9293 44.4036 13.7865L41.3656 10.7151C41.2243 10.5722 41.1566 10.4026 41.1625 10.2061C41.1684 10.0097 41.2419 9.84005 41.3833 9.6972C41.5246 9.55434 41.6924 9.48291 41.8866 9.48291C42.0809 9.48291 42.2487 9.55434 42.39 9.6972L44.8982 12.2508Z" fill="#F7FEF6"/>
</g>
<ellipse cx="83.3698" cy="10" rx="9.8913" ry="10" fill="#00BEFC"/>
<mask id="mask3_308_24948" style="mask-type:alpha" maskUnits="userSpaceOnUse" x="74" y="1" width="18" height="18">
<rect x="74.8906" y="1.42969" width="16.9565" height="17.1429" fill="#D9D9D9"/>
</mask>
<g mask="url(#mask3_308_24948)">
<path d="M81.6384 12.2508L87.6262 6.1972C87.7675 6.05434 87.9324 5.98291 88.1208 5.98291C88.3092 5.98291 88.474 6.05434 88.6153 6.1972C88.7566 6.34005 88.8273 6.5097 88.8273 6.70612C88.8273 6.90255 88.7566 7.0722 88.6153 7.21505L82.133 13.7865C81.9917 13.9293 81.8268 14.0008 81.6384 14.0008C81.45 14.0008 81.2852 13.9293 81.1439 13.7865L78.1058 10.7151C77.9645 10.5722 77.8968 10.4026 77.9027 10.2061C77.9086 10.0097 77.9822 9.84005 78.1235 9.6972C78.2648 9.55434 78.4326 9.48291 78.6269 9.48291C78.8212 9.48291 78.989 9.55434 79.1303 9.6972L81.6384 12.2508Z" fill="#F7FEF6"/>
</g>
<ellipse cx="120.108" cy="10" rx="9.8913" ry="10" fill="#00BEFC"/>
<mask id="mask4_308_24948" style="mask-type:alpha" maskUnits="userSpaceOnUse" x="111" y="1" width="18" height="18">
<rect x="111.629" y="1.42969" width="16.9565" height="17.1429" fill="#D9D9D9"/>
</mask>
<g mask="url(#mask4_308_24948)">
<path d="M118.377 12.2508L124.364 6.1972C124.506 6.05434 124.671 5.98291 124.859 5.98291C125.047 5.98291 125.212 6.05434 125.354 6.1972C125.495 6.34005 125.566 6.5097 125.566 6.70612C125.566 6.90255 125.495 7.0722 125.354 7.21505L118.871 13.7865C118.73 13.9293 118.565 14.0008 118.377 14.0008C118.188 14.0008 118.023 13.9293 117.882 13.7865L114.844 10.7151C114.703 10.5722 114.635 10.4026 114.641 10.2061C114.647 10.0097 114.72 9.84005 114.862 9.6972C115.003 9.55434 115.171 9.48291 115.365 9.48291C115.559 9.48291 115.727 9.55434 115.869 9.6972L118.377 12.2508Z" fill="#F7FEF6"/>
</g>
<mask id="mask5_308_24948" style="mask-type:alpha" maskUnits="userSpaceOnUse" x="93" y="0" width="21" height="20">
<rect x="93.2598" width="19.7826" height="20" fill="#D9D9D9"/>
</mask>
<g mask="url(#mask5_308_24948)">
<ellipse cx="97.4995" cy="9.28509" rx="0.706522" ry="0.714286" fill="#00BEFC"/>
<ellipse cx="102.091" cy="9.28509" rx="0.706522" ry="0.714286" fill="#00BEFC"/>
<ellipse cx="106.685" cy="9.28509" rx="0.706522" ry="0.714286" fill="#00BEFC"/>
</g>
<ellipse cx="9.8913" cy="10" rx="9.8913" ry="10" fill="#00BEFC"/>
<mask id="mask6_308_24948" style="mask-type:alpha" maskUnits="userSpaceOnUse" x="1" y="1" width="18" height="18">
<rect x="1.41211" y="1.42969" width="16.9565" height="17.1429" fill="#D9D9D9"/>
</mask>
<g mask="url(#mask6_308_24948)">
<path d="M8.15991 12.2508L14.1477 6.1972C14.289 6.05434 14.4538 5.98291 14.6423 5.98291C14.8307 5.98291 14.9955 6.05434 15.1368 6.1972C15.2781 6.34005 15.3488 6.5097 15.3488 6.70612C15.3488 6.90255 15.2781 7.0722 15.1368 7.21505L8.65448 13.7865C8.51318 13.9293 8.34832 14.0008 8.15991 14.0008C7.97151 14.0008 7.80665 13.9293 7.66535 13.7865L4.62731 10.7151C4.486 10.5722 4.41829 10.4026 4.42418 10.2061C4.43007 10.0097 4.50367 9.84005 4.64497 9.6972C4.78627 9.55434 4.95407 9.48291 5.14837 9.48291C5.34266 9.48291 5.51046 9.55434 5.65176 9.6972L8.15991 12.2508Z" fill="#F7FEF6"/>
</g>
</svg>
