<svg width="130" height="20" viewBox="0 0 130 20" fill="none" xmlns="http://www.w3.org/2000/svg">
<ellipse cx="9.8913" cy="10" rx="9.8913" ry="10" fill="#00BEFC"/>
<path d="M12.4108 2.85938V17H9.46162V5.65234H9.38349L6.1413 7.68359V5.08594L9.6374 2.85938H12.4108Z" fill="#F1F1F1"/>
<mask id="mask0_308_24823" style="mask-type:alpha" maskUnits="userSpaceOnUse" x="19" y="0" width="21" height="20">
<rect x="19.7832" width="19.7826" height="20" fill="#D9D9D9"/>
</mask>
<g mask="url(#mask0_308_24823)">
<ellipse cx="24.0229" cy="9.28509" rx="0.706522" ry="0.714286" fill="#00BEFC"/>
<ellipse cx="28.6147" cy="9.28509" rx="0.706522" ry="0.714286" fill="#00BEFC"/>
<ellipse cx="33.2085" cy="9.28509" rx="0.706522" ry="0.714286" fill="#00BEFC"/>
</g>
<mask id="mask1_308_24823" style="mask-type:alpha" maskUnits="userSpaceOnUse" x="56" y="0" width="21" height="20">
<rect x="56.5234" width="19.7826" height="20" fill="#D9D9D9"/>
</mask>
<g mask="url(#mask1_308_24823)">
<ellipse cx="60.7632" cy="9.28509" rx="0.706522" ry="0.714286" fill="#00BEFC"/>
<ellipse cx="65.355" cy="9.28509" rx="0.706522" ry="0.714286" fill="#00BEFC"/>
<ellipse cx="69.9487" cy="9.28509" rx="0.706522" ry="0.714286" fill="#00BEFC"/>
</g>
<mask id="mask2_308_24823" style="mask-type:alpha" maskUnits="userSpaceOnUse" x="93" y="0" width="21" height="20">
<rect x="93.2598" width="19.7826" height="20" fill="#D9D9D9"/>
</mask>
<g mask="url(#mask2_308_24823)">
<ellipse cx="97.4995" cy="9.28509" rx="0.706522" ry="0.714286" fill="#00BEFC"/>
<ellipse cx="102.091" cy="9.28509" rx="0.706522" ry="0.714286" fill="#00BEFC"/>
<ellipse cx="106.685" cy="9.28509" rx="0.706522" ry="0.714286" fill="#00BEFC"/>
</g>
<path d="M56.3423 10C56.3423 15.4261 51.9919 19.8214 46.6296 19.8214C41.2672 19.8214 36.9169 15.4261 36.9169 10C36.9169 4.57393 41.2672 0.178571 46.6296 0.178571C51.9919 0.178571 56.3423 4.57393 56.3423 10Z" fill="#F8F8F8" stroke="#00BEFC" stroke-width="0.357143"/>
<path d="M41.6393 17L41.6198 14.8711L46.6979 10.2031C48.0261 8.93359 48.7292 8.15234 48.7292 7.03906C48.7292 5.78906 47.7722 5.00781 46.4831 5.00781C45.155 5.00781 44.2956 5.84766 44.2956 7.19531H41.5026C41.4831 4.42188 43.5339 2.66406 46.5222 2.66406C49.5495 2.66406 51.5612 4.38281 51.5612 6.84375C51.5612 8.44531 50.78 9.77344 47.8698 12.4102L45.7214 14.5V14.5781H51.7565V17H41.6393Z" fill="#00BEFC"/>
<path d="M93.0826 10C93.0826 15.4261 88.7322 19.8214 83.3698 19.8214C78.0075 19.8214 73.6571 15.4261 73.6571 10C73.6571 4.57393 78.0075 0.178571 83.3698 0.178571C88.7322 0.178571 93.0826 4.57393 93.0826 10Z" fill="#F8F8F8" stroke="#00BEFC" stroke-width="0.357143"/>
<path d="M83.3308 17.1953C80.2253 17.1953 77.9987 15.4766 77.9401 13.0156H80.9089C80.9675 14.0703 81.9831 14.7734 83.3503 14.7734C84.7565 14.7734 85.7722 13.9727 85.7526 12.8398C85.7722 11.6875 84.737 10.8672 83.0768 10.8672H81.7683V8.69922H83.0768C84.4636 8.69922 85.4401 7.9375 85.4401 6.82422C85.4401 5.75 84.6198 5.00781 83.3698 5.00781C82.1198 5.00781 81.0847 5.71094 81.0456 6.78516H78.2331C78.2722 4.34375 80.4792 2.66406 83.3698 2.66406C86.319 2.66406 88.2917 4.40234 88.2722 6.64844C88.2917 8.23047 87.1784 9.36328 85.5964 9.63672V9.75391C87.6667 10.0078 88.819 11.2773 88.7995 13.0352C88.819 15.457 86.5143 17.1953 83.3308 17.1953Z" fill="#00BEFC"/>
<path d="M129.821 10C129.821 15.4261 125.47 19.8214 120.108 19.8214C114.746 19.8214 110.395 15.4261 110.395 10C110.395 4.57393 114.746 0.178571 120.108 0.178571C125.47 0.178571 129.821 4.57393 129.821 10Z" fill="#F8F8F8" stroke="#00BEFC" stroke-width="0.357143"/>
<path d="M114.415 14.5V12.1758L120.391 2.85938H124.083V12.1367H125.88V14.5H124.083V17H121.29V14.5H114.415ZM117.383 12.1367H121.329V6.08203H121.192L117.383 12.0195V12.1367Z" fill="#00BEFC"/>
</svg>
