<svg width="130" height="20" viewBox="0 0 130 20" fill="none" xmlns="http://www.w3.org/2000/svg">
<mask id="mask0_756_30448" style="mask-type:alpha" maskUnits="userSpaceOnUse" x="19" y="0" width="21" height="20">
<rect x="19.7832" width="19.7826" height="20" fill="#D9D9D9"/>
</mask>
<g mask="url(#mask0_756_30448)">
<ellipse cx="24.022" cy="9.2857" rx="0.706522" ry="0.714286" fill="#00BEFC"/>
<ellipse cx="28.6147" cy="9.2857" rx="0.706522" ry="0.714286" fill="#00BEFC"/>
<ellipse cx="33.2065" cy="9.2857" rx="0.706522" ry="0.714286" fill="#00BEFC"/>
</g>
<mask id="mask1_756_30448" style="mask-type:alpha" maskUnits="userSpaceOnUse" x="56" y="0" width="21" height="20">
<rect x="56.5234" width="19.7826" height="20" fill="#D9D9D9"/>
</mask>
<g mask="url(#mask1_756_30448)">
<ellipse cx="60.7622" cy="9.2857" rx="0.706522" ry="0.714286" fill="#00BEFC"/>
<ellipse cx="65.355" cy="9.2857" rx="0.706522" ry="0.714286" fill="#00BEFC"/>
<ellipse cx="69.9468" cy="9.2857" rx="0.706522" ry="0.714286" fill="#00BEFC"/>
</g>
<path d="M93.0826 10C93.0826 15.4261 88.7322 19.8214 83.3698 19.8214C78.0075 19.8214 73.6571 15.4261 73.6571 10C73.6571 4.57393 78.0075 0.178571 83.3698 0.178571C88.7322 0.178571 93.0826 4.57393 93.0826 10Z" fill="#F8F8F8" stroke="#00BEFC" stroke-width="0.357143"/>
<path d="M83.3419 15.1395C81.1237 15.1395 79.5333 13.9118 79.4915 12.154H81.612C81.6539 12.9074 82.3793 13.4096 83.3559 13.4096C84.3603 13.4096 85.0858 12.8376 85.0718 12.0285C85.0858 11.2054 84.3464 10.6194 83.1606 10.6194H82.2258V9.07087H83.1606C84.1511 9.07087 84.8486 8.52679 84.8486 7.73159C84.8486 6.96429 84.2627 6.43415 83.3698 6.43415C82.477 6.43415 81.7376 6.93638 81.7097 7.70368H79.7007C79.7286 5.95982 81.3051 4.76005 83.3698 4.76005C85.4764 4.76005 86.8854 6.00167 86.8715 7.60603C86.8854 8.73605 86.0902 9.5452 84.9602 9.74051V9.82422C86.439 10.0056 87.2621 10.9124 87.2482 12.168C87.2621 13.8979 85.6159 15.1395 83.3419 15.1395Z" fill="#00BEFC"/>
<ellipse cx="9.8913" cy="10" rx="9.8913" ry="10" fill="#00BEFC"/>
<mask id="mask2_756_30448" style="mask-type:alpha" maskUnits="userSpaceOnUse" x="1" y="1" width="18" height="18">
<rect x="1.41309" y="1.42859" width="16.9565" height="17.1429" fill="#D9D9D9"/>
</mask>
<g mask="url(#mask2_756_30448)">
<path d="M8.1604 12.25L14.1482 6.19646C14.2895 6.05361 14.4543 5.98218 14.6427 5.98218C14.8311 5.98218 14.996 6.05361 15.1373 6.19646C15.2786 6.33932 15.3493 6.50896 15.3493 6.70539C15.3493 6.90182 15.2786 7.07146 15.1373 7.21432L8.65497 13.7857C8.51366 13.9286 8.34881 14 8.1604 14C7.972 14 7.80714 13.9286 7.66584 13.7857L4.62779 10.7143C4.48649 10.5715 4.41878 10.4018 4.42467 10.2054C4.43056 10.009 4.50415 9.83932 4.64546 9.69646C4.78676 9.55361 4.95456 9.48218 5.14885 9.48218C5.34315 9.48218 5.51095 9.55361 5.65225 9.69646L8.1604 12.25Z" fill="#F7FEF6"/>
</g>
<ellipse cx="46.6296" cy="10" rx="9.8913" ry="10" fill="#00BEFC"/>
<path d="M43.0651 15L43.0512 13.4794L46.6784 10.1451C47.6271 9.23828 48.1293 8.68025 48.1293 7.88505C48.1293 6.99219 47.4457 6.43415 46.525 6.43415C45.5763 6.43415 44.9625 7.03404 44.9625 7.99665H42.9675C42.9535 6.01563 44.4184 4.76005 46.5529 4.76005C48.7152 4.76005 50.1522 5.98772 50.1522 7.74554C50.1522 8.88951 49.5941 9.83817 47.5155 11.7215L45.9809 13.2143V13.2701H50.2917V15H43.0651Z" fill="#F1F1F1"/>
</svg>
