<svg width="130" height="20" viewBox="0 0 130 20" fill="none" xmlns="http://www.w3.org/2000/svg">
<mask id="mask0_308_24852" style="mask-type:alpha" maskUnits="userSpaceOnUse" x="19" y="0" width="21" height="20">
<rect x="19.7832" width="19.7826" height="20" fill="#D9D9D9"/>
</mask>
<g mask="url(#mask0_308_24852)">
<ellipse cx="24.0229" cy="9.28509" rx="0.706522" ry="0.714286" fill="#00BEFC"/>
<ellipse cx="28.6147" cy="9.28509" rx="0.706522" ry="0.714286" fill="#00BEFC"/>
<ellipse cx="33.2085" cy="9.28509" rx="0.706522" ry="0.714286" fill="#00BEFC"/>
</g>
<mask id="mask1_308_24852" style="mask-type:alpha" maskUnits="userSpaceOnUse" x="56" y="0" width="21" height="20">
<rect x="56.5234" width="19.7826" height="20" fill="#D9D9D9"/>
</mask>
<g mask="url(#mask1_308_24852)">
<ellipse cx="60.7632" cy="9.28509" rx="0.706522" ry="0.714286" fill="#00BEFC"/>
<ellipse cx="65.355" cy="9.28509" rx="0.706522" ry="0.714286" fill="#00BEFC"/>
<ellipse cx="69.9487" cy="9.28509" rx="0.706522" ry="0.714286" fill="#00BEFC"/>
</g>
<ellipse cx="46.6296" cy="10" rx="9.8913" ry="10" fill="#00BEFC"/>
<mask id="mask2_308_24852" style="mask-type:alpha" maskUnits="userSpaceOnUse" x="38" y="1" width="18" height="18">
<rect x="38.1504" y="1.42969" width="16.9565" height="17.1429" fill="#D9D9D9"/>
</mask>
<g mask="url(#mask2_308_24852)">
<path d="M44.8982 12.2508L50.886 6.1972C51.0273 6.05434 51.1921 5.98291 51.3805 5.98291C51.5689 5.98291 51.7338 6.05434 51.8751 6.1972C52.0164 6.34005 52.0871 6.5097 52.0871 6.70612C52.0871 6.90255 52.0164 7.0722 51.8751 7.21505L45.3928 13.7865C45.2515 13.9293 45.0866 14.0008 44.8982 14.0008C44.7098 14.0008 44.5449 13.9293 44.4036 13.7865L41.3656 10.7151C41.2243 10.5722 41.1566 10.4026 41.1625 10.2061C41.1684 10.0097 41.2419 9.84005 41.3833 9.6972C41.5246 9.55434 41.6924 9.48291 41.8866 9.48291C42.0809 9.48291 42.2487 9.55434 42.39 9.6972L44.8982 12.2508Z" fill="#F7FEF6"/>
</g>
<mask id="mask3_308_24852" style="mask-type:alpha" maskUnits="userSpaceOnUse" x="93" y="0" width="21" height="20">
<rect x="93.2598" width="19.7826" height="20" fill="#D9D9D9"/>
</mask>
<g mask="url(#mask3_308_24852)">
<ellipse cx="97.4995" cy="9.28509" rx="0.706522" ry="0.714286" fill="#00BEFC"/>
<ellipse cx="102.091" cy="9.28509" rx="0.706522" ry="0.714286" fill="#00BEFC"/>
<ellipse cx="106.685" cy="9.28509" rx="0.706522" ry="0.714286" fill="#00BEFC"/>
</g>
<path d="M129.821 10C129.821 15.4261 125.47 19.8214 120.108 19.8214C114.746 19.8214 110.395 15.4261 110.395 10C110.395 4.57393 114.746 0.178571 120.108 0.178571C125.47 0.178571 129.821 4.57393 129.821 10Z" fill="#F8F8F8" stroke="#00BEFC" stroke-width="0.357143"/>
<path d="M114.415 14.5V12.1758L120.391 2.85938H124.083V12.1367H125.88V14.5H124.083V17H121.29V14.5H114.415ZM117.383 12.1367H121.329V6.08203H121.192L117.383 12.0195V12.1367Z" fill="#00BEFC"/>
<ellipse cx="9.8913" cy="10" rx="9.8913" ry="10" fill="#00BEFC"/>
<mask id="mask4_308_24852" style="mask-type:alpha" maskUnits="userSpaceOnUse" x="1" y="1" width="18" height="18">
<rect x="1.41211" y="1.42969" width="16.9565" height="17.1429" fill="#D9D9D9"/>
</mask>
<g mask="url(#mask4_308_24852)">
<path d="M8.15991 12.2508L14.1477 6.1972C14.289 6.05434 14.4538 5.98291 14.6423 5.98291C14.8307 5.98291 14.9955 6.05434 15.1368 6.1972C15.2781 6.34005 15.3488 6.5097 15.3488 6.70612C15.3488 6.90255 15.2781 7.0722 15.1368 7.21505L8.65448 13.7865C8.51318 13.9293 8.34832 14.0008 8.15991 14.0008C7.97151 14.0008 7.80665 13.9293 7.66535 13.7865L4.62731 10.7151C4.486 10.5722 4.41829 10.4026 4.42418 10.2061C4.43007 10.0097 4.50367 9.84005 4.64497 9.6972C4.78627 9.55434 4.95407 9.48291 5.14837 9.48291C5.34266 9.48291 5.51046 9.55434 5.65176 9.6972L8.15991 12.2508Z" fill="#F7FEF6"/>
</g>
<ellipse cx="83.3698" cy="10" rx="9.8913" ry="10" fill="#00BEFC"/>
<path d="M83.3308 17.1953C80.2253 17.1953 77.9987 15.4766 77.9401 13.0156H80.9089C80.9675 14.0703 81.9831 14.7734 83.3503 14.7734C84.7565 14.7734 85.7722 13.9727 85.7526 12.8398C85.7722 11.6875 84.737 10.8672 83.0768 10.8672H81.7683V8.69922H83.0768C84.4636 8.69922 85.4401 7.9375 85.4401 6.82422C85.4401 5.75 84.6198 5.00781 83.3698 5.00781C82.1198 5.00781 81.0847 5.71094 81.0456 6.78516H78.2331C78.2722 4.34375 80.4792 2.66406 83.3698 2.66406C86.319 2.66406 88.2917 4.40234 88.2722 6.64844C88.2917 8.23047 87.1784 9.36328 85.5964 9.63672V9.75391C87.6667 10.0078 88.819 11.2773 88.7995 13.0352C88.819 15.457 86.5143 17.1953 83.3308 17.1953Z" fill="#F1F1F1"/>
</svg>
