<svg width="130" height="20" viewBox="0 0 130 20" fill="none" xmlns="http://www.w3.org/2000/svg">
<mask id="mask0_756_30525" style="mask-type:alpha" maskUnits="userSpaceOnUse" x="19" y="0" width="21" height="20">
<rect x="19.7832" width="19.7826" height="20" fill="#D9D9D9"/>
</mask>
<g mask="url(#mask0_756_30525)">
<ellipse cx="24.022" cy="9.2857" rx="0.706522" ry="0.714286" fill="#00BEFC"/>
<ellipse cx="28.6147" cy="9.2857" rx="0.706522" ry="0.714286" fill="#00BEFC"/>
<ellipse cx="33.2065" cy="9.2857" rx="0.706522" ry="0.714286" fill="#00BEFC"/>
</g>
<mask id="mask1_756_30525" style="mask-type:alpha" maskUnits="userSpaceOnUse" x="56" y="0" width="21" height="20">
<rect x="56.5234" width="19.7826" height="20" fill="#D9D9D9"/>
</mask>
<g mask="url(#mask1_756_30525)">
<ellipse cx="60.7622" cy="9.2857" rx="0.706522" ry="0.714286" fill="#00BEFC"/>
<ellipse cx="65.355" cy="9.2857" rx="0.706522" ry="0.714286" fill="#00BEFC"/>
<ellipse cx="69.9468" cy="9.2857" rx="0.706522" ry="0.714286" fill="#00BEFC"/>
</g>
<ellipse cx="46.6296" cy="10" rx="9.8913" ry="10" fill="#00BEFC"/>
<mask id="mask2_756_30525" style="mask-type:alpha" maskUnits="userSpaceOnUse" x="38" y="1" width="18" height="18">
<rect x="38.1514" y="1.42859" width="16.9565" height="17.1429" fill="#D9D9D9"/>
</mask>
<g mask="url(#mask2_756_30525)">
<path d="M44.8987 12.25L50.8865 6.19646C51.0278 6.05361 51.1926 5.98218 51.381 5.98218C51.5694 5.98218 51.7343 6.05361 51.8756 6.19646C52.0169 6.33932 52.0875 6.50896 52.0875 6.70539C52.0875 6.90182 52.0169 7.07146 51.8756 7.21432L45.3932 13.7857C45.2519 13.9286 45.0871 14 44.8987 14C44.7103 14 44.5454 13.9286 44.4041 13.7857L41.3661 10.7143C41.2248 10.5715 41.1571 10.4018 41.163 10.2054C41.1688 10.009 41.2424 9.83932 41.3837 9.69646C41.525 9.55361 41.6928 9.48218 41.8871 9.48218C42.0814 9.48218 42.2492 9.55361 42.3905 9.69646L44.8987 12.25Z" fill="#F7FEF6"/>
</g>
<ellipse cx="9.8913" cy="10" rx="9.8913" ry="10" fill="#00BEFC"/>
<mask id="mask3_756_30525" style="mask-type:alpha" maskUnits="userSpaceOnUse" x="1" y="1" width="18" height="18">
<rect x="1.41309" y="1.42859" width="16.9565" height="17.1429" fill="#D9D9D9"/>
</mask>
<g mask="url(#mask3_756_30525)">
<path d="M8.1604 12.25L14.1482 6.19646C14.2895 6.05361 14.4543 5.98218 14.6427 5.98218C14.8311 5.98218 14.996 6.05361 15.1373 6.19646C15.2786 6.33932 15.3493 6.50896 15.3493 6.70539C15.3493 6.90182 15.2786 7.07146 15.1373 7.21432L8.65497 13.7857C8.51366 13.9286 8.34881 14 8.1604 14C7.972 14 7.80714 13.9286 7.66584 13.7857L4.62779 10.7143C4.48649 10.5715 4.41878 10.4018 4.42467 10.2054C4.43056 10.009 4.50415 9.83932 4.64546 9.69646C4.78676 9.55361 4.95456 9.48218 5.14885 9.48218C5.34315 9.48218 5.51095 9.55361 5.65225 9.69646L8.1604 12.25Z" fill="#F7FEF6"/>
</g>
<ellipse cx="83.3698" cy="10" rx="9.8913" ry="10" fill="#00BEFC"/>
<path d="M83.3419 15.1395C81.1237 15.1395 79.5333 13.9118 79.4915 12.154H81.612C81.6539 12.9074 82.3793 13.4096 83.3559 13.4096C84.3603 13.4096 85.0858 12.8376 85.0718 12.0285C85.0858 11.2054 84.3464 10.6194 83.1606 10.6194H82.2258V9.07087H83.1606C84.1511 9.07087 84.8486 8.52679 84.8486 7.73159C84.8486 6.96429 84.2627 6.43415 83.3698 6.43415C82.477 6.43415 81.7376 6.93638 81.7097 7.70368H79.7007C79.7286 5.95982 81.3051 4.76005 83.3698 4.76005C85.4764 4.76005 86.8854 6.00167 86.8715 7.60603C86.8854 8.73605 86.0902 9.5452 84.9602 9.74051V9.82422C86.439 10.0056 87.2621 10.9124 87.2482 12.168C87.2621 13.8979 85.6159 15.1395 83.3419 15.1395Z" fill="#F1F1F1"/>
</svg>
