<svg xmlns="http://www.w3.org/2000/svg" width="92" height="92" viewBox="0 0 92 92" fill="none">
  <path d="M60.7832 75.5077C54.6264 78.6269 47.6598 79.7792 40.8265 78.8086C33.9932 77.838 27.6232 74.7914 22.5788 70.0811C17.5345 65.3708 14.0593 59.2244 12.6238 52.4738C11.1883 45.7232 11.8618 38.6945 14.5531 32.3392C17.2443 25.9839 21.8234 20.6088 27.6705 16.9416C33.5176 13.2744 40.3502 11.4922 47.2435 11.8362C54.1369 12.1802 60.758 14.6338 66.2105 18.865C71.6631 23.0961 75.6839 28.9003 77.7285 35.492" stroke="#DEDEDE" stroke-width="11" stroke-linecap="round"/>
  <path d="M24.1012 20.4176C29.345 15.9298 35.8409 13.1615 42.7098 12.4873C49.5787 11.8131 56.4887 13.2656 62.5046 16.6483C68.5204 20.0309 73.3515 25.1803 76.3438 31.3993C79.3362 37.6184 80.3453 44.6068 79.2346 51.4185C78.1239 58.2302 74.947 64.5363 70.134 69.4832C65.3209 74.43 59.1042 77.7786 52.3253 79.0758C45.5463 80.373 38.5327 79.5561 32.2336 76.7356C25.9346 73.9151 20.6544 69.2274 17.1078 63.3068" stroke="#00BEFC" stroke-width="12" stroke-linecap="round"/>
</svg>