<svg xmlns="http://www.w3.org/2000/svg" width="21" height="21" viewBox="0 0 21 21" fill="none">
  <path d="M9.24987 10.773H4.66653M4.59599 11.0159L2.65022 16.8281C2.49736 17.2847 2.42093 17.513 2.47578 17.6536C2.52341 17.7757 2.62571 17.8683 2.75195 17.9035C2.89731 17.9441 3.11687 17.8453 3.55598 17.6477L17.4822 11.3809C17.9108 11.188 18.1251 11.0916 18.1913 10.9576C18.2489 10.8412 18.2489 10.7047 18.1913 10.5883C18.1251 10.4543 17.9108 10.3579 17.4822 10.165L3.55112 3.89606C3.11334 3.69906 2.89444 3.60056 2.74922 3.64096C2.62311 3.67605 2.52082 3.76838 2.47302 3.89025C2.41798 4.03057 2.4936 4.25839 2.64482 4.71402L4.59653 10.5942C4.6225 10.6725 4.63549 10.7116 4.64062 10.7516C4.64517 10.7871 4.64512 10.8231 4.64048 10.8586C4.63525 10.8986 4.62216 10.9377 4.59599 11.0159Z" stroke="#616161" stroke-width="1.5" stroke-linecap="round" stroke-linejoin="round"/>
</svg>