<svg width="125" height="125" viewBox="0 0 125 125" fill="none" xmlns="http://www.w3.org/2000/svg">
<g filter="url(#filter0_d_287_31373)">
<path d="M87.6372 25.564C107.801 39.6826 112.701 67.4737 98.5824 87.6372C84.4638 107.801 56.6727 112.701 36.5092 98.5824C16.3457 84.4638 11.4454 56.6726 25.564 36.5092C39.6826 16.3457 67.4738 11.4454 87.6372 25.564Z" fill="#EBFCFF"/>
</g>
<g filter="url(#filter1_d_287_31373)">
<path d="M98.4492 42.1225C111.674 60.7347 104.814 58.7758 100.406 83.2656C86.2876 103.429 55.9185 111.588 35.755 97.4697C21.2892 78.2351 14.2044 73.4695 21.5511 49.9591C35.6697 29.7956 73.1103 82.4554 98.4492 42.1225Z" fill="#CEF7FF"/>
</g>
<g filter="url(#filter2_ii_287_31373)">
<path d="M56.2249 33.9417C59.913 30.762 65.3733 30.762 69.0614 33.9417C70.8801 35.5097 73.21 36.3577 75.6111 36.3256C80.4802 36.2604 84.663 39.7702 85.4444 44.5767C85.8297 46.9469 87.0694 49.0941 88.9294 50.6129C92.7013 53.6928 93.6494 59.0702 91.1585 63.2544C89.9301 65.3178 89.4995 67.7595 89.9481 70.1186C90.8578 74.9024 88.1276 79.6311 83.5299 81.2353C81.2626 82.0263 79.3633 83.62 78.1905 85.7155C75.8124 89.9649 70.6814 91.8324 66.1282 90.1059C63.8828 89.2544 61.4035 89.2544 59.1581 90.1059C54.6049 91.8324 49.4739 89.9649 47.0958 85.7155C45.923 83.62 44.0237 82.0263 41.7564 81.2353C37.1587 79.6311 34.4285 74.9024 35.3382 70.1186C35.7868 67.7595 35.3562 65.3178 34.1278 63.2544C31.6369 59.0702 32.585 53.6928 36.3569 50.6129C38.2169 49.0941 39.4566 46.9469 39.8419 44.5767C40.6233 39.7702 44.8061 36.2604 49.6752 36.3256C52.0763 36.3577 54.4062 35.5097 56.2249 33.9417Z" fill="#DEDEDE"/>
</g>
<g filter="url(#filter3_ii_287_31373)">
<ellipse cx="56.411" cy="58.0783" rx="1.66785" ry="3.3357" fill="#2B2B2B"/>
</g>
<g filter="url(#filter4_ii_287_31373)">
<ellipse cx="68.0858" cy="58.0783" rx="1.66785" ry="3.3357" fill="#2B2B2B"/>
</g>
<path fill-rule="evenodd" clip-rule="evenodd" d="M95.9958 85.826C109.114 67.0911 104.561 41.2689 85.8261 28.1506C67.0911 15.0322 41.269 19.5854 28.1506 38.3203C15.0323 57.0553 19.5854 82.8774 38.3204 95.9958C57.0553 109.114 82.8775 104.561 95.9958 85.826ZM98.5824 87.6372C112.701 67.4737 107.801 39.6826 87.6372 25.564C67.4738 11.4454 39.6826 16.3457 25.564 36.5092C11.4454 56.6726 16.3457 84.4638 36.5092 98.5824C56.6727 112.701 84.4638 107.801 98.5824 87.6372Z" fill="url(#paint0_linear_287_31373)"/>
<g filter="url(#filter5_ii_287_31373)">
<circle cx="83.2653" cy="84.2449" r="5.87755" fill="white"/>
</g>
<g filter="url(#filter6_f_287_31373)">
<circle cx="79.1019" cy="86.9388" r="0.734694" fill="white"/>
</g>
<g filter="url(#filter7_f_287_31373)">
<path d="M87.7969 87.1723C86.9405 88.1405 85.5098 88.7364 85.2752 88.6011C85.0407 88.4657 86.6941 87.6735 87.1839 86.2041C87.6737 84.7347 87.5624 82.4446 87.7969 82.58C88.0314 82.7154 88.6533 86.2041 87.7969 87.1723Z" fill="white"/>
</g>
<g filter="url(#filter8_f_287_31373)">
<path d="M78.8957 87.0991C79.3655 88.0211 80.904 88.8796 81.1015 88.7789C81.299 88.6783 80.0266 87.6423 79.541 86.9737C79.0555 86.305 78.6735 84.4086 78.476 84.5092C78.2785 84.6098 78.4259 86.1771 78.8957 87.0991Z" fill="white"/>
</g>
<g filter="url(#filter9_f_287_31373)">
<ellipse cx="86.2042" cy="80.3266" rx="0.979592" ry="0.979592" fill="white"/>
</g>
<g filter="url(#filter10_ii_287_31373)">
<ellipse cx="34.5411" cy="66.1225" rx="4.17388" ry="4.40816" fill="white"/>
</g>
<g filter="url(#filter11_f_287_31373)">
<ellipse cx="31.5842" cy="68.1429" rx="0.521735" ry="0.551021" fill="white"/>
</g>
<g filter="url(#filter12_f_287_31373)">
<path d="M37.759 68.318C37.1508 69.0441 36.1348 69.4911 35.9682 69.3895C35.8017 69.288 36.9758 68.6939 37.3237 67.5918C37.6715 66.4898 37.5924 64.7722 37.7589 64.8738C37.9255 64.9753 38.3671 67.5918 37.759 68.318Z" fill="white"/>
</g>
<g filter="url(#filter13_f_287_31373)">
<path d="M31.438 68.2631C31.7716 68.9546 32.8641 69.5984 33.0044 69.523C33.1446 69.4475 32.241 68.6705 31.8962 68.169C31.5514 67.6675 31.2801 66.2452 31.1399 66.3206C30.9997 66.3961 31.1043 67.5716 31.438 68.2631Z" fill="white"/>
</g>
<g filter="url(#filter14_f_287_31373)">
<ellipse cx="36.6283" cy="63.1837" rx="0.695647" ry="0.734694" fill="white"/>
</g>
<g filter="url(#filter15_ii_287_31373)">
<ellipse cx="79.6546" cy="37.7143" rx="3.24635" ry="3.42857" fill="white"/>
</g>
<g filter="url(#filter16_f_287_31373)">
<ellipse cx="77.355" cy="39.2857" rx="0.405794" ry="0.428571" fill="white"/>
</g>
<g filter="url(#filter17_f_287_31373)">
<path d="M82.157 39.4219C81.684 39.9867 80.8938 40.3343 80.7642 40.2553C80.6347 40.1763 81.5479 39.7143 81.8185 38.8571C82.089 38 82.0275 36.6641 82.157 36.7431C82.2865 36.822 82.6301 38.8571 82.157 39.4219Z" fill="white"/>
</g>
<g filter="url(#filter18_f_287_31373)">
<path d="M77.241 39.3792C77.5005 39.917 78.3503 40.4178 78.4594 40.3591C78.5684 40.3004 77.8656 39.6961 77.5975 39.306C77.3293 38.916 77.1183 37.8097 77.0092 37.8684C76.9001 37.9271 76.9816 38.8414 77.241 39.3792Z" fill="white"/>
</g>
<g filter="url(#filter19_f_287_31373)">
<ellipse cx="81.2774" cy="35.4285" rx="0.541059" ry="0.571429" fill="white"/>
</g>
<defs>
<filter id="filter0_d_287_31373" x="13.5" y="17.4999" width="97.1465" height="97.1466" filterUnits="userSpaceOnUse" color-interpolation-filters="sRGB">
<feFlood flood-opacity="0" result="BackgroundImageFix"/>
<feColorMatrix in="SourceAlpha" type="matrix" values="0 0 0 0 0 0 0 0 0 0 0 0 0 0 0 0 0 0 127 0" result="hardAlpha"/>
<feOffset dy="4"/>
<feGaussianBlur stdDeviation="2"/>
<feComposite in2="hardAlpha" operator="out"/>
<feColorMatrix type="matrix" values="0 0 0 0 0 0 0 0 0 0 0 0 0 0 0 0 0 0 0.25 0"/>
<feBlend mode="normal" in2="BackgroundImageFix" result="effect1_dropShadow_287_31373"/>
<feBlend mode="normal" in="SourceGraphic" in2="effect1_dropShadow_287_31373" result="shape"/>
</filter>
<filter id="filter1_d_287_31373" x="14.6172" y="42.1225" width="95.5439" height="70.427" filterUnits="userSpaceOnUse" color-interpolation-filters="sRGB">
<feFlood flood-opacity="0" result="BackgroundImageFix"/>
<feColorMatrix in="SourceAlpha" type="matrix" values="0 0 0 0 0 0 0 0 0 0 0 0 0 0 0 0 0 0 127 0" result="hardAlpha"/>
<feOffset dy="4"/>
<feGaussianBlur stdDeviation="2"/>
<feComposite in2="hardAlpha" operator="out"/>
<feColorMatrix type="matrix" values="0 0 0 0 0 0 0 0 0 0 0 0 0 0 0 0 0 0 0.25 0"/>
<feBlend mode="normal" in2="BackgroundImageFix" result="effect1_dropShadow_287_31373"/>
<feBlend mode="normal" in="SourceGraphic" in2="effect1_dropShadow_287_31373" result="shape"/>
</filter>
<filter id="filter2_ii_287_31373" x="32.7441" y="27.5569" width="59.7979" height="67.189" filterUnits="userSpaceOnUse" color-interpolation-filters="sRGB">
<feFlood flood-opacity="0" result="BackgroundImageFix"/>
<feBlend mode="normal" in="SourceGraphic" in2="BackgroundImageFix" result="shape"/>
<feColorMatrix in="SourceAlpha" type="matrix" values="0 0 0 0 0 0 0 0 0 0 0 0 0 0 0 0 0 0 127 0" result="hardAlpha"/>
<feOffset dy="4"/>
<feGaussianBlur stdDeviation="2"/>
<feComposite in2="hardAlpha" operator="arithmetic" k2="-1" k3="1"/>
<feColorMatrix type="matrix" values="0 0 0 0 0.67451 0 0 0 0 0.67451 0 0 0 0 0.67451 0 0 0 0.25 0"/>
<feBlend mode="normal" in2="shape" result="effect1_innerShadow_287_31373"/>
<feColorMatrix in="SourceAlpha" type="matrix" values="0 0 0 0 0 0 0 0 0 0 0 0 0 0 0 0 0 0 127 0" result="hardAlpha"/>
<feOffset dy="-6"/>
<feGaussianBlur stdDeviation="2"/>
<feComposite in2="hardAlpha" operator="arithmetic" k2="-1" k3="1"/>
<feColorMatrix type="matrix" values="0 0 0 0 0.141176 0 0 0 0 0.141176 0 0 0 0 0.141176 0 0 0 0.25 0"/>
<feBlend mode="normal" in2="effect1_innerShadow_287_31373" result="effect2_innerShadow_287_31373"/>
</filter>
<filter id="filter3_ii_287_31373" x="54.7432" y="53.8426" width="3.33594" height="7.57139" filterUnits="userSpaceOnUse" color-interpolation-filters="sRGB">
<feFlood flood-opacity="0" result="BackgroundImageFix"/>
<feBlend mode="normal" in="SourceGraphic" in2="BackgroundImageFix" result="shape"/>
<feColorMatrix in="SourceAlpha" type="matrix" values="0 0 0 0 0 0 0 0 0 0 0 0 0 0 0 0 0 0 127 0" result="hardAlpha"/>
<feOffset dy="-1"/>
<feGaussianBlur stdDeviation="0.45"/>
<feComposite in2="hardAlpha" operator="arithmetic" k2="-1" k3="1"/>
<feColorMatrix type="matrix" values="0 0 0 0 1 0 0 0 0 1 0 0 0 0 1 0 0 0 0.25 0"/>
<feBlend mode="normal" in2="shape" result="effect1_innerShadow_287_31373"/>
<feColorMatrix in="SourceAlpha" type="matrix" values="0 0 0 0 0 0 0 0 0 0 0 0 0 0 0 0 0 0 127 0" result="hardAlpha"/>
<feOffset/>
<feGaussianBlur stdDeviation="0.4"/>
<feComposite in2="hardAlpha" operator="arithmetic" k2="-1" k3="1"/>
<feColorMatrix type="matrix" values="0 0 0 0 0.958333 0 0 0 0 0.958333 0 0 0 0 0.958333 0 0 0 0.25 0"/>
<feBlend mode="normal" in2="effect1_innerShadow_287_31373" result="effect2_innerShadow_287_31373"/>
</filter>
<filter id="filter4_ii_287_31373" x="66.418" y="53.8426" width="3.33594" height="7.57139" filterUnits="userSpaceOnUse" color-interpolation-filters="sRGB">
<feFlood flood-opacity="0" result="BackgroundImageFix"/>
<feBlend mode="normal" in="SourceGraphic" in2="BackgroundImageFix" result="shape"/>
<feColorMatrix in="SourceAlpha" type="matrix" values="0 0 0 0 0 0 0 0 0 0 0 0 0 0 0 0 0 0 127 0" result="hardAlpha"/>
<feOffset dy="-1"/>
<feGaussianBlur stdDeviation="0.45"/>
<feComposite in2="hardAlpha" operator="arithmetic" k2="-1" k3="1"/>
<feColorMatrix type="matrix" values="0 0 0 0 1 0 0 0 0 1 0 0 0 0 1 0 0 0 0.25 0"/>
<feBlend mode="normal" in2="shape" result="effect1_innerShadow_287_31373"/>
<feColorMatrix in="SourceAlpha" type="matrix" values="0 0 0 0 0 0 0 0 0 0 0 0 0 0 0 0 0 0 127 0" result="hardAlpha"/>
<feOffset/>
<feGaussianBlur stdDeviation="0.4"/>
<feComposite in2="hardAlpha" operator="arithmetic" k2="-1" k3="1"/>
<feColorMatrix type="matrix" values="0 0 0 0 0.958333 0 0 0 0 0.958333 0 0 0 0 0.958333 0 0 0 0.25 0"/>
<feBlend mode="normal" in2="effect1_innerShadow_287_31373" result="effect2_innerShadow_287_31373"/>
</filter>
<filter id="filter5_ii_287_31373" x="77.3877" y="76.3674" width="12.7549" height="13.7551" filterUnits="userSpaceOnUse" color-interpolation-filters="sRGB">
<feFlood flood-opacity="0" result="BackgroundImageFix"/>
<feBlend mode="normal" in="SourceGraphic" in2="BackgroundImageFix" result="shape"/>
<feColorMatrix in="SourceAlpha" type="matrix" values="0 0 0 0 0 0 0 0 0 0 0 0 0 0 0 0 0 0 127 0" result="hardAlpha"/>
<feOffset dy="-2"/>
<feGaussianBlur stdDeviation="2"/>
<feComposite in2="hardAlpha" operator="arithmetic" k2="-1" k3="1"/>
<feColorMatrix type="matrix" values="0 0 0 0 0.534722 0 0 0 0 0.759606 0 0 0 0 1 0 0 0 0.25 0"/>
<feBlend mode="normal" in2="shape" result="effect1_innerShadow_287_31373"/>
<feColorMatrix in="SourceAlpha" type="matrix" values="0 0 0 0 0 0 0 0 0 0 0 0 0 0 0 0 0 0 127 0" result="hardAlpha"/>
<feOffset dx="1"/>
<feGaussianBlur stdDeviation="2"/>
<feComposite in2="hardAlpha" operator="arithmetic" k2="-1" k3="1"/>
<feColorMatrix type="matrix" values="0 0 0 0 0.0784314 0 0 0 0 0.815686 0 0 0 0 1 0 0 0 1 0"/>
<feBlend mode="normal" in2="effect1_innerShadow_287_31373" result="effect2_innerShadow_287_31373"/>
</filter>
<filter id="filter6_f_287_31373" x="77.6672" y="85.5041" width="2.86973" height="2.86936" filterUnits="userSpaceOnUse" color-interpolation-filters="sRGB">
<feFlood flood-opacity="0" result="BackgroundImageFix"/>
<feBlend mode="normal" in="SourceGraphic" in2="BackgroundImageFix" result="shape"/>
<feGaussianBlur stdDeviation="0.35" result="effect1_foregroundBlur_287_31373"/>
</filter>
<filter id="filter7_f_287_31373" x="84.5529" y="81.8743" width="4.38242" height="7.4459" filterUnits="userSpaceOnUse" color-interpolation-filters="sRGB">
<feFlood flood-opacity="0" result="BackgroundImageFix"/>
<feBlend mode="normal" in="SourceGraphic" in2="BackgroundImageFix" result="shape"/>
<feGaussianBlur stdDeviation="0.35" result="effect1_foregroundBlur_287_31373"/>
</filter>
<filter id="filter8_f_287_31373" x="77.6906" y="83.8053" width="4.13145" height="5.68168" filterUnits="userSpaceOnUse" color-interpolation-filters="sRGB">
<feFlood flood-opacity="0" result="BackgroundImageFix"/>
<feBlend mode="normal" in="SourceGraphic" in2="BackgroundImageFix" result="shape"/>
<feGaussianBlur stdDeviation="0.35" result="effect1_foregroundBlur_287_31373"/>
</filter>
<filter id="filter9_f_287_31373" x="84.5246" y="78.647" width="3.35898" height="3.35917" filterUnits="userSpaceOnUse" color-interpolation-filters="sRGB">
<feFlood flood-opacity="0" result="BackgroundImageFix"/>
<feBlend mode="normal" in="SourceGraphic" in2="BackgroundImageFix" result="shape"/>
<feGaussianBlur stdDeviation="0.35" result="effect1_foregroundBlur_287_31373"/>
</filter>
<filter id="filter10_ii_287_31373" x="30.3672" y="59.7143" width="9.34766" height="10.8163" filterUnits="userSpaceOnUse" color-interpolation-filters="sRGB">
<feFlood flood-opacity="0" result="BackgroundImageFix"/>
<feBlend mode="normal" in="SourceGraphic" in2="BackgroundImageFix" result="shape"/>
<feColorMatrix in="SourceAlpha" type="matrix" values="0 0 0 0 0 0 0 0 0 0 0 0 0 0 0 0 0 0 127 0" result="hardAlpha"/>
<feOffset dy="-2"/>
<feGaussianBlur stdDeviation="2"/>
<feComposite in2="hardAlpha" operator="arithmetic" k2="-1" k3="1"/>
<feColorMatrix type="matrix" values="0 0 0 0 0.534722 0 0 0 0 0.759606 0 0 0 0 1 0 0 0 0.25 0"/>
<feBlend mode="normal" in2="shape" result="effect1_innerShadow_287_31373"/>
<feColorMatrix in="SourceAlpha" type="matrix" values="0 0 0 0 0 0 0 0 0 0 0 0 0 0 0 0 0 0 127 0" result="hardAlpha"/>
<feOffset dx="1"/>
<feGaussianBlur stdDeviation="2"/>
<feComposite in2="hardAlpha" operator="arithmetic" k2="-1" k3="1"/>
<feColorMatrix type="matrix" values="0 0 0 0 0.0784314 0 0 0 0 0.815686 0 0 0 0 1 0 0 0 1 0"/>
<feBlend mode="normal" in2="effect1_innerShadow_287_31373" result="effect2_innerShadow_287_31373"/>
</filter>
<filter id="filter11_f_287_31373" x="30.3625" y="66.8919" width="2.44395" height="2.50205" filterUnits="userSpaceOnUse" color-interpolation-filters="sRGB">
<feFlood flood-opacity="0" result="BackgroundImageFix"/>
<feBlend mode="normal" in="SourceGraphic" in2="BackgroundImageFix" result="shape"/>
<feGaussianBlur stdDeviation="0.35" result="effect1_foregroundBlur_287_31373"/>
</filter>
<filter id="filter12_f_287_31373" x="35.2521" y="64.1694" width="3.51816" height="5.93442" filterUnits="userSpaceOnUse" color-interpolation-filters="sRGB">
<feFlood flood-opacity="0" result="BackgroundImageFix"/>
<feBlend mode="normal" in="SourceGraphic" in2="BackgroundImageFix" result="shape"/>
<feGaussianBlur stdDeviation="0.35" result="effect1_foregroundBlur_287_31373"/>
</filter>
<filter id="filter13_f_287_31373" x="30.3791" y="65.6177" width="3.34043" height="4.61124" filterUnits="userSpaceOnUse" color-interpolation-filters="sRGB">
<feFlood flood-opacity="0" result="BackgroundImageFix"/>
<feBlend mode="normal" in="SourceGraphic" in2="BackgroundImageFix" result="shape"/>
<feGaussianBlur stdDeviation="0.35" result="effect1_foregroundBlur_287_31373"/>
</filter>
<filter id="filter14_f_287_31373" x="35.2326" y="61.749" width="2.7916" height="2.86936" filterUnits="userSpaceOnUse" color-interpolation-filters="sRGB">
<feFlood flood-opacity="0" result="BackgroundImageFix"/>
<feBlend mode="normal" in="SourceGraphic" in2="BackgroundImageFix" result="shape"/>
<feGaussianBlur stdDeviation="0.35" result="effect1_foregroundBlur_287_31373"/>
</filter>
<filter id="filter15_ii_287_31373" x="76.4082" y="32.2857" width="7.49316" height="8.85712" filterUnits="userSpaceOnUse" color-interpolation-filters="sRGB">
<feFlood flood-opacity="0" result="BackgroundImageFix"/>
<feBlend mode="normal" in="SourceGraphic" in2="BackgroundImageFix" result="shape"/>
<feColorMatrix in="SourceAlpha" type="matrix" values="0 0 0 0 0 0 0 0 0 0 0 0 0 0 0 0 0 0 127 0" result="hardAlpha"/>
<feOffset dy="-2"/>
<feGaussianBlur stdDeviation="2"/>
<feComposite in2="hardAlpha" operator="arithmetic" k2="-1" k3="1"/>
<feColorMatrix type="matrix" values="0 0 0 0 0.534722 0 0 0 0 0.759606 0 0 0 0 1 0 0 0 0.25 0"/>
<feBlend mode="normal" in2="shape" result="effect1_innerShadow_287_31373"/>
<feColorMatrix in="SourceAlpha" type="matrix" values="0 0 0 0 0 0 0 0 0 0 0 0 0 0 0 0 0 0 127 0" result="hardAlpha"/>
<feOffset dx="1"/>
<feGaussianBlur stdDeviation="2"/>
<feComposite in2="hardAlpha" operator="arithmetic" k2="-1" k3="1"/>
<feColorMatrix type="matrix" values="0 0 0 0 0.0784314 0 0 0 0 0.815686 0 0 0 0 1 0 0 0 1 0"/>
<feBlend mode="normal" in2="effect1_innerShadow_287_31373" result="effect2_innerShadow_287_31373"/>
</filter>
<filter id="filter16_f_287_31373" x="76.2492" y="38.1571" width="2.21152" height="2.25712" filterUnits="userSpaceOnUse" color-interpolation-filters="sRGB">
<feFlood flood-opacity="0" result="BackgroundImageFix"/>
<feBlend mode="normal" in="SourceGraphic" in2="BackgroundImageFix" result="shape"/>
<feGaussianBlur stdDeviation="0.35" result="effect1_foregroundBlur_287_31373"/>
</filter>
<filter id="filter17_f_287_31373" x="80.052" y="36.0397" width="3.04746" height="4.92679" filterUnits="userSpaceOnUse" color-interpolation-filters="sRGB">
<feFlood flood-opacity="0" result="BackgroundImageFix"/>
<feBlend mode="normal" in="SourceGraphic" in2="BackgroundImageFix" result="shape"/>
<feGaussianBlur stdDeviation="0.35" result="effect1_foregroundBlur_287_31373"/>
</filter>
<filter id="filter18_f_287_31373" x="76.2619" y="37.1661" width="2.90879" height="3.89768" filterUnits="userSpaceOnUse" color-interpolation-filters="sRGB">
<feFlood flood-opacity="0" result="BackgroundImageFix"/>
<feBlend mode="normal" in="SourceGraphic" in2="BackgroundImageFix" result="shape"/>
<feGaussianBlur stdDeviation="0.35" result="effect1_foregroundBlur_287_31373"/>
</filter>
<filter id="filter19_f_287_31373" x="80.0363" y="34.1571" width="2.48203" height="2.54288" filterUnits="userSpaceOnUse" color-interpolation-filters="sRGB">
<feFlood flood-opacity="0" result="BackgroundImageFix"/>
<feBlend mode="normal" in="SourceGraphic" in2="BackgroundImageFix" result="shape"/>
<feGaussianBlur stdDeviation="0.35" result="effect1_foregroundBlur_287_31373"/>
</filter>
<linearGradient id="paint0_linear_287_31373" x1="25.564" y1="36.5092" x2="98.5824" y2="87.6372" gradientUnits="userSpaceOnUse">
<stop stop-color="#D4F8FF"/>
<stop offset="1" stop-color="#10CFFF"/>
</linearGradient>
</defs>
</svg>
