<svg width="125" height="125" viewBox="0 0 125 125" fill="none" xmlns="http://www.w3.org/2000/svg">
<g filter="url(#filter0_d_287_31368)">
<path d="M87.6372 25.564C107.801 39.6826 112.701 67.4737 98.5824 87.6372C84.4638 107.801 56.6727 112.701 36.5092 98.5824C16.3457 84.4638 11.4454 56.6726 25.564 36.5092C39.6826 16.3457 67.4738 11.4454 87.6372 25.564Z" fill="#F0FFF0"/>
</g>
<path fill-rule="evenodd" clip-rule="evenodd" d="M95.9958 85.826C109.114 67.0911 104.561 41.2689 85.8261 28.1506C67.0911 15.0322 41.269 19.5854 28.1506 38.3203C15.0323 57.0553 19.5854 82.8774 38.3204 95.9958C57.0553 109.114 82.8775 104.561 95.9958 85.826ZM98.5824 87.6372C112.701 67.4737 107.801 39.6826 87.6372 25.564C67.4738 11.4454 39.6826 16.3457 25.564 36.5092C11.4454 56.6726 16.3457 84.4638 36.5092 98.5824C56.6727 112.701 84.4638 107.801 98.5824 87.6372Z" fill="url(#paint0_linear_287_31368)"/>
<g filter="url(#filter1_i_287_31368)">
<path d="M27.0402 94.8135C27.1771 94.8838 27.3363 94.8967 27.4827 94.8496C27.5553 94.8263 27.6225 94.7889 27.6806 94.7396C27.7386 94.6903 27.7864 94.63 27.8212 94.5623C27.856 94.4945 27.8771 94.4205 27.8833 94.3446C27.8895 94.2687 27.8806 94.1923 27.8573 94.1197C27.834 94.0472 27.7966 93.98 27.7473 93.9219C27.698 93.8639 27.6377 93.8161 27.5699 93.7813L27.0402 94.8135ZM27.5699 93.7813C25.774 92.8598 25.0427 91.638 24.7345 90.2882C24.4096 88.8675 24.5488 87.3446 24.5488 85.7204H23.3887C23.3887 87.1961 23.2395 88.9563 23.6035 90.5467C23.9833 92.2081 24.9201 93.7256 27.0402 94.8135L27.5699 93.7813Z" fill="url(#paint1_linear_287_31368)"/>
<path d="M27.0402 94.8135C27.1771 94.8838 27.3363 94.8967 27.4827 94.8496C27.5553 94.8263 27.6225 94.7889 27.6806 94.7396C27.7386 94.6903 27.7864 94.63 27.8212 94.5623C27.856 94.4945 27.8771 94.4205 27.8833 94.3446C27.8895 94.2687 27.8806 94.1923 27.8573 94.1197C27.834 94.0472 27.7966 93.98 27.7473 93.9219C27.698 93.8639 27.6377 93.8161 27.5699 93.7813L27.0402 94.8135ZM27.5699 93.7813C25.774 92.8598 25.0427 91.638 24.7345 90.2882C24.4096 88.8675 24.5488 87.3446 24.5488 85.7204H23.3887C23.3887 87.1961 23.2395 88.9563 23.6035 90.5467C23.9833 92.2081 24.9201 93.7256 27.0402 94.8135L27.5699 93.7813Z" fill="url(#paint2_radial_287_31368)"/>
<path d="M27.0402 94.8135C27.1771 94.8838 27.3363 94.8967 27.4827 94.8496C27.5553 94.8263 27.6225 94.7889 27.6806 94.7396C27.7386 94.6903 27.7864 94.63 27.8212 94.5623C27.856 94.4945 27.8771 94.4205 27.8833 94.3446C27.8895 94.2687 27.8806 94.1923 27.8573 94.1197C27.834 94.0472 27.7966 93.98 27.7473 93.9219C27.698 93.8639 27.6377 93.8161 27.5699 93.7813L27.0402 94.8135ZM27.5699 93.7813C25.774 92.8598 25.0427 91.638 24.7345 90.2882C24.4096 88.8675 24.5488 87.3446 24.5488 85.7204H23.3887C23.3887 87.1961 23.2395 88.9563 23.6035 90.5467C23.9833 92.2081 24.9201 93.7256 27.0402 94.8135L27.5699 93.7813Z" fill="url(#paint3_radial_287_31368)"/>
</g>
<path d="M25.3804 90.3961C23.5248 88.994 23.9338 85.6275 23.9338 83.6074C26.6274 83.6074 28.4671 83.4457 30.2074 84.5435C32.305 85.8668 30.9015 88.6764 28.8198 88.459C29.1407 90.3026 26.9343 91.5702 25.3804 90.3961Z" fill="url(#paint4_linear_287_31368)"/>
<path d="M25.3804 90.3961C23.5248 88.994 23.9338 85.6275 23.9338 83.6074C26.6274 83.6074 28.4671 83.4457 30.2074 84.5435C32.305 85.8668 30.9015 88.6764 28.8198 88.459C29.1407 90.3026 26.9343 91.5702 25.3804 90.3961Z" fill="url(#paint5_radial_287_31368)"/>
<path d="M25.3804 90.3961C23.5248 88.994 23.9338 85.6275 23.9338 83.6074C26.6274 83.6074 28.4671 83.4457 30.2074 84.5435C32.305 85.8668 30.9015 88.6764 28.8198 88.459C29.1407 90.3026 26.9343 91.5702 25.3804 90.3961Z" fill="url(#paint6_radial_287_31368)"/>
<path d="M25.3804 90.3961C23.5248 88.994 23.9338 85.6275 23.9338 83.6074C26.6274 83.6074 28.4671 83.4457 30.2074 84.5435C32.305 85.8668 30.9015 88.6764 28.8198 88.459C29.1407 90.3026 26.9343 91.5702 25.3804 90.3961Z" fill="url(#paint7_radial_287_31368)"/>
<path d="M25.3804 90.3961C23.5248 88.994 23.9338 85.6275 23.9338 83.6074C26.6274 83.6074 28.4671 83.4457 30.2074 84.5435C32.305 85.8668 30.9015 88.6764 28.8198 88.459C29.1407 90.3026 26.9343 91.5702 25.3804 90.3961Z" fill="url(#paint8_radial_287_31368)"/>
<path d="M25.3804 90.3961C23.5248 88.994 23.9338 85.6275 23.9338 83.6074C26.6274 83.6074 28.4671 83.4457 30.2074 84.5435C32.305 85.8668 30.9015 88.6764 28.8198 88.459C29.1407 90.3026 26.9343 91.5702 25.3804 90.3961Z" fill="url(#paint9_radial_287_31368)"/>
<path d="M25.3804 90.3961C23.5248 88.994 23.9338 85.6275 23.9338 83.6074C26.6274 83.6074 28.4671 83.4457 30.2074 84.5435C32.305 85.8668 30.9015 88.6764 28.8198 88.459C29.1407 90.3026 26.9343 91.5702 25.3804 90.3961Z" fill="url(#paint10_radial_287_31368)"/>
<path d="M25.3804 90.3961C23.5248 88.994 23.9338 85.6275 23.9338 83.6074C26.6274 83.6074 28.4671 83.4457 30.2074 84.5435C32.305 85.8668 30.9015 88.6764 28.8198 88.459C29.1407 90.3026 26.9343 91.5702 25.3804 90.3961Z" fill="url(#paint11_radial_287_31368)"/>
<path d="M25.3804 90.3961C23.5248 88.994 23.9338 85.6275 23.9338 83.6074C26.6274 83.6074 28.4671 83.4457 30.2074 84.5435C32.305 85.8668 30.9015 88.6764 28.8198 88.459C29.1407 90.3026 26.9343 91.5702 25.3804 90.3961Z" fill="url(#paint12_radial_287_31368)"/>
<path d="M23.9326 83.6393V83.6075C24.25 83.6071 24.5558 83.6055 24.8501 83.6029C27.0578 83.587 28.6714 83.575 30.2068 84.5436C32.2806 85.8523 30.9507 88.6367 28.8219 88.4604L23.9326 83.6393Z" fill="url(#paint13_linear_287_31368)"/>
<path d="M23.9326 83.6393V83.6075C24.25 83.6071 24.5558 83.6055 24.8501 83.6029C27.0578 83.587 28.6714 83.575 30.2068 84.5436C32.2806 85.8523 30.9507 88.6367 28.8219 88.4604L23.9326 83.6393Z" fill="url(#paint14_radial_287_31368)"/>
<g filter="url(#filter2_i_287_31368)">
<path d="M25.4102 76.895C23.7528 78.2826 23.9914 81.608 23.9914 83.628C26.6844 83.628 28.4975 83.8455 30.2378 82.7476C32.3347 81.4244 30.9313 78.6141 28.8496 78.8315C29.1704 76.9885 26.9038 75.644 25.4102 76.895Z" fill="#48D386"/>
<path d="M25.4102 76.895C23.7528 78.2826 23.9914 81.608 23.9914 83.628C26.6844 83.628 28.4975 83.8455 30.2378 82.7476C32.3347 81.4244 30.9313 78.6141 28.8496 78.8315C29.1704 76.9885 26.9038 75.644 25.4102 76.895Z" fill="url(#paint15_radial_287_31368)"/>
<path d="M25.4102 76.895C23.7528 78.2826 23.9914 81.608 23.9914 83.628C26.6844 83.628 28.4975 83.8455 30.2378 82.7476C32.3347 81.4244 30.9313 78.6141 28.8496 78.8315C29.1704 76.9885 26.9038 75.644 25.4102 76.895Z" fill="url(#paint16_radial_287_31368)"/>
<path d="M25.4102 76.895C23.7528 78.2826 23.9914 81.608 23.9914 83.628C26.6844 83.628 28.4975 83.8455 30.2378 82.7476C32.3347 81.4244 30.9313 78.6141 28.8496 78.8315C29.1704 76.9885 26.9038 75.644 25.4102 76.895Z" fill="url(#paint17_radial_287_31368)"/>
<path d="M25.4102 76.895C23.7528 78.2826 23.9914 81.608 23.9914 83.628C26.6844 83.628 28.4975 83.8455 30.2378 82.7476C32.3347 81.4244 30.9313 78.6141 28.8496 78.8315C29.1704 76.9885 26.9038 75.644 25.4102 76.895Z" fill="url(#paint18_radial_287_31368)" fill-opacity="0.25"/>
<path d="M25.4102 76.895C23.7528 78.2826 23.9914 81.608 23.9914 83.628C26.6844 83.628 28.4975 83.8455 30.2378 82.7476C32.3347 81.4244 30.9313 78.6141 28.8496 78.8315C29.1704 76.9885 26.9038 75.644 25.4102 76.895Z" fill="url(#paint19_radial_287_31368)"/>
</g>
<g filter="url(#filter3_i_287_31368)">
<path d="M22.5174 90.3961C24.373 88.9933 23.9361 85.6275 23.9361 83.6075C21.2432 83.6075 19.43 83.445 17.6897 84.5436C15.5928 85.8668 16.9963 88.6764 19.0779 88.459C18.7571 90.3027 20.9634 91.5702 22.5174 90.3961Z" fill="url(#paint20_radial_287_31368)"/>
<path d="M22.5174 90.3961C24.373 88.9933 23.9361 85.6275 23.9361 83.6075C21.2432 83.6075 19.43 83.445 17.6897 84.5436C15.5928 85.8668 16.9963 88.6764 19.0779 88.459C18.7571 90.3027 20.9634 91.5702 22.5174 90.3961Z" fill="url(#paint21_radial_287_31368)"/>
<path d="M22.5174 90.3961C24.373 88.9933 23.9361 85.6275 23.9361 83.6075C21.2432 83.6075 19.43 83.445 17.6897 84.5436C15.5928 85.8668 16.9963 88.6764 19.0779 88.459C18.7571 90.3027 20.9634 91.5702 22.5174 90.3961Z" fill="url(#paint22_radial_287_31368)"/>
</g>
<path d="M22.5174 90.3961C24.373 88.9933 23.9361 85.6275 23.9361 83.6075C21.2432 83.6075 19.43 83.445 17.6897 84.5436C15.5928 85.8668 16.9963 88.6764 19.0779 88.459C18.7571 90.3027 20.9634 91.5702 22.5174 90.3961Z" fill="url(#paint23_radial_287_31368)"/>
<path d="M22.5174 90.3961C24.373 88.9933 23.9361 85.6275 23.9361 83.6075C21.2432 83.6075 19.43 83.445 17.6897 84.5436C15.5928 85.8668 16.9963 88.6764 19.0779 88.459C18.7571 90.3027 20.9634 91.5702 22.5174 90.3961Z" fill="url(#paint24_radial_287_31368)"/>
<g filter="url(#filter4_i_287_31368)">
<path d="M22.5501 76.8951C24.2075 78.2827 23.9688 81.6081 23.9688 83.6281C21.2759 83.6281 19.4633 83.8455 17.7231 82.7477C15.6261 81.4244 17.029 78.6141 19.1113 78.8316C18.7898 76.9886 21.0571 75.6441 22.5501 76.8951Z" fill="url(#paint25_linear_287_31368)"/>
<path d="M22.5501 76.8951C24.2075 78.2827 23.9688 81.6081 23.9688 83.6281C21.2759 83.6281 19.4633 83.8455 17.7231 82.7477C15.6261 81.4244 17.029 78.6141 19.1113 78.8316C18.7898 76.9886 21.0571 75.6441 22.5501 76.8951Z" fill="url(#paint26_radial_287_31368)"/>
<path d="M22.5501 76.8951C24.2075 78.2827 23.9688 81.6081 23.9688 83.6281C21.2759 83.6281 19.4633 83.8455 17.7231 82.7477C15.6261 81.4244 17.029 78.6141 19.1113 78.8316C18.7898 76.9886 21.0571 75.6441 22.5501 76.8951Z" fill="url(#paint27_radial_287_31368)"/>
<path d="M22.5501 76.8951C24.2075 78.2827 23.9688 81.6081 23.9688 83.6281C21.2759 83.6281 19.4633 83.8455 17.7231 82.7477C15.6261 81.4244 17.029 78.6141 19.1113 78.8316C18.7898 76.9886 21.0571 75.6441 22.5501 76.8951Z" fill="url(#paint28_radial_287_31368)"/>
<path d="M22.5501 76.8951C24.2075 78.2827 23.9688 81.6081 23.9688 83.6281C21.2759 83.6281 19.4633 83.8455 17.7231 82.7477C15.6261 81.4244 17.029 78.6141 19.1113 78.8316C18.7898 76.9886 21.0571 75.6441 22.5501 76.8951Z" fill="url(#paint29_radial_287_31368)"/>
<path d="M22.5501 76.8951C24.2075 78.2827 23.9688 81.6081 23.9688 83.6281C21.2759 83.6281 19.4633 83.8455 17.7231 82.7477C15.6261 81.4244 17.029 78.6141 19.1113 78.8316C18.7898 76.9886 21.0571 75.6441 22.5501 76.8951Z" fill="url(#paint30_radial_287_31368)"/>
</g>
<g filter="url(#filter5_f_287_31368)">
<path d="M24.0817 88.7653C24.0054 89.9606 24.5703 92.7099 27.4376 94.1524" stroke="url(#paint31_linear_287_31368)" stroke-width="0.15" stroke-linecap="round"/>
</g>
<g filter="url(#filter6_f_287_31368)">
<path d="M20.3652 86.6524L23.796 83.7447C23.4307 83.8143 22.4695 84.2035 21.7329 84.8293C20.9042 85.534 20.3845 86.3727 20.3652 86.6524Z" fill="url(#paint32_linear_287_31368)"/>
</g>
<g filter="url(#filter7_f_287_31368)">
<path d="M23.678 84.2903L21.3789 86.5285L23.3877 87.9167C23.7854 86.4582 23.7477 84.8916 23.678 84.2903Z" fill="url(#paint33_radial_287_31368)"/>
</g>
<g filter="url(#filter8_f_287_31368)">
<path d="M28.5914 87.8602C29.6703 88.1216 30.7244 87.5927 30.9458 86.6788C31.1672 85.765 30.472 84.8124 29.393 84.551C28.3141 84.2896 27.26 84.8186 27.0386 85.7324C26.8173 86.6462 27.5125 87.5989 28.5914 87.8602Z" fill="url(#paint34_radial_287_31368)"/>
</g>
<g filter="url(#filter9_f_287_31368)">
<path d="M28.1382 87.885L24.3223 84.1459C24.7134 84.6762 25.1682 85.2616 26.1149 86.4251C26.9787 87.4865 27.4521 87.8054 28.1382 87.885Z" fill="url(#paint35_radial_287_31368)"/>
</g>
<g filter="url(#filter10_f_287_31368)">
<path d="M20.3858 78.801L23.7417 83.3999C23.7417 82.3949 23.7417 80.6241 23.3274 78.9873C23.0668 77.959 22.3435 76.4806 20.7683 76.8738C19.5087 77.1887 20.1372 78.614 20.3852 78.801" fill="url(#paint36_radial_287_31368)"/>
<path d="M20.3858 78.801L23.7417 83.3999C23.7417 82.3949 23.7417 80.6241 23.3274 78.9873C23.0668 77.959 22.3435 76.4806 20.7683 76.8738C19.5087 77.1887 20.1372 78.614 20.3852 78.801" fill="url(#paint37_radial_287_31368)"/>
</g>
<g filter="url(#filter11_f_287_31368)">
<path d="M19.861 79.4534L23.3614 83.1103C22.7615 82.81 22.1913 82.6025 21.2592 81.6186C20.2972 80.603 19.861 79.7783 19.861 79.4534Z" fill="url(#paint38_linear_287_31368)"/>
</g>
<g filter="url(#filter12_f_287_31368)">
<path d="M29.4372 81.1393C30.2067 81.226 30.8677 80.9666 30.9135 80.5599C30.9594 80.1531 30.3728 79.753 29.6033 79.6662C28.8338 79.5794 28.1728 79.8388 28.1269 80.2456C28.081 80.6524 28.6677 81.0525 29.4372 81.1393Z" fill="url(#paint39_radial_287_31368)"/>
</g>
<g filter="url(#filter13_f_287_31368)">
<path d="M28.3096 78.2794C28.2149 77.5108 27.8088 76.9283 27.4026 76.9784C26.9963 77.0284 26.7437 77.692 26.8384 78.4606C26.933 79.2292 27.3391 79.8117 27.7454 79.7616C28.1517 79.7116 28.4043 79.048 28.3096 78.2794Z" fill="url(#paint40_radial_287_31368)"/>
</g>
<g filter="url(#filter14_ii_287_31368)">
<path d="M56.2249 34.9213C59.913 31.7416 65.3733 31.7416 69.0614 34.9213C70.8801 36.4893 73.21 37.3373 75.6111 37.3052C80.4802 37.24 84.663 40.7498 85.4444 45.5563C85.8297 47.9265 87.0694 50.0737 88.9294 51.5926C92.7013 54.6725 93.6494 60.0498 91.1585 64.234C89.9301 66.2974 89.4995 68.7391 89.9481 71.0982C90.8578 75.882 88.1276 80.6107 83.5299 82.2149C81.2626 83.0059 79.3633 84.5996 78.1905 86.6951C75.8124 90.9445 70.6814 92.812 66.1282 91.0855C63.8828 90.234 61.4035 90.234 59.1581 91.0855C54.6049 92.812 49.4739 90.9445 47.0958 86.6951C45.923 84.5996 44.0237 83.0059 41.7564 82.2149C37.1587 80.6107 34.4285 75.882 35.3382 71.0982C35.7868 68.7391 35.3562 66.2974 34.1278 64.234C31.6369 60.0498 32.585 54.6725 36.3569 51.5926C38.2169 50.0737 39.4566 47.9265 39.8419 45.5563C40.6233 40.7498 44.8061 37.24 49.6752 37.3052C52.0763 37.3373 54.4062 36.4893 56.2249 34.9213Z" fill="#DEDEDE"/>
</g>
<g filter="url(#filter15_ii_287_31368)">
<ellipse cx="56.411" cy="59.0579" rx="1.66785" ry="3.3357" fill="#2B2B2B"/>
</g>
<g filter="url(#filter16_ii_287_31368)">
<ellipse cx="68.0858" cy="59.0579" rx="1.66785" ry="3.3357" fill="#2B2B2B"/>
</g>
<defs>
<filter id="filter0_d_287_31368" x="13.5" y="17.4999" width="97.1465" height="97.1466" filterUnits="userSpaceOnUse" color-interpolation-filters="sRGB">
<feFlood flood-opacity="0" result="BackgroundImageFix"/>
<feColorMatrix in="SourceAlpha" type="matrix" values="0 0 0 0 0 0 0 0 0 0 0 0 0 0 0 0 0 0 127 0" result="hardAlpha"/>
<feOffset dy="4"/>
<feGaussianBlur stdDeviation="2"/>
<feComposite in2="hardAlpha" operator="out"/>
<feColorMatrix type="matrix" values="0 0 0 0 0 0 0 0 0 0 0 0 0 0 0 0 0 0 0.25 0"/>
<feBlend mode="normal" in2="BackgroundImageFix" result="effect1_dropShadow_287_31368"/>
<feBlend mode="normal" in="SourceGraphic" in2="effect1_dropShadow_287_31368" result="shape"/>
</filter>
<filter id="filter1_i_287_31368" x="23.3584" y="85.6454" width="4.60137" height="9.2321" filterUnits="userSpaceOnUse" color-interpolation-filters="sRGB">
<feFlood flood-opacity="0" result="BackgroundImageFix"/>
<feBlend mode="normal" in="SourceGraphic" in2="BackgroundImageFix" result="shape"/>
<feColorMatrix in="SourceAlpha" type="matrix" values="0 0 0 0 0 0 0 0 0 0 0 0 0 0 0 0 0 0 127 0" result="hardAlpha"/>
<feOffset dx="0.075" dy="-0.075"/>
<feGaussianBlur stdDeviation="0.25"/>
<feComposite in2="hardAlpha" operator="arithmetic" k2="-1" k3="1"/>
<feColorMatrix type="matrix" values="0 0 0 0 0.243137 0 0 0 0 0.380392 0 0 0 0 0.478431 0 0 0 1 0"/>
<feBlend mode="normal" in2="shape" result="effect1_innerShadow_287_31368"/>
</filter>
<filter id="filter2_i_287_31368" x="23.9795" y="76.2831" width="7.41992" height="7.36243" filterUnits="userSpaceOnUse" color-interpolation-filters="sRGB">
<feFlood flood-opacity="0" result="BackgroundImageFix"/>
<feBlend mode="normal" in="SourceGraphic" in2="BackgroundImageFix" result="shape"/>
<feColorMatrix in="SourceAlpha" type="matrix" values="0 0 0 0 0 0 0 0 0 0 0 0 0 0 0 0 0 0 127 0" result="hardAlpha"/>
<feOffset dx="0.125" dy="-0.125"/>
<feGaussianBlur stdDeviation="0.25"/>
<feComposite in2="hardAlpha" operator="arithmetic" k2="-1" k3="1"/>
<feColorMatrix type="matrix" values="0 0 0 0 0.227451 0 0 0 0 0.596078 0 0 0 0 0.352941 0 0 0 1 0"/>
<feBlend mode="normal" in2="shape" result="effect1_innerShadow_287_31368"/>
</filter>
<filter id="filter3_i_287_31368" x="16.6533" y="83.599" width="7.32715" height="7.25092" filterUnits="userSpaceOnUse" color-interpolation-filters="sRGB">
<feFlood flood-opacity="0" result="BackgroundImageFix"/>
<feBlend mode="normal" in="SourceGraphic" in2="BackgroundImageFix" result="shape"/>
<feColorMatrix in="SourceAlpha" type="matrix" values="0 0 0 0 0 0 0 0 0 0 0 0 0 0 0 0 0 0 127 0" result="hardAlpha"/>
<feOffset/>
<feGaussianBlur stdDeviation="0.5"/>
<feComposite in2="hardAlpha" operator="arithmetic" k2="-1" k3="1"/>
<feColorMatrix type="matrix" values="0 0 0 0 0.0901961 0 0 0 0 0.576471 0 0 0 0 0.313726 0 0 0 1 0"/>
<feBlend mode="normal" in2="shape" result="effect1_innerShadow_287_31368"/>
</filter>
<filter id="filter4_i_287_31368" x="16.6865" y="76.2831" width="7.41895" height="7.36243" filterUnits="userSpaceOnUse" color-interpolation-filters="sRGB">
<feFlood flood-opacity="0" result="BackgroundImageFix"/>
<feBlend mode="normal" in="SourceGraphic" in2="BackgroundImageFix" result="shape"/>
<feColorMatrix in="SourceAlpha" type="matrix" values="0 0 0 0 0 0 0 0 0 0 0 0 0 0 0 0 0 0 127 0" result="hardAlpha"/>
<feOffset dx="0.125" dy="-0.125"/>
<feGaussianBlur stdDeviation="0.25"/>
<feComposite in2="hardAlpha" operator="arithmetic" k2="-1" k3="1"/>
<feColorMatrix type="matrix" values="0 0 0 0 0.211765 0 0 0 0 0.505882 0 0 0 0 0.407843 0 0 0 1 0"/>
<feBlend mode="normal" in2="shape" result="effect1_innerShadow_287_31368"/>
</filter>
<filter id="filter5_f_287_31368" x="23.8" y="88.4902" width="3.9127" height="5.93723" filterUnits="userSpaceOnUse" color-interpolation-filters="sRGB">
<feFlood flood-opacity="0" result="BackgroundImageFix"/>
<feBlend mode="normal" in="SourceGraphic" in2="BackgroundImageFix" result="shape"/>
<feGaussianBlur stdDeviation="0.1" result="effect1_foregroundBlur_287_31368"/>
</filter>
<filter id="filter6_f_287_31368" x="20.1152" y="83.4947" width="3.93066" height="3.40771" filterUnits="userSpaceOnUse" color-interpolation-filters="sRGB">
<feFlood flood-opacity="0" result="BackgroundImageFix"/>
<feBlend mode="normal" in="SourceGraphic" in2="BackgroundImageFix" result="shape"/>
<feGaussianBlur stdDeviation="0.125" result="effect1_foregroundBlur_287_31368"/>
</filter>
<filter id="filter7_f_287_31368" x="21.1289" y="84.0403" width="2.84277" height="4.1264" filterUnits="userSpaceOnUse" color-interpolation-filters="sRGB">
<feFlood flood-opacity="0" result="BackgroundImageFix"/>
<feBlend mode="normal" in="SourceGraphic" in2="BackgroundImageFix" result="shape"/>
<feGaussianBlur stdDeviation="0.125" result="effect1_foregroundBlur_287_31368"/>
</filter>
<filter id="filter8_f_287_31368" x="26.3721" y="83.8592" width="5.24023" height="4.69281" filterUnits="userSpaceOnUse" color-interpolation-filters="sRGB">
<feFlood flood-opacity="0" result="BackgroundImageFix"/>
<feBlend mode="normal" in="SourceGraphic" in2="BackgroundImageFix" result="shape"/>
<feGaussianBlur stdDeviation="0.3125" result="effect1_foregroundBlur_287_31368"/>
</filter>
<filter id="filter9_f_287_31368" x="24.1223" y="83.9459" width="4.21641" height="4.13907" filterUnits="userSpaceOnUse" color-interpolation-filters="sRGB">
<feFlood flood-opacity="0" result="BackgroundImageFix"/>
<feBlend mode="normal" in="SourceGraphic" in2="BackgroundImageFix" result="shape"/>
<feGaussianBlur stdDeviation="0.1" result="effect1_foregroundBlur_287_31368"/>
</filter>
<filter id="filter10_f_287_31368" x="19.6328" y="76.4338" width="4.48438" height="7.34106" filterUnits="userSpaceOnUse" color-interpolation-filters="sRGB">
<feFlood flood-opacity="0" result="BackgroundImageFix"/>
<feBlend mode="normal" in="SourceGraphic" in2="BackgroundImageFix" result="shape"/>
<feGaussianBlur stdDeviation="0.1875" result="effect1_foregroundBlur_287_31368"/>
</filter>
<filter id="filter11_f_287_31368" x="19.6113" y="79.2034" width="4" height="4.15686" filterUnits="userSpaceOnUse" color-interpolation-filters="sRGB">
<feFlood flood-opacity="0" result="BackgroundImageFix"/>
<feBlend mode="normal" in="SourceGraphic" in2="BackgroundImageFix" result="shape"/>
<feGaussianBlur stdDeviation="0.125" result="effect1_foregroundBlur_287_31368"/>
</filter>
<filter id="filter12_f_287_31368" x="27.624" y="79.1495" width="3.79199" height="2.50653" filterUnits="userSpaceOnUse" color-interpolation-filters="sRGB">
<feFlood flood-opacity="0" result="BackgroundImageFix"/>
<feBlend mode="normal" in="SourceGraphic" in2="BackgroundImageFix" result="shape"/>
<feGaussianBlur stdDeviation="0.25" result="effect1_foregroundBlur_287_31368"/>
</filter>
<filter id="filter13_f_287_31368" x="26.3184" y="76.4753" width="2.51074" height="3.78931" filterUnits="userSpaceOnUse" color-interpolation-filters="sRGB">
<feFlood flood-opacity="0" result="BackgroundImageFix"/>
<feBlend mode="normal" in="SourceGraphic" in2="BackgroundImageFix" result="shape"/>
<feGaussianBlur stdDeviation="0.25" result="effect1_foregroundBlur_287_31368"/>
</filter>
<filter id="filter14_ii_287_31368" x="32.7441" y="28.5365" width="59.7979" height="67.189" filterUnits="userSpaceOnUse" color-interpolation-filters="sRGB">
<feFlood flood-opacity="0" result="BackgroundImageFix"/>
<feBlend mode="normal" in="SourceGraphic" in2="BackgroundImageFix" result="shape"/>
<feColorMatrix in="SourceAlpha" type="matrix" values="0 0 0 0 0 0 0 0 0 0 0 0 0 0 0 0 0 0 127 0" result="hardAlpha"/>
<feOffset dy="4"/>
<feGaussianBlur stdDeviation="2"/>
<feComposite in2="hardAlpha" operator="arithmetic" k2="-1" k3="1"/>
<feColorMatrix type="matrix" values="0 0 0 0 0.67451 0 0 0 0 0.67451 0 0 0 0 0.67451 0 0 0 0.25 0"/>
<feBlend mode="normal" in2="shape" result="effect1_innerShadow_287_31368"/>
<feColorMatrix in="SourceAlpha" type="matrix" values="0 0 0 0 0 0 0 0 0 0 0 0 0 0 0 0 0 0 127 0" result="hardAlpha"/>
<feOffset dy="-6"/>
<feGaussianBlur stdDeviation="2"/>
<feComposite in2="hardAlpha" operator="arithmetic" k2="-1" k3="1"/>
<feColorMatrix type="matrix" values="0 0 0 0 0.141176 0 0 0 0 0.141176 0 0 0 0 0.141176 0 0 0 0.25 0"/>
<feBlend mode="normal" in2="effect1_innerShadow_287_31368" result="effect2_innerShadow_287_31368"/>
</filter>
<filter id="filter15_ii_287_31368" x="54.7432" y="54.8222" width="3.33594" height="7.57139" filterUnits="userSpaceOnUse" color-interpolation-filters="sRGB">
<feFlood flood-opacity="0" result="BackgroundImageFix"/>
<feBlend mode="normal" in="SourceGraphic" in2="BackgroundImageFix" result="shape"/>
<feColorMatrix in="SourceAlpha" type="matrix" values="0 0 0 0 0 0 0 0 0 0 0 0 0 0 0 0 0 0 127 0" result="hardAlpha"/>
<feOffset dy="-1"/>
<feGaussianBlur stdDeviation="0.45"/>
<feComposite in2="hardAlpha" operator="arithmetic" k2="-1" k3="1"/>
<feColorMatrix type="matrix" values="0 0 0 0 1 0 0 0 0 1 0 0 0 0 1 0 0 0 0.25 0"/>
<feBlend mode="normal" in2="shape" result="effect1_innerShadow_287_31368"/>
<feColorMatrix in="SourceAlpha" type="matrix" values="0 0 0 0 0 0 0 0 0 0 0 0 0 0 0 0 0 0 127 0" result="hardAlpha"/>
<feOffset/>
<feGaussianBlur stdDeviation="0.4"/>
<feComposite in2="hardAlpha" operator="arithmetic" k2="-1" k3="1"/>
<feColorMatrix type="matrix" values="0 0 0 0 0.958333 0 0 0 0 0.958333 0 0 0 0 0.958333 0 0 0 0.25 0"/>
<feBlend mode="normal" in2="effect1_innerShadow_287_31368" result="effect2_innerShadow_287_31368"/>
</filter>
<filter id="filter16_ii_287_31368" x="66.418" y="54.8222" width="3.33594" height="7.57139" filterUnits="userSpaceOnUse" color-interpolation-filters="sRGB">
<feFlood flood-opacity="0" result="BackgroundImageFix"/>
<feBlend mode="normal" in="SourceGraphic" in2="BackgroundImageFix" result="shape"/>
<feColorMatrix in="SourceAlpha" type="matrix" values="0 0 0 0 0 0 0 0 0 0 0 0 0 0 0 0 0 0 127 0" result="hardAlpha"/>
<feOffset dy="-1"/>
<feGaussianBlur stdDeviation="0.45"/>
<feComposite in2="hardAlpha" operator="arithmetic" k2="-1" k3="1"/>
<feColorMatrix type="matrix" values="0 0 0 0 1 0 0 0 0 1 0 0 0 0 1 0 0 0 0.25 0"/>
<feBlend mode="normal" in2="shape" result="effect1_innerShadow_287_31368"/>
<feColorMatrix in="SourceAlpha" type="matrix" values="0 0 0 0 0 0 0 0 0 0 0 0 0 0 0 0 0 0 127 0" result="hardAlpha"/>
<feOffset/>
<feGaussianBlur stdDeviation="0.4"/>
<feComposite in2="hardAlpha" operator="arithmetic" k2="-1" k3="1"/>
<feColorMatrix type="matrix" values="0 0 0 0 0.958333 0 0 0 0 0.958333 0 0 0 0 0.958333 0 0 0 0.25 0"/>
<feBlend mode="normal" in2="effect1_innerShadow_287_31368" result="effect2_innerShadow_287_31368"/>
</filter>
<linearGradient id="paint0_linear_287_31368" x1="25.564" y1="36.5092" x2="98.5824" y2="87.6372" gradientUnits="userSpaceOnUse">
<stop stop-color="#E5FFF0"/>
<stop offset="1" stop-color="#4CD688"/>
</linearGradient>
<linearGradient id="paint1_linear_287_31368" x1="24.3214" y1="87.5024" x2="27.6362" y2="94.7532" gradientUnits="userSpaceOnUse">
<stop stop-color="#18554D"/>
<stop offset="1" stop-color="#509E85"/>
</linearGradient>
<radialGradient id="paint2_radial_287_31368" cx="0" cy="0" r="1" gradientUnits="userSpaceOnUse" gradientTransform="translate(27.9365 94.2977) rotate(167.692) scale(0.583135 0.623618)">
<stop stop-color="#6AAC9A"/>
<stop offset="1" stop-color="#6AAC9A" stop-opacity="0"/>
</radialGradient>
<radialGradient id="paint3_radial_287_31368" cx="0" cy="0" r="1" gradientUnits="userSpaceOnUse" gradientTransform="translate(24.8916 89.895) rotate(169.611) scale(0.631881 3.67327)">
<stop stop-color="#557C70"/>
<stop offset="1" stop-color="#557C70" stop-opacity="0"/>
</radialGradient>
<linearGradient id="paint4_linear_287_31368" x1="23.5765" y1="83.856" x2="28.0514" y2="87.8338" gradientUnits="userSpaceOnUse">
<stop stop-color="#2C9C60"/>
<stop offset="1" stop-color="#3CCE7F"/>
</linearGradient>
<radialGradient id="paint5_radial_287_31368" cx="0" cy="0" r="1" gradientUnits="userSpaceOnUse" gradientTransform="translate(31.574 87.0049) rotate(-161.184) scale(5.90951 2.81848)">
<stop stop-color="#46D282"/>
<stop offset="1" stop-color="#46D282" stop-opacity="0"/>
</radialGradient>
<radialGradient id="paint6_radial_287_31368" cx="0" cy="0" r="1" gradientUnits="userSpaceOnUse" gradientTransform="translate(29.8746 90.1952) rotate(-139.207) scale(3.04421 3.43567)">
<stop stop-color="#43D592"/>
<stop offset="1" stop-color="#43D592" stop-opacity="0"/>
</radialGradient>
<radialGradient id="paint7_radial_287_31368" cx="0" cy="0" r="1" gradientUnits="userSpaceOnUse" gradientTransform="translate(29.3569 89.16) rotate(178.075) scale(2.46676 4.64713)">
<stop stop-color="#45DF94"/>
<stop offset="1" stop-color="#45DF94" stop-opacity="0"/>
</radialGradient>
<radialGradient id="paint8_radial_287_31368" cx="0" cy="0" r="1" gradientUnits="userSpaceOnUse" gradientTransform="translate(24.1155 83.8143) rotate(44.6269) scale(4.85423 0.537328)">
<stop stop-color="#249F5C"/>
<stop offset="1" stop-color="#249F5C" stop-opacity="0"/>
</radialGradient>
<radialGradient id="paint9_radial_287_31368" cx="0" cy="0" r="1" gradientUnits="userSpaceOnUse" gradientTransform="translate(27.7612 83.027) rotate(99.541) scale(1.15544 5.42013)">
<stop stop-color="#439059"/>
<stop offset="1" stop-color="#439059" stop-opacity="0"/>
</radialGradient>
<radialGradient id="paint10_radial_287_31368" cx="0" cy="0" r="1" gradientUnits="userSpaceOnUse" gradientTransform="translate(29.129 89.1812) rotate(-179.091) scale(1.30536 1.55558)">
<stop stop-color="#4DD695"/>
<stop offset="1" stop-color="#4DD695" stop-opacity="0"/>
</radialGradient>
<radialGradient id="paint11_radial_287_31368" cx="0" cy="0" r="1" gradientUnits="userSpaceOnUse" gradientTransform="translate(28.7144 86.3004) rotate(-179.576) scale(5.59385 12.6779)">
<stop offset="0.624" stop-color="#1D9453" stop-opacity="0"/>
<stop offset="1" stop-color="#1D9453"/>
</radialGradient>
<radialGradient id="paint12_radial_287_31368" cx="0" cy="0" r="1" gradientUnits="userSpaceOnUse" gradientTransform="translate(27.5701 85.5963) rotate(103.007) scale(5.86858 4.5652)">
<stop offset="0.841" stop-color="#438882" stop-opacity="0"/>
<stop offset="0.969" stop-color="#438882"/>
</radialGradient>
<linearGradient id="paint13_linear_287_31368" x1="23.5342" y1="86.0353" x2="25.8128" y2="84.2493" gradientUnits="userSpaceOnUse">
<stop stop-color="#219756"/>
<stop offset="1" stop-color="#219756" stop-opacity="0"/>
</linearGradient>
<radialGradient id="paint14_radial_287_31368" cx="0" cy="0" r="1" gradientUnits="userSpaceOnUse" gradientTransform="translate(28.4235 84.8293) rotate(88.2643) scale(4.10393 9.76914)">
<stop offset="0.821" stop-color="#438882" stop-opacity="0"/>
<stop offset="1" stop-color="#438882"/>
</radialGradient>
<radialGradient id="paint15_radial_287_31368" cx="0" cy="0" r="1" gradientUnits="userSpaceOnUse" gradientTransform="translate(28.4962 79.2984) rotate(135) scale(7.03172 6.66338)">
<stop offset="0.279" stop-color="#188A50" stop-opacity="0"/>
<stop offset="1" stop-color="#188A50"/>
</radialGradient>
<radialGradient id="paint16_radial_287_31368" cx="0" cy="0" r="1" gradientUnits="userSpaceOnUse" gradientTransform="translate(29.6557 77.9306) rotate(133.688) scale(3.83915 4.03816)">
<stop offset="0.164" stop-color="#75F9A8"/>
<stop offset="1" stop-color="#75F9A8" stop-opacity="0"/>
</radialGradient>
<radialGradient id="paint17_radial_287_31368" cx="0" cy="0" r="1" gradientUnits="userSpaceOnUse" gradientTransform="translate(22.7773 84.9745) rotate(-45) scale(5.85976 4.01394)">
<stop stop-color="#338B6E"/>
<stop offset="1" stop-color="#338B6E" stop-opacity="0"/>
</radialGradient>
<radialGradient id="paint18_radial_287_31368" cx="0" cy="0" r="1" gradientUnits="userSpaceOnUse" gradientTransform="translate(26.7017 81.0171) rotate(136.672) scale(4.01565 0.591649)">
<stop stop-color="#309B69"/>
<stop offset="1" stop-color="#34BB72" stop-opacity="0"/>
</radialGradient>
<radialGradient id="paint19_radial_287_31368" cx="0" cy="0" r="1" gradientUnits="userSpaceOnUse" gradientTransform="translate(29.1366 78.459) rotate(136.695) scale(4.95367 0.112092)">
<stop stop-color="#79F0AF"/>
<stop offset="1" stop-color="#79F0AF" stop-opacity="0"/>
</radialGradient>
<radialGradient id="paint20_radial_287_31368" cx="0" cy="0" r="1" gradientUnits="userSpaceOnUse" gradientTransform="translate(21.7523 86.1764) rotate(-47.586) scale(4.54595 4.44703)">
<stop stop-color="#53CE8D"/>
<stop offset="1" stop-color="#39B97C"/>
</radialGradient>
<radialGradient id="paint21_radial_287_31368" cx="0" cy="0" r="1" gradientUnits="userSpaceOnUse" gradientTransform="translate(21.7729 85.5963) rotate(-43.4518) scale(3.25336 0.468211)">
<stop stop-color="#1FAE5A"/>
<stop offset="1" stop-color="#1FAE5A" stop-opacity="0"/>
</radialGradient>
<radialGradient id="paint22_radial_287_31368" cx="0" cy="0" r="1" gradientUnits="userSpaceOnUse" gradientTransform="translate(23.9812 83.5988) rotate(135.971) scale(4.90064 0.0579918)">
<stop offset="0.366" stop-color="#6AD392"/>
<stop offset="1" stop-color="#6AD392" stop-opacity="0"/>
</radialGradient>
<radialGradient id="paint23_radial_287_31368" cx="0" cy="0" r="1" gradientUnits="userSpaceOnUse" gradientTransform="translate(18.236 88.6671) rotate(-67.7703) scale(0.643452 0.808419)">
<stop offset="0.21" stop-color="#718C9F"/>
<stop offset="1" stop-color="#718C9F" stop-opacity="0"/>
</radialGradient>
<radialGradient id="paint24_radial_287_31368" cx="0" cy="0" r="1" gradientUnits="userSpaceOnUse" gradientTransform="translate(20.3177 90.9829) rotate(-70.0161) scale(1.16837 4.37368)">
<stop stop-color="#718C9F"/>
<stop offset="1" stop-color="#718C9F" stop-opacity="0"/>
</radialGradient>
<linearGradient id="paint25_linear_287_31368" x1="20.3338" y1="78.0964" x2="23.9814" y2="84.063" gradientUnits="userSpaceOnUse">
<stop stop-color="#3AC97D"/>
<stop offset="1" stop-color="#3FAD80"/>
</linearGradient>
<radialGradient id="paint26_radial_287_31368" cx="0" cy="0" r="1" gradientUnits="userSpaceOnUse" gradientTransform="translate(18.5831 77.7859) rotate(45) scale(3.60375 4.87219)">
<stop stop-color="#3BC577"/>
<stop offset="1" stop-color="#3BC577" stop-opacity="0"/>
</radialGradient>
<radialGradient id="paint27_radial_287_31368" cx="0" cy="0" r="1" gradientUnits="userSpaceOnUse" gradientTransform="translate(23.3682 77.4959) rotate(145.105) scale(3.00581 2.92642)">
<stop stop-color="#5AF095"/>
<stop offset="1" stop-color="#5AF095" stop-opacity="0"/>
</radialGradient>
<radialGradient id="paint28_radial_287_31368" cx="0" cy="0" r="1" gradientUnits="userSpaceOnUse" gradientTransform="translate(23.9821 83.6447) rotate(-134.582) scale(6.56923 0.341496)">
<stop offset="0.433" stop-color="#3AA578"/>
<stop offset="1" stop-color="#3AA578" stop-opacity="0"/>
</radialGradient>
<radialGradient id="paint29_radial_287_31368" cx="0" cy="0" r="1" gradientUnits="userSpaceOnUse" gradientTransform="translate(24.0729 83.7627) rotate(-134.009) scale(6.35147 0.0340761)">
<stop offset="0.545" stop-color="#4EB87F"/>
<stop offset="1" stop-color="#4EB87F" stop-opacity="0"/>
</radialGradient>
<radialGradient id="paint30_radial_287_31368" cx="0" cy="0" r="1" gradientUnits="userSpaceOnUse" gradientTransform="translate(19.4116 83.6453) rotate(4.37715) scale(4.11404 2.10862)">
<stop stop-color="#379876"/>
<stop offset="1" stop-color="#379876" stop-opacity="0"/>
</radialGradient>
<linearGradient id="paint31_linear_287_31368" x1="27.4376" y1="94.0073" x2="23.9365" y2="89.1803" gradientUnits="userSpaceOnUse">
<stop stop-color="#69AA99"/>
<stop offset="1" stop-color="#69AA99" stop-opacity="0"/>
</linearGradient>
<linearGradient id="paint32_linear_287_31368" x1="23.3903" y1="84.3533" x2="19.516" y2="86.5284" gradientUnits="userSpaceOnUse">
<stop stop-color="#75E2A0"/>
<stop offset="1" stop-color="#72D79A" stop-opacity="0"/>
</linearGradient>
<radialGradient id="paint33_radial_287_31368" cx="0" cy="0" r="1" gradientUnits="userSpaceOnUse" gradientTransform="translate(23.3055 84.0218) rotate(93.1639) scale(4.12906 1.08396)">
<stop stop-color="#6EE79D"/>
<stop offset="1" stop-color="#72D79A" stop-opacity="0"/>
</radialGradient>
<radialGradient id="paint34_radial_287_31368" cx="0" cy="0" r="1" gradientUnits="userSpaceOnUse" gradientTransform="translate(31.2203 85.9486) rotate(-178.768) scale(3.61201 1.87065)">
<stop stop-color="#81FFB3"/>
<stop offset="1" stop-color="#81FFB3" stop-opacity="0"/>
</radialGradient>
<radialGradient id="paint35_radial_287_31368" cx="0" cy="0" r="1" gradientUnits="userSpaceOnUse" gradientTransform="translate(26.628 86.4914) rotate(136.169) scale(0.500875 3.16956)">
<stop stop-color="#72DDA1"/>
<stop offset="1" stop-color="#72DDA1" stop-opacity="0"/>
</radialGradient>
<radialGradient id="paint36_radial_287_31368" cx="0" cy="0" r="1" gradientUnits="userSpaceOnUse" gradientTransform="translate(23.3691 80.1044) rotate(152.304) scale(1.47409 6.61922)">
<stop stop-color="#77E8A3"/>
<stop offset="1" stop-color="#77E8A3" stop-opacity="0"/>
</radialGradient>
<radialGradient id="paint37_radial_287_31368" cx="0" cy="0" r="1" gradientUnits="userSpaceOnUse" gradientTransform="translate(27.4715 80.52) rotate(-174.24) scale(7.22543 3.52348)">
<stop stop-color="#77E8A3"/>
<stop offset="0.999" stop-color="#77E8A3" stop-opacity="0"/>
</radialGradient>
<linearGradient id="paint38_linear_287_31368" x1="21.5078" y1="81.732" x2="21.9328" y2="81.2819" gradientUnits="userSpaceOnUse">
<stop stop-color="#75D79F"/>
<stop offset="1" stop-color="#75D79F" stop-opacity="0"/>
</linearGradient>
<radialGradient id="paint39_radial_287_31368" cx="0" cy="0" r="1" gradientUnits="userSpaceOnUse" gradientTransform="translate(30.4942 80.4032) rotate(-174.56) scale(2.0395 0.713973)">
<stop stop-color="#80FFB4"/>
<stop offset="1" stop-color="#80FFB4" stop-opacity="0"/>
</radialGradient>
<radialGradient id="paint40_radial_287_31368" cx="0" cy="0" r="1" gradientUnits="userSpaceOnUse" gradientTransform="translate(28.2588 79.2983) rotate(-107.078) scale(2.78633 0.975424)">
<stop stop-color="#80FFB4"/>
<stop offset="1" stop-color="#80FFB4" stop-opacity="0"/>
</radialGradient>
</defs>
</svg>
