<svg width="125" height="125" viewBox="0 0 125 125" fill="none" xmlns="http://www.w3.org/2000/svg">
<path fill-rule="evenodd" clip-rule="evenodd" d="M95.9958 85.8261C109.114 67.0911 104.561 41.269 85.8261 28.1506C67.0911 15.0323 41.269 19.5854 28.1506 38.3204C15.0323 57.0553 19.5854 82.8775 38.3204 95.9958C57.0553 109.114 82.8775 104.561 95.9958 85.8261ZM98.5824 87.6372C112.701 67.4738 107.801 39.6826 87.6372 25.564C67.4738 11.4454 39.6826 16.3457 25.564 36.5092C11.4454 56.6727 16.3457 84.4638 36.5092 98.5824C56.6727 112.701 84.4638 107.801 98.5824 87.6372Z" fill="#8A8A8A"/>
<g filter="url(#filter0_ii_287_31364)">
<path d="M56.0253 33.5672C59.7356 30.3683 65.2289 30.3683 68.9393 33.5672C70.769 35.1447 73.1129 35.9978 75.5285 35.9655C80.427 35.8999 84.6351 39.4309 85.4212 44.2664C85.8088 46.651 87.056 48.8111 88.9273 50.3391C92.7219 53.4376 93.6758 58.8474 91.1698 63.0569C89.934 65.1327 89.5008 67.5892 89.9521 69.9625C90.8673 74.7752 88.1206 79.5325 83.4951 81.1463C81.2141 81.9422 79.3033 83.5455 78.1235 85.6537C75.731 89.9287 70.569 91.8075 65.9883 90.0705C63.7294 89.2139 61.2351 89.2139 58.9762 90.0705C54.3955 91.8075 49.2335 89.9287 46.841 85.6537C45.6612 83.5455 43.7504 81.9422 41.4694 81.1463C36.8439 79.5325 34.0973 74.7752 35.0124 69.9625C35.4637 67.5892 35.0306 65.1327 33.7948 63.0569C31.2888 58.8474 32.2427 53.4376 36.0373 50.3391C37.9085 48.8111 39.1557 46.651 39.5433 44.2664C40.3294 39.4309 44.5375 35.8999 49.436 35.9655C51.8517 35.9978 54.1956 35.1447 56.0253 33.5672Z" fill="#DEDEDE"/>
</g>
<g filter="url(#filter1_ii_287_31364)">
<ellipse cx="56.2121" cy="57.8496" rx="1.67792" ry="3.35584" fill="#2B2B2B"/>
</g>
<g filter="url(#filter2_ii_287_31364)">
<ellipse cx="67.9572" cy="57.8496" rx="1.67792" ry="3.35584" fill="#2B2B2B"/>
</g>
<defs>
<filter id="filter0_ii_287_31364" x="32.4023" y="27.168" width="60.1602" height="67.5464" filterUnits="userSpaceOnUse" color-interpolation-filters="sRGB">
<feFlood flood-opacity="0" result="BackgroundImageFix"/>
<feBlend mode="normal" in="SourceGraphic" in2="BackgroundImageFix" result="shape"/>
<feColorMatrix in="SourceAlpha" type="matrix" values="0 0 0 0 0 0 0 0 0 0 0 0 0 0 0 0 0 0 127 0" result="hardAlpha"/>
<feOffset dy="4"/>
<feGaussianBlur stdDeviation="2"/>
<feComposite in2="hardAlpha" operator="arithmetic" k2="-1" k3="1"/>
<feColorMatrix type="matrix" values="0 0 0 0 0.67451 0 0 0 0 0.67451 0 0 0 0 0.67451 0 0 0 0.25 0"/>
<feBlend mode="normal" in2="shape" result="effect1_innerShadow_287_31364"/>
<feColorMatrix in="SourceAlpha" type="matrix" values="0 0 0 0 0 0 0 0 0 0 0 0 0 0 0 0 0 0 127 0" result="hardAlpha"/>
<feOffset dy="-6"/>
<feGaussianBlur stdDeviation="2"/>
<feComposite in2="hardAlpha" operator="arithmetic" k2="-1" k3="1"/>
<feColorMatrix type="matrix" values="0 0 0 0 0.141176 0 0 0 0 0.141176 0 0 0 0 0.141176 0 0 0 0.25 0"/>
<feBlend mode="normal" in2="effect1_innerShadow_287_31364" result="effect2_innerShadow_287_31364"/>
</filter>
<filter id="filter1_ii_287_31364" x="54.5342" y="53.5937" width="3.35547" height="7.6117" filterUnits="userSpaceOnUse" color-interpolation-filters="sRGB">
<feFlood flood-opacity="0" result="BackgroundImageFix"/>
<feBlend mode="normal" in="SourceGraphic" in2="BackgroundImageFix" result="shape"/>
<feColorMatrix in="SourceAlpha" type="matrix" values="0 0 0 0 0 0 0 0 0 0 0 0 0 0 0 0 0 0 127 0" result="hardAlpha"/>
<feOffset dy="-1"/>
<feGaussianBlur stdDeviation="0.45"/>
<feComposite in2="hardAlpha" operator="arithmetic" k2="-1" k3="1"/>
<feColorMatrix type="matrix" values="0 0 0 0 1 0 0 0 0 1 0 0 0 0 1 0 0 0 0.25 0"/>
<feBlend mode="normal" in2="shape" result="effect1_innerShadow_287_31364"/>
<feColorMatrix in="SourceAlpha" type="matrix" values="0 0 0 0 0 0 0 0 0 0 0 0 0 0 0 0 0 0 127 0" result="hardAlpha"/>
<feOffset/>
<feGaussianBlur stdDeviation="0.4"/>
<feComposite in2="hardAlpha" operator="arithmetic" k2="-1" k3="1"/>
<feColorMatrix type="matrix" values="0 0 0 0 0.958333 0 0 0 0 0.958333 0 0 0 0 0.958333 0 0 0 0.25 0"/>
<feBlend mode="normal" in2="effect1_innerShadow_287_31364" result="effect2_innerShadow_287_31364"/>
</filter>
<filter id="filter2_ii_287_31364" x="66.2793" y="53.5937" width="3.35547" height="7.6117" filterUnits="userSpaceOnUse" color-interpolation-filters="sRGB">
<feFlood flood-opacity="0" result="BackgroundImageFix"/>
<feBlend mode="normal" in="SourceGraphic" in2="BackgroundImageFix" result="shape"/>
<feColorMatrix in="SourceAlpha" type="matrix" values="0 0 0 0 0 0 0 0 0 0 0 0 0 0 0 0 0 0 127 0" result="hardAlpha"/>
<feOffset dy="-1"/>
<feGaussianBlur stdDeviation="0.45"/>
<feComposite in2="hardAlpha" operator="arithmetic" k2="-1" k3="1"/>
<feColorMatrix type="matrix" values="0 0 0 0 1 0 0 0 0 1 0 0 0 0 1 0 0 0 0.25 0"/>
<feBlend mode="normal" in2="shape" result="effect1_innerShadow_287_31364"/>
<feColorMatrix in="SourceAlpha" type="matrix" values="0 0 0 0 0 0 0 0 0 0 0 0 0 0 0 0 0 0 127 0" result="hardAlpha"/>
<feOffset/>
<feGaussianBlur stdDeviation="0.4"/>
<feComposite in2="hardAlpha" operator="arithmetic" k2="-1" k3="1"/>
<feColorMatrix type="matrix" values="0 0 0 0 0.958333 0 0 0 0 0.958333 0 0 0 0 0.958333 0 0 0 0.25 0"/>
<feBlend mode="normal" in2="effect1_innerShadow_287_31364" result="effect2_innerShadow_287_31364"/>
</filter>
</defs>
</svg>
