<svg width="125" height="125" viewBox="0 0 125 125" fill="none" xmlns="http://www.w3.org/2000/svg">
<g filter="url(#filter0_d_287_31370)">
<path d="M87.6372 25.5641C107.801 39.6827 112.701 67.4738 98.5824 87.6373C84.4638 107.801 56.6727 112.701 36.5092 98.5824C16.3457 84.4638 11.4454 56.6727 25.564 36.5092C39.6826 16.3458 67.4738 11.4454 87.6372 25.5641Z" fill="#FFF2FC"/>
</g>
<path fill-rule="evenodd" clip-rule="evenodd" d="M95.9958 85.8261C109.114 67.0912 104.561 41.269 85.8261 28.1507C67.0911 15.0323 41.269 19.5855 28.1506 38.3204C15.0323 57.0553 19.5854 82.8775 38.3204 95.9958C57.0553 109.114 82.8775 104.561 95.9958 85.8261ZM98.5824 87.6373C112.701 67.4738 107.801 39.6827 87.6372 25.5641C67.4738 11.4454 39.6826 16.3458 25.564 36.5092C11.4454 56.6727 16.3457 84.4638 36.5092 98.5824C56.6727 112.701 84.4638 107.801 98.5824 87.6373Z" fill="url(#paint0_linear_287_31370)"/>
<g filter="url(#filter1_d_287_31370)">
<path d="M34.2861 104.947C34.2861 100.006 38.2917 96 43.2328 96H81.1247C86.0658 96 90.0714 100.006 90.0714 104.947C90.0714 109.888 86.0658 113.893 81.1247 113.893H43.2328C38.2917 113.893 34.2861 109.888 34.2861 104.947Z" fill="#FF7CE5"/>
</g>
<path d="M68.5624 109.434H67.2139L70.2441 101.013H71.7119L74.7421 109.434H73.3935L71.0129 102.543H70.9471L68.5624 109.434ZM68.7886 106.136H73.1632V107.205H68.7886V106.136Z" fill="#FAFAFA"/>
<path d="M66.6834 105.223C66.6834 106.123 66.519 106.895 66.19 107.542C65.8611 108.187 65.4102 108.683 64.8374 109.031C64.2672 109.376 63.619 109.549 62.8926 109.549C62.1635 109.549 61.5125 109.376 60.9396 109.031C60.3695 108.683 59.92 108.185 59.591 107.538C59.2621 106.891 59.0977 106.12 59.0977 105.223C59.0977 104.324 59.2621 103.553 59.591 102.909C59.92 102.262 60.3695 101.766 60.9396 101.42C61.5125 101.072 62.1635 100.898 62.8926 100.898C63.619 100.898 64.2672 101.072 64.8374 101.42C65.4102 101.766 65.8611 102.262 66.19 102.909C66.519 103.553 66.6834 104.324 66.6834 105.223ZM65.4253 105.223C65.4253 104.538 65.3143 103.961 65.0923 103.493C64.873 103.021 64.5715 102.665 64.1877 102.424C63.8067 102.18 63.375 102.058 62.8926 102.058C62.4074 102.058 61.9744 102.18 61.5934 102.424C61.2124 102.665 60.9108 103.021 60.6888 103.493C60.4695 103.961 60.3599 104.538 60.3599 105.223C60.3599 105.909 60.4695 106.487 60.6888 106.959C60.9108 107.427 61.2124 107.784 61.5934 108.028C61.9744 108.269 62.4074 108.389 62.8926 108.389C63.375 108.389 63.8067 108.269 64.1877 108.028C64.5715 107.784 64.873 107.427 65.0923 106.959C65.3143 106.487 65.4253 105.909 65.4253 105.223Z" fill="#FAFAFA"/>
<path d="M48.9795 101.013H50.5213L53.202 107.559H53.3007L55.9814 101.013H57.5233V109.434H56.3145V103.34H56.2363L53.753 109.421H52.7498L50.2664 103.336H50.1883V109.434H48.9795V101.013Z" fill="#FAFAFA"/>
<g filter="url(#filter2_ii_287_31370)">
<path d="M56.2249 34.9213C59.913 31.7416 65.3733 31.7416 69.0614 34.9213C70.8801 36.4893 73.21 37.3373 75.6111 37.3052C80.4802 37.24 84.663 40.7498 85.4444 45.5563C85.8297 47.9265 87.0694 50.0737 88.9294 51.5926C92.7013 54.6725 93.6494 60.0498 91.1585 64.234C89.9301 66.2974 89.4995 68.7391 89.9481 71.0982C90.8578 75.882 88.1276 80.6107 83.5299 82.2149C81.2626 83.0059 79.3633 84.5996 78.1905 86.6951C75.8124 90.9445 70.6814 92.812 66.1282 91.0855C63.8828 90.234 61.4035 90.234 59.1581 91.0855C54.6049 92.812 49.4739 90.9445 47.0958 86.6951C45.923 84.5996 44.0237 83.0059 41.7564 82.2149C37.1587 80.6107 34.4285 75.882 35.3382 71.0982C35.7868 68.7391 35.3562 66.2974 34.1278 64.234C31.6369 60.0498 32.585 54.6725 36.3569 51.5926C38.2169 50.0737 39.4566 47.9265 39.8419 45.5563C40.6233 40.7498 44.8061 37.24 49.6752 37.3052C52.0763 37.3373 54.4062 36.4893 56.2249 34.9213Z" fill="#DEDEDE"/>
</g>
<g filter="url(#filter3_ii_287_31370)">
<ellipse cx="56.411" cy="59.0579" rx="1.66785" ry="3.3357" fill="#2B2B2B"/>
</g>
<g filter="url(#filter4_ii_287_31370)">
<ellipse cx="68.0858" cy="59.0579" rx="1.66785" ry="3.3357" fill="#2B2B2B"/>
</g>
<path d="M27.0205 92.1465C27.1675 92.1854 27.3221 92.1855 27.4691 92.1468C27.6161 92.108 27.7506 92.0317 27.8592 91.9253C29.3719 90.4781 31.8576 87.3941 32.3096 84.0807C33.098 79.7163 28.1693 77.6184 25.8647 80.5856C25.6241 80.8955 25.3152 81.2584 25.1203 81.5773C25.0318 81.7216 24.8286 81.7849 24.6795 81.7049C24.2626 81.4796 23.6317 81.2155 23.2326 81.0699C20.3768 80.0255 16.4737 83.3139 19.5302 87.4923C20.7456 89.4067 24.7952 91.5429 27.0205 92.1465Z" fill="url(#paint1_radial_287_31370)"/>
<path d="M27.0205 92.1465C27.1675 92.1854 27.3221 92.1855 27.4691 92.1468C27.6161 92.108 27.7506 92.0317 27.8592 91.9253C29.3719 90.4781 31.8576 87.3941 32.3096 84.0807C33.098 79.7163 28.1693 77.6184 25.8647 80.5856C25.6241 80.8955 25.3152 81.2584 25.1203 81.5773C25.0318 81.7216 24.8286 81.7849 24.6795 81.7049C24.2626 81.4796 23.6317 81.2155 23.2326 81.0699C20.3768 80.0255 16.4737 83.3139 19.5302 87.4923C20.7456 89.4067 24.7952 91.5429 27.0205 92.1465Z" fill="url(#paint2_radial_287_31370)"/>
<path d="M27.0205 92.1465C27.1675 92.1854 27.3221 92.1855 27.4691 92.1468C27.6161 92.108 27.7506 92.0317 27.8592 91.9253C29.3719 90.4781 31.8576 87.3941 32.3096 84.0807C33.098 79.7163 28.1693 77.6184 25.8647 80.5856C25.6241 80.8955 25.3152 81.2584 25.1203 81.5773C25.0318 81.7216 24.8286 81.7849 24.6795 81.7049C24.2626 81.4796 23.6317 81.2155 23.2326 81.0699C20.3768 80.0255 16.4737 83.3139 19.5302 87.4923C20.7456 89.4067 24.7952 91.5429 27.0205 92.1465Z" fill="url(#paint3_radial_287_31370)"/>
<path d="M27.0205 92.1465C27.1675 92.1854 27.3221 92.1855 27.4691 92.1468C27.6161 92.108 27.7506 92.0317 27.8592 91.9253C29.3719 90.4781 31.8576 87.3941 32.3096 84.0807C33.098 79.7163 28.1693 77.6184 25.8647 80.5856C25.6241 80.8955 25.3152 81.2584 25.1203 81.5773C25.0318 81.7216 24.8286 81.7849 24.6795 81.7049C24.2626 81.4796 23.6317 81.2155 23.2326 81.0699C20.3768 80.0255 16.4737 83.3139 19.5302 87.4923C20.7456 89.4067 24.7952 91.5429 27.0205 92.1465Z" fill="url(#paint4_radial_287_31370)"/>
<path d="M27.0205 92.1465C27.1675 92.1854 27.3221 92.1855 27.4691 92.1468C27.6161 92.108 27.7506 92.0317 27.8592 91.9253C29.3719 90.4781 31.8576 87.3941 32.3096 84.0807C33.098 79.7163 28.1693 77.6184 25.8647 80.5856C25.6241 80.8955 25.3152 81.2584 25.1203 81.5773C25.0318 81.7216 24.8286 81.7849 24.6795 81.7049C24.2626 81.4796 23.6317 81.2155 23.2326 81.0699C20.3768 80.0255 16.4737 83.3139 19.5302 87.4923C20.7456 89.4067 24.7952 91.5429 27.0205 92.1465Z" fill="url(#paint5_linear_287_31370)"/>
<path d="M27.0205 92.1465C27.1675 92.1854 27.3221 92.1855 27.4691 92.1468C27.6161 92.108 27.7506 92.0317 27.8592 91.9253C29.3719 90.4781 31.8576 87.3941 32.3096 84.0807C33.098 79.7163 28.1693 77.6184 25.8647 80.5856C25.6241 80.8955 25.3152 81.2584 25.1203 81.5773C25.0318 81.7216 24.8286 81.7849 24.6795 81.7049C24.2626 81.4796 23.6317 81.2155 23.2326 81.0699C20.3768 80.0255 16.4737 83.3139 19.5302 87.4923C20.7456 89.4067 24.7952 91.5429 27.0205 92.1465Z" fill="url(#paint6_linear_287_31370)"/>
<path d="M27.0205 92.1465C27.1675 92.1854 27.3221 92.1855 27.4691 92.1468C27.6161 92.108 27.7506 92.0317 27.8592 91.9253C29.3719 90.4781 31.8576 87.3941 32.3096 84.0807C33.098 79.7163 28.1693 77.6184 25.8647 80.5856C25.6241 80.8955 25.3152 81.2584 25.1203 81.5773C25.0318 81.7216 24.8286 81.7849 24.6795 81.7049C24.2626 81.4796 23.6317 81.2155 23.2326 81.0699C20.3768 80.0255 16.4737 83.3139 19.5302 87.4923C20.7456 89.4067 24.7952 91.5429 27.0205 92.1465Z" fill="url(#paint7_radial_287_31370)" fill-opacity="0.6"/>
<g filter="url(#filter5_f_287_31370)">
<path d="M25.0704 82.8772L25.9076 86.2351C26.0187 86.6805 26.6107 86.7572 26.8015 86.34C27.3916 85.0481 27.758 83.5657 26.7181 82.6886C26.3195 82.352 25.686 82.2308 25.2428 82.4302C25.0773 82.5044 25.0265 82.701 25.0705 82.8777" fill="#E808BB"/>
</g>
<g filter="url(#filter6_f_287_31370)">
<path d="M31.0759 83.2041C31.7348 82.1419 31.5549 80.8379 30.6741 80.2916C29.7933 79.7453 28.5451 80.1635 27.8863 81.2257C27.2275 82.2879 27.4074 83.5918 28.2882 84.1381C29.169 84.6845 30.4171 84.2663 31.0759 83.2041Z" fill="url(#paint8_radial_287_31370)"/>
</g>
<g filter="url(#filter7_f_287_31370)">
<path d="M28.2598 79.9284C28.7307 79.872 29.1028 79.746 29.091 79.647C29.0791 79.5479 28.6878 79.5134 28.2169 79.5699C27.746 79.6263 27.3739 79.7523 27.3857 79.8513C27.3976 79.9504 27.789 79.9849 28.2598 79.9284Z" fill="#FF7383"/>
</g>
<g filter="url(#filter8_f_287_31370)">
<path d="M21.3445 81.591C21.7561 81.483 22.0754 81.3408 22.0577 81.2733C22.04 81.2059 21.692 81.2387 21.2804 81.3466C20.8688 81.4546 20.5495 81.5968 20.5672 81.6643C20.5849 81.7317 20.9329 81.6989 21.3445 81.591Z" fill="#FF93BA" fill-opacity="0.5"/>
</g>
<g filter="url(#filter9_f_287_31370)">
<path d="M24.476 82.7232L25.8878 87.7293C21.6836 85.2814 20.4563 83.1326 21.6237 82.2906C22.7314 81.4917 23.9151 82.046 24.476 82.7232Z" fill="url(#paint9_radial_287_31370)"/>
</g>
<g filter="url(#filter10_f_287_31370)">
<path d="M24.1547 82.4892C23.7266 82.5332 23.5131 82.2221 23.46 82.0613C23.7575 82.2485 23.994 82.2115 24.075 82.1693L24.1547 82.4892Z" fill="#FF7383"/>
</g>
<path d="M91.6459 36.5301C91.7452 36.6223 91.8668 36.687 91.9987 36.718C92.1306 36.749 92.2684 36.7452 92.3984 36.707C94.194 36.2011 97.44 34.8145 99.1818 32.3966C101.628 29.2924 98.6277 25.5798 95.573 26.9503C95.2541 27.0935 94.8592 27.2498 94.5725 27.4191C94.4425 27.4957 94.2561 27.4605 94.1723 27.3352C93.9386 26.9835 93.5526 26.5118 93.2995 26.2302C91.4894 24.2137 87.0427 25.1682 87.6995 29.7345C87.8549 31.7493 90.1475 35.1242 91.6459 36.5301Z" fill="url(#paint10_radial_287_31370)"/>
<path d="M91.6459 36.5301C91.7452 36.6223 91.8668 36.687 91.9987 36.718C92.1306 36.749 92.2684 36.7452 92.3984 36.707C94.194 36.2011 97.44 34.8145 99.1818 32.3966C101.628 29.2924 98.6277 25.5798 95.573 26.9503C95.2541 27.0935 94.8592 27.2498 94.5725 27.4191C94.4425 27.4957 94.2561 27.4605 94.1723 27.3352C93.9386 26.9835 93.5526 26.5118 93.2995 26.2302C91.4894 24.2137 87.0427 25.1682 87.6995 29.7345C87.8549 31.7493 90.1475 35.1242 91.6459 36.5301Z" fill="url(#paint11_radial_287_31370)"/>
<path d="M91.6459 36.5301C91.7452 36.6223 91.8668 36.687 91.9987 36.718C92.1306 36.749 92.2684 36.7452 92.3984 36.707C94.194 36.2011 97.44 34.8145 99.1818 32.3966C101.628 29.2924 98.6277 25.5798 95.573 26.9503C95.2541 27.0935 94.8592 27.2498 94.5725 27.4191C94.4425 27.4957 94.2561 27.4605 94.1723 27.3352C93.9386 26.9835 93.5526 26.5118 93.2995 26.2302C91.4894 24.2137 87.0427 25.1682 87.6995 29.7345C87.8549 31.7493 90.1475 35.1242 91.6459 36.5301Z" fill="url(#paint12_radial_287_31370)"/>
<path d="M91.6459 36.5301C91.7452 36.6223 91.8668 36.687 91.9987 36.718C92.1306 36.749 92.2684 36.7452 92.3984 36.707C94.194 36.2011 97.44 34.8145 99.1818 32.3966C101.628 29.2924 98.6277 25.5798 95.573 26.9503C95.2541 27.0935 94.8592 27.2498 94.5725 27.4191C94.4425 27.4957 94.2561 27.4605 94.1723 27.3352C93.9386 26.9835 93.5526 26.5118 93.2995 26.2302C91.4894 24.2137 87.0427 25.1682 87.6995 29.7345C87.8549 31.7493 90.1475 35.1242 91.6459 36.5301Z" fill="url(#paint13_radial_287_31370)"/>
<path d="M91.6459 36.5301C91.7452 36.6223 91.8668 36.687 91.9987 36.718C92.1306 36.749 92.2684 36.7452 92.3984 36.707C94.194 36.2011 97.44 34.8145 99.1818 32.3966C101.628 29.2924 98.6277 25.5798 95.573 26.9503C95.2541 27.0935 94.8592 27.2498 94.5725 27.4191C94.4425 27.4957 94.2561 27.4605 94.1723 27.3352C93.9386 26.9835 93.5526 26.5118 93.2995 26.2302C91.4894 24.2137 87.0427 25.1682 87.6995 29.7345C87.8549 31.7493 90.1475 35.1242 91.6459 36.5301Z" fill="url(#paint14_linear_287_31370)"/>
<path d="M91.6459 36.5301C91.7452 36.6223 91.8668 36.687 91.9987 36.718C92.1306 36.749 92.2684 36.7452 92.3984 36.707C94.194 36.2011 97.44 34.8145 99.1818 32.3966C101.628 29.2924 98.6277 25.5798 95.573 26.9503C95.2541 27.0935 94.8592 27.2498 94.5725 27.4191C94.4425 27.4957 94.2561 27.4605 94.1723 27.3352C93.9386 26.9835 93.5526 26.5118 93.2995 26.2302C91.4894 24.2137 87.0427 25.1682 87.6995 29.7345C87.8549 31.7493 90.1475 35.1242 91.6459 36.5301Z" fill="url(#paint15_linear_287_31370)"/>
<path d="M91.6459 36.5301C91.7452 36.6223 91.8668 36.687 91.9987 36.718C92.1306 36.749 92.2684 36.7452 92.3984 36.707C94.194 36.2011 97.44 34.8145 99.1818 32.3966C101.628 29.2924 98.6277 25.5798 95.573 26.9503C95.2541 27.0935 94.8592 27.2498 94.5725 27.4191C94.4425 27.4957 94.2561 27.4605 94.1723 27.3352C93.9386 26.9835 93.5526 26.5118 93.2995 26.2302C91.4894 24.2137 87.0427 25.1682 87.6995 29.7345C87.8549 31.7493 90.1475 35.1242 91.6459 36.5301Z" fill="url(#paint16_radial_287_31370)" fill-opacity="0.6"/>
<g filter="url(#filter11_f_287_31370)">
<path d="M93.9892 28.4213L93.2431 31.4136C93.1441 31.8105 93.5779 32.1185 93.9026 31.8701C94.9073 31.1004 95.8158 30.0874 95.3645 28.9622C95.1917 28.5306 94.744 28.1702 94.3118 28.1416C94.1506 28.1308 94.0283 28.2643 93.9891 28.4217" fill="#E808BB"/>
</g>
<g filter="url(#filter12_f_287_31370)">
<path d="M98.5785 31.1912C99.5413 30.6311 99.9452 29.5299 99.4808 28.7315C99.0163 27.9332 97.8593 27.74 96.8966 28.3002C95.9338 28.8603 95.5298 29.9615 95.9943 30.7599C96.4588 31.5582 97.6158 31.7513 98.5785 31.1912Z" fill="url(#paint17_radial_287_31370)"/>
</g>
<g filter="url(#filter13_f_287_31370)">
<path d="M97.7322 27.4353C98.1263 27.5879 98.4718 27.6444 98.5039 27.5615C98.536 27.4786 98.2425 27.2878 97.8484 27.1352C97.4543 26.9826 97.1088 26.9261 97.0767 27.0089C97.0446 27.0918 97.3381 27.2827 97.7322 27.4353Z" fill="#FF7383"/>
</g>
<g filter="url(#filter14_f_287_31370)">
<path d="M91.5959 25.8501C91.9649 25.9373 92.2756 25.959 92.2899 25.8985C92.3042 25.838 92.0167 25.7183 91.6476 25.631C91.2786 25.5438 90.9679 25.5221 90.9536 25.5825C90.9393 25.643 91.2268 25.7628 91.5959 25.8501Z" fill="#FF93BA" fill-opacity="0.5"/>
</g>
<g filter="url(#filter15_f_287_31370)">
<path d="M93.586 28.0514L92.6025 32.5809C90.3187 28.896 90.2519 26.6919 91.5228 26.5178C92.7286 26.3526 93.428 27.2839 93.586 28.0514Z" fill="url(#paint18_radial_287_31370)"/>
</g>
<g filter="url(#filter16_f_287_31370)">
<path d="M93.4331 27.7335C93.0778 27.589 93.04 27.2549 93.0654 27.1061C93.2213 27.3779 93.4228 27.4477 93.5041 27.4484L93.4331 27.7335Z" fill="#FF7383"/>
</g>
<defs>
<filter id="filter0_d_287_31370" x="13.5" y="17.4999" width="97.1465" height="97.1466" filterUnits="userSpaceOnUse" color-interpolation-filters="sRGB">
<feFlood flood-opacity="0" result="BackgroundImageFix"/>
<feColorMatrix in="SourceAlpha" type="matrix" values="0 0 0 0 0 0 0 0 0 0 0 0 0 0 0 0 0 0 127 0" result="hardAlpha"/>
<feOffset dy="4"/>
<feGaussianBlur stdDeviation="2"/>
<feComposite in2="hardAlpha" operator="out"/>
<feColorMatrix type="matrix" values="0 0 0 0 0 0 0 0 0 0 0 0 0 0 0 0 0 0 0.25 0"/>
<feBlend mode="normal" in2="BackgroundImageFix" result="effect1_dropShadow_287_31370"/>
<feBlend mode="normal" in="SourceGraphic" in2="effect1_dropShadow_287_31370" result="shape"/>
</filter>
<filter id="filter1_d_287_31370" x="32.7861" y="94.5" width="64.7852" height="26.8934" filterUnits="userSpaceOnUse" color-interpolation-filters="sRGB">
<feFlood flood-opacity="0" result="BackgroundImageFix"/>
<feColorMatrix in="SourceAlpha" type="matrix" values="0 0 0 0 0 0 0 0 0 0 0 0 0 0 0 0 0 0 127 0" result="hardAlpha"/>
<feOffset dx="3" dy="3"/>
<feGaussianBlur stdDeviation="2.25"/>
<feComposite in2="hardAlpha" operator="out"/>
<feColorMatrix type="matrix" values="0 0 0 0 0.203922 0 0 0 0 0.360784 0 0 0 0 0.180392 0 0 0 0.15 0"/>
<feBlend mode="normal" in2="BackgroundImageFix" result="effect1_dropShadow_287_31370"/>
<feBlend mode="normal" in="SourceGraphic" in2="effect1_dropShadow_287_31370" result="shape"/>
</filter>
<filter id="filter2_ii_287_31370" x="32.7441" y="28.5365" width="59.7979" height="67.189" filterUnits="userSpaceOnUse" color-interpolation-filters="sRGB">
<feFlood flood-opacity="0" result="BackgroundImageFix"/>
<feBlend mode="normal" in="SourceGraphic" in2="BackgroundImageFix" result="shape"/>
<feColorMatrix in="SourceAlpha" type="matrix" values="0 0 0 0 0 0 0 0 0 0 0 0 0 0 0 0 0 0 127 0" result="hardAlpha"/>
<feOffset dy="4"/>
<feGaussianBlur stdDeviation="2"/>
<feComposite in2="hardAlpha" operator="arithmetic" k2="-1" k3="1"/>
<feColorMatrix type="matrix" values="0 0 0 0 0.67451 0 0 0 0 0.67451 0 0 0 0 0.67451 0 0 0 0.25 0"/>
<feBlend mode="normal" in2="shape" result="effect1_innerShadow_287_31370"/>
<feColorMatrix in="SourceAlpha" type="matrix" values="0 0 0 0 0 0 0 0 0 0 0 0 0 0 0 0 0 0 127 0" result="hardAlpha"/>
<feOffset dy="-6"/>
<feGaussianBlur stdDeviation="2"/>
<feComposite in2="hardAlpha" operator="arithmetic" k2="-1" k3="1"/>
<feColorMatrix type="matrix" values="0 0 0 0 0.141176 0 0 0 0 0.141176 0 0 0 0 0.141176 0 0 0 0.25 0"/>
<feBlend mode="normal" in2="effect1_innerShadow_287_31370" result="effect2_innerShadow_287_31370"/>
</filter>
<filter id="filter3_ii_287_31370" x="54.7432" y="54.8222" width="3.33594" height="7.57139" filterUnits="userSpaceOnUse" color-interpolation-filters="sRGB">
<feFlood flood-opacity="0" result="BackgroundImageFix"/>
<feBlend mode="normal" in="SourceGraphic" in2="BackgroundImageFix" result="shape"/>
<feColorMatrix in="SourceAlpha" type="matrix" values="0 0 0 0 0 0 0 0 0 0 0 0 0 0 0 0 0 0 127 0" result="hardAlpha"/>
<feOffset dy="-1"/>
<feGaussianBlur stdDeviation="0.45"/>
<feComposite in2="hardAlpha" operator="arithmetic" k2="-1" k3="1"/>
<feColorMatrix type="matrix" values="0 0 0 0 1 0 0 0 0 1 0 0 0 0 1 0 0 0 0.25 0"/>
<feBlend mode="normal" in2="shape" result="effect1_innerShadow_287_31370"/>
<feColorMatrix in="SourceAlpha" type="matrix" values="0 0 0 0 0 0 0 0 0 0 0 0 0 0 0 0 0 0 127 0" result="hardAlpha"/>
<feOffset/>
<feGaussianBlur stdDeviation="0.4"/>
<feComposite in2="hardAlpha" operator="arithmetic" k2="-1" k3="1"/>
<feColorMatrix type="matrix" values="0 0 0 0 0.958333 0 0 0 0 0.958333 0 0 0 0 0.958333 0 0 0 0.25 0"/>
<feBlend mode="normal" in2="effect1_innerShadow_287_31370" result="effect2_innerShadow_287_31370"/>
</filter>
<filter id="filter4_ii_287_31370" x="66.418" y="54.8222" width="3.33594" height="7.57139" filterUnits="userSpaceOnUse" color-interpolation-filters="sRGB">
<feFlood flood-opacity="0" result="BackgroundImageFix"/>
<feBlend mode="normal" in="SourceGraphic" in2="BackgroundImageFix" result="shape"/>
<feColorMatrix in="SourceAlpha" type="matrix" values="0 0 0 0 0 0 0 0 0 0 0 0 0 0 0 0 0 0 127 0" result="hardAlpha"/>
<feOffset dy="-1"/>
<feGaussianBlur stdDeviation="0.45"/>
<feComposite in2="hardAlpha" operator="arithmetic" k2="-1" k3="1"/>
<feColorMatrix type="matrix" values="0 0 0 0 1 0 0 0 0 1 0 0 0 0 1 0 0 0 0.25 0"/>
<feBlend mode="normal" in2="shape" result="effect1_innerShadow_287_31370"/>
<feColorMatrix in="SourceAlpha" type="matrix" values="0 0 0 0 0 0 0 0 0 0 0 0 0 0 0 0 0 0 127 0" result="hardAlpha"/>
<feOffset/>
<feGaussianBlur stdDeviation="0.4"/>
<feComposite in2="hardAlpha" operator="arithmetic" k2="-1" k3="1"/>
<feColorMatrix type="matrix" values="0 0 0 0 0.958333 0 0 0 0 0.958333 0 0 0 0 0.958333 0 0 0 0.25 0"/>
<feBlend mode="normal" in2="effect1_innerShadow_287_31370" result="effect2_innerShadow_287_31370"/>
</filter>
<filter id="filter5_f_287_31370" x="24.0557" y="81.3337" width="4.32031" height="6.28088" filterUnits="userSpaceOnUse" color-interpolation-filters="sRGB">
<feFlood flood-opacity="0" result="BackgroundImageFix"/>
<feBlend mode="normal" in="SourceGraphic" in2="BackgroundImageFix" result="shape"/>
<feGaussianBlur stdDeviation="0.5" result="effect1_foregroundBlur_287_31370"/>
</filter>
<filter id="filter6_f_287_31370" x="26.7393" y="79.3017" width="5.4834" height="5.82635" filterUnits="userSpaceOnUse" color-interpolation-filters="sRGB">
<feFlood flood-opacity="0" result="BackgroundImageFix"/>
<feBlend mode="normal" in="SourceGraphic" in2="BackgroundImageFix" result="shape"/>
<feGaussianBlur stdDeviation="0.375" result="effect1_foregroundBlur_287_31370"/>
</filter>
<filter id="filter7_f_287_31370" x="26.3857" y="78.5427" width="3.70508" height="2.41284" filterUnits="userSpaceOnUse" color-interpolation-filters="sRGB">
<feFlood flood-opacity="0" result="BackgroundImageFix"/>
<feBlend mode="normal" in="SourceGraphic" in2="BackgroundImageFix" result="shape"/>
<feGaussianBlur stdDeviation="0.5" result="effect1_foregroundBlur_287_31370"/>
</filter>
<filter id="filter8_f_287_31370" x="19.8164" y="80.4883" width="2.99219" height="1.96106" filterUnits="userSpaceOnUse" color-interpolation-filters="sRGB">
<feFlood flood-opacity="0" result="BackgroundImageFix"/>
<feBlend mode="normal" in="SourceGraphic" in2="BackgroundImageFix" result="shape"/>
<feGaussianBlur stdDeviation="0.375" result="effect1_foregroundBlur_287_31370"/>
</filter>
<filter id="filter9_f_287_31370" x="19.7051" y="80.3962" width="7.68262" height="8.83307" filterUnits="userSpaceOnUse" color-interpolation-filters="sRGB">
<feFlood flood-opacity="0" result="BackgroundImageFix"/>
<feBlend mode="normal" in="SourceGraphic" in2="BackgroundImageFix" result="shape"/>
<feGaussianBlur stdDeviation="0.75" result="effect1_foregroundBlur_287_31370"/>
</filter>
<filter id="filter10_f_287_31370" x="22.96" y="81.5613" width="1.69434" height="1.43213" filterUnits="userSpaceOnUse" color-interpolation-filters="sRGB">
<feFlood flood-opacity="0" result="BackgroundImageFix"/>
<feBlend mode="normal" in="SourceGraphic" in2="BackgroundImageFix" result="shape"/>
<feGaussianBlur stdDeviation="0.25" result="effect1_foregroundBlur_287_31370"/>
</filter>
<filter id="filter11_f_287_31370" x="92.2285" y="27.141" width="4.25488" height="5.81836" filterUnits="userSpaceOnUse" color-interpolation-filters="sRGB">
<feFlood flood-opacity="0" result="BackgroundImageFix"/>
<feBlend mode="normal" in="SourceGraphic" in2="BackgroundImageFix" result="shape"/>
<feGaussianBlur stdDeviation="0.5" result="effect1_foregroundBlur_287_31370"/>
</filter>
<filter id="filter12_f_287_31370" x="95.0518" y="27.2297" width="5.37207" height="5.03192" filterUnits="userSpaceOnUse" color-interpolation-filters="sRGB">
<feFlood flood-opacity="0" result="BackgroundImageFix"/>
<feBlend mode="normal" in="SourceGraphic" in2="BackgroundImageFix" result="shape"/>
<feGaussianBlur stdDeviation="0.375" result="effect1_foregroundBlur_287_31370"/>
</filter>
<filter id="filter13_f_287_31370" x="96.0742" y="25.9708" width="3.43164" height="2.62891" filterUnits="userSpaceOnUse" color-interpolation-filters="sRGB">
<feFlood flood-opacity="0" result="BackgroundImageFix"/>
<feBlend mode="normal" in="SourceGraphic" in2="BackgroundImageFix" result="shape"/>
<feGaussianBlur stdDeviation="0.5" result="effect1_foregroundBlur_287_31370"/>
</filter>
<filter id="filter14_f_287_31370" x="90.2031" y="24.7983" width="2.83691" height="1.88452" filterUnits="userSpaceOnUse" color-interpolation-filters="sRGB">
<feFlood flood-opacity="0" result="BackgroundImageFix"/>
<feBlend mode="normal" in="SourceGraphic" in2="BackgroundImageFix" result="shape"/>
<feGaussianBlur stdDeviation="0.375" result="effect1_foregroundBlur_287_31370"/>
</filter>
<filter id="filter15_f_287_31370" x="89.1943" y="24.9985" width="5.8916" height="9.0824" filterUnits="userSpaceOnUse" color-interpolation-filters="sRGB">
<feFlood flood-opacity="0" result="BackgroundImageFix"/>
<feBlend mode="normal" in="SourceGraphic" in2="BackgroundImageFix" result="shape"/>
<feGaussianBlur stdDeviation="0.75" result="effect1_foregroundBlur_287_31370"/>
</filter>
<filter id="filter16_f_287_31370" x="92.5596" y="26.6061" width="1.44434" height="1.62738" filterUnits="userSpaceOnUse" color-interpolation-filters="sRGB">
<feFlood flood-opacity="0" result="BackgroundImageFix"/>
<feBlend mode="normal" in="SourceGraphic" in2="BackgroundImageFix" result="shape"/>
<feGaussianBlur stdDeviation="0.25" result="effect1_foregroundBlur_287_31370"/>
</filter>
<linearGradient id="paint0_linear_287_31370" x1="25.564" y1="36.5092" x2="98.5824" y2="87.6373" gradientUnits="userSpaceOnUse">
<stop stop-color="#FCF2FF"/>
<stop offset="1" stop-color="#E700B9"/>
</linearGradient>
<radialGradient id="paint1_radial_287_31370" cx="0" cy="0" r="1" gradientUnits="userSpaceOnUse" gradientTransform="translate(24.4563 80.4658) rotate(76) scale(11.6581 12.3771)">
<stop stop-color="#E808BB"/>
<stop offset="0.528" stop-color="#FF3B79"/>
<stop offset="1" stop-color="#F724B3"/>
</radialGradient>
<radialGradient id="paint2_radial_287_31370" cx="0" cy="0" r="1" gradientUnits="userSpaceOnUse" gradientTransform="translate(28.6742 82.4089) rotate(120.402) scale(10.7858 20.2028)">
<stop offset="0.798" stop-color="#C82092" stop-opacity="0"/>
<stop offset="0.908" stop-color="#E808BB"/>
</radialGradient>
<radialGradient id="paint3_radial_287_31370" cx="0" cy="0" r="1" gradientUnits="userSpaceOnUse" gradientTransform="translate(27.9725 85.943) rotate(-172.663) scale(11.5386 16.3115)">
<stop offset="0.41" stop-color="#B91D43" stop-opacity="0"/>
<stop offset="0.64" stop-color="#E808BB"/>
</radialGradient>
<radialGradient id="paint4_radial_287_31370" cx="0" cy="0" r="1" gradientUnits="userSpaceOnUse" gradientTransform="translate(25.3013 84.5322) rotate(76) scale(10.0425 10.0425)">
<stop offset="0.671" stop-color="#FF7AF2" stop-opacity="0"/>
<stop offset="0.934" stop-color="#FFBCE6"/>
</radialGradient>
<linearGradient id="paint5_linear_287_31370" x1="26.661" y1="85.4044" x2="31.7747" y2="89.1142" gradientUnits="userSpaceOnUse">
<stop offset="0.694" stop-color="#FF7AF2" stop-opacity="0"/>
<stop offset="0.934" stop-color="#FFBCE6"/>
</linearGradient>
<linearGradient id="paint6_linear_287_31370" x1="26.221" y1="85.7216" x2="22.8934" y2="92.0897" gradientUnits="userSpaceOnUse">
<stop offset="0.694" stop-color="#FF7AF2" stop-opacity="0"/>
<stop offset="0.934" stop-color="#FFBCE6"/>
</linearGradient>
<radialGradient id="paint7_radial_287_31370" cx="0" cy="0" r="1" gradientUnits="userSpaceOnUse" gradientTransform="translate(26.5601 83.7374) rotate(150.618) scale(8.73152 9.22128)">
<stop offset="0.802" stop-color="#FF73A6" stop-opacity="0"/>
<stop offset="1" stop-color="#FF93BA"/>
</radialGradient>
<radialGradient id="paint8_radial_287_31370" cx="0" cy="0" r="1" gradientUnits="userSpaceOnUse" gradientTransform="translate(30.6188 80.2607) rotate(114.737) scale(3.6983 4.91777)">
<stop stop-color="#FF7383"/>
<stop offset="1" stop-color="#FF7383" stop-opacity="0"/>
</radialGradient>
<radialGradient id="paint9_radial_287_31370" cx="0" cy="0" r="1" gradientUnits="userSpaceOnUse" gradientTransform="translate(25.6901 84.4477) rotate(-149.591) scale(6.43459 11.4225)">
<stop stop-color="#FF6274"/>
<stop offset="1" stop-color="#FF6274" stop-opacity="0"/>
</radialGradient>
<radialGradient id="paint10_radial_287_31370" cx="0" cy="0" r="1" gradientUnits="userSpaceOnUse" gradientTransform="translate(94.5151 26.2668) rotate(104) scale(10.3888 11.0295)">
<stop stop-color="#E808BB"/>
<stop offset="0.528" stop-color="#FF3B79"/>
<stop offset="1" stop-color="#F724B3"/>
</radialGradient>
<radialGradient id="paint11_radial_287_31370" cx="0" cy="0" r="1" gradientUnits="userSpaceOnUse" gradientTransform="translate(97.0208 29.5603) rotate(148.402) scale(9.61146 18.0032)">
<stop offset="0.798" stop-color="#C82092" stop-opacity="0"/>
<stop offset="0.908" stop-color="#E808BB"/>
</radialGradient>
<radialGradient id="paint12_radial_287_31370" cx="0" cy="0" r="1" gradientUnits="userSpaceOnUse" gradientTransform="translate(94.9902 32.0474) rotate(-144.663) scale(10.2823 14.5356)">
<stop offset="0.41" stop-color="#B91D43" stop-opacity="0"/>
<stop offset="0.64" stop-color="#E808BB"/>
</radialGradient>
<radialGradient id="paint13_radial_287_31370" cx="0" cy="0" r="1" gradientUnits="userSpaceOnUse" gradientTransform="translate(93.4787 29.8198) rotate(104) scale(8.94906)">
<stop offset="0.671" stop-color="#FF7AF2" stop-opacity="0"/>
<stop offset="0.934" stop-color="#FFBCE6"/>
</radialGradient>
<linearGradient id="paint14_linear_287_31370" x1="94.1836" y1="31.0749" x2="96.6551" y2="36.1333" gradientUnits="userSpaceOnUse">
<stop offset="0.694" stop-color="#FF7AF2" stop-opacity="0"/>
<stop offset="0.934" stop-color="#FFBCE6"/>
</linearGradient>
<linearGradient id="paint15_linear_287_31370" x1="93.7047" y1="31.1404" x2="88.4224" y2="34.7589" gradientUnits="userSpaceOnUse">
<stop offset="0.694" stop-color="#FF7AF2" stop-opacity="0"/>
<stop offset="0.934" stop-color="#FFBCE6"/>
</linearGradient>
<radialGradient id="paint16_radial_287_31370" cx="0" cy="0" r="1" gradientUnits="userSpaceOnUse" gradientTransform="translate(94.8016 29.7211) rotate(178.618) scale(7.78085 8.21729)">
<stop offset="0.802" stop-color="#FF73A6" stop-opacity="0"/>
<stop offset="1" stop-color="#FF93BA"/>
</radialGradient>
<radialGradient id="paint17_radial_287_31370" cx="0" cy="0" r="1" gradientUnits="userSpaceOnUse" gradientTransform="translate(99.4503 28.6841) rotate(142.737) scale(3.29563 4.38233)">
<stop stop-color="#FF7383"/>
<stop offset="1" stop-color="#FF7383" stop-opacity="0"/>
</radialGradient>
<radialGradient id="paint18_radial_287_31370" cx="0" cy="0" r="1" gradientUnits="userSpaceOnUse" gradientTransform="translate(93.8198 29.9162) rotate(-121.591) scale(5.73401 10.1788)">
<stop stop-color="#FF6274"/>
<stop offset="1" stop-color="#FF6274" stop-opacity="0"/>
</radialGradient>
</defs>
</svg>
