<svg width="125" height="125" viewBox="0 0 125 125" fill="none" xmlns="http://www.w3.org/2000/svg">
<g filter="url(#filter0_d_287_31369)">
<path d="M87.6372 25.5641C107.801 39.6827 112.701 67.4738 98.5824 87.6373C84.4638 107.801 56.6727 112.701 36.5092 98.5824C16.3457 84.4638 11.4454 56.6727 25.564 36.5092C39.6826 16.3458 67.4738 11.4454 87.6372 25.5641Z" fill="#FFFCEA"/>
</g>
<path fill-rule="evenodd" clip-rule="evenodd" d="M95.9958 85.8261C109.114 67.0912 104.561 41.269 85.8261 28.1507C67.0911 15.0323 41.269 19.5855 28.1506 38.3204C15.0323 57.0553 19.5854 82.8775 38.3204 95.9958C57.0553 109.114 82.8775 104.561 95.9958 85.8261ZM98.5824 87.6373C112.701 67.4738 107.801 39.6827 87.6372 25.5641C67.4738 11.4454 39.6826 16.3458 25.564 36.5092C11.4454 56.6727 16.3457 84.4638 36.5092 98.5824C56.6727 112.701 84.4638 107.801 98.5824 87.6373Z" fill="url(#paint0_linear_287_31369)"/>
<g filter="url(#filter1_ii_287_31369)">
<path d="M56.2249 34.9213C59.913 31.7416 65.3733 31.7416 69.0614 34.9213C70.8801 36.4893 73.21 37.3373 75.6111 37.3052C80.4802 37.24 84.663 40.7498 85.4444 45.5563C85.8297 47.9265 87.0694 50.0737 88.9294 51.5926C92.7013 54.6725 93.6494 60.0498 91.1585 64.234C89.9301 66.2974 89.4995 68.7391 89.9481 71.0982C90.8578 75.882 88.1276 80.6107 83.5299 82.2149C81.2626 83.0059 79.3633 84.5996 78.1905 86.6951C75.8124 90.9445 70.6814 92.812 66.1282 91.0855C63.8828 90.234 61.4035 90.234 59.1581 91.0855C54.6049 92.812 49.4739 90.9445 47.0958 86.6951C45.923 84.5996 44.0237 83.0059 41.7564 82.2149C37.1587 80.6107 34.4285 75.882 35.3382 71.0982C35.7868 68.7391 35.3562 66.2974 34.1278 64.234C31.6369 60.0498 32.585 54.6725 36.3569 51.5926C38.2169 50.0737 39.4566 47.9265 39.8419 45.5563C40.6233 40.7498 44.8061 37.24 49.6752 37.3052C52.0763 37.3373 54.4062 36.4893 56.2249 34.9213Z" fill="#DEDEDE"/>
</g>
<g filter="url(#filter2_ii_287_31369)">
<ellipse cx="56.411" cy="59.0579" rx="1.66785" ry="3.3357" fill="#2B2B2B"/>
</g>
<g filter="url(#filter3_ii_287_31369)">
<ellipse cx="68.0858" cy="59.0579" rx="1.66785" ry="3.3357" fill="#2B2B2B"/>
</g>
<g filter="url(#filter4_ii_287_31369)">
<path d="M85.8435 32.3265C89.5724 31.3943 92.3447 28.2657 92.8214 24.4518L93.0615 22.5306L93.3017 24.4518C93.7784 28.2657 96.5507 31.3943 100.28 32.3265C96.5507 33.2588 93.7784 36.3873 93.3017 40.2013L93.0615 42.1225L92.8214 40.2013C92.3447 36.3873 89.5724 33.2588 85.8435 32.3265Z" fill="#FDDB01"/>
</g>
<g filter="url(#filter5_ii_287_31369)">
<path d="M15.57 84.7347C19.6686 83.7566 22.721 80.4729 23.2451 76.4713L23.5099 74.449L23.7747 76.4713C24.2987 80.4729 27.3512 83.7566 31.4497 84.7347C27.3512 85.7128 24.2987 88.9965 23.7747 92.998L23.5099 95.0204L23.2451 92.998C22.721 88.9965 19.6686 85.7128 15.57 84.7347Z" fill="#FDDB01"/>
</g>
<defs>
<filter id="filter0_d_287_31369" x="13.5" y="17.4999" width="97.1465" height="97.1466" filterUnits="userSpaceOnUse" color-interpolation-filters="sRGB">
<feFlood flood-opacity="0" result="BackgroundImageFix"/>
<feColorMatrix in="SourceAlpha" type="matrix" values="0 0 0 0 0 0 0 0 0 0 0 0 0 0 0 0 0 0 127 0" result="hardAlpha"/>
<feOffset dy="4"/>
<feGaussianBlur stdDeviation="2"/>
<feComposite in2="hardAlpha" operator="out"/>
<feColorMatrix type="matrix" values="0 0 0 0 0 0 0 0 0 0 0 0 0 0 0 0 0 0 0.25 0"/>
<feBlend mode="normal" in2="BackgroundImageFix" result="effect1_dropShadow_287_31369"/>
<feBlend mode="normal" in="SourceGraphic" in2="effect1_dropShadow_287_31369" result="shape"/>
</filter>
<filter id="filter1_ii_287_31369" x="32.7441" y="28.5365" width="59.7979" height="67.189" filterUnits="userSpaceOnUse" color-interpolation-filters="sRGB">
<feFlood flood-opacity="0" result="BackgroundImageFix"/>
<feBlend mode="normal" in="SourceGraphic" in2="BackgroundImageFix" result="shape"/>
<feColorMatrix in="SourceAlpha" type="matrix" values="0 0 0 0 0 0 0 0 0 0 0 0 0 0 0 0 0 0 127 0" result="hardAlpha"/>
<feOffset dy="4"/>
<feGaussianBlur stdDeviation="2"/>
<feComposite in2="hardAlpha" operator="arithmetic" k2="-1" k3="1"/>
<feColorMatrix type="matrix" values="0 0 0 0 0.67451 0 0 0 0 0.67451 0 0 0 0 0.67451 0 0 0 0.25 0"/>
<feBlend mode="normal" in2="shape" result="effect1_innerShadow_287_31369"/>
<feColorMatrix in="SourceAlpha" type="matrix" values="0 0 0 0 0 0 0 0 0 0 0 0 0 0 0 0 0 0 127 0" result="hardAlpha"/>
<feOffset dy="-6"/>
<feGaussianBlur stdDeviation="2"/>
<feComposite in2="hardAlpha" operator="arithmetic" k2="-1" k3="1"/>
<feColorMatrix type="matrix" values="0 0 0 0 0.141176 0 0 0 0 0.141176 0 0 0 0 0.141176 0 0 0 0.25 0"/>
<feBlend mode="normal" in2="effect1_innerShadow_287_31369" result="effect2_innerShadow_287_31369"/>
</filter>
<filter id="filter2_ii_287_31369" x="54.7432" y="54.8222" width="3.33594" height="7.57139" filterUnits="userSpaceOnUse" color-interpolation-filters="sRGB">
<feFlood flood-opacity="0" result="BackgroundImageFix"/>
<feBlend mode="normal" in="SourceGraphic" in2="BackgroundImageFix" result="shape"/>
<feColorMatrix in="SourceAlpha" type="matrix" values="0 0 0 0 0 0 0 0 0 0 0 0 0 0 0 0 0 0 127 0" result="hardAlpha"/>
<feOffset dy="-1"/>
<feGaussianBlur stdDeviation="0.45"/>
<feComposite in2="hardAlpha" operator="arithmetic" k2="-1" k3="1"/>
<feColorMatrix type="matrix" values="0 0 0 0 1 0 0 0 0 1 0 0 0 0 1 0 0 0 0.25 0"/>
<feBlend mode="normal" in2="shape" result="effect1_innerShadow_287_31369"/>
<feColorMatrix in="SourceAlpha" type="matrix" values="0 0 0 0 0 0 0 0 0 0 0 0 0 0 0 0 0 0 127 0" result="hardAlpha"/>
<feOffset/>
<feGaussianBlur stdDeviation="0.4"/>
<feComposite in2="hardAlpha" operator="arithmetic" k2="-1" k3="1"/>
<feColorMatrix type="matrix" values="0 0 0 0 0.958333 0 0 0 0 0.958333 0 0 0 0 0.958333 0 0 0 0.25 0"/>
<feBlend mode="normal" in2="effect1_innerShadow_287_31369" result="effect2_innerShadow_287_31369"/>
</filter>
<filter id="filter3_ii_287_31369" x="66.418" y="54.8222" width="3.33594" height="7.57139" filterUnits="userSpaceOnUse" color-interpolation-filters="sRGB">
<feFlood flood-opacity="0" result="BackgroundImageFix"/>
<feBlend mode="normal" in="SourceGraphic" in2="BackgroundImageFix" result="shape"/>
<feColorMatrix in="SourceAlpha" type="matrix" values="0 0 0 0 0 0 0 0 0 0 0 0 0 0 0 0 0 0 127 0" result="hardAlpha"/>
<feOffset dy="-1"/>
<feGaussianBlur stdDeviation="0.45"/>
<feComposite in2="hardAlpha" operator="arithmetic" k2="-1" k3="1"/>
<feColorMatrix type="matrix" values="0 0 0 0 1 0 0 0 0 1 0 0 0 0 1 0 0 0 0.25 0"/>
<feBlend mode="normal" in2="shape" result="effect1_innerShadow_287_31369"/>
<feColorMatrix in="SourceAlpha" type="matrix" values="0 0 0 0 0 0 0 0 0 0 0 0 0 0 0 0 0 0 127 0" result="hardAlpha"/>
<feOffset/>
<feGaussianBlur stdDeviation="0.4"/>
<feComposite in2="hardAlpha" operator="arithmetic" k2="-1" k3="1"/>
<feColorMatrix type="matrix" values="0 0 0 0 0.958333 0 0 0 0 0.958333 0 0 0 0 0.958333 0 0 0 0.25 0"/>
<feBlend mode="normal" in2="effect1_innerShadow_287_31369" result="effect2_innerShadow_287_31369"/>
</filter>
<filter id="filter4_ii_287_31369" x="83.2656" y="19.5306" width="19.5918" height="26.5919" filterUnits="userSpaceOnUse" color-interpolation-filters="sRGB">
<feFlood flood-opacity="0" result="BackgroundImageFix"/>
<feBlend mode="normal" in="SourceGraphic" in2="BackgroundImageFix" result="shape"/>
<feColorMatrix in="SourceAlpha" type="matrix" values="0 0 0 0 0 0 0 0 0 0 0 0 0 0 0 0 0 0 127 0" result="hardAlpha"/>
<feOffset dy="-3"/>
<feGaussianBlur stdDeviation="2"/>
<feComposite in2="hardAlpha" operator="arithmetic" k2="-1" k3="1"/>
<feColorMatrix type="matrix" values="0 0 0 0 0.616623 0 0 0 0 0.610129 0 0 0 0 0.226951 0 0 0 0.25 0"/>
<feBlend mode="normal" in2="shape" result="effect1_innerShadow_287_31369"/>
<feColorMatrix in="SourceAlpha" type="matrix" values="0 0 0 0 0 0 0 0 0 0 0 0 0 0 0 0 0 0 127 0" result="hardAlpha"/>
<feOffset dy="4"/>
<feGaussianBlur stdDeviation="2"/>
<feComposite in2="hardAlpha" operator="arithmetic" k2="-1" k3="1"/>
<feColorMatrix type="matrix" values="0 0 0 0 1 0 0 0 0 1 0 0 0 0 1 0 0 0 0.25 0"/>
<feBlend mode="normal" in2="effect1_innerShadow_287_31369" result="effect2_innerShadow_287_31369"/>
</filter>
<filter id="filter5_ii_287_31369" x="12.7344" y="71.449" width="21.5508" height="27.5714" filterUnits="userSpaceOnUse" color-interpolation-filters="sRGB">
<feFlood flood-opacity="0" result="BackgroundImageFix"/>
<feBlend mode="normal" in="SourceGraphic" in2="BackgroundImageFix" result="shape"/>
<feColorMatrix in="SourceAlpha" type="matrix" values="0 0 0 0 0 0 0 0 0 0 0 0 0 0 0 0 0 0 127 0" result="hardAlpha"/>
<feOffset dy="-3"/>
<feGaussianBlur stdDeviation="2"/>
<feComposite in2="hardAlpha" operator="arithmetic" k2="-1" k3="1"/>
<feColorMatrix type="matrix" values="0 0 0 0 0.616623 0 0 0 0 0.610129 0 0 0 0 0.226951 0 0 0 0.25 0"/>
<feBlend mode="normal" in2="shape" result="effect1_innerShadow_287_31369"/>
<feColorMatrix in="SourceAlpha" type="matrix" values="0 0 0 0 0 0 0 0 0 0 0 0 0 0 0 0 0 0 127 0" result="hardAlpha"/>
<feOffset dy="4"/>
<feGaussianBlur stdDeviation="2"/>
<feComposite in2="hardAlpha" operator="arithmetic" k2="-1" k3="1"/>
<feColorMatrix type="matrix" values="0 0 0 0 1 0 0 0 0 1 0 0 0 0 1 0 0 0 0.25 0"/>
<feBlend mode="normal" in2="effect1_innerShadow_287_31369" result="effect2_innerShadow_287_31369"/>
</filter>
<linearGradient id="paint0_linear_287_31369" x1="25.564" y1="36.5092" x2="98.5824" y2="87.6373" gradientUnits="userSpaceOnUse">
<stop stop-color="#FFF9D4"/>
<stop offset="1" stop-color="#FFDF10"/>
</linearGradient>
</defs>
</svg>
