<svg width="125" height="125" viewBox="0 0 125 125" fill="none" xmlns="http://www.w3.org/2000/svg">
<g filter="url(#filter0_d_287_31369)">
<path d="M87.6372 25.5641C107.801 39.6827 112.701 67.4738 98.5824 87.6373C84.4638 107.801 56.6727 112.701 36.5092 98.5824C16.3457 84.4638 11.4454 56.6727 25.564 36.5092C39.6826 16.3458 67.4738 11.4454 87.6372 25.5641Z" fill="#FFFCEA"/>
</g>
<path fill-rule="evenodd" clip-rule="evenodd" d="M95.9958 85.8261C109.114 67.0912 104.561 41.269 85.8261 28.1507C67.0911 15.0323 41.269 19.5855 28.1506 38.3204C15.0323 57.0553 19.5854 82.8775 38.3204 95.9958C57.0553 109.114 82.8775 104.561 95.9958 85.8261ZM98.5824 87.6373C112.701 67.4738 107.801 39.6827 87.6372 25.5641C67.4738 11.4454 39.6826 16.3458 25.564 36.5092C11.4454 56.6727 16.3457 84.4638 36.5092 98.5824C56.6727 112.701 84.4638 107.801 98.5824 87.6373Z" fill="url(#paint0_linear_287_31369)"/>
<g filter="url(#filter1_d_287_31369)">
<path d="M34.2861 104.947C34.2861 100.006 38.2917 96 43.2328 96H81.1247C86.0658 96 90.0714 100.006 90.0714 104.947C90.0714 109.888 86.0658 113.893 81.1247 113.893H43.2328C38.2917 113.893 34.2861 109.888 34.2861 104.947Z" fill="#FFF196"/>
</g>
<path d="M68.5624 109.434H67.2139L70.2441 101.013H71.7119L74.7421 109.434H73.3935L71.0129 102.543H70.9471L68.5624 109.434ZM68.7886 106.136H73.1632V107.205H68.7886V106.136Z" fill="#5E5E5E"/>
<path d="M66.6834 105.223C66.6834 106.123 66.519 106.895 66.19 107.542C65.8611 108.187 65.4102 108.683 64.8374 109.031C64.2672 109.376 63.619 109.549 62.8926 109.549C62.1635 109.549 61.5125 109.376 60.9396 109.031C60.3695 108.683 59.92 108.185 59.591 107.538C59.2621 106.891 59.0977 106.12 59.0977 105.223C59.0977 104.324 59.2621 103.553 59.591 102.909C59.92 102.262 60.3695 101.766 60.9396 101.42C61.5125 101.072 62.1635 100.898 62.8926 100.898C63.619 100.898 64.2672 101.072 64.8374 101.42C65.4102 101.766 65.8611 102.262 66.19 102.909C66.519 103.553 66.6834 104.324 66.6834 105.223ZM65.4253 105.223C65.4253 104.538 65.3143 103.961 65.0923 103.493C64.873 103.021 64.5715 102.665 64.1877 102.424C63.8067 102.18 63.375 102.058 62.8926 102.058C62.4074 102.058 61.9744 102.18 61.5934 102.424C61.2124 102.665 60.9108 103.021 60.6888 103.493C60.4695 103.961 60.3599 104.538 60.3599 105.223C60.3599 105.909 60.4695 106.487 60.6888 106.959C60.9108 107.427 61.2124 107.784 61.5934 108.028C61.9744 108.269 62.4074 108.389 62.8926 108.389C63.375 108.389 63.8067 108.269 64.1877 108.028C64.5715 107.784 64.873 107.427 65.0923 106.959C65.3143 106.487 65.4253 105.909 65.4253 105.223Z" fill="#5E5E5E"/>
<path d="M48.9795 101.013H50.5213L53.202 107.559H53.3007L55.9814 101.013H57.5233V109.434H56.3145V103.34H56.2363L53.753 109.421H52.7498L50.2664 103.336H50.1883V109.434H48.9795V101.013Z" fill="#5E5E5E"/>
<g filter="url(#filter2_ii_287_31369)">
<path d="M56.2249 34.9213C59.913 31.7416 65.3733 31.7416 69.0614 34.9213C70.8801 36.4893 73.21 37.3373 75.6111 37.3052C80.4802 37.24 84.663 40.7498 85.4444 45.5563C85.8297 47.9265 87.0694 50.0737 88.9294 51.5926C92.7013 54.6725 93.6494 60.0498 91.1585 64.234C89.9301 66.2974 89.4995 68.7391 89.9481 71.0982C90.8578 75.882 88.1276 80.6107 83.5299 82.2149C81.2626 83.0059 79.3633 84.5996 78.1905 86.6951C75.8124 90.9445 70.6814 92.812 66.1282 91.0855C63.8828 90.234 61.4035 90.234 59.1581 91.0855C54.6049 92.812 49.4739 90.9445 47.0958 86.6951C45.923 84.5996 44.0237 83.0059 41.7564 82.2149C37.1587 80.6107 34.4285 75.882 35.3382 71.0982C35.7868 68.7391 35.3562 66.2974 34.1278 64.234C31.6369 60.0498 32.585 54.6725 36.3569 51.5926C38.2169 50.0737 39.4566 47.9265 39.8419 45.5563C40.6233 40.7498 44.8061 37.24 49.6752 37.3052C52.0763 37.3373 54.4062 36.4893 56.2249 34.9213Z" fill="#DEDEDE"/>
</g>
<g filter="url(#filter3_ii_287_31369)">
<ellipse cx="56.411" cy="59.0579" rx="1.66785" ry="3.3357" fill="#2B2B2B"/>
</g>
<g filter="url(#filter4_ii_287_31369)">
<ellipse cx="68.0858" cy="59.0579" rx="1.66785" ry="3.3357" fill="#2B2B2B"/>
</g>
<g filter="url(#filter5_ii_287_31369)">
<path d="M85.8435 32.3265C89.5724 31.3943 92.3447 28.2657 92.8214 24.4518L93.0615 22.5306L93.3017 24.4518C93.7784 28.2657 96.5507 31.3943 100.28 32.3265C96.5507 33.2588 93.7784 36.3873 93.3017 40.2013L93.0615 42.1225L92.8214 40.2013C92.3447 36.3873 89.5724 33.2588 85.8435 32.3265Z" fill="#FDDB01"/>
</g>
<g filter="url(#filter6_ii_287_31369)">
<path d="M15.57 84.7347C19.6686 83.7566 22.721 80.4729 23.2451 76.4713L23.5099 74.449L23.7747 76.4713C24.2987 80.4729 27.3512 83.7566 31.4497 84.7347C27.3512 85.7128 24.2987 88.9965 23.7747 92.998L23.5099 95.0204L23.2451 92.998C22.721 88.9965 19.6686 85.7128 15.57 84.7347Z" fill="#FDDB01"/>
</g>
<defs>
<filter id="filter0_d_287_31369" x="13.5" y="17.4999" width="97.1465" height="97.1466" filterUnits="userSpaceOnUse" color-interpolation-filters="sRGB">
<feFlood flood-opacity="0" result="BackgroundImageFix"/>
<feColorMatrix in="SourceAlpha" type="matrix" values="0 0 0 0 0 0 0 0 0 0 0 0 0 0 0 0 0 0 127 0" result="hardAlpha"/>
<feOffset dy="4"/>
<feGaussianBlur stdDeviation="2"/>
<feComposite in2="hardAlpha" operator="out"/>
<feColorMatrix type="matrix" values="0 0 0 0 0 0 0 0 0 0 0 0 0 0 0 0 0 0 0.25 0"/>
<feBlend mode="normal" in2="BackgroundImageFix" result="effect1_dropShadow_287_31369"/>
<feBlend mode="normal" in="SourceGraphic" in2="effect1_dropShadow_287_31369" result="shape"/>
</filter>
<filter id="filter1_d_287_31369" x="32.7861" y="94.5" width="64.7852" height="26.8934" filterUnits="userSpaceOnUse" color-interpolation-filters="sRGB">
<feFlood flood-opacity="0" result="BackgroundImageFix"/>
<feColorMatrix in="SourceAlpha" type="matrix" values="0 0 0 0 0 0 0 0 0 0 0 0 0 0 0 0 0 0 127 0" result="hardAlpha"/>
<feOffset dx="3" dy="3"/>
<feGaussianBlur stdDeviation="2.25"/>
<feComposite in2="hardAlpha" operator="out"/>
<feColorMatrix type="matrix" values="0 0 0 0 0.203922 0 0 0 0 0.360784 0 0 0 0 0.180392 0 0 0 0.15 0"/>
<feBlend mode="normal" in2="BackgroundImageFix" result="effect1_dropShadow_287_31369"/>
<feBlend mode="normal" in="SourceGraphic" in2="effect1_dropShadow_287_31369" result="shape"/>
</filter>
<filter id="filter2_ii_287_31369" x="32.7441" y="28.5365" width="59.7979" height="67.189" filterUnits="userSpaceOnUse" color-interpolation-filters="sRGB">
<feFlood flood-opacity="0" result="BackgroundImageFix"/>
<feBlend mode="normal" in="SourceGraphic" in2="BackgroundImageFix" result="shape"/>
<feColorMatrix in="SourceAlpha" type="matrix" values="0 0 0 0 0 0 0 0 0 0 0 0 0 0 0 0 0 0 127 0" result="hardAlpha"/>
<feOffset dy="4"/>
<feGaussianBlur stdDeviation="2"/>
<feComposite in2="hardAlpha" operator="arithmetic" k2="-1" k3="1"/>
<feColorMatrix type="matrix" values="0 0 0 0 0.67451 0 0 0 0 0.67451 0 0 0 0 0.67451 0 0 0 0.25 0"/>
<feBlend mode="normal" in2="shape" result="effect1_innerShadow_287_31369"/>
<feColorMatrix in="SourceAlpha" type="matrix" values="0 0 0 0 0 0 0 0 0 0 0 0 0 0 0 0 0 0 127 0" result="hardAlpha"/>
<feOffset dy="-6"/>
<feGaussianBlur stdDeviation="2"/>
<feComposite in2="hardAlpha" operator="arithmetic" k2="-1" k3="1"/>
<feColorMatrix type="matrix" values="0 0 0 0 0.141176 0 0 0 0 0.141176 0 0 0 0 0.141176 0 0 0 0.25 0"/>
<feBlend mode="normal" in2="effect1_innerShadow_287_31369" result="effect2_innerShadow_287_31369"/>
</filter>
<filter id="filter3_ii_287_31369" x="54.7432" y="54.8222" width="3.33594" height="7.57139" filterUnits="userSpaceOnUse" color-interpolation-filters="sRGB">
<feFlood flood-opacity="0" result="BackgroundImageFix"/>
<feBlend mode="normal" in="SourceGraphic" in2="BackgroundImageFix" result="shape"/>
<feColorMatrix in="SourceAlpha" type="matrix" values="0 0 0 0 0 0 0 0 0 0 0 0 0 0 0 0 0 0 127 0" result="hardAlpha"/>
<feOffset dy="-1"/>
<feGaussianBlur stdDeviation="0.45"/>
<feComposite in2="hardAlpha" operator="arithmetic" k2="-1" k3="1"/>
<feColorMatrix type="matrix" values="0 0 0 0 1 0 0 0 0 1 0 0 0 0 1 0 0 0 0.25 0"/>
<feBlend mode="normal" in2="shape" result="effect1_innerShadow_287_31369"/>
<feColorMatrix in="SourceAlpha" type="matrix" values="0 0 0 0 0 0 0 0 0 0 0 0 0 0 0 0 0 0 127 0" result="hardAlpha"/>
<feOffset/>
<feGaussianBlur stdDeviation="0.4"/>
<feComposite in2="hardAlpha" operator="arithmetic" k2="-1" k3="1"/>
<feColorMatrix type="matrix" values="0 0 0 0 0.958333 0 0 0 0 0.958333 0 0 0 0 0.958333 0 0 0 0.25 0"/>
<feBlend mode="normal" in2="effect1_innerShadow_287_31369" result="effect2_innerShadow_287_31369"/>
</filter>
<filter id="filter4_ii_287_31369" x="66.418" y="54.8222" width="3.33594" height="7.57139" filterUnits="userSpaceOnUse" color-interpolation-filters="sRGB">
<feFlood flood-opacity="0" result="BackgroundImageFix"/>
<feBlend mode="normal" in="SourceGraphic" in2="BackgroundImageFix" result="shape"/>
<feColorMatrix in="SourceAlpha" type="matrix" values="0 0 0 0 0 0 0 0 0 0 0 0 0 0 0 0 0 0 127 0" result="hardAlpha"/>
<feOffset dy="-1"/>
<feGaussianBlur stdDeviation="0.45"/>
<feComposite in2="hardAlpha" operator="arithmetic" k2="-1" k3="1"/>
<feColorMatrix type="matrix" values="0 0 0 0 1 0 0 0 0 1 0 0 0 0 1 0 0 0 0.25 0"/>
<feBlend mode="normal" in2="shape" result="effect1_innerShadow_287_31369"/>
<feColorMatrix in="SourceAlpha" type="matrix" values="0 0 0 0 0 0 0 0 0 0 0 0 0 0 0 0 0 0 127 0" result="hardAlpha"/>
<feOffset/>
<feGaussianBlur stdDeviation="0.4"/>
<feComposite in2="hardAlpha" operator="arithmetic" k2="-1" k3="1"/>
<feColorMatrix type="matrix" values="0 0 0 0 0.958333 0 0 0 0 0.958333 0 0 0 0 0.958333 0 0 0 0.25 0"/>
<feBlend mode="normal" in2="effect1_innerShadow_287_31369" result="effect2_innerShadow_287_31369"/>
</filter>
<filter id="filter5_ii_287_31369" x="83.2656" y="19.5306" width="19.5918" height="26.5919" filterUnits="userSpaceOnUse" color-interpolation-filters="sRGB">
<feFlood flood-opacity="0" result="BackgroundImageFix"/>
<feBlend mode="normal" in="SourceGraphic" in2="BackgroundImageFix" result="shape"/>
<feColorMatrix in="SourceAlpha" type="matrix" values="0 0 0 0 0 0 0 0 0 0 0 0 0 0 0 0 0 0 127 0" result="hardAlpha"/>
<feOffset dy="-3"/>
<feGaussianBlur stdDeviation="2"/>
<feComposite in2="hardAlpha" operator="arithmetic" k2="-1" k3="1"/>
<feColorMatrix type="matrix" values="0 0 0 0 0.616623 0 0 0 0 0.610129 0 0 0 0 0.226951 0 0 0 0.25 0"/>
<feBlend mode="normal" in2="shape" result="effect1_innerShadow_287_31369"/>
<feColorMatrix in="SourceAlpha" type="matrix" values="0 0 0 0 0 0 0 0 0 0 0 0 0 0 0 0 0 0 127 0" result="hardAlpha"/>
<feOffset dy="4"/>
<feGaussianBlur stdDeviation="2"/>
<feComposite in2="hardAlpha" operator="arithmetic" k2="-1" k3="1"/>
<feColorMatrix type="matrix" values="0 0 0 0 1 0 0 0 0 1 0 0 0 0 1 0 0 0 0.25 0"/>
<feBlend mode="normal" in2="effect1_innerShadow_287_31369" result="effect2_innerShadow_287_31369"/>
</filter>
<filter id="filter6_ii_287_31369" x="12.7344" y="71.449" width="21.5508" height="27.5714" filterUnits="userSpaceOnUse" color-interpolation-filters="sRGB">
<feFlood flood-opacity="0" result="BackgroundImageFix"/>
<feBlend mode="normal" in="SourceGraphic" in2="BackgroundImageFix" result="shape"/>
<feColorMatrix in="SourceAlpha" type="matrix" values="0 0 0 0 0 0 0 0 0 0 0 0 0 0 0 0 0 0 127 0" result="hardAlpha"/>
<feOffset dy="-3"/>
<feGaussianBlur stdDeviation="2"/>
<feComposite in2="hardAlpha" operator="arithmetic" k2="-1" k3="1"/>
<feColorMatrix type="matrix" values="0 0 0 0 0.616623 0 0 0 0 0.610129 0 0 0 0 0.226951 0 0 0 0.25 0"/>
<feBlend mode="normal" in2="shape" result="effect1_innerShadow_287_31369"/>
<feColorMatrix in="SourceAlpha" type="matrix" values="0 0 0 0 0 0 0 0 0 0 0 0 0 0 0 0 0 0 127 0" result="hardAlpha"/>
<feOffset dy="4"/>
<feGaussianBlur stdDeviation="2"/>
<feComposite in2="hardAlpha" operator="arithmetic" k2="-1" k3="1"/>
<feColorMatrix type="matrix" values="0 0 0 0 1 0 0 0 0 1 0 0 0 0 1 0 0 0 0.25 0"/>
<feBlend mode="normal" in2="effect1_innerShadow_287_31369" result="effect2_innerShadow_287_31369"/>
</filter>
<linearGradient id="paint0_linear_287_31369" x1="25.564" y1="36.5092" x2="98.5824" y2="87.6373" gradientUnits="userSpaceOnUse">
<stop stop-color="#FFF9D4"/>
<stop offset="1" stop-color="#FFDF10"/>
</linearGradient>
</defs>
</svg>
