<svg width="125" height="125" viewBox="0 0 125 125" fill="none" xmlns="http://www.w3.org/2000/svg">
<path fill-rule="evenodd" clip-rule="evenodd" d="M95.9958 85.826C109.114 67.0911 104.561 41.2689 85.8261 28.1506C67.0911 15.0322 41.269 19.5854 28.1506 38.3203C15.0323 57.0553 19.5854 82.8774 38.3204 95.9958C57.0553 109.114 82.8775 104.561 95.9958 85.826ZM98.5824 87.6372C112.701 67.4737 107.801 39.6826 87.6372 25.564C67.4738 11.4454 39.6826 16.3457 25.564 36.5092C11.4454 56.6726 16.3457 84.4638 36.5092 98.5824C56.6727 112.701 84.4638 107.801 98.5824 87.6372Z" fill="#FF7CE5"/>
<g filter="url(#filter0_d_287_31367)">
<path d="M34.2861 104.947C34.2861 100.006 38.2917 96 43.2328 96H81.1247C86.0658 96 90.0714 100.006 90.0714 104.947C90.0714 109.888 86.0658 113.893 81.1247 113.893H43.2328C38.2917 113.893 34.2861 109.888 34.2861 104.947Z" fill="#FF7CE5"/>
</g>
<path d="M68.5624 109.433H67.2139L70.2441 101.013H71.7119L74.7421 109.433H73.3935L71.0129 102.543H70.9471L68.5624 109.433ZM68.7886 106.136H73.1632V107.205H68.7886V106.136Z" fill="#FAFAFA"/>
<path d="M66.6834 105.223C66.6834 106.122 66.519 106.895 66.19 107.542C65.8611 108.186 65.4102 108.682 64.8374 109.031C64.2672 109.376 63.619 109.549 62.8926 109.549C62.1635 109.549 61.5125 109.376 60.9396 109.031C60.3695 108.682 59.92 108.185 59.591 107.538C59.2621 106.891 59.0977 106.12 59.0977 105.223C59.0977 104.324 59.2621 103.553 59.591 102.908C59.92 102.262 60.3695 101.765 60.9396 101.42C61.5125 101.072 62.1635 100.898 62.8926 100.898C63.619 100.898 64.2672 101.072 64.8374 101.42C65.4102 101.765 65.8611 102.262 66.19 102.908C66.519 103.553 66.6834 104.324 66.6834 105.223ZM65.4253 105.223C65.4253 104.538 65.3143 103.961 65.0923 103.492C64.873 103.021 64.5715 102.665 64.1877 102.423C63.8067 102.179 63.375 102.057 62.8926 102.057C62.4074 102.057 61.9744 102.179 61.5934 102.423C61.2124 102.665 60.9108 103.021 60.6888 103.492C60.4695 103.961 60.3599 104.538 60.3599 105.223C60.3599 105.909 60.4695 106.487 60.6888 106.958C60.9108 107.427 61.2124 107.783 61.5934 108.027C61.9744 108.269 62.4074 108.389 62.8926 108.389C63.375 108.389 63.8067 108.269 64.1877 108.027C64.5715 107.783 64.873 107.427 65.0923 106.958C65.3143 106.487 65.4253 105.909 65.4253 105.223Z" fill="#FAFAFA"/>
<path d="M48.9795 101.013H50.5213L53.202 107.559H53.3007L55.9814 101.013H57.5233V109.434H56.3145V103.34H56.2363L53.753 109.421H52.7498L50.2664 103.336H50.1883V109.434H48.9795V101.013Z" fill="#FAFAFA"/>
<g filter="url(#filter1_ii_287_31367)">
<path d="M56.2249 33.9417C59.913 30.762 65.3733 30.762 69.0614 33.9417C70.8801 35.5097 73.21 36.3577 75.6111 36.3256C80.4802 36.2604 84.663 39.7702 85.4444 44.5767C85.8297 46.9469 87.0694 49.0941 88.9294 50.6129C92.7013 53.6928 93.6494 59.0702 91.1585 63.2544C89.9301 65.3178 89.4995 67.7595 89.9481 70.1186C90.8578 74.9024 88.1276 79.6311 83.5299 81.2353C81.2626 82.0263 79.3633 83.62 78.1905 85.7155C75.8124 89.9649 70.6814 91.8324 66.1282 90.1059C63.8828 89.2544 61.4035 89.2544 59.1581 90.1059C54.6049 91.8324 49.4739 89.9649 47.0958 85.7155C45.923 83.62 44.0237 82.0263 41.7564 81.2353C37.1587 79.6311 34.4285 74.9024 35.3382 70.1186C35.7868 67.7595 35.3562 65.3178 34.1278 63.2544C31.6369 59.0702 32.585 53.6928 36.3569 50.6129C38.2169 49.0941 39.4566 46.9469 39.8419 44.5767C40.6233 39.7702 44.8061 36.2604 49.6752 36.3256C52.0763 36.3577 54.4062 35.5097 56.2249 33.9417Z" fill="#DEDEDE"/>
</g>
<g filter="url(#filter2_ii_287_31367)">
<ellipse cx="56.411" cy="58.0783" rx="1.66785" ry="3.3357" fill="#2B2B2B"/>
</g>
<g filter="url(#filter3_ii_287_31367)">
<ellipse cx="68.0858" cy="58.0783" rx="1.66785" ry="3.3357" fill="#2B2B2B"/>
</g>
<defs>
<filter id="filter0_d_287_31367" x="32.7861" y="94.5" width="64.7852" height="26.8934" filterUnits="userSpaceOnUse" color-interpolation-filters="sRGB">
<feFlood flood-opacity="0" result="BackgroundImageFix"/>
<feColorMatrix in="SourceAlpha" type="matrix" values="0 0 0 0 0 0 0 0 0 0 0 0 0 0 0 0 0 0 127 0" result="hardAlpha"/>
<feOffset dx="3" dy="3"/>
<feGaussianBlur stdDeviation="2.25"/>
<feComposite in2="hardAlpha" operator="out"/>
<feColorMatrix type="matrix" values="0 0 0 0 0.203922 0 0 0 0 0.360784 0 0 0 0 0.180392 0 0 0 0.15 0"/>
<feBlend mode="normal" in2="BackgroundImageFix" result="effect1_dropShadow_287_31367"/>
<feBlend mode="normal" in="SourceGraphic" in2="effect1_dropShadow_287_31367" result="shape"/>
</filter>
<filter id="filter1_ii_287_31367" x="32.7441" y="27.5569" width="59.7979" height="67.189" filterUnits="userSpaceOnUse" color-interpolation-filters="sRGB">
<feFlood flood-opacity="0" result="BackgroundImageFix"/>
<feBlend mode="normal" in="SourceGraphic" in2="BackgroundImageFix" result="shape"/>
<feColorMatrix in="SourceAlpha" type="matrix" values="0 0 0 0 0 0 0 0 0 0 0 0 0 0 0 0 0 0 127 0" result="hardAlpha"/>
<feOffset dy="4"/>
<feGaussianBlur stdDeviation="2"/>
<feComposite in2="hardAlpha" operator="arithmetic" k2="-1" k3="1"/>
<feColorMatrix type="matrix" values="0 0 0 0 0.67451 0 0 0 0 0.67451 0 0 0 0 0.67451 0 0 0 0.25 0"/>
<feBlend mode="normal" in2="shape" result="effect1_innerShadow_287_31367"/>
<feColorMatrix in="SourceAlpha" type="matrix" values="0 0 0 0 0 0 0 0 0 0 0 0 0 0 0 0 0 0 127 0" result="hardAlpha"/>
<feOffset dy="-6"/>
<feGaussianBlur stdDeviation="2"/>
<feComposite in2="hardAlpha" operator="arithmetic" k2="-1" k3="1"/>
<feColorMatrix type="matrix" values="0 0 0 0 0.141176 0 0 0 0 0.141176 0 0 0 0 0.141176 0 0 0 0.25 0"/>
<feBlend mode="normal" in2="effect1_innerShadow_287_31367" result="effect2_innerShadow_287_31367"/>
</filter>
<filter id="filter2_ii_287_31367" x="54.7432" y="53.8426" width="3.33594" height="7.57139" filterUnits="userSpaceOnUse" color-interpolation-filters="sRGB">
<feFlood flood-opacity="0" result="BackgroundImageFix"/>
<feBlend mode="normal" in="SourceGraphic" in2="BackgroundImageFix" result="shape"/>
<feColorMatrix in="SourceAlpha" type="matrix" values="0 0 0 0 0 0 0 0 0 0 0 0 0 0 0 0 0 0 127 0" result="hardAlpha"/>
<feOffset dy="-1"/>
<feGaussianBlur stdDeviation="0.45"/>
<feComposite in2="hardAlpha" operator="arithmetic" k2="-1" k3="1"/>
<feColorMatrix type="matrix" values="0 0 0 0 1 0 0 0 0 1 0 0 0 0 1 0 0 0 0.25 0"/>
<feBlend mode="normal" in2="shape" result="effect1_innerShadow_287_31367"/>
<feColorMatrix in="SourceAlpha" type="matrix" values="0 0 0 0 0 0 0 0 0 0 0 0 0 0 0 0 0 0 127 0" result="hardAlpha"/>
<feOffset/>
<feGaussianBlur stdDeviation="0.4"/>
<feComposite in2="hardAlpha" operator="arithmetic" k2="-1" k3="1"/>
<feColorMatrix type="matrix" values="0 0 0 0 0.958333 0 0 0 0 0.958333 0 0 0 0 0.958333 0 0 0 0.25 0"/>
<feBlend mode="normal" in2="effect1_innerShadow_287_31367" result="effect2_innerShadow_287_31367"/>
</filter>
<filter id="filter3_ii_287_31367" x="66.418" y="53.8426" width="3.33594" height="7.57139" filterUnits="userSpaceOnUse" color-interpolation-filters="sRGB">
<feFlood flood-opacity="0" result="BackgroundImageFix"/>
<feBlend mode="normal" in="SourceGraphic" in2="BackgroundImageFix" result="shape"/>
<feColorMatrix in="SourceAlpha" type="matrix" values="0 0 0 0 0 0 0 0 0 0 0 0 0 0 0 0 0 0 127 0" result="hardAlpha"/>
<feOffset dy="-1"/>
<feGaussianBlur stdDeviation="0.45"/>
<feComposite in2="hardAlpha" operator="arithmetic" k2="-1" k3="1"/>
<feColorMatrix type="matrix" values="0 0 0 0 1 0 0 0 0 1 0 0 0 0 1 0 0 0 0.25 0"/>
<feBlend mode="normal" in2="shape" result="effect1_innerShadow_287_31367"/>
<feColorMatrix in="SourceAlpha" type="matrix" values="0 0 0 0 0 0 0 0 0 0 0 0 0 0 0 0 0 0 127 0" result="hardAlpha"/>
<feOffset/>
<feGaussianBlur stdDeviation="0.4"/>
<feComposite in2="hardAlpha" operator="arithmetic" k2="-1" k3="1"/>
<feColorMatrix type="matrix" values="0 0 0 0 0.958333 0 0 0 0 0.958333 0 0 0 0 0.958333 0 0 0 0.25 0"/>
<feBlend mode="normal" in2="effect1_innerShadow_287_31367" result="effect2_innerShadow_287_31367"/>
</filter>
</defs>
</svg>
