<svg width="125" height="125" viewBox="0 0 125 125" fill="none" xmlns="http://www.w3.org/2000/svg">
<g filter="url(#filter0_d_287_31371)">
<path d="M87.6372 25.564C107.801 39.6826 112.701 67.4737 98.5824 87.6372C84.4638 107.801 56.6727 112.701 36.5092 98.5824C16.3457 84.4638 11.4454 56.6726 25.564 36.5092C39.6826 16.3457 67.4738 11.4454 87.6372 25.564Z" fill="#F0FFF0"/>
</g>
<path fill-rule="evenodd" clip-rule="evenodd" d="M95.9958 85.826C109.114 67.0911 104.561 41.2689 85.8261 28.1506C67.0911 15.0322 41.269 19.5854 28.1506 38.3203C15.0323 57.0553 19.5854 82.8774 38.3204 95.9958C57.0553 109.114 82.8775 104.561 95.9958 85.826ZM98.5824 87.6372C112.701 67.4737 107.801 39.6826 87.6372 25.564C67.4738 11.4454 39.6826 16.3457 25.564 36.5092C11.4454 56.6726 16.3457 84.4638 36.5092 98.5824C56.6727 112.701 84.4638 107.801 98.5824 87.6372Z" fill="url(#paint0_linear_287_31371)"/>
<g filter="url(#filter1_ii_287_31371)">
<path d="M56.2249 34.9213C59.913 31.7416 65.3733 31.7416 69.0614 34.9213C70.8801 36.4893 73.21 37.3373 75.6111 37.3052C80.4802 37.24 84.663 40.7498 85.4444 45.5563C85.8297 47.9265 87.0694 50.0737 88.9294 51.5926C92.7013 54.6725 93.6494 60.0498 91.1585 64.234C89.9301 66.2974 89.4995 68.7391 89.9481 71.0982C90.8578 75.882 88.1276 80.6107 83.5299 82.2149C81.2626 83.0059 79.3633 84.5996 78.1905 86.6951C75.8124 90.9445 70.6814 92.812 66.1282 91.0855C63.8828 90.234 61.4035 90.234 59.1581 91.0855C54.6049 92.812 49.4739 90.9445 47.0958 86.6951C45.923 84.5996 44.0237 83.0059 41.7564 82.2149C37.1587 80.6107 34.4285 75.882 35.3382 71.0982C35.7868 68.7391 35.3562 66.2974 34.1278 64.234C31.6369 60.0498 32.585 54.6725 36.3569 51.5926C38.2169 50.0737 39.4566 47.9265 39.8419 45.5563C40.6233 40.7498 44.8061 37.24 49.6752 37.3052C52.0763 37.3373 54.4062 36.4893 56.2249 34.9213Z" fill="#DEDEDE"/>
</g>
<g filter="url(#filter2_ii_287_31371)">
<ellipse cx="56.411" cy="59.0579" rx="1.66785" ry="3.3357" fill="#2B2B2B"/>
</g>
<g filter="url(#filter3_ii_287_31371)">
<ellipse cx="68.0858" cy="59.0579" rx="1.66785" ry="3.3357" fill="#2B2B2B"/>
</g>
<g filter="url(#filter4_i_287_31371)">
<path d="M43.9658 45.1618L61.3694 46.8001L61.0365 49.6364C60.7147 52.379 58.2251 54.3925 55.4758 54.1337L48.0282 53.4326C45.279 53.1738 43.3112 50.7406 43.633 47.998L43.9658 45.1618Z" fill="#454545"/>
</g>
<rect width="20.8737" height="2.02888" rx="1" transform="matrix(0.995598 0.093723 -0.116549 0.993185 42.3584 43.1259)" fill="#454545"/>
<g filter="url(#filter5_i_287_31371)">
<path d="M80.7051 45.1618L63.3015 46.8001L63.6344 49.6364C63.9562 52.379 66.4458 54.3925 69.1951 54.1337L76.6427 53.4326C79.3919 53.1738 81.3597 50.7406 81.0379 47.998L80.7051 45.1618Z" fill="#454545"/>
</g>
<path d="M82.1654 44.0952C82.101 43.5467 81.6031 43.144 81.0532 43.1958L62.009 44.9885C61.4592 45.0403 61.0656 45.5269 61.13 46.0755L61.1334 46.1041C61.1977 46.6527 61.6956 47.0554 62.2455 47.0036L81.2897 45.2108C81.8395 45.1591 82.2331 44.6724 82.1687 44.1239L82.1654 44.0952Z" fill="#454545"/>
<defs>
<filter id="filter0_d_287_31371" x="13.5" y="17.4999" width="97.1465" height="97.1466" filterUnits="userSpaceOnUse" color-interpolation-filters="sRGB">
<feFlood flood-opacity="0" result="BackgroundImageFix"/>
<feColorMatrix in="SourceAlpha" type="matrix" values="0 0 0 0 0 0 0 0 0 0 0 0 0 0 0 0 0 0 127 0" result="hardAlpha"/>
<feOffset dy="4"/>
<feGaussianBlur stdDeviation="2"/>
<feComposite in2="hardAlpha" operator="out"/>
<feColorMatrix type="matrix" values="0 0 0 0 0 0 0 0 0 0 0 0 0 0 0 0 0 0 0.25 0"/>
<feBlend mode="normal" in2="BackgroundImageFix" result="effect1_dropShadow_287_31371"/>
<feBlend mode="normal" in="SourceGraphic" in2="effect1_dropShadow_287_31371" result="shape"/>
</filter>
<filter id="filter1_ii_287_31371" x="32.7441" y="28.5365" width="59.7979" height="67.189" filterUnits="userSpaceOnUse" color-interpolation-filters="sRGB">
<feFlood flood-opacity="0" result="BackgroundImageFix"/>
<feBlend mode="normal" in="SourceGraphic" in2="BackgroundImageFix" result="shape"/>
<feColorMatrix in="SourceAlpha" type="matrix" values="0 0 0 0 0 0 0 0 0 0 0 0 0 0 0 0 0 0 127 0" result="hardAlpha"/>
<feOffset dy="4"/>
<feGaussianBlur stdDeviation="2"/>
<feComposite in2="hardAlpha" operator="arithmetic" k2="-1" k3="1"/>
<feColorMatrix type="matrix" values="0 0 0 0 0.67451 0 0 0 0 0.67451 0 0 0 0 0.67451 0 0 0 0.25 0"/>
<feBlend mode="normal" in2="shape" result="effect1_innerShadow_287_31371"/>
<feColorMatrix in="SourceAlpha" type="matrix" values="0 0 0 0 0 0 0 0 0 0 0 0 0 0 0 0 0 0 127 0" result="hardAlpha"/>
<feOffset dy="-6"/>
<feGaussianBlur stdDeviation="2"/>
<feComposite in2="hardAlpha" operator="arithmetic" k2="-1" k3="1"/>
<feColorMatrix type="matrix" values="0 0 0 0 0.141176 0 0 0 0 0.141176 0 0 0 0 0.141176 0 0 0 0.25 0"/>
<feBlend mode="normal" in2="effect1_innerShadow_287_31371" result="effect2_innerShadow_287_31371"/>
</filter>
<filter id="filter2_ii_287_31371" x="54.7432" y="54.8222" width="3.33594" height="7.57139" filterUnits="userSpaceOnUse" color-interpolation-filters="sRGB">
<feFlood flood-opacity="0" result="BackgroundImageFix"/>
<feBlend mode="normal" in="SourceGraphic" in2="BackgroundImageFix" result="shape"/>
<feColorMatrix in="SourceAlpha" type="matrix" values="0 0 0 0 0 0 0 0 0 0 0 0 0 0 0 0 0 0 127 0" result="hardAlpha"/>
<feOffset dy="-1"/>
<feGaussianBlur stdDeviation="0.45"/>
<feComposite in2="hardAlpha" operator="arithmetic" k2="-1" k3="1"/>
<feColorMatrix type="matrix" values="0 0 0 0 1 0 0 0 0 1 0 0 0 0 1 0 0 0 0.25 0"/>
<feBlend mode="normal" in2="shape" result="effect1_innerShadow_287_31371"/>
<feColorMatrix in="SourceAlpha" type="matrix" values="0 0 0 0 0 0 0 0 0 0 0 0 0 0 0 0 0 0 127 0" result="hardAlpha"/>
<feOffset/>
<feGaussianBlur stdDeviation="0.4"/>
<feComposite in2="hardAlpha" operator="arithmetic" k2="-1" k3="1"/>
<feColorMatrix type="matrix" values="0 0 0 0 0.958333 0 0 0 0 0.958333 0 0 0 0 0.958333 0 0 0 0.25 0"/>
<feBlend mode="normal" in2="effect1_innerShadow_287_31371" result="effect2_innerShadow_287_31371"/>
</filter>
<filter id="filter3_ii_287_31371" x="66.418" y="54.8222" width="3.33594" height="7.57139" filterUnits="userSpaceOnUse" color-interpolation-filters="sRGB">
<feFlood flood-opacity="0" result="BackgroundImageFix"/>
<feBlend mode="normal" in="SourceGraphic" in2="BackgroundImageFix" result="shape"/>
<feColorMatrix in="SourceAlpha" type="matrix" values="0 0 0 0 0 0 0 0 0 0 0 0 0 0 0 0 0 0 127 0" result="hardAlpha"/>
<feOffset dy="-1"/>
<feGaussianBlur stdDeviation="0.45"/>
<feComposite in2="hardAlpha" operator="arithmetic" k2="-1" k3="1"/>
<feColorMatrix type="matrix" values="0 0 0 0 1 0 0 0 0 1 0 0 0 0 1 0 0 0 0.25 0"/>
<feBlend mode="normal" in2="shape" result="effect1_innerShadow_287_31371"/>
<feColorMatrix in="SourceAlpha" type="matrix" values="0 0 0 0 0 0 0 0 0 0 0 0 0 0 0 0 0 0 127 0" result="hardAlpha"/>
<feOffset/>
<feGaussianBlur stdDeviation="0.4"/>
<feComposite in2="hardAlpha" operator="arithmetic" k2="-1" k3="1"/>
<feColorMatrix type="matrix" values="0 0 0 0 0.958333 0 0 0 0 0.958333 0 0 0 0 0.958333 0 0 0 0.25 0"/>
<feBlend mode="normal" in2="effect1_innerShadow_287_31371" result="effect2_innerShadow_287_31371"/>
</filter>
<filter id="filter4_i_287_31371" x="43.5986" y="45.1618" width="17.7705" height="12.9943" filterUnits="userSpaceOnUse" color-interpolation-filters="sRGB">
<feFlood flood-opacity="0" result="BackgroundImageFix"/>
<feBlend mode="normal" in="SourceGraphic" in2="BackgroundImageFix" result="shape"/>
<feColorMatrix in="SourceAlpha" type="matrix" values="0 0 0 0 0 0 0 0 0 0 0 0 0 0 0 0 0 0 127 0" result="hardAlpha"/>
<feOffset dy="4"/>
<feGaussianBlur stdDeviation="2"/>
<feComposite in2="hardAlpha" operator="arithmetic" k2="-1" k3="1"/>
<feColorMatrix type="matrix" values="0 0 0 0 0.816623 0 0 0 0 0.816623 0 0 0 0 0.816623 0 0 0 0.25 0"/>
<feBlend mode="normal" in2="shape" result="effect1_innerShadow_287_31371"/>
</filter>
<filter id="filter5_i_287_31371" x="63.3018" y="45.1618" width="17.7705" height="12.9943" filterUnits="userSpaceOnUse" color-interpolation-filters="sRGB">
<feFlood flood-opacity="0" result="BackgroundImageFix"/>
<feBlend mode="normal" in="SourceGraphic" in2="BackgroundImageFix" result="shape"/>
<feColorMatrix in="SourceAlpha" type="matrix" values="0 0 0 0 0 0 0 0 0 0 0 0 0 0 0 0 0 0 127 0" result="hardAlpha"/>
<feOffset dy="4"/>
<feGaussianBlur stdDeviation="2"/>
<feComposite in2="hardAlpha" operator="arithmetic" k2="-1" k3="1"/>
<feColorMatrix type="matrix" values="0 0 0 0 0.816623 0 0 0 0 0.816623 0 0 0 0 0.816623 0 0 0 0.25 0"/>
<feBlend mode="normal" in2="shape" result="effect1_innerShadow_287_31371"/>
</filter>
<linearGradient id="paint0_linear_287_31371" x1="25.564" y1="36.5092" x2="98.5824" y2="87.6372" gradientUnits="userSpaceOnUse">
<stop stop-color="#E5FFF0"/>
<stop offset="1" stop-color="#4CD688"/>
</linearGradient>
</defs>
</svg>
